M48
; DRILL file {KiCad 7.0.2-0} date 2024 October 30, Wednesday 20:34:32
; FORMAT={-:-/ absolute / metric / decimal}
; #@! TF.CreationDate,2024-10-30T20:34:32-04:00
; #@! TF.GenerationSoftware,Kicad,Pcbnew,7.0.2-0
; #@! TF.FileFunction,Plated,1,2,PTH
FMAT,2
METRIC
; #@! TA.AperFunction,Plated,PTH,ViaDrill
T1C0.400
; #@! TA.AperFunction,Plated,PTH,ComponentDrill
T2C0.800
; #@! TA.AperFunction,Plated,PTH,ComponentDrill
T3C0.950
; #@! TA.AperFunction,Plated,PTH,ComponentDrill
T4C1.000
; #@! TA.AperFunction,Plated,PTH,ComponentDrill
T5C1.016
; #@! TA.AperFunction,Plated,PTH,ComponentDrill
T6C1.700
; #@! TA.AperFunction,Plated,PTH,ComponentDrill
T7C3.200
%
G90
G05
T1
X72.38Y-58.0
X77.5Y-98.5
T2
X72.38Y-63.045
X72.38Y-65.585
X72.38Y-68.125
X72.38Y-70.665
X72.38Y-73.205
X72.38Y-75.745
X72.38Y-78.285
X72.38Y-80.825
X72.38Y-83.365
X72.38Y-85.905
X72.38Y-88.445
X72.38Y-90.985
X72.38Y-93.525
X72.38Y-96.065
X72.38Y-98.605
X72.38Y-101.145
X72.38Y-103.685
X87.62Y-63.045
X87.62Y-65.585
X87.62Y-68.125
X87.62Y-70.665
X87.62Y-73.205
X87.62Y-75.745
X87.62Y-78.285
X87.62Y-80.825
X87.62Y-83.365
X87.62Y-85.905
X87.62Y-88.445
X87.62Y-90.985
X87.62Y-93.525
X87.62Y-96.065
X87.62Y-98.605
X87.62Y-101.145
X87.62Y-103.685
T3
X47.38Y-61.685
X47.38Y-74.605
X47.38Y-87.605
X47.38Y-100.605
X49.88Y-61.685
X49.88Y-74.605
X49.88Y-87.605
X49.88Y-100.605
X52.38Y-61.685
X52.38Y-74.605
X52.38Y-87.605
X52.38Y-100.605
X54.88Y-61.685
X54.88Y-74.605
X54.88Y-87.605
X54.88Y-100.605
X57.38Y-61.685
X57.38Y-74.605
X57.38Y-87.605
X57.38Y-100.605
X59.88Y-61.685
X59.88Y-74.605
X59.88Y-87.605
X59.88Y-100.605
X62.38Y-61.685
X62.38Y-74.605
X62.38Y-87.605
X62.38Y-100.605
X64.88Y-61.685
X64.88Y-74.605
X64.88Y-87.605
X64.88Y-100.605
X92.88Y-75.605
X92.88Y-88.605
X92.88Y-101.605
X95.38Y-75.605
X95.38Y-88.605
X95.38Y-101.605
X97.88Y-75.605
X97.88Y-88.605
X97.88Y-101.605
X100.38Y-75.605
X100.38Y-88.605
X100.38Y-101.605
X102.88Y-75.605
X102.88Y-88.605
X102.88Y-101.605
X105.38Y-75.605
X105.38Y-88.605
X105.38Y-101.605
X107.88Y-75.605
X107.88Y-88.605
X107.88Y-101.605
X110.38Y-75.605
X110.38Y-88.605
X110.38Y-101.605
T4
X52.5Y-56.0
X52.5Y-69.0
X52.5Y-82.0
X52.5Y-95.0
X53.96Y-49.25
X55.04Y-56.0
X55.04Y-69.0
X55.04Y-82.0
X55.04Y-95.0
X59.04Y-49.26
X95.5Y-62.5
X98.0Y-62.5
X102.735Y-69.0
X102.735Y-82.0
X102.84Y-95.0
X105.275Y-69.0
X105.275Y-82.0
X105.38Y-95.0
X108.0Y-62.5
X110.5Y-62.5
T5
X64.271Y-36.033
X64.271Y-53.178
X103.769Y-36.033
X103.769Y-53.178
T6
X54.242Y-38.45
X58.203Y-38.45
T7
X47.0Y-37.0
X47.0Y-108.0
X111.0Y-37.0
X111.0Y-108.0
T0
M30
