%TF.GenerationSoftware,KiCad,Pcbnew,7.0.2-0*%
%TF.CreationDate,2024-10-30T20:34:35-04:00*%
%TF.ProjectId,motherboard,6d6f7468-6572-4626-9f61-72642e6b6963,rev?*%
%TF.SameCoordinates,Original*%
%TF.FileFunction,Copper,L2,Bot*%
%TF.FilePolarity,Positive*%
%FSLAX46Y46*%
G04 Gerber Fmt 4.6, Leading zero omitted, Abs format (unit mm)*
G04 Created by KiCad (PCBNEW 7.0.2-0) date 2024-10-30 20:34:35*
%MOMM*%
%LPD*%
G01*
G04 APERTURE LIST*
G04 Aperture macros list*
%AMRoundRect*
0 Rectangle with rounded corners*
0 $1 Rounding radius*
0 $2 $3 $4 $5 $6 $7 $8 $9 X,Y pos of 4 corners*
0 Add a 4 corners polygon primitive as box body*
4,1,4,$2,$3,$4,$5,$6,$7,$8,$9,$2,$3,0*
0 Add four circle primitives for the rounded corners*
1,1,$1+$1,$2,$3*
1,1,$1+$1,$4,$5*
1,1,$1+$1,$6,$7*
1,1,$1+$1,$8,$9*
0 Add four rect primitives between the rounded corners*
20,1,$1+$1,$2,$3,$4,$5,0*
20,1,$1+$1,$4,$5,$6,$7,0*
20,1,$1+$1,$6,$7,$8,$9,0*
20,1,$1+$1,$8,$9,$2,$3,0*%
G04 Aperture macros list end*
%TA.AperFunction,ComponentPad*%
%ADD10RoundRect,0.250000X0.600000X0.725000X-0.600000X0.725000X-0.600000X-0.725000X0.600000X-0.725000X0*%
%TD*%
%TA.AperFunction,ComponentPad*%
%ADD11O,1.700000X1.950000*%
%TD*%
%TA.AperFunction,ComponentPad*%
%ADD12R,1.700000X1.700000*%
%TD*%
%TA.AperFunction,ComponentPad*%
%ADD13O,1.700000X1.700000*%
%TD*%
%TA.AperFunction,ComponentPad*%
%ADD14RoundRect,0.250000X0.600000X0.750000X-0.600000X0.750000X-0.600000X-0.750000X0.600000X-0.750000X0*%
%TD*%
%TA.AperFunction,ComponentPad*%
%ADD15O,1.700000X2.000000*%
%TD*%
%TA.AperFunction,ComponentPad*%
%ADD16RoundRect,0.250000X-0.600000X-0.725000X0.600000X-0.725000X0.600000X0.725000X-0.600000X0.725000X0*%
%TD*%
%TA.AperFunction,ComponentPad*%
%ADD17C,5.600000*%
%TD*%
%TA.AperFunction,ComponentPad*%
%ADD18C,2.000000*%
%TD*%
%TA.AperFunction,ComponentPad*%
%ADD19C,1.778000*%
%TD*%
%TA.AperFunction,ComponentPad*%
%ADD20RoundRect,0.250001X-1.099999X-1.099999X1.099999X-1.099999X1.099999X1.099999X-1.099999X1.099999X0*%
%TD*%
%TA.AperFunction,ComponentPad*%
%ADD21C,2.700000*%
%TD*%
%TA.AperFunction,ComponentPad*%
%ADD22R,1.600000X1.600000*%
%TD*%
%TA.AperFunction,ComponentPad*%
%ADD23O,1.600000X1.600000*%
%TD*%
%TA.AperFunction,ViaPad*%
%ADD24C,0.800000*%
%TD*%
%TA.AperFunction,Conductor*%
%ADD25C,0.500000*%
%TD*%
%TA.AperFunction,Conductor*%
%ADD26C,2.000000*%
%TD*%
G04 APERTURE END LIST*
D10*
%TO.P,J8,1,Pin_1*%
%TO.N,+5V*%
X110380000Y-88605000D03*
D11*
%TO.P,J8,2,Pin_2*%
%TO.N,GND*%
X107880000Y-88605000D03*
%TO.P,J8,3,Pin_3*%
%TO.N,Net-(J14-Pin_2)*%
X105380000Y-88605000D03*
%TO.P,J8,4,Pin_4*%
%TO.N,Net-(J15-Pin_2)*%
X102880000Y-88605000D03*
%TO.P,J8,5,Pin_5*%
%TO.N,AREF*%
X100380000Y-88605000D03*
%TO.P,J8,6,Pin_6*%
%TO.N,AXIS 1*%
X97880000Y-88605000D03*
%TO.P,J8,7,Pin_7*%
%TO.N,AXIS 2*%
X95380000Y-88605000D03*
%TO.P,J8,8,Pin_8*%
%TO.N,TWIST 1*%
X92880000Y-88605000D03*
%TD*%
D12*
%TO.P,J17,1,Pin_1*%
%TO.N,Net-(J11-Pin_2)*%
X52500000Y-82000000D03*
D13*
%TO.P,J17,2,Pin_2*%
%TO.N,Net-(J12-Pin_1)*%
X55040000Y-82000000D03*
%TD*%
D14*
%TO.P,J10,1,Pin_1*%
%TO.N,Net-(J10-Pin_1)*%
X98000000Y-62500000D03*
D15*
%TO.P,J10,2,Pin_2*%
%TO.N,unconnected-(J10-Pin_2-Pad2)*%
X95500000Y-62500000D03*
%TD*%
D12*
%TO.P,J12,1,Pin_1*%
%TO.N,Net-(J12-Pin_1)*%
X52500000Y-95000000D03*
D13*
%TO.P,J12,2,Pin_2*%
%TO.N,Net-(J12-Pin_2)*%
X55040000Y-95000000D03*
%TD*%
D10*
%TO.P,J9,1,Pin_1*%
%TO.N,+5V*%
X110380000Y-101605000D03*
D11*
%TO.P,J9,2,Pin_2*%
%TO.N,GND*%
X107880000Y-101605000D03*
%TO.P,J9,3,Pin_3*%
%TO.N,Net-(J15-Pin_2)*%
X105380000Y-101605000D03*
%TO.P,J9,4,Pin_4*%
%TO.N,Net-(J16-Pin_2)*%
X102880000Y-101605000D03*
%TO.P,J9,5,Pin_5*%
%TO.N,AREF*%
X100380000Y-101605000D03*
%TO.P,J9,6,Pin_6*%
%TO.N,AXIS 3*%
X97880000Y-101605000D03*
%TO.P,J9,7,Pin_7*%
%TO.N,AXIS 4*%
X95380000Y-101605000D03*
%TO.P,J9,8,Pin_8*%
%TO.N,TWIST 2 {slash} BT12*%
X92880000Y-101605000D03*
%TD*%
D16*
%TO.P,J3,1,Pin_1*%
%TO.N,+5V*%
X47380000Y-74605000D03*
D11*
%TO.P,J3,2,Pin_2*%
%TO.N,GND*%
X49880000Y-74605000D03*
%TO.P,J3,3,Pin_3*%
%TO.N,LED DOUT*%
X52380000Y-74605000D03*
%TO.P,J3,4,Pin_4*%
%TO.N,Net-(J11-Pin_2)*%
X54880000Y-74605000D03*
%TO.P,J3,5,Pin_5*%
%TO.N,BUTTON 1*%
X57380000Y-74605000D03*
%TO.P,J3,6,Pin_6*%
%TO.N,BUTTON 2*%
X59880000Y-74605000D03*
%TO.P,J3,7,Pin_7*%
%TO.N,BUTTON 3*%
X62380000Y-74605000D03*
%TO.P,J3,8,Pin_8*%
%TO.N,BUTTON 4*%
X64880000Y-74605000D03*
%TD*%
D17*
%TO.P,H1,1*%
%TO.N,N/C*%
X47000000Y-37000000D03*
%TD*%
D10*
%TO.P,J4,1,Pin_1*%
%TO.N,+5V*%
X110380000Y-75605000D03*
D11*
%TO.P,J4,2,Pin_2*%
%TO.N,GND*%
X107880000Y-75605000D03*
%TO.P,J4,3,Pin_3*%
%TO.N,Net-(J13-Pin_2)*%
X105380000Y-75605000D03*
%TO.P,J4,4,Pin_4*%
%TO.N,Net-(J14-Pin_2)*%
X102880000Y-75605000D03*
%TO.P,J4,5,Pin_5*%
%TO.N,AREF*%
X100380000Y-75605000D03*
%TO.P,J4,6,Pin_6*%
%TO.N,TRIGGER 1*%
X97880000Y-75605000D03*
%TO.P,J4,7,Pin_7*%
%TO.N,TRIGGER 2*%
X95380000Y-75605000D03*
%TO.P,J4,8,Pin_8*%
%TO.N,BUTTON 11*%
X92880000Y-75605000D03*
%TD*%
D12*
%TO.P,J14,1,Pin_1*%
%TO.N,Net-(J13-Pin_2)*%
X105275000Y-69000000D03*
D13*
%TO.P,J14,2,Pin_2*%
%TO.N,Net-(J14-Pin_2)*%
X102735000Y-69000000D03*
%TD*%
D16*
%TO.P,J5,1,Pin_1*%
%TO.N,+5V*%
X47380000Y-87605000D03*
D11*
%TO.P,J5,2,Pin_2*%
%TO.N,GND*%
X49880000Y-87605000D03*
%TO.P,J5,3,Pin_3*%
%TO.N,Net-(J11-Pin_2)*%
X52380000Y-87605000D03*
%TO.P,J5,4,Pin_4*%
%TO.N,Net-(J12-Pin_1)*%
X54880000Y-87605000D03*
%TO.P,J5,5,Pin_5*%
%TO.N,BUTTON 5*%
X57380000Y-87605000D03*
%TO.P,J5,6,Pin_6*%
%TO.N,BUTTON 6*%
X59880000Y-87605000D03*
%TO.P,J5,7,Pin_7*%
%TO.N,BUTTON 7*%
X62380000Y-87605000D03*
%TO.P,J5,8,Pin_8*%
%TO.N,BUTTON 8*%
X64880000Y-87605000D03*
%TD*%
D18*
%TO.P,F1,1*%
%TO.N,Net-(J1-Pin_1)*%
X53960000Y-49250000D03*
%TO.P,F1,2*%
%TO.N,Net-(U2-IN+)*%
X59040000Y-49260000D03*
%TD*%
D12*
%TO.P,J16,1,Pin_1*%
%TO.N,Net-(J15-Pin_2)*%
X105380000Y-95000000D03*
D13*
%TO.P,J16,2,Pin_2*%
%TO.N,Net-(J16-Pin_2)*%
X102840000Y-95000000D03*
%TD*%
D12*
%TO.P,J13,1,Pin_1*%
%TO.N,Net-(J12-Pin_2)*%
X52500000Y-56000000D03*
D13*
%TO.P,J13,2,Pin_2*%
%TO.N,Net-(J13-Pin_2)*%
X55040000Y-56000000D03*
%TD*%
D17*
%TO.P,H2,1*%
%TO.N,N/C*%
X111000000Y-37000000D03*
%TD*%
D16*
%TO.P,J7,1,Pin_1*%
%TO.N,+5V*%
X47380000Y-61685000D03*
D11*
%TO.P,J7,2,Pin_2*%
%TO.N,GND*%
X49880000Y-61685000D03*
%TO.P,J7,3,Pin_3*%
%TO.N,Net-(J12-Pin_2)*%
X52380000Y-61685000D03*
%TO.P,J7,4,Pin_4*%
%TO.N,Net-(J13-Pin_2)*%
X54880000Y-61685000D03*
%TO.P,J7,5,Pin_5*%
%TO.N,DPAD UP*%
X57380000Y-61685000D03*
%TO.P,J7,6,Pin_6*%
%TO.N,DPAD DOWN*%
X59880000Y-61685000D03*
%TO.P,J7,7,Pin_7*%
%TO.N,DPAD LEFT*%
X62380000Y-61685000D03*
%TO.P,J7,8,Pin_8*%
%TO.N,DPAD RIGHT*%
X64880000Y-61685000D03*
%TD*%
D17*
%TO.P,H4,1*%
%TO.N,N/C*%
X47000000Y-108000000D03*
%TD*%
D19*
%TO.P,U2,1,IN+*%
%TO.N,Net-(U2-IN+)*%
X64271000Y-36033000D03*
%TO.P,U2,2,IN-*%
%TO.N,GND*%
X64271000Y-53178000D03*
%TO.P,U2,3,OUT+*%
%TO.N,+5V*%
X103769000Y-36033000D03*
%TO.P,U2,4,OUT-*%
%TO.N,GND*%
X103769000Y-53178000D03*
%TD*%
D12*
%TO.P,J15,1,Pin_1*%
%TO.N,Net-(J14-Pin_2)*%
X105275000Y-82000000D03*
D13*
%TO.P,J15,2,Pin_2*%
%TO.N,Net-(J15-Pin_2)*%
X102735000Y-82000000D03*
%TD*%
D20*
%TO.P,J1,1,Pin_1*%
%TO.N,Net-(J1-Pin_1)*%
X54242500Y-38450000D03*
D21*
%TO.P,J1,2,Pin_2*%
%TO.N,GND*%
X58202500Y-38450000D03*
%TD*%
D14*
%TO.P,J2,1,Pin_1*%
%TO.N,Net-(J16-Pin_2)*%
X110500000Y-62500000D03*
D15*
%TO.P,J2,2,Pin_2*%
%TO.N,Net-(J10-Pin_1)*%
X108000000Y-62500000D03*
%TD*%
D22*
%TO.P,U1,1,D16*%
%TO.N,DPAD UP*%
X72380000Y-63045000D03*
D23*
%TO.P,U1,2,D17*%
%TO.N,DPAD DOWN*%
X72380000Y-65585000D03*
%TO.P,U1,3,D1/TX*%
%TO.N,BUTTON 1*%
X72380000Y-68125000D03*
%TO.P,U1,4,D0/RX*%
%TO.N,LED DOUT*%
X72380000Y-70665000D03*
%TO.P,U1,5,RESET*%
%TO.N,unconnected-(U1-RESET-Pad5)*%
X72380000Y-73205000D03*
%TO.P,U1,6,GND*%
%TO.N,GND*%
X72380000Y-75745000D03*
%TO.P,U1,7,D2/SDA*%
%TO.N,BUTTON 2*%
X72380000Y-78285000D03*
%TO.P,U1,8,~D3/SCL*%
%TO.N,BUTTON 3*%
X72380000Y-80825000D03*
%TO.P,U1,9,D4/A6*%
%TO.N,BUTTON 4*%
X72380000Y-83365000D03*
%TO.P,U1,10,~D5*%
%TO.N,BUTTON 5*%
X72380000Y-85905000D03*
%TO.P,U1,11,~D6/A7*%
%TO.N,BUTTON 6*%
X72380000Y-88445000D03*
%TO.P,U1,12,D7*%
%TO.N,BUTTON 7*%
X72380000Y-90985000D03*
%TO.P,U1,13,D8/A8*%
%TO.N,BUTTON 8*%
X72380000Y-93525000D03*
%TO.P,U1,14,~D9/A9*%
%TO.N,BUTTON 9*%
X72380000Y-96065000D03*
%TO.P,U1,15,~D10/A10*%
%TO.N,TWIST 1*%
X72380000Y-98605000D03*
%TO.P,U1,16,~D11*%
%TO.N,BUTTON 11*%
X72380000Y-101145000D03*
%TO.P,U1,17,D12/A11*%
%TO.N,TWIST 2 {slash} BT12*%
X72380000Y-103685000D03*
%TO.P,U1,18,~D13*%
%TO.N,BUTTON 10*%
X87620000Y-103685000D03*
%TO.P,U1,19,3V3*%
%TO.N,unconnected-(U1-3V3-Pad19)*%
X87620000Y-101145000D03*
%TO.P,U1,20,AREF*%
%TO.N,AREF*%
X87620000Y-98605000D03*
%TO.P,U1,21,A0/D18*%
%TO.N,AXIS 4*%
X87620000Y-96065000D03*
%TO.P,U1,22,A1/D19*%
%TO.N,AXIS 3*%
X87620000Y-93525000D03*
%TO.P,U1,23,A2/D20*%
%TO.N,AXIS 2*%
X87620000Y-90985000D03*
%TO.P,U1,24,A3/D21*%
%TO.N,AXIS 1*%
X87620000Y-88445000D03*
%TO.P,U1,25,A4/D22*%
%TO.N,TRIGGER 2*%
X87620000Y-85905000D03*
%TO.P,U1,26,A5/D23*%
%TO.N,TRIGGER 1*%
X87620000Y-83365000D03*
%TO.P,U1,27,NC*%
%TO.N,unconnected-(U1-NC-Pad27)*%
X87620000Y-80825000D03*
%TO.P,U1,28,NC*%
%TO.N,unconnected-(U1-NC-Pad28)*%
X87620000Y-78285000D03*
%TO.P,U1,29,+5V*%
%TO.N,+5V*%
X87620000Y-75745000D03*
%TO.P,U1,30,RESET*%
%TO.N,unconnected-(U1-RESET-Pad30)*%
X87620000Y-73205000D03*
%TO.P,U1,31,GND*%
%TO.N,GND*%
X87620000Y-70665000D03*
%TO.P,U1,32,VIN*%
%TO.N,unconnected-(U1-VIN-Pad32)*%
X87620000Y-68125000D03*
%TO.P,U1,33,D14*%
%TO.N,DPAD RIGHT*%
X87620000Y-65585000D03*
%TO.P,U1,34,D15*%
%TO.N,DPAD LEFT*%
X87620000Y-63045000D03*
%TD*%
D12*
%TO.P,J11,1,Pin_1*%
%TO.N,LED DOUT*%
X52500000Y-69000000D03*
D13*
%TO.P,J11,2,Pin_2*%
%TO.N,Net-(J11-Pin_2)*%
X55040000Y-69000000D03*
%TD*%
D16*
%TO.P,J6,1,Pin_1*%
%TO.N,+5V*%
X47380000Y-100605000D03*
D11*
%TO.P,J6,2,Pin_2*%
%TO.N,GND*%
X49880000Y-100605000D03*
%TO.P,J6,3,Pin_3*%
%TO.N,Net-(J12-Pin_1)*%
X52380000Y-100605000D03*
%TO.P,J6,4,Pin_4*%
%TO.N,Net-(J12-Pin_2)*%
X54880000Y-100605000D03*
%TO.P,J6,5,Pin_5*%
%TO.N,BUTTON 9*%
X57380000Y-100605000D03*
%TO.P,J6,6,Pin_6*%
%TO.N,BUTTON 10*%
X59880000Y-100605000D03*
%TO.P,J6,7,Pin_7*%
%TO.N,BUTTON 11*%
X62380000Y-100605000D03*
%TO.P,J6,8,Pin_8*%
%TO.N,TWIST 2 {slash} BT12*%
X64880000Y-100605000D03*
%TD*%
D17*
%TO.P,H3,1*%
%TO.N,N/C*%
X111000000Y-108000000D03*
%TD*%
D24*
%TO.N,DPAD UP*%
X72380000Y-58000000D03*
%TO.N,TWIST 1*%
X77500000Y-98500000D03*
%TD*%
D25*
%TO.N,DPAD UP*%
X61065000Y-58000000D02*
X57380000Y-61685000D01*
X72380000Y-58000000D02*
X61065000Y-58000000D01*
%TO.N,LED DOUT*%
X74500000Y-70000000D02*
X74500000Y-67500000D01*
X74500000Y-67500000D02*
X73875000Y-66875000D01*
X72380000Y-70665000D02*
X73835000Y-70665000D01*
X73875000Y-66875000D02*
X53625000Y-66875000D01*
X53625000Y-66875000D02*
X52500000Y-68000000D01*
X52380000Y-74605000D02*
X52380000Y-69120000D01*
X52500000Y-68000000D02*
X52500000Y-69000000D01*
X73835000Y-70665000D02*
X74500000Y-70000000D01*
X52380000Y-69120000D02*
X52500000Y-69000000D01*
%TO.N,BUTTON 1*%
X57380000Y-71120000D02*
X57380000Y-74605000D01*
X72380000Y-68125000D02*
X60375000Y-68125000D01*
X60375000Y-68125000D02*
X57380000Y-71120000D01*
%TO.N,BUTTON 11*%
X68000000Y-98500000D02*
X63500000Y-98500000D01*
X70645000Y-101145000D02*
X68000000Y-98500000D01*
X84250000Y-78500000D02*
X84250000Y-89275000D01*
X62380000Y-99620000D02*
X62380000Y-100605000D01*
X85715000Y-77035000D02*
X84250000Y-78500000D01*
X91325000Y-77035000D02*
X85715000Y-77035000D01*
X84250000Y-89275000D02*
X72380000Y-101145000D01*
X63500000Y-98500000D02*
X62380000Y-99620000D01*
X92880000Y-75605000D02*
X92755000Y-75605000D01*
X72380000Y-101145000D02*
X70645000Y-101145000D01*
X92755000Y-75605000D02*
X91325000Y-77035000D01*
%TO.N,AREF*%
X97485000Y-104500000D02*
X100380000Y-101605000D01*
X100380000Y-101605000D02*
X100380000Y-75605000D01*
X89605000Y-98605000D02*
X90750000Y-99750000D01*
X90750000Y-99750000D02*
X90750000Y-103250000D01*
X92000000Y-104500000D02*
X97485000Y-104500000D01*
X87620000Y-98605000D02*
X89605000Y-98605000D01*
X90750000Y-103250000D02*
X92000000Y-104500000D01*
%TO.N,AXIS 4*%
X92065000Y-96065000D02*
X87620000Y-96065000D01*
X95380000Y-99380000D02*
X92065000Y-96065000D01*
X95380000Y-101605000D02*
X95380000Y-99380000D01*
%TO.N,AXIS 3*%
X97880000Y-98380000D02*
X93025000Y-93525000D01*
X97880000Y-101605000D02*
X97880000Y-98380000D01*
X93025000Y-93525000D02*
X87620000Y-93525000D01*
%TO.N,BUTTON 2*%
X59880000Y-72120000D02*
X59880000Y-74605000D01*
X62000000Y-70000000D02*
X59880000Y-72120000D01*
X67500000Y-70000000D02*
X62000000Y-70000000D01*
X70785000Y-78285000D02*
X70000000Y-77500000D01*
X70000000Y-77500000D02*
X70000000Y-72500000D01*
X70000000Y-72500000D02*
X67500000Y-70000000D01*
X72380000Y-78285000D02*
X70785000Y-78285000D01*
%TO.N,AXIS 2*%
X95380000Y-90120000D02*
X95380000Y-88605000D01*
X94515000Y-90985000D02*
X95380000Y-90120000D01*
X87620000Y-90985000D02*
X94515000Y-90985000D01*
%TO.N,BUTTON 3*%
X72380000Y-80825000D02*
X70825000Y-80825000D01*
X70825000Y-80825000D02*
X68000000Y-78000000D01*
X68000000Y-78000000D02*
X68000000Y-73500000D01*
X68000000Y-73500000D02*
X66500000Y-72000000D01*
X62380000Y-72620000D02*
X62380000Y-74605000D01*
X63000000Y-72000000D02*
X62380000Y-72620000D01*
X66500000Y-72000000D02*
X63000000Y-72000000D01*
%TO.N,AXIS 1*%
X87620000Y-88445000D02*
X90555000Y-88445000D01*
X93000000Y-86000000D02*
X96500000Y-86000000D01*
X96500000Y-86000000D02*
X97880000Y-87380000D01*
X97880000Y-87380000D02*
X97880000Y-88605000D01*
X90555000Y-88445000D02*
X93000000Y-86000000D01*
%TO.N,BUTTON 4*%
X64880000Y-77380000D02*
X64880000Y-74605000D01*
X70865000Y-83365000D02*
X64880000Y-77380000D01*
X72380000Y-83365000D02*
X70865000Y-83365000D01*
%TO.N,TRIGGER 2*%
X95380000Y-79620000D02*
X95380000Y-75605000D01*
X87620000Y-85905000D02*
X89095000Y-85905000D01*
X89095000Y-85905000D02*
X95380000Y-79620000D01*
%TO.N,BUTTON 5*%
X72380000Y-85905000D02*
X71405000Y-85905000D01*
X57380000Y-85120000D02*
X57380000Y-87605000D01*
X71405000Y-85905000D02*
X68000000Y-82500000D01*
X68000000Y-82500000D02*
X60000000Y-82500000D01*
X60000000Y-82500000D02*
X57380000Y-85120000D01*
%TO.N,TRIGGER 1*%
X89805000Y-87195000D02*
X97880000Y-79120000D01*
X97880000Y-79120000D02*
X97880000Y-75605000D01*
X87620000Y-83365000D02*
X85750000Y-85235000D01*
X85750000Y-85235000D02*
X85750000Y-86500000D01*
X85750000Y-86500000D02*
X86445000Y-87195000D01*
X86445000Y-87195000D02*
X89805000Y-87195000D01*
%TO.N,BUTTON 6*%
X59880000Y-87605000D02*
X59880000Y-86120000D01*
X62000000Y-84000000D02*
X67500000Y-84000000D01*
X59880000Y-86120000D02*
X62000000Y-84000000D01*
X71945000Y-88445000D02*
X72380000Y-88445000D01*
X67500000Y-84000000D02*
X71945000Y-88445000D01*
%TO.N,BUTTON 7*%
X63300000Y-85700000D02*
X62380000Y-86620000D01*
X72380000Y-90985000D02*
X67095000Y-85700000D01*
X67095000Y-85700000D02*
X63300000Y-85700000D01*
X62380000Y-86620000D02*
X62380000Y-87605000D01*
%TO.N,BUTTON 8*%
X72380000Y-93525000D02*
X70800000Y-93525000D01*
X70800000Y-93525000D02*
X64880000Y-87605000D01*
%TO.N,BUTTON 9*%
X57380000Y-98120000D02*
X57380000Y-100605000D01*
X59435000Y-96065000D02*
X58375000Y-97125000D01*
X72380000Y-96065000D02*
X59435000Y-96065000D01*
X58375000Y-97125000D02*
X57380000Y-98120000D01*
%TO.N,BUTTON 10*%
X65525000Y-106250000D02*
X85055000Y-106250000D01*
X59880000Y-100605000D02*
X65525000Y-106250000D01*
X85055000Y-106250000D02*
X87620000Y-103685000D01*
%TO.N,DPAD RIGHT*%
X87585000Y-65585000D02*
X87620000Y-65585000D01*
X64880000Y-61685000D02*
X65565000Y-61000000D01*
X83000000Y-61000000D02*
X87585000Y-65585000D01*
X65565000Y-61000000D02*
X83000000Y-61000000D01*
%TO.N,DPAD LEFT*%
X62380000Y-61685000D02*
X64565000Y-59500000D01*
X64565000Y-59500000D02*
X84075000Y-59500000D01*
X84075000Y-59500000D02*
X87620000Y-63045000D01*
%TO.N,Net-(J16-Pin_2)*%
X102880000Y-95040000D02*
X102840000Y-95000000D01*
X102880000Y-101605000D02*
X102880000Y-95040000D01*
%TO.N,Net-(J10-Pin_1)*%
X108000000Y-62500000D02*
X98000000Y-62500000D01*
%TO.N,Net-(J13-Pin_2)*%
X77335000Y-64335000D02*
X82415000Y-69415000D01*
X105275000Y-67275000D02*
X105275000Y-69000000D01*
X56335000Y-64335000D02*
X77335000Y-64335000D01*
X54880000Y-61685000D02*
X54880000Y-62880000D01*
X93000000Y-66500000D02*
X104500000Y-66500000D01*
X54880000Y-61685000D02*
X54880000Y-56160000D01*
X90085000Y-69415000D02*
X93000000Y-66500000D01*
X54880000Y-56160000D02*
X55040000Y-56000000D01*
X104500000Y-66500000D02*
X105275000Y-67275000D01*
X54880000Y-62880000D02*
X56335000Y-64335000D01*
X82415000Y-69415000D02*
X90085000Y-69415000D01*
%TO.N,Net-(J14-Pin_2)*%
X102880000Y-77380000D02*
X105275000Y-79775000D01*
X105380000Y-88605000D02*
X105380000Y-82105000D01*
X105380000Y-82105000D02*
X105275000Y-82000000D01*
X102880000Y-75605000D02*
X102880000Y-77380000D01*
X105275000Y-79775000D02*
X105275000Y-82000000D01*
%TO.N,Net-(J11-Pin_2)*%
X52380000Y-82120000D02*
X52500000Y-82000000D01*
X52380000Y-87605000D02*
X52380000Y-82120000D01*
X52500000Y-82000000D02*
X52500000Y-79500000D01*
X54880000Y-69160000D02*
X55040000Y-69000000D01*
X54880000Y-77120000D02*
X54880000Y-74605000D01*
X52500000Y-79500000D02*
X54880000Y-77120000D01*
X54880000Y-74605000D02*
X54880000Y-69160000D01*
%TO.N,Net-(J12-Pin_2)*%
X52380000Y-56120000D02*
X52500000Y-56000000D01*
X54880000Y-100605000D02*
X54880000Y-95160000D01*
X54880000Y-95160000D02*
X55040000Y-95000000D01*
X52380000Y-61685000D02*
X52380000Y-56120000D01*
%TO.N,Net-(J15-Pin_2)*%
X102880000Y-90880000D02*
X102880000Y-88605000D01*
X105380000Y-95000000D02*
X105380000Y-93380000D01*
X105380000Y-101605000D02*
X105380000Y-95000000D01*
X105380000Y-93380000D02*
X102880000Y-90880000D01*
X102880000Y-88605000D02*
X102880000Y-82145000D01*
X102880000Y-82145000D02*
X102735000Y-82000000D01*
D26*
%TO.N,Net-(J1-Pin_1)*%
X53960000Y-49250000D02*
X54242500Y-48967500D01*
X54242500Y-48967500D02*
X54242500Y-38450000D01*
D25*
%TO.N,Net-(J12-Pin_1)*%
X52500000Y-92500000D02*
X54880000Y-90120000D01*
X52500000Y-95000000D02*
X52500000Y-92500000D01*
X54880000Y-82160000D02*
X55040000Y-82000000D01*
X54880000Y-87605000D02*
X54880000Y-82160000D01*
X52380000Y-95120000D02*
X52500000Y-95000000D01*
X52380000Y-100605000D02*
X52380000Y-95120000D01*
X54880000Y-90120000D02*
X54880000Y-87605000D01*
%TO.N,TWIST 1*%
X86305000Y-89695000D02*
X77500000Y-98500000D01*
X92880000Y-88605000D02*
X91790000Y-89695000D01*
X91790000Y-89695000D02*
X86305000Y-89695000D01*
%TO.N,TWIST 2 {slash} BT12*%
X72380000Y-103685000D02*
X74565000Y-103685000D01*
X67960000Y-103685000D02*
X64880000Y-100605000D01*
X92880000Y-99630000D02*
X92880000Y-101605000D01*
X90565000Y-97315000D02*
X92880000Y-99630000D01*
X72380000Y-103685000D02*
X67960000Y-103685000D01*
X74565000Y-103685000D02*
X80935000Y-97315000D01*
X80935000Y-97315000D02*
X90565000Y-97315000D01*
D26*
%TO.N,Net-(U2-IN+)*%
X64271000Y-36033000D02*
X64271000Y-44029000D01*
X64271000Y-44029000D02*
X59040000Y-49260000D01*
%TD*%
%TA.AperFunction,Conductor*%
%TO.N,GND*%
G36*
X111002292Y-33050605D02*
G01*
X111359835Y-33067136D01*
X111368938Y-33067979D01*
X111721210Y-33117119D01*
X111730163Y-33118793D01*
X112076372Y-33200221D01*
X112085167Y-33202723D01*
X112422380Y-33315745D01*
X112430907Y-33319048D01*
X112756261Y-33462706D01*
X112764435Y-33466776D01*
X113075144Y-33639839D01*
X113082919Y-33644653D01*
X113376332Y-33845647D01*
X113383629Y-33851158D01*
X113657235Y-34078356D01*
X113663993Y-34084516D01*
X113915483Y-34336006D01*
X113921643Y-34342764D01*
X114148841Y-34616370D01*
X114154352Y-34623667D01*
X114355346Y-34917080D01*
X114360160Y-34924855D01*
X114533220Y-35235558D01*
X114537296Y-35243744D01*
X114680951Y-35569092D01*
X114684254Y-35577619D01*
X114797276Y-35914832D01*
X114799778Y-35923627D01*
X114881202Y-36269816D01*
X114882883Y-36278805D01*
X114932020Y-36631062D01*
X114932863Y-36640167D01*
X114949394Y-36997707D01*
X114949500Y-37002279D01*
X114949500Y-107997720D01*
X114949394Y-108002292D01*
X114932863Y-108359832D01*
X114932020Y-108368937D01*
X114882883Y-108721194D01*
X114881202Y-108730183D01*
X114799778Y-109076372D01*
X114797276Y-109085167D01*
X114684254Y-109422380D01*
X114680951Y-109430907D01*
X114537296Y-109756255D01*
X114533220Y-109764441D01*
X114360160Y-110075144D01*
X114355346Y-110082919D01*
X114154352Y-110376332D01*
X114148841Y-110383629D01*
X113921643Y-110657235D01*
X113915483Y-110663993D01*
X113663993Y-110915483D01*
X113657235Y-110921643D01*
X113383629Y-111148841D01*
X113376332Y-111154352D01*
X113082919Y-111355346D01*
X113075144Y-111360160D01*
X112764441Y-111533220D01*
X112756255Y-111537296D01*
X112430907Y-111680951D01*
X112422380Y-111684254D01*
X112085167Y-111797276D01*
X112076372Y-111799778D01*
X111730183Y-111881202D01*
X111721194Y-111882883D01*
X111368937Y-111932020D01*
X111359832Y-111932863D01*
X111002293Y-111949394D01*
X110997721Y-111949500D01*
X47002279Y-111949500D01*
X46997707Y-111949394D01*
X46640167Y-111932863D01*
X46631062Y-111932020D01*
X46278805Y-111882883D01*
X46269819Y-111881202D01*
X46183069Y-111860799D01*
X45923627Y-111799778D01*
X45914832Y-111797276D01*
X45577619Y-111684254D01*
X45569092Y-111680951D01*
X45243744Y-111537296D01*
X45235558Y-111533220D01*
X44924855Y-111360160D01*
X44917080Y-111355346D01*
X44623667Y-111154352D01*
X44616370Y-111148841D01*
X44342764Y-110921643D01*
X44336006Y-110915483D01*
X44084516Y-110663993D01*
X44078356Y-110657235D01*
X43851158Y-110383629D01*
X43845647Y-110376332D01*
X43644653Y-110082919D01*
X43639839Y-110075144D01*
X43466776Y-109764435D01*
X43462703Y-109756255D01*
X43448420Y-109723908D01*
X43319048Y-109430907D01*
X43315745Y-109422380D01*
X43202723Y-109085167D01*
X43200221Y-109076372D01*
X43118793Y-108730163D01*
X43117119Y-108721210D01*
X43067979Y-108368937D01*
X43067136Y-108359832D01*
X43059481Y-108194266D01*
X43050606Y-108002292D01*
X43050553Y-108000000D01*
X43844536Y-108000000D01*
X43844692Y-108002777D01*
X43864220Y-108350514D01*
X43864221Y-108350523D01*
X43864377Y-108353300D01*
X43923650Y-108702157D01*
X43924415Y-108704814D01*
X43924418Y-108704825D01*
X44009361Y-108999667D01*
X44021610Y-109042184D01*
X44022671Y-109044745D01*
X44022674Y-109044754D01*
X44122763Y-109286389D01*
X44157025Y-109369105D01*
X44158368Y-109371536D01*
X44158371Y-109371541D01*
X44326847Y-109676376D01*
X44326854Y-109676387D01*
X44328192Y-109678808D01*
X44532959Y-109967400D01*
X44768750Y-110231250D01*
X45032600Y-110467041D01*
X45321192Y-110671808D01*
X45323617Y-110673148D01*
X45323623Y-110673152D01*
X45559043Y-110803264D01*
X45630895Y-110842975D01*
X45957816Y-110978390D01*
X46297843Y-111076350D01*
X46646700Y-111135623D01*
X47000000Y-111155464D01*
X47353300Y-111135623D01*
X47702157Y-111076350D01*
X48042184Y-110978390D01*
X48369105Y-110842975D01*
X48678808Y-110671808D01*
X48967400Y-110467041D01*
X49231250Y-110231250D01*
X49467041Y-109967400D01*
X49671808Y-109678808D01*
X49842975Y-109369105D01*
X49978390Y-109042184D01*
X50076350Y-108702157D01*
X50135623Y-108353300D01*
X50155464Y-108000000D01*
X107844536Y-108000000D01*
X107844692Y-108002777D01*
X107864220Y-108350514D01*
X107864221Y-108350523D01*
X107864377Y-108353300D01*
X107923650Y-108702157D01*
X107924415Y-108704814D01*
X107924418Y-108704825D01*
X108009361Y-108999667D01*
X108021610Y-109042184D01*
X108022671Y-109044745D01*
X108022674Y-109044754D01*
X108122763Y-109286389D01*
X108157025Y-109369105D01*
X108158368Y-109371536D01*
X108158371Y-109371541D01*
X108326847Y-109676376D01*
X108326854Y-109676387D01*
X108328192Y-109678808D01*
X108532959Y-109967400D01*
X108768750Y-110231250D01*
X109032600Y-110467041D01*
X109321192Y-110671808D01*
X109323617Y-110673148D01*
X109323623Y-110673152D01*
X109559043Y-110803264D01*
X109630895Y-110842975D01*
X109957816Y-110978390D01*
X110297843Y-111076350D01*
X110646700Y-111135623D01*
X111000000Y-111155464D01*
X111353300Y-111135623D01*
X111702157Y-111076350D01*
X112042184Y-110978390D01*
X112369105Y-110842975D01*
X112678808Y-110671808D01*
X112967400Y-110467041D01*
X113231250Y-110231250D01*
X113467041Y-109967400D01*
X113671808Y-109678808D01*
X113842975Y-109369105D01*
X113978390Y-109042184D01*
X114076350Y-108702157D01*
X114135623Y-108353300D01*
X114155464Y-108000000D01*
X114135623Y-107646700D01*
X114076350Y-107297843D01*
X113978390Y-106957816D01*
X113842975Y-106630895D01*
X113671808Y-106321192D01*
X113467041Y-106032600D01*
X113231250Y-105768750D01*
X112967400Y-105532959D01*
X112678808Y-105328192D01*
X112676387Y-105326854D01*
X112676376Y-105326847D01*
X112371541Y-105158371D01*
X112371536Y-105158368D01*
X112369105Y-105157025D01*
X112245150Y-105105681D01*
X112044754Y-105022674D01*
X112044745Y-105022671D01*
X112042184Y-105021610D01*
X112039515Y-105020841D01*
X112039512Y-105020840D01*
X111704825Y-104924418D01*
X111704814Y-104924415D01*
X111702157Y-104923650D01*
X111544029Y-104896783D01*
X111356050Y-104864844D01*
X111356045Y-104864843D01*
X111353300Y-104864377D01*
X111350523Y-104864221D01*
X111350514Y-104864220D01*
X111002778Y-104844692D01*
X111000000Y-104844536D01*
X110997222Y-104844692D01*
X110649485Y-104864220D01*
X110649474Y-104864221D01*
X110646700Y-104864377D01*
X110643956Y-104864843D01*
X110643949Y-104864844D01*
X110300585Y-104923184D01*
X110300582Y-104923184D01*
X110297843Y-104923650D01*
X110295189Y-104924414D01*
X110295174Y-104924418D01*
X109960487Y-105020840D01*
X109960478Y-105020842D01*
X109957816Y-105021610D01*
X109955259Y-105022668D01*
X109955245Y-105022674D01*
X109633465Y-105155960D01*
X109633457Y-105155963D01*
X109630895Y-105157025D01*
X109628470Y-105158365D01*
X109628458Y-105158371D01*
X109323623Y-105326847D01*
X109323604Y-105326858D01*
X109321192Y-105328192D01*
X109318932Y-105329794D01*
X109318928Y-105329798D01*
X109034867Y-105531350D01*
X109034861Y-105531354D01*
X109032600Y-105532959D01*
X109030532Y-105534806D01*
X109030527Y-105534811D01*
X108770828Y-105766892D01*
X108770818Y-105766901D01*
X108768750Y-105768750D01*
X108766901Y-105770818D01*
X108766892Y-105770828D01*
X108534811Y-106030527D01*
X108534806Y-106030532D01*
X108532959Y-106032600D01*
X108328192Y-106321192D01*
X108326858Y-106323604D01*
X108326847Y-106323623D01*
X108158371Y-106628458D01*
X108158365Y-106628470D01*
X108157025Y-106630895D01*
X108155963Y-106633457D01*
X108155960Y-106633465D01*
X108022674Y-106955245D01*
X108022668Y-106955259D01*
X108021610Y-106957816D01*
X108020842Y-106960478D01*
X108020840Y-106960487D01*
X107924418Y-107295174D01*
X107924414Y-107295189D01*
X107923650Y-107297843D01*
X107864377Y-107646700D01*
X107864221Y-107649474D01*
X107864220Y-107649485D01*
X107845457Y-107983592D01*
X107844536Y-108000000D01*
X50155464Y-108000000D01*
X50135623Y-107646700D01*
X50076350Y-107297843D01*
X49978390Y-106957816D01*
X49842975Y-106630895D01*
X49671808Y-106321192D01*
X49467041Y-106032600D01*
X49231250Y-105768750D01*
X48967400Y-105532959D01*
X48678808Y-105328192D01*
X48676387Y-105326854D01*
X48676376Y-105326847D01*
X48371541Y-105158371D01*
X48371536Y-105158368D01*
X48369105Y-105157025D01*
X48245150Y-105105681D01*
X48044754Y-105022674D01*
X48044745Y-105022671D01*
X48042184Y-105021610D01*
X48039515Y-105020841D01*
X48039512Y-105020840D01*
X47704825Y-104924418D01*
X47704814Y-104924415D01*
X47702157Y-104923650D01*
X47544029Y-104896783D01*
X47356050Y-104864844D01*
X47356045Y-104864843D01*
X47353300Y-104864377D01*
X47350523Y-104864221D01*
X47350514Y-104864220D01*
X47002778Y-104844692D01*
X47000000Y-104844536D01*
X46997222Y-104844692D01*
X46649485Y-104864220D01*
X46649474Y-104864221D01*
X46646700Y-104864377D01*
X46643956Y-104864843D01*
X46643949Y-104864844D01*
X46300585Y-104923184D01*
X46300582Y-104923184D01*
X46297843Y-104923650D01*
X46295189Y-104924414D01*
X46295174Y-104924418D01*
X45960487Y-105020840D01*
X45960478Y-105020842D01*
X45957816Y-105021610D01*
X45955259Y-105022668D01*
X45955245Y-105022674D01*
X45633465Y-105155960D01*
X45633457Y-105155963D01*
X45630895Y-105157025D01*
X45628470Y-105158365D01*
X45628458Y-105158371D01*
X45323623Y-105326847D01*
X45323604Y-105326858D01*
X45321192Y-105328192D01*
X45318932Y-105329794D01*
X45318928Y-105329798D01*
X45034867Y-105531350D01*
X45034861Y-105531354D01*
X45032600Y-105532959D01*
X45030532Y-105534806D01*
X45030527Y-105534811D01*
X44770828Y-105766892D01*
X44770818Y-105766901D01*
X44768750Y-105768750D01*
X44766901Y-105770818D01*
X44766892Y-105770828D01*
X44534811Y-106030527D01*
X44534806Y-106030532D01*
X44532959Y-106032600D01*
X44328192Y-106321192D01*
X44326858Y-106323604D01*
X44326847Y-106323623D01*
X44158371Y-106628458D01*
X44158365Y-106628470D01*
X44157025Y-106630895D01*
X44155963Y-106633457D01*
X44155960Y-106633465D01*
X44022674Y-106955245D01*
X44022668Y-106955259D01*
X44021610Y-106957816D01*
X44020842Y-106960478D01*
X44020840Y-106960487D01*
X43924418Y-107295174D01*
X43924414Y-107295189D01*
X43923650Y-107297843D01*
X43864377Y-107646700D01*
X43864221Y-107649474D01*
X43864220Y-107649485D01*
X43845457Y-107983592D01*
X43844536Y-108000000D01*
X43050553Y-108000000D01*
X43050500Y-107997720D01*
X43050500Y-101366133D01*
X46179500Y-101366133D01*
X46179501Y-101369360D01*
X46179923Y-101372571D01*
X46179924Y-101372575D01*
X46194955Y-101486761D01*
X46255464Y-101632841D01*
X46351717Y-101758282D01*
X46411756Y-101804351D01*
X46477159Y-101854536D01*
X46623238Y-101915044D01*
X46740639Y-101930500D01*
X48019360Y-101930499D01*
X48136762Y-101915044D01*
X48282841Y-101854536D01*
X48408282Y-101758282D01*
X48504536Y-101632841D01*
X48565044Y-101486762D01*
X48565044Y-101486759D01*
X48569135Y-101476884D01*
X48608871Y-101430358D01*
X48668366Y-101416074D01*
X48724894Y-101439489D01*
X48741695Y-101457985D01*
X48841887Y-101601074D01*
X49008925Y-101768112D01*
X49202423Y-101903601D01*
X49416504Y-102003429D01*
X49630000Y-102060634D01*
X49630000Y-101013018D01*
X49744801Y-101065446D01*
X49846025Y-101080000D01*
X49913975Y-101080000D01*
X50015199Y-101065446D01*
X50130000Y-101013018D01*
X50130000Y-102060633D01*
X50343495Y-102003429D01*
X50557575Y-101903601D01*
X50751074Y-101768112D01*
X50918112Y-101601074D01*
X51053598Y-101407580D01*
X51122856Y-101259055D01*
X51164584Y-101214307D01*
X51224646Y-101202632D01*
X51280098Y-101228490D01*
X51301202Y-101256766D01*
X51354940Y-101364686D01*
X51354941Y-101364687D01*
X51354942Y-101364689D01*
X51489019Y-101542236D01*
X51653438Y-101692124D01*
X51842599Y-101809247D01*
X51990954Y-101866720D01*
X52050063Y-101889619D01*
X52268755Y-101930500D01*
X52268757Y-101930500D01*
X52491245Y-101930500D01*
X52709936Y-101889619D01*
X52709937Y-101889618D01*
X52709940Y-101889618D01*
X52917401Y-101809247D01*
X53106562Y-101692124D01*
X53270981Y-101542236D01*
X53405058Y-101364689D01*
X53504229Y-101165528D01*
X53534779Y-101058152D01*
X53568889Y-101007358D01*
X53626342Y-100986314D01*
X53685191Y-101003058D01*
X53722960Y-101051195D01*
X53725216Y-101058140D01*
X53742253Y-101118018D01*
X53755771Y-101165529D01*
X53854940Y-101364686D01*
X53854941Y-101364687D01*
X53854942Y-101364689D01*
X53989019Y-101542236D01*
X54153438Y-101692124D01*
X54342599Y-101809247D01*
X54490954Y-101866720D01*
X54550063Y-101889619D01*
X54768755Y-101930500D01*
X54768757Y-101930500D01*
X54991245Y-101930500D01*
X55209936Y-101889619D01*
X55209937Y-101889618D01*
X55209940Y-101889618D01*
X55417401Y-101809247D01*
X55606562Y-101692124D01*
X55770981Y-101542236D01*
X55905058Y-101364689D01*
X56004229Y-101165528D01*
X56034779Y-101058152D01*
X56068889Y-101007358D01*
X56126342Y-100986314D01*
X56185191Y-101003058D01*
X56222960Y-101051195D01*
X56225216Y-101058140D01*
X56242253Y-101118018D01*
X56255771Y-101165529D01*
X56354940Y-101364686D01*
X56354941Y-101364687D01*
X56354942Y-101364689D01*
X56489019Y-101542236D01*
X56653438Y-101692124D01*
X56842599Y-101809247D01*
X56990954Y-101866720D01*
X57050063Y-101889619D01*
X57268755Y-101930500D01*
X57268757Y-101930500D01*
X57491245Y-101930500D01*
X57709936Y-101889619D01*
X57709937Y-101889618D01*
X57709940Y-101889618D01*
X57917401Y-101809247D01*
X58106562Y-101692124D01*
X58270981Y-101542236D01*
X58405058Y-101364689D01*
X58504229Y-101165528D01*
X58534779Y-101058152D01*
X58568889Y-101007358D01*
X58626342Y-100986314D01*
X58685191Y-101003058D01*
X58722960Y-101051195D01*
X58725216Y-101058140D01*
X58742253Y-101118018D01*
X58755771Y-101165529D01*
X58854940Y-101364686D01*
X58854941Y-101364687D01*
X58854942Y-101364689D01*
X58989019Y-101542236D01*
X59153438Y-101692124D01*
X59342599Y-101809247D01*
X59490954Y-101866720D01*
X59550063Y-101889619D01*
X59768755Y-101930500D01*
X59768757Y-101930500D01*
X59991245Y-101930500D01*
X60137040Y-101903245D01*
X60209940Y-101889618D01*
X60225783Y-101883480D01*
X60286875Y-101880087D01*
X60331554Y-101905789D01*
X65067963Y-106642198D01*
X65076502Y-106651936D01*
X65096718Y-106678282D01*
X65150346Y-106719432D01*
X65222159Y-106774536D01*
X65368238Y-106835044D01*
X65525000Y-106855683D01*
X65557933Y-106851347D01*
X65570856Y-106850500D01*
X85009151Y-106850500D01*
X85022072Y-106851346D01*
X85055000Y-106855682D01*
X85211762Y-106835044D01*
X85357841Y-106774536D01*
X85429654Y-106719432D01*
X85483282Y-106678282D01*
X85503505Y-106651925D01*
X85512028Y-106642205D01*
X87312493Y-104841740D01*
X87367008Y-104813965D01*
X87400687Y-104814432D01*
X87513389Y-104835500D01*
X87513390Y-104835500D01*
X87726612Y-104835500D01*
X87936195Y-104796322D01*
X87936198Y-104796321D01*
X88135019Y-104719298D01*
X88316302Y-104607052D01*
X88473872Y-104463407D01*
X88602366Y-104293255D01*
X88697405Y-104102389D01*
X88755756Y-103897310D01*
X88775429Y-103685000D01*
X88755756Y-103472690D01*
X88697405Y-103267611D01*
X88602366Y-103076745D01*
X88602365Y-103076744D01*
X88602365Y-103076743D01*
X88473874Y-102906595D01*
X88455252Y-102889619D01*
X88316302Y-102762948D01*
X88316300Y-102762946D01*
X88135021Y-102650703D01*
X88135019Y-102650702D01*
X88088914Y-102632841D01*
X87936195Y-102573677D01*
X87726612Y-102534500D01*
X87726610Y-102534500D01*
X87513390Y-102534500D01*
X87513388Y-102534500D01*
X87303804Y-102573677D01*
X87104978Y-102650703D01*
X86923699Y-102762946D01*
X86766125Y-102906595D01*
X86637634Y-103076743D01*
X86551364Y-103250000D01*
X86542595Y-103267611D01*
X86503003Y-103406761D01*
X86484244Y-103472690D01*
X86464571Y-103685000D01*
X86484244Y-103897312D01*
X86484761Y-103899127D01*
X86484661Y-103901811D01*
X86485091Y-103906445D01*
X86484487Y-103906500D01*
X86482497Y-103960271D01*
X86459543Y-103996220D01*
X84835261Y-105620504D01*
X84780744Y-105648281D01*
X84765257Y-105649500D01*
X65814743Y-105649500D01*
X65756552Y-105630593D01*
X65744739Y-105620504D01*
X62223739Y-102099504D01*
X62195962Y-102044987D01*
X62205533Y-101984555D01*
X62248798Y-101941290D01*
X62293743Y-101930500D01*
X62491245Y-101930500D01*
X62709936Y-101889619D01*
X62709937Y-101889618D01*
X62709940Y-101889618D01*
X62917401Y-101809247D01*
X63106562Y-101692124D01*
X63270981Y-101542236D01*
X63405058Y-101364689D01*
X63504229Y-101165528D01*
X63534779Y-101058152D01*
X63568889Y-101007358D01*
X63626342Y-100986314D01*
X63685191Y-101003058D01*
X63722960Y-101051195D01*
X63725216Y-101058140D01*
X63742253Y-101118018D01*
X63755771Y-101165529D01*
X63854940Y-101364686D01*
X63854941Y-101364687D01*
X63854942Y-101364689D01*
X63989019Y-101542236D01*
X64153438Y-101692124D01*
X64342599Y-101809247D01*
X64490954Y-101866720D01*
X64550063Y-101889619D01*
X64768755Y-101930500D01*
X64768757Y-101930500D01*
X64991245Y-101930500D01*
X65137041Y-101903245D01*
X65209940Y-101889618D01*
X65225783Y-101883480D01*
X65286875Y-101880087D01*
X65331554Y-101905789D01*
X67502963Y-104077198D01*
X67511502Y-104086936D01*
X67531718Y-104113283D01*
X67641029Y-104197158D01*
X67641029Y-104197159D01*
X67657159Y-104209536D01*
X67803238Y-104270044D01*
X67960000Y-104290682D01*
X67992927Y-104286346D01*
X68005849Y-104285500D01*
X71342482Y-104285500D01*
X71400673Y-104304407D01*
X71421483Y-104324836D01*
X71526128Y-104463407D01*
X71669774Y-104594358D01*
X71683699Y-104607053D01*
X71815622Y-104688736D01*
X71864981Y-104719298D01*
X72021681Y-104780003D01*
X72063804Y-104796322D01*
X72273388Y-104835500D01*
X72273390Y-104835500D01*
X72486612Y-104835500D01*
X72696195Y-104796322D01*
X72696198Y-104796321D01*
X72895019Y-104719298D01*
X73076302Y-104607052D01*
X73233872Y-104463407D01*
X73338515Y-104324838D01*
X73388671Y-104289796D01*
X73417518Y-104285500D01*
X74519151Y-104285500D01*
X74532072Y-104286346D01*
X74565000Y-104290682D01*
X74721762Y-104270044D01*
X74867841Y-104209536D01*
X74883971Y-104197159D01*
X74993282Y-104113282D01*
X75013505Y-104086925D01*
X75022028Y-104077205D01*
X77954233Y-101145000D01*
X86464571Y-101145000D01*
X86484244Y-101357310D01*
X86538198Y-101546936D01*
X86542596Y-101562391D01*
X86637634Y-101753256D01*
X86766125Y-101923404D01*
X86766127Y-101923406D01*
X86766128Y-101923407D01*
X86796983Y-101951535D01*
X86923699Y-102067053D01*
X87055622Y-102148736D01*
X87104981Y-102179298D01*
X87236497Y-102230247D01*
X87303804Y-102256322D01*
X87513388Y-102295500D01*
X87513390Y-102295500D01*
X87726612Y-102295500D01*
X87936195Y-102256322D01*
X87936198Y-102256321D01*
X88135019Y-102179298D01*
X88316302Y-102067052D01*
X88473872Y-101923407D01*
X88602366Y-101753255D01*
X88697405Y-101562389D01*
X88755756Y-101357310D01*
X88775429Y-101145000D01*
X88755756Y-100932690D01*
X88697405Y-100727611D01*
X88602366Y-100536745D01*
X88602365Y-100536744D01*
X88602365Y-100536743D01*
X88473874Y-100366595D01*
X88316300Y-100222946D01*
X88135021Y-100110703D01*
X88135019Y-100110702D01*
X88092898Y-100094384D01*
X87936195Y-100033677D01*
X87726612Y-99994500D01*
X87726610Y-99994500D01*
X87513390Y-99994500D01*
X87513388Y-99994500D01*
X87303804Y-100033677D01*
X87104978Y-100110703D01*
X86923699Y-100222946D01*
X86766125Y-100366595D01*
X86637634Y-100536743D01*
X86544772Y-100723238D01*
X86542595Y-100727611D01*
X86484244Y-100932690D01*
X86464571Y-101145000D01*
X77954233Y-101145000D01*
X81154738Y-97944496D01*
X81209256Y-97916719D01*
X81224743Y-97915500D01*
X86518199Y-97915500D01*
X86576390Y-97934407D01*
X86612354Y-97983907D01*
X86612354Y-98045093D01*
X86606820Y-98058628D01*
X86550213Y-98172312D01*
X86542595Y-98187611D01*
X86484244Y-98392690D01*
X86464571Y-98605000D01*
X86484244Y-98817310D01*
X86536705Y-99001689D01*
X86542596Y-99022391D01*
X86637634Y-99213256D01*
X86766125Y-99383404D01*
X86766127Y-99383406D01*
X86766128Y-99383407D01*
X86823461Y-99435673D01*
X86923699Y-99527053D01*
X87004620Y-99577157D01*
X87104981Y-99639298D01*
X87261681Y-99700003D01*
X87303804Y-99716322D01*
X87513388Y-99755500D01*
X87513390Y-99755500D01*
X87726612Y-99755500D01*
X87936195Y-99716322D01*
X87937117Y-99715965D01*
X88135019Y-99639298D01*
X88316302Y-99527052D01*
X88473872Y-99383407D01*
X88578515Y-99244838D01*
X88628671Y-99209796D01*
X88657518Y-99205500D01*
X89315257Y-99205500D01*
X89373448Y-99224407D01*
X89385261Y-99234496D01*
X90120504Y-99969739D01*
X90148281Y-100024256D01*
X90149500Y-100039743D01*
X90149500Y-103204149D01*
X90148653Y-103217070D01*
X90144318Y-103249999D01*
X90149500Y-103289361D01*
X90164955Y-103406761D01*
X90225464Y-103552841D01*
X90321716Y-103678281D01*
X90348062Y-103698496D01*
X90357800Y-103707035D01*
X91542963Y-104892198D01*
X91551502Y-104901936D01*
X91571718Y-104928283D01*
X91692343Y-105020840D01*
X91693346Y-105021610D01*
X91697159Y-105024536D01*
X91843238Y-105085044D01*
X92000000Y-105105682D01*
X92032927Y-105101346D01*
X92045849Y-105100500D01*
X97439151Y-105100500D01*
X97452072Y-105101346D01*
X97485000Y-105105682D01*
X97641762Y-105085044D01*
X97787841Y-105024536D01*
X97791654Y-105021610D01*
X97913282Y-104928282D01*
X97933505Y-104901925D01*
X97942028Y-104892205D01*
X99928446Y-102905787D01*
X99982961Y-102878012D01*
X100034212Y-102883479D01*
X100050060Y-102889618D01*
X100268755Y-102930500D01*
X100268757Y-102930500D01*
X100491245Y-102930500D01*
X100709936Y-102889619D01*
X100709937Y-102889618D01*
X100709940Y-102889618D01*
X100917401Y-102809247D01*
X101106562Y-102692124D01*
X101270981Y-102542236D01*
X101405058Y-102364689D01*
X101504229Y-102165528D01*
X101534779Y-102058152D01*
X101568889Y-102007358D01*
X101626342Y-101986314D01*
X101685191Y-102003058D01*
X101722960Y-102051195D01*
X101725216Y-102058140D01*
X101736986Y-102099504D01*
X101755771Y-102165529D01*
X101854940Y-102364686D01*
X101854941Y-102364687D01*
X101854942Y-102364689D01*
X101989019Y-102542236D01*
X102153438Y-102692124D01*
X102342599Y-102809247D01*
X102550060Y-102889618D01*
X102550063Y-102889619D01*
X102768755Y-102930500D01*
X102768757Y-102930500D01*
X102991245Y-102930500D01*
X103209936Y-102889619D01*
X103209937Y-102889618D01*
X103209940Y-102889618D01*
X103417401Y-102809247D01*
X103606562Y-102692124D01*
X103770981Y-102542236D01*
X103905058Y-102364689D01*
X104004229Y-102165528D01*
X104034779Y-102058152D01*
X104068889Y-102007358D01*
X104126342Y-101986314D01*
X104185191Y-102003058D01*
X104222960Y-102051195D01*
X104225216Y-102058140D01*
X104236986Y-102099504D01*
X104255771Y-102165529D01*
X104354940Y-102364686D01*
X104354941Y-102364687D01*
X104354942Y-102364689D01*
X104489019Y-102542236D01*
X104653438Y-102692124D01*
X104842599Y-102809247D01*
X105050060Y-102889618D01*
X105050063Y-102889619D01*
X105268755Y-102930500D01*
X105268757Y-102930500D01*
X105491245Y-102930500D01*
X105709936Y-102889619D01*
X105709937Y-102889618D01*
X105709940Y-102889618D01*
X105917401Y-102809247D01*
X106106562Y-102692124D01*
X106270981Y-102542236D01*
X106405058Y-102364689D01*
X106458798Y-102256764D01*
X106501658Y-102213105D01*
X106561999Y-102202975D01*
X106616770Y-102230247D01*
X106637141Y-102259055D01*
X106706399Y-102407577D01*
X106841887Y-102601074D01*
X107008925Y-102768112D01*
X107202423Y-102903601D01*
X107416504Y-103003429D01*
X107630000Y-103060634D01*
X107630000Y-102013018D01*
X107744801Y-102065446D01*
X107846025Y-102080000D01*
X107913975Y-102080000D01*
X108015199Y-102065446D01*
X108130000Y-102013018D01*
X108130000Y-103060634D01*
X108343495Y-103003429D01*
X108557575Y-102903601D01*
X108751074Y-102768112D01*
X108918112Y-102601074D01*
X109018304Y-102457985D01*
X109067168Y-102421163D01*
X109128344Y-102420095D01*
X109178465Y-102455189D01*
X109190864Y-102476883D01*
X109255464Y-102632841D01*
X109351717Y-102758282D01*
X109418137Y-102809247D01*
X109477159Y-102854536D01*
X109623238Y-102915044D01*
X109740639Y-102930500D01*
X111019360Y-102930499D01*
X111136762Y-102915044D01*
X111282841Y-102854536D01*
X111408282Y-102758282D01*
X111504536Y-102632841D01*
X111565044Y-102486762D01*
X111580500Y-102369361D01*
X111580499Y-100840640D01*
X111565044Y-100723238D01*
X111504536Y-100577159D01*
X111449290Y-100505161D01*
X111408282Y-100451717D01*
X111282841Y-100355464D01*
X111136761Y-100294955D01*
X111022574Y-100279923D01*
X111019361Y-100279500D01*
X111016120Y-100279500D01*
X109743881Y-100279500D01*
X109743865Y-100279500D01*
X109740640Y-100279501D01*
X109737429Y-100279923D01*
X109737424Y-100279924D01*
X109623238Y-100294955D01*
X109477158Y-100355464D01*
X109351717Y-100451717D01*
X109255464Y-100577158D01*
X109190864Y-100733116D01*
X109151127Y-100779642D01*
X109091632Y-100793925D01*
X109035104Y-100770510D01*
X109018304Y-100752014D01*
X108918112Y-100608925D01*
X108751074Y-100441887D01*
X108557576Y-100306398D01*
X108343495Y-100206570D01*
X108130000Y-100149364D01*
X108130000Y-101196981D01*
X108015199Y-101144554D01*
X107913975Y-101130000D01*
X107846025Y-101130000D01*
X107744801Y-101144554D01*
X107630000Y-101196981D01*
X107630000Y-100149364D01*
X107416505Y-100206570D01*
X107202424Y-100306398D01*
X107008925Y-100441887D01*
X106841887Y-100608925D01*
X106706399Y-100802422D01*
X106637141Y-100950944D01*
X106595412Y-100995692D01*
X106535351Y-101007366D01*
X106479898Y-100981507D01*
X106458797Y-100953234D01*
X106405058Y-100845311D01*
X106270981Y-100667764D01*
X106106562Y-100517876D01*
X106076266Y-100499118D01*
X106027382Y-100468849D01*
X105987861Y-100422140D01*
X105980500Y-100384678D01*
X105980500Y-96299500D01*
X105999407Y-96241309D01*
X106048907Y-96205345D01*
X106079500Y-96200500D01*
X106263257Y-96200500D01*
X106263260Y-96200500D01*
X106331393Y-96190573D01*
X106436483Y-96139198D01*
X106519198Y-96056483D01*
X106570573Y-95951393D01*
X106580500Y-95883260D01*
X106580500Y-94116740D01*
X106570573Y-94048607D01*
X106519198Y-93943517D01*
X106436483Y-93860802D01*
X106331393Y-93809427D01*
X106263260Y-93799500D01*
X106263257Y-93799500D01*
X106079500Y-93799500D01*
X106021309Y-93780593D01*
X105985345Y-93731093D01*
X105980500Y-93700500D01*
X105980500Y-93425849D01*
X105981347Y-93412927D01*
X105985682Y-93380000D01*
X105965044Y-93223238D01*
X105904536Y-93077159D01*
X105864157Y-93024536D01*
X105808282Y-92951718D01*
X105808280Y-92951717D01*
X105808280Y-92951716D01*
X105781936Y-92931502D01*
X105772198Y-92922963D01*
X103509495Y-90660260D01*
X103481718Y-90605743D01*
X103480499Y-90590268D01*
X103480499Y-89825319D01*
X103499406Y-89767129D01*
X103527384Y-89741148D01*
X103606559Y-89692126D01*
X103606559Y-89692125D01*
X103606562Y-89692124D01*
X103770981Y-89542236D01*
X103905058Y-89364689D01*
X104004229Y-89165528D01*
X104034779Y-89058152D01*
X104068889Y-89007358D01*
X104126342Y-88986314D01*
X104185191Y-89003058D01*
X104222960Y-89051195D01*
X104225216Y-89058140D01*
X104245359Y-89128934D01*
X104255771Y-89165529D01*
X104354940Y-89364686D01*
X104354941Y-89364687D01*
X104354942Y-89364689D01*
X104489019Y-89542236D01*
X104653438Y-89692124D01*
X104842599Y-89809247D01*
X105047040Y-89888448D01*
X105050063Y-89889619D01*
X105268755Y-89930500D01*
X105268757Y-89930500D01*
X105491245Y-89930500D01*
X105709936Y-89889619D01*
X105709937Y-89889618D01*
X105709940Y-89889618D01*
X105917401Y-89809247D01*
X106106562Y-89692124D01*
X106270981Y-89542236D01*
X106405058Y-89364689D01*
X106458798Y-89256764D01*
X106501658Y-89213105D01*
X106561999Y-89202975D01*
X106616770Y-89230247D01*
X106637141Y-89259055D01*
X106706399Y-89407577D01*
X106841887Y-89601074D01*
X107008925Y-89768112D01*
X107202423Y-89903601D01*
X107416504Y-90003429D01*
X107630000Y-90060634D01*
X107630000Y-89013018D01*
X107744801Y-89065446D01*
X107846025Y-89080000D01*
X107913975Y-89080000D01*
X108015199Y-89065446D01*
X108130000Y-89013018D01*
X108130000Y-90060634D01*
X108343495Y-90003429D01*
X108557575Y-89903601D01*
X108751074Y-89768112D01*
X108918112Y-89601074D01*
X109018304Y-89457985D01*
X109067168Y-89421163D01*
X109128344Y-89420095D01*
X109178465Y-89455189D01*
X109190864Y-89476883D01*
X109255464Y-89632841D01*
X109351717Y-89758282D01*
X109439084Y-89825320D01*
X109477159Y-89854536D01*
X109623238Y-89915044D01*
X109740639Y-89930500D01*
X111019360Y-89930499D01*
X111136762Y-89915044D01*
X111282841Y-89854536D01*
X111408282Y-89758282D01*
X111504536Y-89632841D01*
X111565044Y-89486762D01*
X111580500Y-89369361D01*
X111580499Y-87840640D01*
X111565044Y-87723238D01*
X111504536Y-87577159D01*
X111462937Y-87522946D01*
X111408282Y-87451717D01*
X111282841Y-87355464D01*
X111136761Y-87294955D01*
X111022574Y-87279923D01*
X111019361Y-87279500D01*
X111016120Y-87279500D01*
X109743881Y-87279500D01*
X109743865Y-87279500D01*
X109740640Y-87279501D01*
X109737429Y-87279923D01*
X109737424Y-87279924D01*
X109623238Y-87294955D01*
X109477158Y-87355464D01*
X109351717Y-87451717D01*
X109255464Y-87577158D01*
X109190864Y-87733116D01*
X109151127Y-87779642D01*
X109091632Y-87793925D01*
X109035104Y-87770510D01*
X109018304Y-87752014D01*
X108918112Y-87608925D01*
X108751074Y-87441887D01*
X108557576Y-87306398D01*
X108343495Y-87206570D01*
X108130000Y-87149364D01*
X108130000Y-88196981D01*
X108015199Y-88144554D01*
X107913975Y-88130000D01*
X107846025Y-88130000D01*
X107744801Y-88144554D01*
X107630000Y-88196981D01*
X107630000Y-87149364D01*
X107416505Y-87206570D01*
X107202424Y-87306398D01*
X107008925Y-87441887D01*
X106841887Y-87608925D01*
X106706399Y-87802422D01*
X106637141Y-87950944D01*
X106595412Y-87995692D01*
X106535351Y-88007366D01*
X106479898Y-87981507D01*
X106458797Y-87953234D01*
X106405058Y-87845311D01*
X106270981Y-87667764D01*
X106106562Y-87517876D01*
X106064493Y-87491828D01*
X106027382Y-87468849D01*
X105987861Y-87422140D01*
X105980500Y-87384678D01*
X105980500Y-83299500D01*
X105999407Y-83241309D01*
X106048907Y-83205345D01*
X106079500Y-83200500D01*
X106158257Y-83200500D01*
X106158260Y-83200500D01*
X106226393Y-83190573D01*
X106331483Y-83139198D01*
X106414198Y-83056483D01*
X106465573Y-82951393D01*
X106475500Y-82883260D01*
X106475500Y-81116740D01*
X106465573Y-81048607D01*
X106414198Y-80943517D01*
X106331483Y-80860802D01*
X106226393Y-80809427D01*
X106158260Y-80799500D01*
X106158257Y-80799500D01*
X105974500Y-80799500D01*
X105916309Y-80780593D01*
X105880345Y-80731093D01*
X105875500Y-80700500D01*
X105875500Y-79820849D01*
X105876347Y-79807927D01*
X105880682Y-79775000D01*
X105860044Y-79618238D01*
X105799536Y-79472159D01*
X105727450Y-79378214D01*
X105727448Y-79378212D01*
X105703282Y-79346718D01*
X105676932Y-79326499D01*
X105667203Y-79317967D01*
X103509495Y-77160259D01*
X103481718Y-77105742D01*
X103480499Y-77090267D01*
X103480500Y-76825318D01*
X103499408Y-76767128D01*
X103527380Y-76741150D01*
X103606562Y-76692124D01*
X103770981Y-76542236D01*
X103905058Y-76364689D01*
X104004229Y-76165528D01*
X104034779Y-76058152D01*
X104068889Y-76007358D01*
X104126342Y-75986314D01*
X104185191Y-76003058D01*
X104222960Y-76051195D01*
X104225216Y-76058140D01*
X104245359Y-76128934D01*
X104255771Y-76165529D01*
X104354940Y-76364686D01*
X104354941Y-76364687D01*
X104354942Y-76364689D01*
X104489019Y-76542236D01*
X104653438Y-76692124D01*
X104842599Y-76809247D01*
X105047040Y-76888448D01*
X105050063Y-76889619D01*
X105268755Y-76930500D01*
X105268757Y-76930500D01*
X105491245Y-76930500D01*
X105709936Y-76889619D01*
X105709937Y-76889618D01*
X105709940Y-76889618D01*
X105917401Y-76809247D01*
X106106562Y-76692124D01*
X106270981Y-76542236D01*
X106405058Y-76364689D01*
X106458798Y-76256764D01*
X106501658Y-76213105D01*
X106561999Y-76202975D01*
X106616770Y-76230247D01*
X106637141Y-76259055D01*
X106706399Y-76407577D01*
X106841887Y-76601074D01*
X107008925Y-76768112D01*
X107202423Y-76903601D01*
X107416504Y-77003429D01*
X107630000Y-77060634D01*
X107630000Y-76013018D01*
X107744801Y-76065446D01*
X107846025Y-76080000D01*
X107913975Y-76080000D01*
X108015199Y-76065446D01*
X108130000Y-76013018D01*
X108130000Y-77060634D01*
X108343495Y-77003429D01*
X108557575Y-76903601D01*
X108751074Y-76768112D01*
X108918112Y-76601074D01*
X109018304Y-76457985D01*
X109067168Y-76421163D01*
X109128344Y-76420095D01*
X109178465Y-76455189D01*
X109190864Y-76476883D01*
X109255464Y-76632841D01*
X109351717Y-76758282D01*
X109445518Y-76830257D01*
X109477159Y-76854536D01*
X109623238Y-76915044D01*
X109740639Y-76930500D01*
X111019360Y-76930499D01*
X111136762Y-76915044D01*
X111282841Y-76854536D01*
X111408282Y-76758282D01*
X111504536Y-76632841D01*
X111565044Y-76486762D01*
X111580500Y-76369361D01*
X111580499Y-74840640D01*
X111565044Y-74723238D01*
X111504536Y-74577159D01*
X111459704Y-74518732D01*
X111408282Y-74451717D01*
X111282841Y-74355464D01*
X111136761Y-74294955D01*
X111022574Y-74279923D01*
X111019361Y-74279500D01*
X111016120Y-74279500D01*
X109743881Y-74279500D01*
X109743865Y-74279500D01*
X109740640Y-74279501D01*
X109737429Y-74279923D01*
X109737424Y-74279924D01*
X109623238Y-74294955D01*
X109477158Y-74355464D01*
X109351717Y-74451717D01*
X109255464Y-74577158D01*
X109190864Y-74733116D01*
X109151127Y-74779642D01*
X109091632Y-74793925D01*
X109035104Y-74770510D01*
X109018304Y-74752014D01*
X108918112Y-74608925D01*
X108751074Y-74441887D01*
X108557576Y-74306398D01*
X108343495Y-74206570D01*
X108130000Y-74149364D01*
X108130000Y-75196981D01*
X108015199Y-75144554D01*
X107913975Y-75130000D01*
X107846025Y-75130000D01*
X107744801Y-75144554D01*
X107630000Y-75196981D01*
X107630000Y-74149364D01*
X107416505Y-74206570D01*
X107202424Y-74306398D01*
X107008925Y-74441887D01*
X106841887Y-74608925D01*
X106706399Y-74802422D01*
X106637141Y-74950944D01*
X106595412Y-74995692D01*
X106535351Y-75007366D01*
X106479898Y-74981507D01*
X106458797Y-74953234D01*
X106405058Y-74845311D01*
X106270981Y-74667764D01*
X106106562Y-74517876D01*
X105917401Y-74400753D01*
X105917399Y-74400752D01*
X105709936Y-74320380D01*
X105491245Y-74279500D01*
X105491243Y-74279500D01*
X105268757Y-74279500D01*
X105268755Y-74279500D01*
X105050063Y-74320380D01*
X104842600Y-74400752D01*
X104653436Y-74517877D01*
X104489020Y-74667763D01*
X104354940Y-74845313D01*
X104255772Y-75044469D01*
X104255771Y-75044472D01*
X104225220Y-75151847D01*
X104191110Y-75202641D01*
X104133658Y-75223685D01*
X104074808Y-75206941D01*
X104037040Y-75158804D01*
X104034783Y-75151859D01*
X104004229Y-75044472D01*
X103905058Y-74845311D01*
X103770981Y-74667764D01*
X103606562Y-74517876D01*
X103417401Y-74400753D01*
X103417399Y-74400752D01*
X103209936Y-74320380D01*
X102991245Y-74279500D01*
X102991243Y-74279500D01*
X102768757Y-74279500D01*
X102768755Y-74279500D01*
X102550063Y-74320380D01*
X102342600Y-74400752D01*
X102153436Y-74517877D01*
X101989020Y-74667763D01*
X101854940Y-74845313D01*
X101755772Y-75044469D01*
X101755771Y-75044472D01*
X101725220Y-75151847D01*
X101691110Y-75202641D01*
X101633658Y-75223685D01*
X101574808Y-75206941D01*
X101537040Y-75158804D01*
X101534783Y-75151859D01*
X101504229Y-75044472D01*
X101405058Y-74845311D01*
X101270981Y-74667764D01*
X101106562Y-74517876D01*
X100917401Y-74400753D01*
X100917399Y-74400752D01*
X100709936Y-74320380D01*
X100491245Y-74279500D01*
X100491243Y-74279500D01*
X100268757Y-74279500D01*
X100268755Y-74279500D01*
X100050063Y-74320380D01*
X99842600Y-74400752D01*
X99653436Y-74517877D01*
X99489020Y-74667763D01*
X99354940Y-74845313D01*
X99255772Y-75044469D01*
X99255771Y-75044472D01*
X99225220Y-75151847D01*
X99191110Y-75202641D01*
X99133658Y-75223685D01*
X99074808Y-75206941D01*
X99037040Y-75158804D01*
X99034783Y-75151859D01*
X99004229Y-75044472D01*
X98905058Y-74845311D01*
X98770981Y-74667764D01*
X98606562Y-74517876D01*
X98417401Y-74400753D01*
X98417399Y-74400752D01*
X98209936Y-74320380D01*
X97991245Y-74279500D01*
X97991243Y-74279500D01*
X97768757Y-74279500D01*
X97768755Y-74279500D01*
X97550063Y-74320380D01*
X97342600Y-74400752D01*
X97153436Y-74517877D01*
X96989020Y-74667763D01*
X96854940Y-74845313D01*
X96755772Y-75044469D01*
X96755771Y-75044472D01*
X96725220Y-75151847D01*
X96691110Y-75202641D01*
X96633658Y-75223685D01*
X96574808Y-75206941D01*
X96537040Y-75158804D01*
X96534783Y-75151859D01*
X96504229Y-75044472D01*
X96405058Y-74845311D01*
X96270981Y-74667764D01*
X96106562Y-74517876D01*
X95917401Y-74400753D01*
X95917399Y-74400752D01*
X95709936Y-74320380D01*
X95491245Y-74279500D01*
X95491243Y-74279500D01*
X95268757Y-74279500D01*
X95268755Y-74279500D01*
X95050063Y-74320380D01*
X94842600Y-74400752D01*
X94653436Y-74517877D01*
X94489020Y-74667763D01*
X94354940Y-74845313D01*
X94255772Y-75044469D01*
X94255771Y-75044472D01*
X94225220Y-75151847D01*
X94191110Y-75202641D01*
X94133658Y-75223685D01*
X94074808Y-75206941D01*
X94037040Y-75158804D01*
X94034783Y-75151859D01*
X94004229Y-75044472D01*
X93905058Y-74845311D01*
X93770981Y-74667764D01*
X93606562Y-74517876D01*
X93417401Y-74400753D01*
X93417399Y-74400752D01*
X93209936Y-74320380D01*
X92991245Y-74279500D01*
X92991243Y-74279500D01*
X92768757Y-74279500D01*
X92768755Y-74279500D01*
X92550063Y-74320380D01*
X92342600Y-74400752D01*
X92153436Y-74517877D01*
X91989020Y-74667763D01*
X91854940Y-74845313D01*
X91755772Y-75044469D01*
X91755771Y-75044472D01*
X91703413Y-75228490D01*
X91694885Y-75258464D01*
X91681068Y-75407580D01*
X91679500Y-75424497D01*
X91679500Y-75785503D01*
X91679525Y-75785780D01*
X91663391Y-75844495D01*
X91650713Y-75860049D01*
X91105261Y-76405503D01*
X91050744Y-76433281D01*
X91035257Y-76434500D01*
X88721801Y-76434500D01*
X88663610Y-76415593D01*
X88627646Y-76366093D01*
X88627646Y-76304907D01*
X88633180Y-76291372D01*
X88645716Y-76266193D01*
X88697405Y-76162389D01*
X88755756Y-75957310D01*
X88775429Y-75745000D01*
X88755756Y-75532690D01*
X88697405Y-75327611D01*
X88602366Y-75136745D01*
X88602365Y-75136744D01*
X88602365Y-75136743D01*
X88473874Y-74966595D01*
X88316300Y-74822946D01*
X88135021Y-74710703D01*
X88135019Y-74710702D01*
X88038460Y-74673295D01*
X87936195Y-74633677D01*
X87726612Y-74594500D01*
X87726610Y-74594500D01*
X87513390Y-74594500D01*
X87513388Y-74594500D01*
X87303804Y-74633677D01*
X87104978Y-74710703D01*
X86923699Y-74822946D01*
X86766125Y-74966595D01*
X86637634Y-75136743D01*
X86542596Y-75327608D01*
X86542595Y-75327611D01*
X86484244Y-75532690D01*
X86464571Y-75745000D01*
X86484244Y-75957310D01*
X86537647Y-76145000D01*
X86542596Y-76162391D01*
X86606820Y-76291372D01*
X86615833Y-76351890D01*
X86587552Y-76406148D01*
X86532781Y-76433420D01*
X86518199Y-76434500D01*
X85760849Y-76434500D01*
X85747927Y-76433653D01*
X85715000Y-76429318D01*
X85714999Y-76429318D01*
X85675639Y-76434500D01*
X85558238Y-76449955D01*
X85412158Y-76510464D01*
X85286717Y-76606718D01*
X85266499Y-76633067D01*
X85257962Y-76642802D01*
X83857801Y-78042962D01*
X83848067Y-78051498D01*
X83821719Y-78071716D01*
X83797549Y-78103216D01*
X83725464Y-78197158D01*
X83664955Y-78343238D01*
X83644318Y-78500000D01*
X83648653Y-78532927D01*
X83649500Y-78545849D01*
X83649500Y-88985256D01*
X83630593Y-89043447D01*
X83620504Y-89055260D01*
X73649016Y-99026748D01*
X73594499Y-99054525D01*
X73534067Y-99044954D01*
X73490802Y-99001689D01*
X73481231Y-98941257D01*
X73483788Y-98929661D01*
X73515756Y-98817310D01*
X73535429Y-98605000D01*
X73515756Y-98392690D01*
X73457405Y-98187611D01*
X73362366Y-97996745D01*
X73362365Y-97996744D01*
X73362365Y-97996743D01*
X73233874Y-97826595D01*
X73226139Y-97819544D01*
X73076302Y-97682948D01*
X73076300Y-97682946D01*
X72895021Y-97570703D01*
X72895019Y-97570702D01*
X72852898Y-97554384D01*
X72696195Y-97493677D01*
X72486612Y-97454500D01*
X72486610Y-97454500D01*
X72273390Y-97454500D01*
X72273388Y-97454500D01*
X72063804Y-97493677D01*
X71864978Y-97570703D01*
X71683699Y-97682946D01*
X71526125Y-97826595D01*
X71397634Y-97996743D01*
X71302596Y-98187608D01*
X71302595Y-98187611D01*
X71244244Y-98392690D01*
X71224571Y-98605000D01*
X71244244Y-98817310D01*
X71296705Y-99001689D01*
X71302596Y-99022391D01*
X71397634Y-99213256D01*
X71526125Y-99383404D01*
X71526127Y-99383406D01*
X71526128Y-99383407D01*
X71583461Y-99435673D01*
X71683699Y-99527053D01*
X71764620Y-99577157D01*
X71864981Y-99639298D01*
X72021681Y-99700003D01*
X72063804Y-99716322D01*
X72273388Y-99755500D01*
X72273390Y-99755500D01*
X72486612Y-99755500D01*
X72705216Y-99714636D01*
X72705922Y-99718418D01*
X72749284Y-99715965D01*
X72800736Y-99749076D01*
X72822900Y-99806106D01*
X72807309Y-99865271D01*
X72794062Y-99881701D01*
X72687506Y-99988257D01*
X72632989Y-100016034D01*
X72599311Y-100015567D01*
X72486612Y-99994500D01*
X72486610Y-99994500D01*
X72273390Y-99994500D01*
X72273388Y-99994500D01*
X72063804Y-100033677D01*
X71864978Y-100110703D01*
X71683699Y-100222946D01*
X71592158Y-100306398D01*
X71526128Y-100366593D01*
X71421484Y-100505161D01*
X71371329Y-100540204D01*
X71342482Y-100544500D01*
X70934743Y-100544500D01*
X70876552Y-100525593D01*
X70864739Y-100515504D01*
X68457037Y-98107802D01*
X68448499Y-98098065D01*
X68428282Y-98071718D01*
X68302841Y-97975464D01*
X68156761Y-97914955D01*
X68115494Y-97909523D01*
X68039361Y-97899500D01*
X68000000Y-97894318D01*
X67999999Y-97894318D01*
X67967073Y-97898653D01*
X67954151Y-97899500D01*
X63545849Y-97899500D01*
X63532927Y-97898653D01*
X63500000Y-97894318D01*
X63384506Y-97909523D01*
X63343238Y-97914955D01*
X63197158Y-97975464D01*
X63071717Y-98071718D01*
X63051499Y-98098067D01*
X63042962Y-98107802D01*
X61987801Y-99162962D01*
X61978067Y-99171498D01*
X61951718Y-99191717D01*
X61902969Y-99255249D01*
X61855465Y-99317157D01*
X61825545Y-99389389D01*
X61786198Y-99435673D01*
X61653440Y-99517874D01*
X61653437Y-99517876D01*
X61653438Y-99517876D01*
X61489019Y-99667764D01*
X61482914Y-99675849D01*
X61354940Y-99845313D01*
X61255772Y-100044469D01*
X61225220Y-100151846D01*
X61191109Y-100202641D01*
X61133656Y-100223685D01*
X61074807Y-100206941D01*
X61037039Y-100158803D01*
X61034788Y-100151876D01*
X61004229Y-100044472D01*
X60905058Y-99845311D01*
X60770981Y-99667764D01*
X60606562Y-99517876D01*
X60417401Y-99400753D01*
X60417399Y-99400752D01*
X60209936Y-99320380D01*
X59991245Y-99279500D01*
X59991243Y-99279500D01*
X59768757Y-99279500D01*
X59768755Y-99279500D01*
X59550063Y-99320380D01*
X59342600Y-99400752D01*
X59153436Y-99517877D01*
X58994325Y-99662927D01*
X58989019Y-99667764D01*
X58982914Y-99675849D01*
X58854940Y-99845313D01*
X58755772Y-100044469D01*
X58755771Y-100044472D01*
X58725220Y-100151847D01*
X58691110Y-100202641D01*
X58633658Y-100223685D01*
X58574808Y-100206941D01*
X58537040Y-100158804D01*
X58534783Y-100151859D01*
X58504229Y-100044472D01*
X58405058Y-99845311D01*
X58270981Y-99667764D01*
X58106562Y-99517876D01*
X58076266Y-99499118D01*
X58027382Y-99468849D01*
X57987861Y-99422140D01*
X57980500Y-99384678D01*
X57980500Y-98409743D01*
X57999407Y-98351552D01*
X58009496Y-98339739D01*
X58397517Y-97951718D01*
X58827450Y-97521786D01*
X58827451Y-97521783D01*
X58836067Y-97513168D01*
X58836069Y-97513165D01*
X59654740Y-96694496D01*
X59709256Y-96666719D01*
X59724743Y-96665500D01*
X71342482Y-96665500D01*
X71400673Y-96684407D01*
X71421483Y-96704836D01*
X71526128Y-96843407D01*
X71669773Y-96974358D01*
X71683699Y-96987053D01*
X71815622Y-97068736D01*
X71864981Y-97099298D01*
X72021681Y-97160003D01*
X72063804Y-97176322D01*
X72273388Y-97215500D01*
X72273390Y-97215500D01*
X72486612Y-97215500D01*
X72696195Y-97176322D01*
X72696198Y-97176321D01*
X72895019Y-97099298D01*
X73076302Y-96987052D01*
X73233872Y-96843407D01*
X73362366Y-96673255D01*
X73457405Y-96482389D01*
X73515756Y-96277310D01*
X73535429Y-96065000D01*
X73515756Y-95852690D01*
X73457405Y-95647611D01*
X73362366Y-95456745D01*
X73362365Y-95456744D01*
X73362365Y-95456743D01*
X73233874Y-95286595D01*
X73076300Y-95142946D01*
X72895021Y-95030703D01*
X72895019Y-95030702D01*
X72852898Y-95014384D01*
X72696195Y-94953677D01*
X72486612Y-94914500D01*
X72486610Y-94914500D01*
X72273390Y-94914500D01*
X72273388Y-94914500D01*
X72063804Y-94953677D01*
X71864978Y-95030703D01*
X71683699Y-95142946D01*
X71526129Y-95286592D01*
X71526128Y-95286593D01*
X71421484Y-95425161D01*
X71371329Y-95460204D01*
X71342482Y-95464500D01*
X59480849Y-95464500D01*
X59467927Y-95463653D01*
X59435000Y-95459318D01*
X59278238Y-95479955D01*
X59132158Y-95540464D01*
X59006717Y-95636718D01*
X58986498Y-95663067D01*
X58977962Y-95672801D01*
X57978218Y-96672546D01*
X57978214Y-96672550D01*
X56987801Y-97662962D01*
X56978067Y-97671498D01*
X56951718Y-97691717D01*
X56888337Y-97774318D01*
X56855464Y-97817158D01*
X56794955Y-97963238D01*
X56774318Y-98120000D01*
X56778653Y-98152927D01*
X56779500Y-98165849D01*
X56779499Y-99384678D01*
X56760592Y-99442869D01*
X56732617Y-99468849D01*
X56653438Y-99517875D01*
X56494325Y-99662927D01*
X56489019Y-99667764D01*
X56482914Y-99675849D01*
X56354940Y-99845313D01*
X56255772Y-100044469D01*
X56255771Y-100044472D01*
X56225220Y-100151847D01*
X56191110Y-100202641D01*
X56133658Y-100223685D01*
X56074808Y-100206941D01*
X56037040Y-100158804D01*
X56034783Y-100151859D01*
X56004229Y-100044472D01*
X55905058Y-99845311D01*
X55770981Y-99667764D01*
X55606562Y-99517876D01*
X55576266Y-99499118D01*
X55527382Y-99468849D01*
X55487861Y-99422140D01*
X55480500Y-99384678D01*
X55480500Y-96184602D01*
X55499407Y-96126411D01*
X55543737Y-96092288D01*
X55577401Y-96079247D01*
X55766562Y-95962124D01*
X55930981Y-95812236D01*
X56065058Y-95634689D01*
X56164229Y-95435528D01*
X56225115Y-95221536D01*
X56245643Y-95000000D01*
X56225115Y-94778464D01*
X56164229Y-94564472D01*
X56065058Y-94365311D01*
X55930981Y-94187764D01*
X55766562Y-94037876D01*
X55577401Y-93920753D01*
X55577399Y-93920752D01*
X55369936Y-93840380D01*
X55151245Y-93799500D01*
X55151243Y-93799500D01*
X54928757Y-93799500D01*
X54928755Y-93799500D01*
X54710063Y-93840380D01*
X54502600Y-93920752D01*
X54313436Y-94037877D01*
X54149020Y-94187763D01*
X54014940Y-94365313D01*
X53918348Y-94559296D01*
X53915771Y-94564472D01*
X53894720Y-94638458D01*
X53860610Y-94689252D01*
X53803158Y-94710296D01*
X53744308Y-94693552D01*
X53706540Y-94645415D01*
X53700500Y-94611364D01*
X53700500Y-94116743D01*
X53690708Y-94049536D01*
X53690573Y-94048607D01*
X53639198Y-93943517D01*
X53556483Y-93860802D01*
X53451393Y-93809427D01*
X53383260Y-93799500D01*
X53383257Y-93799500D01*
X53199500Y-93799500D01*
X53141309Y-93780593D01*
X53105345Y-93731093D01*
X53100500Y-93700500D01*
X53100500Y-92789742D01*
X53119407Y-92731551D01*
X53129496Y-92719738D01*
X54085830Y-91763404D01*
X55272205Y-90577028D01*
X55281925Y-90568505D01*
X55308282Y-90548282D01*
X55404536Y-90422841D01*
X55465044Y-90276762D01*
X55480500Y-90159361D01*
X55485682Y-90120000D01*
X55481967Y-90091783D01*
X55481347Y-90087070D01*
X55480500Y-90074149D01*
X55480500Y-88825319D01*
X55499407Y-88767128D01*
X55527380Y-88741150D01*
X55606562Y-88692124D01*
X55770981Y-88542236D01*
X55905058Y-88364689D01*
X56004229Y-88165528D01*
X56034779Y-88058152D01*
X56068889Y-88007358D01*
X56126342Y-87986314D01*
X56185191Y-88003058D01*
X56222960Y-88051195D01*
X56225216Y-88058140D01*
X56240810Y-88112946D01*
X56255771Y-88165529D01*
X56354940Y-88364686D01*
X56354941Y-88364687D01*
X56354942Y-88364689D01*
X56489019Y-88542236D01*
X56653438Y-88692124D01*
X56842599Y-88809247D01*
X57022479Y-88878933D01*
X57050063Y-88889619D01*
X57268755Y-88930500D01*
X57268757Y-88930500D01*
X57491245Y-88930500D01*
X57709936Y-88889619D01*
X57709937Y-88889618D01*
X57709940Y-88889618D01*
X57917401Y-88809247D01*
X58106562Y-88692124D01*
X58270981Y-88542236D01*
X58405058Y-88364689D01*
X58504229Y-88165528D01*
X58534779Y-88058152D01*
X58568889Y-88007358D01*
X58626342Y-87986314D01*
X58685191Y-88003058D01*
X58722960Y-88051195D01*
X58725216Y-88058140D01*
X58740810Y-88112946D01*
X58755771Y-88165529D01*
X58854940Y-88364686D01*
X58854941Y-88364687D01*
X58854942Y-88364689D01*
X58989019Y-88542236D01*
X59153438Y-88692124D01*
X59342599Y-88809247D01*
X59522479Y-88878933D01*
X59550063Y-88889619D01*
X59768755Y-88930500D01*
X59768757Y-88930500D01*
X59991245Y-88930500D01*
X60209936Y-88889619D01*
X60209937Y-88889618D01*
X60209940Y-88889618D01*
X60417401Y-88809247D01*
X60606562Y-88692124D01*
X60770981Y-88542236D01*
X60905058Y-88364689D01*
X61004229Y-88165528D01*
X61034780Y-88058149D01*
X61068888Y-88007359D01*
X61126340Y-87986314D01*
X61185190Y-88003057D01*
X61222959Y-88051194D01*
X61225220Y-88058153D01*
X61255771Y-88165528D01*
X61255772Y-88165530D01*
X61354940Y-88364686D01*
X61354941Y-88364687D01*
X61354942Y-88364689D01*
X61489019Y-88542236D01*
X61653438Y-88692124D01*
X61842599Y-88809247D01*
X62022479Y-88878933D01*
X62050063Y-88889619D01*
X62268755Y-88930500D01*
X62268757Y-88930500D01*
X62491245Y-88930500D01*
X62709936Y-88889619D01*
X62709937Y-88889618D01*
X62709940Y-88889618D01*
X62917401Y-88809247D01*
X63106562Y-88692124D01*
X63270981Y-88542236D01*
X63405058Y-88364689D01*
X63504229Y-88165528D01*
X63534780Y-88058149D01*
X63568888Y-88007359D01*
X63626340Y-87986314D01*
X63685190Y-88003057D01*
X63722959Y-88051194D01*
X63725220Y-88058153D01*
X63755771Y-88165528D01*
X63755772Y-88165530D01*
X63854940Y-88364686D01*
X63854941Y-88364687D01*
X63854942Y-88364689D01*
X63989019Y-88542236D01*
X64153438Y-88692124D01*
X64342599Y-88809247D01*
X64522479Y-88878933D01*
X64550063Y-88889619D01*
X64768755Y-88930500D01*
X64768757Y-88930500D01*
X64991245Y-88930500D01*
X65137041Y-88903245D01*
X65209940Y-88889618D01*
X65225783Y-88883480D01*
X65286875Y-88880087D01*
X65331554Y-88905789D01*
X70342964Y-93917199D01*
X70351502Y-93926936D01*
X70371718Y-93953282D01*
X70413943Y-93985682D01*
X70497159Y-94049536D01*
X70643238Y-94110044D01*
X70800000Y-94130682D01*
X70832927Y-94126346D01*
X70845849Y-94125500D01*
X71342482Y-94125500D01*
X71400673Y-94144407D01*
X71421483Y-94164836D01*
X71526128Y-94303407D01*
X71669774Y-94434358D01*
X71683699Y-94447053D01*
X71815622Y-94528736D01*
X71864981Y-94559298D01*
X71999380Y-94611364D01*
X72063804Y-94636322D01*
X72273388Y-94675500D01*
X72273390Y-94675500D01*
X72486612Y-94675500D01*
X72696195Y-94636322D01*
X72696198Y-94636321D01*
X72895019Y-94559298D01*
X73076302Y-94447052D01*
X73233872Y-94303407D01*
X73362366Y-94133255D01*
X73457405Y-93942389D01*
X73515756Y-93737310D01*
X73535429Y-93525000D01*
X73515756Y-93312690D01*
X73457405Y-93107611D01*
X73362366Y-92916745D01*
X73362365Y-92916744D01*
X73362365Y-92916743D01*
X73233874Y-92746595D01*
X73076300Y-92602946D01*
X72895021Y-92490703D01*
X72895019Y-92490702D01*
X72852898Y-92474384D01*
X72696195Y-92413677D01*
X72486612Y-92374500D01*
X72486610Y-92374500D01*
X72273390Y-92374500D01*
X72273388Y-92374500D01*
X72063804Y-92413677D01*
X71864978Y-92490703D01*
X71683699Y-92602946D01*
X71555586Y-92719738D01*
X71526128Y-92746593D01*
X71421484Y-92885161D01*
X71371329Y-92920204D01*
X71342482Y-92924500D01*
X71089743Y-92924500D01*
X71031552Y-92905593D01*
X71019739Y-92895504D01*
X66098880Y-87974645D01*
X66071103Y-87920128D01*
X66070306Y-87895506D01*
X66080500Y-87785503D01*
X66080500Y-87424497D01*
X66065115Y-87258464D01*
X66004229Y-87044472D01*
X65905058Y-86845311D01*
X65770981Y-86667764D01*
X65606562Y-86517876D01*
X65599100Y-86513256D01*
X65551319Y-86483671D01*
X65511798Y-86436963D01*
X65507279Y-86375944D01*
X65539489Y-86323924D01*
X65596125Y-86300770D01*
X65603436Y-86300500D01*
X66805257Y-86300500D01*
X66863448Y-86319407D01*
X66875261Y-86329496D01*
X71219543Y-90673778D01*
X71247320Y-90728295D01*
X71244762Y-90770866D01*
X71244245Y-90772683D01*
X71244244Y-90772688D01*
X71244244Y-90772690D01*
X71224571Y-90985000D01*
X71244244Y-91197310D01*
X71298198Y-91386936D01*
X71302596Y-91402391D01*
X71397634Y-91593256D01*
X71526125Y-91763404D01*
X71683699Y-91907053D01*
X71815622Y-91988736D01*
X71864981Y-92019298D01*
X72000289Y-92071716D01*
X72063804Y-92096322D01*
X72273388Y-92135500D01*
X72273390Y-92135500D01*
X72486612Y-92135500D01*
X72696195Y-92096322D01*
X72696198Y-92096321D01*
X72895019Y-92019298D01*
X73076302Y-91907052D01*
X73233872Y-91763407D01*
X73362366Y-91593255D01*
X73457405Y-91402389D01*
X73515756Y-91197310D01*
X73535429Y-90985000D01*
X73515756Y-90772690D01*
X73457405Y-90567611D01*
X73362366Y-90376745D01*
X73362365Y-90376744D01*
X73362365Y-90376743D01*
X73233874Y-90206595D01*
X73076300Y-90062946D01*
X72895021Y-89950703D01*
X72895019Y-89950702D01*
X72841774Y-89930075D01*
X72696195Y-89873677D01*
X72486612Y-89834500D01*
X72486610Y-89834500D01*
X72273390Y-89834500D01*
X72273388Y-89834500D01*
X72160687Y-89855567D01*
X72100013Y-89847674D01*
X72072492Y-89828257D01*
X71965936Y-89721701D01*
X71938159Y-89667184D01*
X71947730Y-89606752D01*
X71990995Y-89563487D01*
X72051427Y-89553916D01*
X72054751Y-89554812D01*
X72054784Y-89554636D01*
X72273388Y-89595500D01*
X72273390Y-89595500D01*
X72486612Y-89595500D01*
X72696195Y-89556322D01*
X72700093Y-89554812D01*
X72895019Y-89479298D01*
X73076302Y-89367052D01*
X73233872Y-89223407D01*
X73362366Y-89053255D01*
X73457405Y-88862389D01*
X73515756Y-88657310D01*
X73535429Y-88445000D01*
X73515756Y-88232690D01*
X73457405Y-88027611D01*
X73362366Y-87836745D01*
X73362365Y-87836744D01*
X73362365Y-87836743D01*
X73233874Y-87666595D01*
X73186363Y-87623283D01*
X73076302Y-87522948D01*
X73076300Y-87522946D01*
X72895021Y-87410703D01*
X72895019Y-87410702D01*
X72827843Y-87384678D01*
X72696195Y-87333677D01*
X72486612Y-87294500D01*
X72486610Y-87294500D01*
X72273390Y-87294500D01*
X72273388Y-87294500D01*
X72063804Y-87333677D01*
X71890071Y-87400982D01*
X71878025Y-87405649D01*
X71856427Y-87414016D01*
X71855758Y-87412291D01*
X71807331Y-87424145D01*
X71750699Y-87400982D01*
X71744656Y-87395421D01*
X67957035Y-83607800D01*
X67948496Y-83598062D01*
X67928281Y-83571716D01*
X67802841Y-83475464D01*
X67656761Y-83414955D01*
X67539361Y-83399500D01*
X67500000Y-83394318D01*
X67467073Y-83398653D01*
X67454151Y-83399500D01*
X62045849Y-83399500D01*
X62032927Y-83398653D01*
X62000000Y-83394318D01*
X61999999Y-83394318D01*
X61960639Y-83399500D01*
X61843238Y-83414955D01*
X61697158Y-83475464D01*
X61571717Y-83571718D01*
X61551498Y-83598067D01*
X61542962Y-83607801D01*
X59487801Y-85662962D01*
X59478067Y-85671498D01*
X59451719Y-85691716D01*
X59427549Y-85723216D01*
X59355464Y-85817158D01*
X59294955Y-85963238D01*
X59274318Y-86120000D01*
X59278653Y-86152927D01*
X59279500Y-86165849D01*
X59279500Y-86384678D01*
X59260593Y-86442869D01*
X59232618Y-86468849D01*
X59153438Y-86517876D01*
X58989020Y-86667763D01*
X58854940Y-86845313D01*
X58769788Y-87016322D01*
X58755771Y-87044472D01*
X58725220Y-87151847D01*
X58691110Y-87202641D01*
X58633658Y-87223685D01*
X58574808Y-87206941D01*
X58537040Y-87158804D01*
X58534783Y-87151859D01*
X58504229Y-87044472D01*
X58405058Y-86845311D01*
X58270981Y-86667764D01*
X58106562Y-86517876D01*
X58061612Y-86490044D01*
X58027382Y-86468849D01*
X57987861Y-86422140D01*
X57980500Y-86384678D01*
X57980500Y-85409742D01*
X57999407Y-85351551D01*
X58009490Y-85339744D01*
X60219739Y-83129496D01*
X60274256Y-83101719D01*
X60289743Y-83100500D01*
X67710257Y-83100500D01*
X67768448Y-83119407D01*
X67780261Y-83129496D01*
X70947963Y-86297198D01*
X70956502Y-86306936D01*
X70976718Y-86333283D01*
X71025491Y-86370707D01*
X71059477Y-86396785D01*
X71102159Y-86429536D01*
X71248238Y-86490044D01*
X71353563Y-86503909D01*
X71408787Y-86530249D01*
X71419640Y-86542395D01*
X71526128Y-86683407D01*
X71642949Y-86789904D01*
X71683699Y-86827053D01*
X71705643Y-86840640D01*
X71864981Y-86939298D01*
X71969406Y-86979752D01*
X72063804Y-87016322D01*
X72273388Y-87055500D01*
X72273390Y-87055500D01*
X72486612Y-87055500D01*
X72696195Y-87016322D01*
X72696198Y-87016321D01*
X72895019Y-86939298D01*
X73076302Y-86827052D01*
X73233872Y-86683407D01*
X73362366Y-86513255D01*
X73457405Y-86322389D01*
X73515756Y-86117310D01*
X73535429Y-85905000D01*
X73515756Y-85692690D01*
X73457405Y-85487611D01*
X73362366Y-85296745D01*
X73362365Y-85296744D01*
X73362365Y-85296743D01*
X73233874Y-85126595D01*
X73218002Y-85112126D01*
X73076302Y-84982948D01*
X73076300Y-84982946D01*
X72895021Y-84870703D01*
X72895019Y-84870702D01*
X72852898Y-84854384D01*
X72696195Y-84793677D01*
X72486612Y-84754500D01*
X72486610Y-84754500D01*
X72273390Y-84754500D01*
X72273388Y-84754500D01*
X72063804Y-84793677D01*
X71864978Y-84870703D01*
X71683699Y-84982946D01*
X71569673Y-85086896D01*
X71513932Y-85112126D01*
X71454006Y-85099774D01*
X71432973Y-85083738D01*
X68457035Y-82107800D01*
X68448496Y-82098062D01*
X68428281Y-82071716D01*
X68302841Y-81975464D01*
X68156761Y-81914955D01*
X68039361Y-81899500D01*
X68000000Y-81894318D01*
X67967073Y-81898653D01*
X67954151Y-81899500D01*
X60045856Y-81899500D01*
X60032934Y-81898653D01*
X60000000Y-81894317D01*
X59843238Y-81914955D01*
X59697158Y-81975464D01*
X59571717Y-82071718D01*
X59551498Y-82098067D01*
X59542962Y-82107801D01*
X56987801Y-84662962D01*
X56978067Y-84671498D01*
X56951719Y-84691716D01*
X56927549Y-84723216D01*
X56855464Y-84817158D01*
X56794955Y-84963238D01*
X56774318Y-85120000D01*
X56778653Y-85152927D01*
X56779500Y-85165849D01*
X56779499Y-86384678D01*
X56760592Y-86442869D01*
X56732617Y-86468849D01*
X56653438Y-86517875D01*
X56489020Y-86667763D01*
X56354940Y-86845313D01*
X56269788Y-87016322D01*
X56255771Y-87044472D01*
X56225220Y-87151847D01*
X56191110Y-87202641D01*
X56133658Y-87223685D01*
X56074808Y-87206941D01*
X56037040Y-87158804D01*
X56034783Y-87151859D01*
X56004229Y-87044472D01*
X55905058Y-86845311D01*
X55770981Y-86667764D01*
X55606562Y-86517876D01*
X55561612Y-86490044D01*
X55527382Y-86468849D01*
X55487861Y-86422140D01*
X55480500Y-86384678D01*
X55480500Y-83184602D01*
X55499407Y-83126411D01*
X55543737Y-83092288D01*
X55577401Y-83079247D01*
X55766562Y-82962124D01*
X55930981Y-82812236D01*
X56065058Y-82634689D01*
X56164229Y-82435528D01*
X56225115Y-82221536D01*
X56245643Y-82000000D01*
X56225115Y-81778464D01*
X56164229Y-81564472D01*
X56065058Y-81365311D01*
X55930981Y-81187764D01*
X55766562Y-81037876D01*
X55577401Y-80920753D01*
X55577399Y-80920752D01*
X55369936Y-80840380D01*
X55151245Y-80799500D01*
X55151243Y-80799500D01*
X54928757Y-80799500D01*
X54928755Y-80799500D01*
X54710063Y-80840380D01*
X54502600Y-80920752D01*
X54313436Y-81037877D01*
X54149020Y-81187763D01*
X54014940Y-81365313D01*
X53915772Y-81564469D01*
X53915771Y-81564472D01*
X53894720Y-81638458D01*
X53860610Y-81689252D01*
X53803158Y-81710296D01*
X53744308Y-81693552D01*
X53706540Y-81645415D01*
X53700500Y-81611364D01*
X53700500Y-81116743D01*
X53700500Y-81116740D01*
X53690573Y-81048607D01*
X53639198Y-80943517D01*
X53556483Y-80860802D01*
X53451393Y-80809427D01*
X53383260Y-80799500D01*
X53383257Y-80799500D01*
X53199500Y-80799500D01*
X53141309Y-80780593D01*
X53105345Y-80731093D01*
X53100500Y-80700500D01*
X53100500Y-79789742D01*
X53119407Y-79731551D01*
X53129490Y-79719744D01*
X55272205Y-77577028D01*
X55281925Y-77568505D01*
X55308282Y-77548282D01*
X55404536Y-77422841D01*
X55465044Y-77276762D01*
X55480500Y-77159361D01*
X55485682Y-77120000D01*
X55481347Y-77087070D01*
X55480500Y-77074149D01*
X55480500Y-75825319D01*
X55499407Y-75767128D01*
X55527380Y-75741150D01*
X55606562Y-75692124D01*
X55770981Y-75542236D01*
X55905058Y-75364689D01*
X56004229Y-75165528D01*
X56034779Y-75058152D01*
X56068889Y-75007358D01*
X56126342Y-74986314D01*
X56185191Y-75003058D01*
X56222960Y-75051195D01*
X56225216Y-75058140D01*
X56234998Y-75092519D01*
X56255771Y-75165529D01*
X56354940Y-75364686D01*
X56354941Y-75364687D01*
X56354942Y-75364689D01*
X56489019Y-75542236D01*
X56653438Y-75692124D01*
X56842599Y-75809247D01*
X57050060Y-75889618D01*
X57050063Y-75889619D01*
X57268755Y-75930500D01*
X57268757Y-75930500D01*
X57491245Y-75930500D01*
X57709936Y-75889619D01*
X57709937Y-75889618D01*
X57709940Y-75889618D01*
X57917401Y-75809247D01*
X58106562Y-75692124D01*
X58270981Y-75542236D01*
X58405058Y-75364689D01*
X58504229Y-75165528D01*
X58534779Y-75058152D01*
X58568889Y-75007358D01*
X58626342Y-74986314D01*
X58685191Y-75003058D01*
X58722960Y-75051195D01*
X58725216Y-75058140D01*
X58734998Y-75092519D01*
X58755771Y-75165529D01*
X58854940Y-75364686D01*
X58854941Y-75364687D01*
X58854942Y-75364689D01*
X58989019Y-75542236D01*
X59153438Y-75692124D01*
X59342599Y-75809247D01*
X59550060Y-75889618D01*
X59550063Y-75889619D01*
X59768755Y-75930500D01*
X59768757Y-75930500D01*
X59991245Y-75930500D01*
X60209936Y-75889619D01*
X60209937Y-75889618D01*
X60209940Y-75889618D01*
X60417401Y-75809247D01*
X60606562Y-75692124D01*
X60770981Y-75542236D01*
X60905058Y-75364689D01*
X61004229Y-75165528D01*
X61034780Y-75058149D01*
X61068888Y-75007359D01*
X61126340Y-74986314D01*
X61185190Y-75003057D01*
X61222959Y-75051194D01*
X61225220Y-75058153D01*
X61255771Y-75165528D01*
X61255772Y-75165530D01*
X61354940Y-75364686D01*
X61354941Y-75364687D01*
X61354942Y-75364689D01*
X61489019Y-75542236D01*
X61653438Y-75692124D01*
X61842599Y-75809247D01*
X62050060Y-75889618D01*
X62050063Y-75889619D01*
X62268755Y-75930500D01*
X62268757Y-75930500D01*
X62491245Y-75930500D01*
X62709936Y-75889619D01*
X62709937Y-75889618D01*
X62709940Y-75889618D01*
X62917401Y-75809247D01*
X63106562Y-75692124D01*
X63270981Y-75542236D01*
X63405058Y-75364689D01*
X63504229Y-75165528D01*
X63534780Y-75058149D01*
X63568888Y-75007359D01*
X63626340Y-74986314D01*
X63685190Y-75003057D01*
X63722959Y-75051194D01*
X63725220Y-75058153D01*
X63755771Y-75165528D01*
X63755772Y-75165530D01*
X63854940Y-75364686D01*
X63854941Y-75364687D01*
X63854942Y-75364689D01*
X63989019Y-75542236D01*
X64153438Y-75692124D01*
X64232615Y-75741148D01*
X64272137Y-75787856D01*
X64279499Y-75825319D01*
X64279500Y-77334149D01*
X64278653Y-77347070D01*
X64274318Y-77379999D01*
X64279500Y-77419361D01*
X64294955Y-77536761D01*
X64355464Y-77682841D01*
X64451716Y-77808281D01*
X64478062Y-77828496D01*
X64487800Y-77837035D01*
X70407963Y-83757198D01*
X70416502Y-83766936D01*
X70436718Y-83793282D01*
X70501822Y-83843238D01*
X70562159Y-83889536D01*
X70708238Y-83950044D01*
X70865000Y-83970682D01*
X70897927Y-83966346D01*
X70910849Y-83965500D01*
X71342482Y-83965500D01*
X71400673Y-83984407D01*
X71421483Y-84004836D01*
X71526128Y-84143407D01*
X71669773Y-84274358D01*
X71683699Y-84287053D01*
X71815622Y-84368736D01*
X71864981Y-84399298D01*
X72021681Y-84460003D01*
X72063804Y-84476322D01*
X72273388Y-84515500D01*
X72273390Y-84515500D01*
X72486612Y-84515500D01*
X72696195Y-84476322D01*
X72696198Y-84476321D01*
X72895019Y-84399298D01*
X73076302Y-84287052D01*
X73233872Y-84143407D01*
X73362366Y-83973255D01*
X73457405Y-83782389D01*
X73515756Y-83577310D01*
X73535429Y-83365000D01*
X73515756Y-83152690D01*
X73457405Y-82947611D01*
X73362366Y-82756745D01*
X73362365Y-82756744D01*
X73362365Y-82756743D01*
X73233874Y-82586595D01*
X73076300Y-82442946D01*
X72895021Y-82330703D01*
X72895019Y-82330702D01*
X72832409Y-82306447D01*
X72696195Y-82253677D01*
X72486612Y-82214500D01*
X72486610Y-82214500D01*
X72273390Y-82214500D01*
X72273388Y-82214500D01*
X72063804Y-82253677D01*
X71864978Y-82330703D01*
X71683699Y-82442946D01*
X71526129Y-82586592D01*
X71526128Y-82586593D01*
X71421484Y-82725161D01*
X71371329Y-82760204D01*
X71342482Y-82764500D01*
X71154743Y-82764500D01*
X71096552Y-82745593D01*
X71084739Y-82735504D01*
X65509496Y-77160261D01*
X65481719Y-77105744D01*
X65480500Y-77090257D01*
X65480500Y-75825319D01*
X65499407Y-75767128D01*
X65527380Y-75741150D01*
X65606562Y-75692124D01*
X65770981Y-75542236D01*
X65905058Y-75364689D01*
X66004229Y-75165528D01*
X66065115Y-74951536D01*
X66080500Y-74785503D01*
X66080500Y-74424497D01*
X66065115Y-74258464D01*
X66004229Y-74044472D01*
X65905058Y-73845311D01*
X65770981Y-73667764D01*
X65606562Y-73517876D01*
X65417401Y-73400753D01*
X65417399Y-73400752D01*
X65209936Y-73320380D01*
X64991245Y-73279500D01*
X64991243Y-73279500D01*
X64768757Y-73279500D01*
X64768755Y-73279500D01*
X64550063Y-73320380D01*
X64342600Y-73400752D01*
X64153436Y-73517877D01*
X63989020Y-73667763D01*
X63854940Y-73845313D01*
X63755772Y-74044469D01*
X63755771Y-74044472D01*
X63725220Y-74151847D01*
X63691110Y-74202641D01*
X63633658Y-74223685D01*
X63574808Y-74206941D01*
X63537040Y-74158804D01*
X63534783Y-74151859D01*
X63504229Y-74044472D01*
X63405058Y-73845311D01*
X63270981Y-73667764D01*
X63106562Y-73517876D01*
X63076266Y-73499118D01*
X63027382Y-73468849D01*
X62987861Y-73422140D01*
X62980500Y-73384678D01*
X62980500Y-73149364D01*
X62980500Y-72909739D01*
X62999406Y-72851552D01*
X63009496Y-72839739D01*
X63219740Y-72629496D01*
X63274256Y-72601719D01*
X63289743Y-72600500D01*
X66210257Y-72600500D01*
X66268448Y-72619407D01*
X66280261Y-72629496D01*
X67370504Y-73719739D01*
X67398281Y-73774256D01*
X67399500Y-73789743D01*
X67399500Y-77954149D01*
X67398653Y-77967070D01*
X67394318Y-77999999D01*
X67399500Y-78039361D01*
X67414955Y-78156761D01*
X67475464Y-78302841D01*
X67571716Y-78428281D01*
X67598062Y-78448496D01*
X67607800Y-78457035D01*
X70367963Y-81217198D01*
X70376502Y-81226936D01*
X70396718Y-81253283D01*
X70514332Y-81343530D01*
X70522157Y-81349535D01*
X70522158Y-81349535D01*
X70522159Y-81349536D01*
X70668238Y-81410044D01*
X70825000Y-81430682D01*
X70857927Y-81426346D01*
X70870849Y-81425500D01*
X71342482Y-81425500D01*
X71400673Y-81444407D01*
X71421483Y-81464836D01*
X71526128Y-81603407D01*
X71620295Y-81689252D01*
X71683699Y-81747053D01*
X71734430Y-81778464D01*
X71864981Y-81859298D01*
X72008650Y-81914955D01*
X72063804Y-81936322D01*
X72273388Y-81975500D01*
X72273390Y-81975500D01*
X72486612Y-81975500D01*
X72696195Y-81936322D01*
X72696198Y-81936321D01*
X72895019Y-81859298D01*
X73076302Y-81747052D01*
X73233872Y-81603407D01*
X73362366Y-81433255D01*
X73457405Y-81242389D01*
X73515756Y-81037310D01*
X73535429Y-80825000D01*
X73515756Y-80612690D01*
X73457405Y-80407611D01*
X73362366Y-80216745D01*
X73362365Y-80216744D01*
X73362365Y-80216743D01*
X73233874Y-80046595D01*
X73076300Y-79902946D01*
X72895021Y-79790703D01*
X72895019Y-79790702D01*
X72852898Y-79774384D01*
X72696195Y-79713677D01*
X72486612Y-79674500D01*
X72486610Y-79674500D01*
X72273390Y-79674500D01*
X72273388Y-79674500D01*
X72063804Y-79713677D01*
X71864978Y-79790703D01*
X71683699Y-79902946D01*
X71551202Y-80023735D01*
X71526128Y-80046593D01*
X71421484Y-80185161D01*
X71371329Y-80220204D01*
X71342482Y-80224500D01*
X71114743Y-80224500D01*
X71056552Y-80205593D01*
X71044739Y-80195504D01*
X68629496Y-77780261D01*
X68601719Y-77725744D01*
X68600500Y-77710257D01*
X68600500Y-73545849D01*
X68601347Y-73532927D01*
X68603328Y-73517877D01*
X68605682Y-73500000D01*
X68585044Y-73343238D01*
X68524536Y-73197159D01*
X68507762Y-73175300D01*
X68452450Y-73103214D01*
X68428281Y-73071717D01*
X68401936Y-73051502D01*
X68392199Y-73042964D01*
X66957035Y-71607800D01*
X66948496Y-71598062D01*
X66928281Y-71571716D01*
X66802841Y-71475464D01*
X66656761Y-71414955D01*
X66539361Y-71399500D01*
X66500000Y-71394318D01*
X66467073Y-71398653D01*
X66454151Y-71399500D01*
X63045849Y-71399500D01*
X63032927Y-71398653D01*
X63000000Y-71394318D01*
X62999999Y-71394318D01*
X62960639Y-71399500D01*
X62843238Y-71414955D01*
X62697158Y-71475464D01*
X62571717Y-71571718D01*
X62551498Y-71598067D01*
X62542962Y-71607801D01*
X61987801Y-72162962D01*
X61978067Y-72171498D01*
X61951719Y-72191716D01*
X61927549Y-72223216D01*
X61855464Y-72317158D01*
X61794955Y-72463238D01*
X61774318Y-72620000D01*
X61778653Y-72652927D01*
X61779500Y-72665849D01*
X61779500Y-73384678D01*
X61760593Y-73442869D01*
X61732618Y-73468849D01*
X61653438Y-73517876D01*
X61489020Y-73667763D01*
X61354940Y-73845313D01*
X61255772Y-74044469D01*
X61255771Y-74044472D01*
X61225220Y-74151847D01*
X61191110Y-74202641D01*
X61133658Y-74223685D01*
X61074808Y-74206941D01*
X61037040Y-74158804D01*
X61034783Y-74151859D01*
X61004229Y-74044472D01*
X60905058Y-73845311D01*
X60770981Y-73667764D01*
X60606562Y-73517876D01*
X60576266Y-73499118D01*
X60527382Y-73468849D01*
X60487861Y-73422140D01*
X60480500Y-73384678D01*
X60480500Y-72409743D01*
X60499407Y-72351552D01*
X60509496Y-72339739D01*
X62219739Y-70629496D01*
X62274256Y-70601719D01*
X62289743Y-70600500D01*
X67210257Y-70600500D01*
X67268448Y-70619407D01*
X67280261Y-70629496D01*
X69370504Y-72719739D01*
X69398281Y-72774256D01*
X69399500Y-72789743D01*
X69399500Y-77454149D01*
X69398653Y-77467070D01*
X69394318Y-77499999D01*
X69410122Y-77620044D01*
X69414955Y-77656761D01*
X69475464Y-77802841D01*
X69571716Y-77928281D01*
X69598062Y-77948496D01*
X69607800Y-77957035D01*
X70327963Y-78677198D01*
X70336502Y-78686936D01*
X70356718Y-78713283D01*
X70402921Y-78748735D01*
X70473434Y-78802841D01*
X70482159Y-78809536D01*
X70628238Y-78870044D01*
X70785000Y-78890682D01*
X70817927Y-78886346D01*
X70830849Y-78885500D01*
X71342482Y-78885500D01*
X71400673Y-78904407D01*
X71421483Y-78924836D01*
X71526128Y-79063407D01*
X71640367Y-79167550D01*
X71683699Y-79207053D01*
X71796283Y-79276762D01*
X71864981Y-79319298D01*
X72017057Y-79378212D01*
X72063804Y-79396322D01*
X72273388Y-79435500D01*
X72273390Y-79435500D01*
X72486612Y-79435500D01*
X72696195Y-79396322D01*
X72696198Y-79396321D01*
X72895019Y-79319298D01*
X73076302Y-79207052D01*
X73233872Y-79063407D01*
X73362366Y-78893255D01*
X73457405Y-78702389D01*
X73515756Y-78497310D01*
X73535429Y-78285000D01*
X73515756Y-78072690D01*
X73457405Y-77867611D01*
X73362366Y-77676745D01*
X73362365Y-77676744D01*
X73362365Y-77676743D01*
X73233874Y-77506595D01*
X73076300Y-77362946D01*
X72895021Y-77250703D01*
X72895019Y-77250702D01*
X72790618Y-77210257D01*
X72723176Y-77184130D01*
X72675745Y-77145478D01*
X72660091Y-77086329D01*
X72682194Y-77029276D01*
X72733316Y-76996188D01*
X72826329Y-76971265D01*
X73032480Y-76875135D01*
X73218812Y-76744664D01*
X73379664Y-76583812D01*
X73510135Y-76397480D01*
X73606265Y-76191329D01*
X73658872Y-75995000D01*
X72695686Y-75995000D01*
X72707641Y-75983045D01*
X72765165Y-75870148D01*
X72784986Y-75745000D01*
X72765165Y-75619852D01*
X72707641Y-75506955D01*
X72695686Y-75495000D01*
X73658872Y-75495000D01*
X73606265Y-75298670D01*
X73510135Y-75092519D01*
X73379664Y-74906187D01*
X73218812Y-74745335D01*
X73032480Y-74614864D01*
X72826330Y-74518734D01*
X72733315Y-74493811D01*
X72682001Y-74460486D01*
X72660075Y-74403365D01*
X72675911Y-74344264D01*
X72723176Y-74305869D01*
X72895019Y-74239298D01*
X73076302Y-74127052D01*
X73233872Y-73983407D01*
X73362366Y-73813255D01*
X73457405Y-73622389D01*
X73515756Y-73417310D01*
X73535429Y-73205000D01*
X73515756Y-72992690D01*
X73457405Y-72787611D01*
X73362366Y-72596745D01*
X73362365Y-72596744D01*
X73362365Y-72596743D01*
X73233874Y-72426595D01*
X73215388Y-72409743D01*
X73155087Y-72354770D01*
X73076300Y-72282946D01*
X72895021Y-72170703D01*
X72895019Y-72170702D01*
X72849136Y-72152927D01*
X72696195Y-72093677D01*
X72486612Y-72054500D01*
X72486610Y-72054500D01*
X72273390Y-72054500D01*
X72273388Y-72054500D01*
X72063804Y-72093677D01*
X71864978Y-72170703D01*
X71683699Y-72282946D01*
X71526125Y-72426595D01*
X71397634Y-72596743D01*
X71302596Y-72787608D01*
X71302595Y-72787611D01*
X71244244Y-72992690D01*
X71224571Y-73205000D01*
X71244244Y-73417310D01*
X71298764Y-73608925D01*
X71302596Y-73622391D01*
X71397634Y-73813256D01*
X71526125Y-73983404D01*
X71683699Y-74127053D01*
X71734979Y-74158804D01*
X71864981Y-74239298D01*
X72036823Y-74305869D01*
X72084254Y-74344520D01*
X72099908Y-74403669D01*
X72077805Y-74460723D01*
X72026684Y-74493810D01*
X71933674Y-74518732D01*
X71727519Y-74614864D01*
X71541187Y-74745335D01*
X71380335Y-74906187D01*
X71249864Y-75092519D01*
X71153734Y-75298670D01*
X71101128Y-75495000D01*
X72064314Y-75495000D01*
X72052359Y-75506955D01*
X71994835Y-75619852D01*
X71975014Y-75745000D01*
X71994835Y-75870148D01*
X72052359Y-75983045D01*
X72064314Y-75995000D01*
X71101128Y-75995000D01*
X71153734Y-76191329D01*
X71249864Y-76397480D01*
X71380335Y-76583812D01*
X71541187Y-76744664D01*
X71727519Y-76875135D01*
X71933670Y-76971265D01*
X72026683Y-76996188D01*
X72077997Y-77029512D01*
X72099924Y-77086634D01*
X72084088Y-77145734D01*
X72036823Y-77184130D01*
X71864978Y-77250703D01*
X71683699Y-77362946D01*
X71569482Y-77467070D01*
X71526128Y-77506593D01*
X71421484Y-77645161D01*
X71371329Y-77680204D01*
X71342482Y-77684500D01*
X71074743Y-77684500D01*
X71016552Y-77665593D01*
X71004739Y-77655504D01*
X70629496Y-77280261D01*
X70601719Y-77225744D01*
X70600500Y-77210257D01*
X70600500Y-72545849D01*
X70601347Y-72532927D01*
X70605682Y-72500000D01*
X70585044Y-72343238D01*
X70524536Y-72197159D01*
X70498296Y-72162962D01*
X70452450Y-72103214D01*
X70428281Y-72071717D01*
X70401936Y-72051502D01*
X70392199Y-72042964D01*
X67957035Y-69607800D01*
X67948496Y-69598062D01*
X67928281Y-69571716D01*
X67802841Y-69475464D01*
X67656761Y-69414955D01*
X67539361Y-69399500D01*
X67500000Y-69394318D01*
X67467073Y-69398653D01*
X67454151Y-69399500D01*
X62045849Y-69399500D01*
X62032927Y-69398653D01*
X62000000Y-69394318D01*
X61999999Y-69394318D01*
X61960639Y-69399500D01*
X61843238Y-69414955D01*
X61697158Y-69475464D01*
X61571717Y-69571718D01*
X61551498Y-69598067D01*
X61542962Y-69607801D01*
X59487801Y-71662962D01*
X59478067Y-71671498D01*
X59451719Y-71691716D01*
X59427549Y-71723216D01*
X59355464Y-71817158D01*
X59294955Y-71963238D01*
X59274318Y-72120000D01*
X59278653Y-72152927D01*
X59279500Y-72165849D01*
X59279500Y-73384678D01*
X59260593Y-73442869D01*
X59232618Y-73468849D01*
X59153438Y-73517876D01*
X58989020Y-73667763D01*
X58854940Y-73845313D01*
X58755772Y-74044469D01*
X58755771Y-74044472D01*
X58725220Y-74151847D01*
X58691110Y-74202641D01*
X58633658Y-74223685D01*
X58574808Y-74206941D01*
X58537040Y-74158804D01*
X58534783Y-74151859D01*
X58504229Y-74044472D01*
X58405058Y-73845311D01*
X58270981Y-73667764D01*
X58106562Y-73517876D01*
X58076266Y-73499118D01*
X58027382Y-73468849D01*
X57987861Y-73422140D01*
X57980500Y-73384678D01*
X57980500Y-71409742D01*
X57999407Y-71351551D01*
X58009496Y-71339738D01*
X60594739Y-68754496D01*
X60649256Y-68726719D01*
X60664743Y-68725500D01*
X71342482Y-68725500D01*
X71400673Y-68744407D01*
X71421483Y-68764836D01*
X71526128Y-68903407D01*
X71632084Y-68999999D01*
X71683699Y-69047053D01*
X71815622Y-69128736D01*
X71864981Y-69159298D01*
X72021681Y-69220003D01*
X72063804Y-69236322D01*
X72273388Y-69275500D01*
X72273390Y-69275500D01*
X72486612Y-69275500D01*
X72696195Y-69236322D01*
X72696198Y-69236321D01*
X72895019Y-69159298D01*
X73076302Y-69047052D01*
X73233872Y-68903407D01*
X73362366Y-68733255D01*
X73457405Y-68542389D01*
X73515756Y-68337310D01*
X73535429Y-68125000D01*
X73515756Y-67912690D01*
X73457405Y-67707611D01*
X73413096Y-67618627D01*
X73404084Y-67558110D01*
X73432364Y-67503852D01*
X73487135Y-67476580D01*
X73501718Y-67475500D01*
X73585257Y-67475500D01*
X73643448Y-67494407D01*
X73655260Y-67504496D01*
X73870503Y-67719738D01*
X73898281Y-67774255D01*
X73899500Y-67789742D01*
X73899500Y-69710257D01*
X73880593Y-69768448D01*
X73870504Y-69780260D01*
X73615262Y-70035503D01*
X73560745Y-70063281D01*
X73545258Y-70064500D01*
X73417518Y-70064500D01*
X73359327Y-70045593D01*
X73338516Y-70025163D01*
X73233872Y-69886593D01*
X73076302Y-69742948D01*
X73076300Y-69742946D01*
X72895021Y-69630703D01*
X72895019Y-69630702D01*
X72810765Y-69598062D01*
X72696195Y-69553677D01*
X72486612Y-69514500D01*
X72486610Y-69514500D01*
X72273390Y-69514500D01*
X72273388Y-69514500D01*
X72063804Y-69553677D01*
X71864978Y-69630703D01*
X71683699Y-69742946D01*
X71526125Y-69886595D01*
X71397634Y-70056743D01*
X71302596Y-70247608D01*
X71302595Y-70247611D01*
X71244244Y-70452690D01*
X71224571Y-70665000D01*
X71244244Y-70877310D01*
X71298198Y-71066936D01*
X71302596Y-71082391D01*
X71397634Y-71273256D01*
X71526125Y-71443404D01*
X71683699Y-71587053D01*
X71809045Y-71664664D01*
X71864981Y-71699298D01*
X72021681Y-71760003D01*
X72063804Y-71776322D01*
X72273388Y-71815500D01*
X72273390Y-71815500D01*
X72486612Y-71815500D01*
X72696195Y-71776322D01*
X72696198Y-71776321D01*
X72895019Y-71699298D01*
X73076302Y-71587052D01*
X73233872Y-71443407D01*
X73338515Y-71304838D01*
X73388671Y-71269796D01*
X73417518Y-71265500D01*
X73789151Y-71265500D01*
X73802072Y-71266346D01*
X73835000Y-71270682D01*
X73991762Y-71250044D01*
X74137841Y-71189536D01*
X74228462Y-71120000D01*
X74263282Y-71093282D01*
X74283505Y-71066925D01*
X74292028Y-71057205D01*
X74892205Y-70457028D01*
X74901925Y-70448505D01*
X74928282Y-70428282D01*
X75024536Y-70302841D01*
X75085044Y-70156762D01*
X75100500Y-70039361D01*
X75105682Y-70000000D01*
X75101347Y-69967070D01*
X75100500Y-69954149D01*
X75100500Y-67545849D01*
X75101347Y-67532927D01*
X75102557Y-67523735D01*
X75105682Y-67500000D01*
X75085044Y-67343238D01*
X75024536Y-67197159D01*
X74952450Y-67103214D01*
X74952448Y-67103212D01*
X74928282Y-67071718D01*
X74901932Y-67051499D01*
X74892203Y-67042967D01*
X74332035Y-66482800D01*
X74323496Y-66473062D01*
X74303281Y-66446716D01*
X74177841Y-66350464D01*
X74031761Y-66289955D01*
X73914361Y-66274500D01*
X73875000Y-66269318D01*
X73843843Y-66273420D01*
X73842073Y-66273653D01*
X73829151Y-66274500D01*
X73481801Y-66274500D01*
X73423610Y-66255593D01*
X73387646Y-66206093D01*
X73387646Y-66144907D01*
X73393180Y-66131372D01*
X73407200Y-66103216D01*
X73457405Y-66002389D01*
X73515756Y-65797310D01*
X73535429Y-65585000D01*
X73515756Y-65372690D01*
X73457405Y-65167611D01*
X73413096Y-65078627D01*
X73404084Y-65018110D01*
X73432364Y-64963852D01*
X73487135Y-64936580D01*
X73501718Y-64935500D01*
X77045257Y-64935500D01*
X77103448Y-64954407D01*
X77115261Y-64964496D01*
X81957963Y-69807198D01*
X81966502Y-69816936D01*
X81986718Y-69843283D01*
X82099417Y-69929759D01*
X82112160Y-69939537D01*
X82258236Y-70000044D01*
X82290909Y-70004345D01*
X82415000Y-70020682D01*
X82447927Y-70016346D01*
X82460849Y-70015500D01*
X86333076Y-70015500D01*
X86391267Y-70034407D01*
X86427231Y-70083907D01*
X86427231Y-70145093D01*
X86422801Y-70156339D01*
X86393733Y-70218675D01*
X86341128Y-70415000D01*
X87304314Y-70415000D01*
X87292359Y-70426955D01*
X87234835Y-70539852D01*
X87215014Y-70665000D01*
X87234835Y-70790148D01*
X87292359Y-70903045D01*
X87304314Y-70915000D01*
X86341128Y-70915000D01*
X86393734Y-71111329D01*
X86489864Y-71317480D01*
X86620335Y-71503812D01*
X86781187Y-71664664D01*
X86967519Y-71795135D01*
X87173670Y-71891265D01*
X87266683Y-71916188D01*
X87317997Y-71949512D01*
X87339924Y-72006634D01*
X87324088Y-72065734D01*
X87276823Y-72104130D01*
X87104978Y-72170703D01*
X86923699Y-72282946D01*
X86766125Y-72426595D01*
X86637634Y-72596743D01*
X86542596Y-72787608D01*
X86542595Y-72787611D01*
X86527763Y-72839739D01*
X86484244Y-72992690D01*
X86465298Y-73197159D01*
X86464571Y-73205000D01*
X86484244Y-73417310D01*
X86538764Y-73608925D01*
X86542596Y-73622391D01*
X86637634Y-73813256D01*
X86766125Y-73983404D01*
X86923699Y-74127053D01*
X86974979Y-74158804D01*
X87104981Y-74239298D01*
X87248650Y-74294955D01*
X87303804Y-74316322D01*
X87513388Y-74355500D01*
X87513390Y-74355500D01*
X87726612Y-74355500D01*
X87936195Y-74316322D01*
X87961812Y-74306398D01*
X88135019Y-74239298D01*
X88316302Y-74127052D01*
X88473872Y-73983407D01*
X88602366Y-73813255D01*
X88697405Y-73622389D01*
X88755756Y-73417310D01*
X88775429Y-73205000D01*
X88755756Y-72992690D01*
X88697405Y-72787611D01*
X88602366Y-72596745D01*
X88602365Y-72596744D01*
X88602365Y-72596743D01*
X88473874Y-72426595D01*
X88455388Y-72409743D01*
X88395086Y-72354770D01*
X88316300Y-72282946D01*
X88135021Y-72170703D01*
X88135019Y-72170702D01*
X88004141Y-72120000D01*
X87963176Y-72104130D01*
X87915745Y-72065478D01*
X87900091Y-72006329D01*
X87922194Y-71949276D01*
X87973316Y-71916188D01*
X88066329Y-71891265D01*
X88272480Y-71795135D01*
X88458812Y-71664664D01*
X88619664Y-71503812D01*
X88750135Y-71317480D01*
X88846265Y-71111329D01*
X88898872Y-70915000D01*
X87935686Y-70915000D01*
X87947641Y-70903045D01*
X88005165Y-70790148D01*
X88024986Y-70665000D01*
X88005165Y-70539852D01*
X87947641Y-70426955D01*
X87935686Y-70415000D01*
X88898872Y-70415000D01*
X88846266Y-70218675D01*
X88817199Y-70156339D01*
X88809743Y-70095610D01*
X88839406Y-70042096D01*
X88894859Y-70016238D01*
X88906924Y-70015500D01*
X90039151Y-70015500D01*
X90052072Y-70016346D01*
X90085000Y-70020682D01*
X90225426Y-70002194D01*
X90241763Y-70000044D01*
X90333309Y-69962124D01*
X90387841Y-69939536D01*
X90398725Y-69931185D01*
X90400581Y-69929761D01*
X90456835Y-69886595D01*
X90513282Y-69843282D01*
X90533505Y-69816925D01*
X90542028Y-69807205D01*
X93219738Y-67129496D01*
X93274256Y-67101719D01*
X93289743Y-67100500D01*
X104210257Y-67100500D01*
X104268448Y-67119407D01*
X104280261Y-67129496D01*
X104645504Y-67494739D01*
X104673281Y-67549256D01*
X104674500Y-67564743D01*
X104674500Y-67700500D01*
X104655593Y-67758691D01*
X104606093Y-67794655D01*
X104575500Y-67799500D01*
X104391740Y-67799500D01*
X104340640Y-67806945D01*
X104323606Y-67809427D01*
X104218518Y-67860801D01*
X104135801Y-67943518D01*
X104084427Y-68048606D01*
X104074500Y-68116743D01*
X104074500Y-68611364D01*
X104055593Y-68669555D01*
X104006093Y-68705519D01*
X103944907Y-68705519D01*
X103895407Y-68669555D01*
X103880280Y-68638459D01*
X103859229Y-68564472D01*
X103760058Y-68365311D01*
X103625981Y-68187764D01*
X103461562Y-68037876D01*
X103272401Y-67920753D01*
X103272399Y-67920752D01*
X103064936Y-67840380D01*
X102846245Y-67799500D01*
X102846243Y-67799500D01*
X102623757Y-67799500D01*
X102623755Y-67799500D01*
X102405063Y-67840380D01*
X102197600Y-67920752D01*
X102008436Y-68037877D01*
X101844020Y-68187763D01*
X101709940Y-68365313D01*
X101621767Y-68542389D01*
X101610771Y-68564472D01*
X101553762Y-68764839D01*
X101549885Y-68778464D01*
X101538308Y-68903407D01*
X101529357Y-69000000D01*
X101549885Y-69221536D01*
X101610771Y-69435528D01*
X101610772Y-69435530D01*
X101709940Y-69634686D01*
X101709941Y-69634687D01*
X101709942Y-69634689D01*
X101844019Y-69812236D01*
X102008438Y-69962124D01*
X102197599Y-70079247D01*
X102397688Y-70156762D01*
X102405063Y-70159619D01*
X102623755Y-70200500D01*
X102623757Y-70200500D01*
X102846245Y-70200500D01*
X103064936Y-70159619D01*
X103064937Y-70159618D01*
X103064940Y-70159618D01*
X103272401Y-70079247D01*
X103461562Y-69962124D01*
X103625981Y-69812236D01*
X103760058Y-69634689D01*
X103859229Y-69435528D01*
X103880279Y-69361541D01*
X103914389Y-69310747D01*
X103971842Y-69289703D01*
X104030691Y-69306447D01*
X104068460Y-69354584D01*
X104074500Y-69388635D01*
X104074500Y-69883260D01*
X104084427Y-69951393D01*
X104135802Y-70056483D01*
X104218517Y-70139198D01*
X104323607Y-70190573D01*
X104391740Y-70200500D01*
X104391743Y-70200500D01*
X106158257Y-70200500D01*
X106158260Y-70200500D01*
X106226393Y-70190573D01*
X106331483Y-70139198D01*
X106414198Y-70056483D01*
X106465573Y-69951393D01*
X106475500Y-69883260D01*
X106475500Y-68116740D01*
X106465573Y-68048607D01*
X106414198Y-67943517D01*
X106331483Y-67860802D01*
X106226393Y-67809427D01*
X106158260Y-67799500D01*
X106158257Y-67799500D01*
X105974500Y-67799500D01*
X105916309Y-67780593D01*
X105880345Y-67731093D01*
X105875500Y-67700500D01*
X105875500Y-67320856D01*
X105876347Y-67307934D01*
X105876517Y-67306640D01*
X105880683Y-67275000D01*
X105860044Y-67118238D01*
X105799536Y-66972159D01*
X105765868Y-66928282D01*
X105703282Y-66846718D01*
X105676936Y-66826502D01*
X105667198Y-66817963D01*
X104957035Y-66107800D01*
X104948496Y-66098062D01*
X104928281Y-66071716D01*
X104802841Y-65975464D01*
X104656761Y-65914955D01*
X104539361Y-65899500D01*
X104500000Y-65894318D01*
X104467073Y-65898653D01*
X104454151Y-65899500D01*
X93045856Y-65899500D01*
X93032934Y-65898653D01*
X93000000Y-65894317D01*
X92843238Y-65914955D01*
X92697158Y-65975464D01*
X92571717Y-66071718D01*
X92551498Y-66098067D01*
X92542962Y-66107801D01*
X89865261Y-68785504D01*
X89810744Y-68813281D01*
X89795257Y-68814500D01*
X88721801Y-68814500D01*
X88663610Y-68795593D01*
X88627646Y-68746093D01*
X88627646Y-68684907D01*
X88633180Y-68671372D01*
X88663060Y-68611364D01*
X88697405Y-68542389D01*
X88755756Y-68337310D01*
X88775429Y-68125000D01*
X88755756Y-67912690D01*
X88697405Y-67707611D01*
X88602366Y-67516745D01*
X88602365Y-67516744D01*
X88602365Y-67516743D01*
X88473874Y-67346595D01*
X88316300Y-67202946D01*
X88135021Y-67090703D01*
X88135019Y-67090702D01*
X88086015Y-67071718D01*
X87936195Y-67013677D01*
X87726612Y-66974500D01*
X87726610Y-66974500D01*
X87513390Y-66974500D01*
X87513388Y-66974500D01*
X87303804Y-67013677D01*
X87104978Y-67090703D01*
X86923699Y-67202946D01*
X86766125Y-67346595D01*
X86637634Y-67516743D01*
X86542596Y-67707608D01*
X86542595Y-67707611D01*
X86504818Y-67840380D01*
X86484244Y-67912690D01*
X86464571Y-68124999D01*
X86484244Y-68337309D01*
X86542596Y-68542391D01*
X86606820Y-68671372D01*
X86615833Y-68731890D01*
X86587552Y-68786148D01*
X86532781Y-68813420D01*
X86518199Y-68814500D01*
X82704743Y-68814500D01*
X82646552Y-68795593D01*
X82634739Y-68785504D01*
X77792037Y-63942802D01*
X77783499Y-63933065D01*
X77763282Y-63906718D01*
X77637841Y-63810464D01*
X77491761Y-63749955D01*
X77374361Y-63734500D01*
X77335000Y-63729318D01*
X77302073Y-63733653D01*
X77289151Y-63734500D01*
X73629500Y-63734500D01*
X73571309Y-63715593D01*
X73535345Y-63666093D01*
X73530500Y-63635500D01*
X73530500Y-62211743D01*
X73522961Y-62160000D01*
X73520573Y-62143607D01*
X73469198Y-62038517D01*
X73386483Y-61955802D01*
X73281393Y-61904427D01*
X73213260Y-61894500D01*
X71546740Y-61894500D01*
X71495640Y-61901945D01*
X71478606Y-61904427D01*
X71373518Y-61955801D01*
X71290801Y-62038518D01*
X71239427Y-62143606D01*
X71229500Y-62211743D01*
X71229500Y-63635500D01*
X71210593Y-63693691D01*
X71161093Y-63729655D01*
X71130500Y-63734500D01*
X56624743Y-63734500D01*
X56566552Y-63715593D01*
X56554739Y-63705504D01*
X55687617Y-62838382D01*
X55659840Y-62783865D01*
X55669411Y-62723433D01*
X55690925Y-62695216D01*
X55706438Y-62681074D01*
X55770981Y-62622236D01*
X55905058Y-62444689D01*
X56004229Y-62245528D01*
X56034779Y-62138152D01*
X56068889Y-62087358D01*
X56126342Y-62066314D01*
X56185191Y-62083058D01*
X56222960Y-62131195D01*
X56225216Y-62138140D01*
X56245359Y-62208934D01*
X56255771Y-62245529D01*
X56354940Y-62444686D01*
X56354941Y-62444687D01*
X56354942Y-62444689D01*
X56489019Y-62622236D01*
X56653438Y-62772124D01*
X56842599Y-62889247D01*
X57050060Y-62969618D01*
X57050063Y-62969619D01*
X57268755Y-63010500D01*
X57268757Y-63010500D01*
X57491245Y-63010500D01*
X57709936Y-62969619D01*
X57709937Y-62969618D01*
X57709940Y-62969618D01*
X57917401Y-62889247D01*
X58106562Y-62772124D01*
X58270981Y-62622236D01*
X58405058Y-62444689D01*
X58504229Y-62245528D01*
X58534779Y-62138152D01*
X58568889Y-62087358D01*
X58626342Y-62066314D01*
X58685191Y-62083058D01*
X58722960Y-62131195D01*
X58725216Y-62138140D01*
X58745359Y-62208934D01*
X58755771Y-62245529D01*
X58854940Y-62444686D01*
X58854941Y-62444687D01*
X58854942Y-62444689D01*
X58989019Y-62622236D01*
X59153438Y-62772124D01*
X59342599Y-62889247D01*
X59550060Y-62969618D01*
X59550063Y-62969619D01*
X59768755Y-63010500D01*
X59768757Y-63010500D01*
X59991245Y-63010500D01*
X60209936Y-62969619D01*
X60209937Y-62969618D01*
X60209940Y-62969618D01*
X60417401Y-62889247D01*
X60606562Y-62772124D01*
X60770981Y-62622236D01*
X60905058Y-62444689D01*
X61004229Y-62245528D01*
X61034780Y-62138149D01*
X61068888Y-62087359D01*
X61126340Y-62066314D01*
X61185190Y-62083057D01*
X61222959Y-62131194D01*
X61225220Y-62138153D01*
X61255771Y-62245528D01*
X61255772Y-62245530D01*
X61354940Y-62444686D01*
X61354941Y-62444687D01*
X61354942Y-62444689D01*
X61489019Y-62622236D01*
X61653438Y-62772124D01*
X61842599Y-62889247D01*
X62050060Y-62969618D01*
X62050063Y-62969619D01*
X62268755Y-63010500D01*
X62268757Y-63010500D01*
X62491245Y-63010500D01*
X62709936Y-62969619D01*
X62709937Y-62969618D01*
X62709940Y-62969618D01*
X62917401Y-62889247D01*
X63106562Y-62772124D01*
X63270981Y-62622236D01*
X63405058Y-62444689D01*
X63504229Y-62245528D01*
X63534780Y-62138149D01*
X63568888Y-62087359D01*
X63626340Y-62066314D01*
X63685190Y-62083057D01*
X63722959Y-62131194D01*
X63725220Y-62138153D01*
X63755771Y-62245528D01*
X63755772Y-62245530D01*
X63854940Y-62444686D01*
X63854941Y-62444687D01*
X63854942Y-62444689D01*
X63989019Y-62622236D01*
X64153438Y-62772124D01*
X64342599Y-62889247D01*
X64550060Y-62969618D01*
X64550063Y-62969619D01*
X64768755Y-63010500D01*
X64768757Y-63010500D01*
X64991245Y-63010500D01*
X65209936Y-62969619D01*
X65209937Y-62969618D01*
X65209940Y-62969618D01*
X65417401Y-62889247D01*
X65606562Y-62772124D01*
X65770981Y-62622236D01*
X65905058Y-62444689D01*
X66004229Y-62245528D01*
X66065115Y-62031536D01*
X66080500Y-61865503D01*
X66080499Y-61699500D01*
X66099407Y-61641309D01*
X66148907Y-61605345D01*
X66179500Y-61600500D01*
X82710257Y-61600500D01*
X82768448Y-61619407D01*
X82780261Y-61629496D01*
X86454707Y-65303942D01*
X86482484Y-65358459D01*
X86483281Y-65383080D01*
X86464571Y-65585000D01*
X86484244Y-65797310D01*
X86517717Y-65914955D01*
X86542596Y-66002391D01*
X86637634Y-66193256D01*
X86766125Y-66363404D01*
X86923699Y-66507053D01*
X87055622Y-66588736D01*
X87104981Y-66619298D01*
X87261681Y-66680003D01*
X87303804Y-66696322D01*
X87513388Y-66735500D01*
X87513390Y-66735500D01*
X87726612Y-66735500D01*
X87936195Y-66696322D01*
X87936198Y-66696321D01*
X88135019Y-66619298D01*
X88316302Y-66507052D01*
X88473872Y-66363407D01*
X88602366Y-66193255D01*
X88697405Y-66002389D01*
X88755756Y-65797310D01*
X88775429Y-65585000D01*
X88755756Y-65372690D01*
X88697405Y-65167611D01*
X88602366Y-64976745D01*
X88602365Y-64976744D01*
X88602365Y-64976743D01*
X88473874Y-64806595D01*
X88426363Y-64763283D01*
X88316302Y-64662948D01*
X88316300Y-64662946D01*
X88135021Y-64550703D01*
X88135019Y-64550702D01*
X88092898Y-64534384D01*
X87936195Y-64473677D01*
X87726612Y-64434500D01*
X87726610Y-64434500D01*
X87513390Y-64434500D01*
X87513388Y-64434500D01*
X87371199Y-64461079D01*
X87310525Y-64453186D01*
X87283004Y-64433769D01*
X87148802Y-64299567D01*
X87121025Y-64245050D01*
X87130596Y-64184618D01*
X87173861Y-64141353D01*
X87234293Y-64131782D01*
X87254567Y-64137247D01*
X87265165Y-64141353D01*
X87303805Y-64156322D01*
X87513388Y-64195500D01*
X87513390Y-64195500D01*
X87726612Y-64195500D01*
X87936195Y-64156322D01*
X87936198Y-64156321D01*
X88135019Y-64079298D01*
X88316302Y-63967052D01*
X88473872Y-63823407D01*
X88602366Y-63653255D01*
X88697405Y-63462389D01*
X88755756Y-63257310D01*
X88775429Y-63045000D01*
X88755756Y-62832690D01*
X88719568Y-62705503D01*
X94299500Y-62705503D01*
X94314885Y-62871536D01*
X94375281Y-63083807D01*
X94375772Y-63085530D01*
X94474940Y-63284686D01*
X94474941Y-63284687D01*
X94474942Y-63284689D01*
X94609019Y-63462236D01*
X94773438Y-63612124D01*
X94962599Y-63729247D01*
X95170060Y-63809618D01*
X95170063Y-63809619D01*
X95388755Y-63850500D01*
X95388757Y-63850500D01*
X95611245Y-63850500D01*
X95829936Y-63809619D01*
X95829937Y-63809618D01*
X95829940Y-63809618D01*
X96037401Y-63729247D01*
X96226562Y-63612124D01*
X96390981Y-63462236D01*
X96525058Y-63284689D01*
X96611882Y-63110323D01*
X96654741Y-63066665D01*
X96715082Y-63056535D01*
X96769853Y-63083807D01*
X96798134Y-63138065D01*
X96799500Y-63154454D01*
X96799500Y-63286117D01*
X96799500Y-63286132D01*
X96799501Y-63289360D01*
X96799923Y-63292571D01*
X96799924Y-63292575D01*
X96814955Y-63406761D01*
X96875464Y-63552841D01*
X96971717Y-63678282D01*
X97043879Y-63733653D01*
X97097159Y-63774536D01*
X97243238Y-63835044D01*
X97360639Y-63850500D01*
X98639360Y-63850499D01*
X98756762Y-63835044D01*
X98902841Y-63774536D01*
X99028282Y-63678282D01*
X99124536Y-63552841D01*
X99185044Y-63406762D01*
X99200500Y-63289361D01*
X99200500Y-63199499D01*
X99219407Y-63141309D01*
X99268907Y-63105345D01*
X99299500Y-63100500D01*
X106821928Y-63100500D01*
X106880119Y-63119407D01*
X106910549Y-63155372D01*
X106974940Y-63284686D01*
X106974941Y-63284687D01*
X106974942Y-63284689D01*
X107109019Y-63462236D01*
X107273438Y-63612124D01*
X107462599Y-63729247D01*
X107670060Y-63809618D01*
X107670063Y-63809619D01*
X107888755Y-63850500D01*
X107888757Y-63850500D01*
X108111245Y-63850500D01*
X108329936Y-63809619D01*
X108329937Y-63809618D01*
X108329940Y-63809618D01*
X108537401Y-63729247D01*
X108726562Y-63612124D01*
X108890981Y-63462236D01*
X109025058Y-63284689D01*
X109111882Y-63110323D01*
X109154741Y-63066665D01*
X109215082Y-63056535D01*
X109269853Y-63083807D01*
X109298134Y-63138065D01*
X109299500Y-63154454D01*
X109299500Y-63286117D01*
X109299500Y-63286132D01*
X109299501Y-63289360D01*
X109299923Y-63292571D01*
X109299924Y-63292575D01*
X109314955Y-63406761D01*
X109375464Y-63552841D01*
X109471717Y-63678282D01*
X109543879Y-63733653D01*
X109597159Y-63774536D01*
X109743238Y-63835044D01*
X109860639Y-63850500D01*
X111139360Y-63850499D01*
X111256762Y-63835044D01*
X111402841Y-63774536D01*
X111528282Y-63678282D01*
X111624536Y-63552841D01*
X111685044Y-63406762D01*
X111700500Y-63289361D01*
X111700499Y-61710640D01*
X111685044Y-61593238D01*
X111624536Y-61447159D01*
X111602139Y-61417970D01*
X111528282Y-61321717D01*
X111402841Y-61225464D01*
X111256761Y-61164955D01*
X111142574Y-61149923D01*
X111139361Y-61149500D01*
X111136120Y-61149500D01*
X109863881Y-61149500D01*
X109863865Y-61149500D01*
X109860640Y-61149501D01*
X109857429Y-61149923D01*
X109857424Y-61149924D01*
X109743238Y-61164955D01*
X109597158Y-61225464D01*
X109471717Y-61321717D01*
X109375464Y-61447158D01*
X109314955Y-61593238D01*
X109308627Y-61641309D01*
X109299500Y-61710639D01*
X109299500Y-61713878D01*
X109299500Y-61713879D01*
X109299500Y-61845542D01*
X109280593Y-61903733D01*
X109231093Y-61939697D01*
X109169907Y-61939697D01*
X109120407Y-61903733D01*
X109111879Y-61889670D01*
X109025059Y-61715313D01*
X109025058Y-61715312D01*
X109025058Y-61715311D01*
X108890981Y-61537764D01*
X108726562Y-61387876D01*
X108537401Y-61270753D01*
X108537399Y-61270752D01*
X108329936Y-61190380D01*
X108111245Y-61149500D01*
X108111243Y-61149500D01*
X107888757Y-61149500D01*
X107888755Y-61149500D01*
X107670063Y-61190380D01*
X107462600Y-61270752D01*
X107273436Y-61387877D01*
X107109020Y-61537763D01*
X106974940Y-61715313D01*
X106910549Y-61844628D01*
X106867686Y-61888291D01*
X106821928Y-61899500D01*
X99299499Y-61899500D01*
X99241308Y-61880593D01*
X99205344Y-61831093D01*
X99200499Y-61800500D01*
X99200499Y-61713881D01*
X99200499Y-61713879D01*
X99200499Y-61710640D01*
X99185044Y-61593238D01*
X99124536Y-61447159D01*
X99102139Y-61417971D01*
X99028282Y-61321717D01*
X98902841Y-61225464D01*
X98756761Y-61164955D01*
X98642574Y-61149923D01*
X98639361Y-61149500D01*
X98636120Y-61149500D01*
X97363881Y-61149500D01*
X97363865Y-61149500D01*
X97360640Y-61149501D01*
X97357429Y-61149923D01*
X97357424Y-61149924D01*
X97243238Y-61164955D01*
X97097158Y-61225464D01*
X96971717Y-61321717D01*
X96875464Y-61447158D01*
X96814955Y-61593238D01*
X96808627Y-61641309D01*
X96799500Y-61710639D01*
X96799500Y-61713878D01*
X96799500Y-61713879D01*
X96799500Y-61845542D01*
X96780593Y-61903733D01*
X96731093Y-61939697D01*
X96669907Y-61939697D01*
X96620407Y-61903733D01*
X96611879Y-61889670D01*
X96525059Y-61715313D01*
X96525058Y-61715312D01*
X96525058Y-61715311D01*
X96390981Y-61537764D01*
X96226562Y-61387876D01*
X96037401Y-61270753D01*
X96037399Y-61270752D01*
X95829936Y-61190380D01*
X95611245Y-61149500D01*
X95611243Y-61149500D01*
X95388757Y-61149500D01*
X95388755Y-61149500D01*
X95170063Y-61190380D01*
X94962600Y-61270752D01*
X94773436Y-61387877D01*
X94609020Y-61537763D01*
X94474940Y-61715313D01*
X94379156Y-61907674D01*
X94375771Y-61914472D01*
X94372731Y-61925156D01*
X94314885Y-62128464D01*
X94302086Y-62266593D01*
X94299500Y-62294497D01*
X94299500Y-62705503D01*
X88719568Y-62705503D01*
X88697405Y-62627611D01*
X88602366Y-62436745D01*
X88602365Y-62436744D01*
X88602365Y-62436743D01*
X88473874Y-62266595D01*
X88413701Y-62211740D01*
X88332981Y-62138153D01*
X88316300Y-62122946D01*
X88135021Y-62010703D01*
X88135019Y-62010702D01*
X88092898Y-61994384D01*
X87936195Y-61933677D01*
X87726612Y-61894500D01*
X87726610Y-61894500D01*
X87513390Y-61894500D01*
X87513388Y-61894500D01*
X87400687Y-61915567D01*
X87340013Y-61907674D01*
X87312492Y-61888257D01*
X84532035Y-59107800D01*
X84523496Y-59098062D01*
X84503281Y-59071716D01*
X84377841Y-58975464D01*
X84231761Y-58914955D01*
X84114361Y-58899500D01*
X84075000Y-58894318D01*
X84042073Y-58898653D01*
X84029151Y-58899500D01*
X72664370Y-58899500D01*
X72606179Y-58880593D01*
X72570215Y-58831093D01*
X72570215Y-58769907D01*
X72606179Y-58720407D01*
X72631672Y-58707056D01*
X72648370Y-58701212D01*
X72707690Y-58680456D01*
X72850890Y-58590477D01*
X72970477Y-58470890D01*
X73060456Y-58327690D01*
X73116313Y-58168059D01*
X73135249Y-58000000D01*
X73116313Y-57831941D01*
X73060456Y-57672310D01*
X72970477Y-57529110D01*
X72850890Y-57409523D01*
X72707690Y-57319544D01*
X72700465Y-57317016D01*
X72548062Y-57263687D01*
X72380000Y-57244751D01*
X72211937Y-57263687D01*
X72052312Y-57319543D01*
X71949210Y-57384326D01*
X71896539Y-57399500D01*
X61110849Y-57399500D01*
X61097927Y-57398653D01*
X61065000Y-57394318D01*
X61064999Y-57394318D01*
X61025639Y-57399500D01*
X60908238Y-57414955D01*
X60762158Y-57475464D01*
X60636717Y-57571718D01*
X60616498Y-57598067D01*
X60607962Y-57607801D01*
X57831553Y-60384210D01*
X57777036Y-60411987D01*
X57725787Y-60406521D01*
X57709940Y-60400382D01*
X57709935Y-60400380D01*
X57491245Y-60359500D01*
X57491243Y-60359500D01*
X57268757Y-60359500D01*
X57268755Y-60359500D01*
X57050063Y-60400380D01*
X56842600Y-60480752D01*
X56653436Y-60597877D01*
X56489020Y-60747763D01*
X56354940Y-60925313D01*
X56255772Y-61124469D01*
X56255771Y-61124472D01*
X56225220Y-61231847D01*
X56191110Y-61282641D01*
X56133658Y-61303685D01*
X56074808Y-61286941D01*
X56037040Y-61238804D01*
X56034783Y-61231859D01*
X56004229Y-61124472D01*
X55905058Y-60925311D01*
X55770981Y-60747764D01*
X55606562Y-60597876D01*
X55576266Y-60579118D01*
X55527382Y-60548849D01*
X55487861Y-60502140D01*
X55480500Y-60464678D01*
X55480500Y-57184602D01*
X55499407Y-57126411D01*
X55543737Y-57092288D01*
X55577401Y-57079247D01*
X55766562Y-56962124D01*
X55930981Y-56812236D01*
X56065058Y-56634689D01*
X56164229Y-56435528D01*
X56225115Y-56221536D01*
X56245643Y-56000000D01*
X56225115Y-55778464D01*
X56164229Y-55564472D01*
X56065058Y-55365311D01*
X55930981Y-55187764D01*
X55766562Y-55037876D01*
X55577401Y-54920753D01*
X55577399Y-54920752D01*
X55369936Y-54840380D01*
X55151245Y-54799500D01*
X55151243Y-54799500D01*
X54928757Y-54799500D01*
X54928755Y-54799500D01*
X54710063Y-54840380D01*
X54502600Y-54920752D01*
X54313436Y-55037877D01*
X54149020Y-55187763D01*
X54014940Y-55365313D01*
X53915772Y-55564469D01*
X53915771Y-55564472D01*
X53894720Y-55638458D01*
X53860610Y-55689252D01*
X53803158Y-55710296D01*
X53744308Y-55693552D01*
X53706540Y-55645415D01*
X53700500Y-55611364D01*
X53700500Y-55116743D01*
X53700500Y-55116740D01*
X53690573Y-55048607D01*
X53639198Y-54943517D01*
X53556483Y-54860802D01*
X53451393Y-54809427D01*
X53383260Y-54799500D01*
X51616740Y-54799500D01*
X51565640Y-54806945D01*
X51548606Y-54809427D01*
X51443518Y-54860801D01*
X51360801Y-54943518D01*
X51309427Y-55048606D01*
X51309427Y-55048607D01*
X51299500Y-55116740D01*
X51299500Y-56883260D01*
X51309427Y-56951393D01*
X51360802Y-57056483D01*
X51443517Y-57139198D01*
X51548607Y-57190573D01*
X51616740Y-57200500D01*
X51680500Y-57200500D01*
X51738691Y-57219407D01*
X51774655Y-57268907D01*
X51779500Y-57299500D01*
X51779500Y-60464678D01*
X51760593Y-60522869D01*
X51732618Y-60548849D01*
X51653438Y-60597876D01*
X51489020Y-60747763D01*
X51354941Y-60925311D01*
X51301202Y-61033234D01*
X51258338Y-61076896D01*
X51197997Y-61087025D01*
X51143227Y-61059752D01*
X51122856Y-61030944D01*
X51053598Y-60882419D01*
X50918112Y-60688925D01*
X50751074Y-60521887D01*
X50557576Y-60386398D01*
X50343495Y-60286570D01*
X50130000Y-60229364D01*
X50130000Y-61276981D01*
X50015199Y-61224554D01*
X49913975Y-61210000D01*
X49846025Y-61210000D01*
X49744801Y-61224554D01*
X49630000Y-61276981D01*
X49630000Y-60229364D01*
X49416505Y-60286570D01*
X49202424Y-60386398D01*
X49008925Y-60521887D01*
X48841887Y-60688925D01*
X48741695Y-60832014D01*
X48692830Y-60868836D01*
X48631654Y-60869904D01*
X48581534Y-60834809D01*
X48569135Y-60813116D01*
X48565044Y-60803240D01*
X48565044Y-60803238D01*
X48504536Y-60657159D01*
X48504535Y-60657158D01*
X48504535Y-60657157D01*
X48408282Y-60531717D01*
X48282841Y-60435464D01*
X48136761Y-60374955D01*
X48022574Y-60359923D01*
X48019361Y-60359500D01*
X48016120Y-60359500D01*
X46743881Y-60359500D01*
X46743865Y-60359500D01*
X46740640Y-60359501D01*
X46737429Y-60359923D01*
X46737424Y-60359924D01*
X46623238Y-60374955D01*
X46477158Y-60435464D01*
X46351717Y-60531717D01*
X46255464Y-60657158D01*
X46194955Y-60803238D01*
X46179923Y-60917425D01*
X46179500Y-60920639D01*
X46179500Y-60923878D01*
X46179500Y-60923879D01*
X46179500Y-62446118D01*
X46179500Y-62446133D01*
X46179501Y-62449360D01*
X46179923Y-62452571D01*
X46179924Y-62452575D01*
X46194955Y-62566761D01*
X46255464Y-62712841D01*
X46351717Y-62838282D01*
X46447971Y-62912139D01*
X46477159Y-62934536D01*
X46623238Y-62995044D01*
X46740639Y-63010500D01*
X48019360Y-63010499D01*
X48136762Y-62995044D01*
X48282841Y-62934536D01*
X48408282Y-62838282D01*
X48504536Y-62712841D01*
X48565044Y-62566762D01*
X48565044Y-62566759D01*
X48569135Y-62556884D01*
X48608871Y-62510358D01*
X48668366Y-62496074D01*
X48724894Y-62519489D01*
X48741695Y-62537985D01*
X48841887Y-62681074D01*
X49008925Y-62848112D01*
X49202423Y-62983601D01*
X49416504Y-63083429D01*
X49630000Y-63140634D01*
X49630000Y-62093018D01*
X49744801Y-62145446D01*
X49846025Y-62160000D01*
X49913975Y-62160000D01*
X50015199Y-62145446D01*
X50130000Y-62093018D01*
X50130000Y-63140633D01*
X50343495Y-63083429D01*
X50557575Y-62983601D01*
X50751074Y-62848112D01*
X50918112Y-62681074D01*
X51053598Y-62487580D01*
X51122856Y-62339055D01*
X51164584Y-62294307D01*
X51224646Y-62282632D01*
X51280098Y-62308490D01*
X51301202Y-62336766D01*
X51354940Y-62444686D01*
X51354941Y-62444687D01*
X51354942Y-62444689D01*
X51489019Y-62622236D01*
X51653438Y-62772124D01*
X51842599Y-62889247D01*
X52050060Y-62969618D01*
X52050063Y-62969619D01*
X52268755Y-63010500D01*
X52268757Y-63010500D01*
X52491245Y-63010500D01*
X52709936Y-62969619D01*
X52709937Y-62969618D01*
X52709940Y-62969618D01*
X52917401Y-62889247D01*
X53106562Y-62772124D01*
X53270981Y-62622236D01*
X53405058Y-62444689D01*
X53504229Y-62245528D01*
X53534779Y-62138152D01*
X53568889Y-62087358D01*
X53626342Y-62066314D01*
X53685191Y-62083058D01*
X53722960Y-62131195D01*
X53725216Y-62138140D01*
X53745359Y-62208934D01*
X53755771Y-62245529D01*
X53854940Y-62444686D01*
X53854941Y-62444687D01*
X53854942Y-62444689D01*
X53989019Y-62622236D01*
X54153438Y-62772124D01*
X54229675Y-62819327D01*
X54269195Y-62866035D01*
X54275710Y-62890575D01*
X54279500Y-62919360D01*
X54294955Y-63036761D01*
X54355464Y-63182841D01*
X54451716Y-63308281D01*
X54478062Y-63328496D01*
X54487800Y-63337035D01*
X55877963Y-64727198D01*
X55886502Y-64736936D01*
X55906718Y-64763283D01*
X56019417Y-64849759D01*
X56032160Y-64859537D01*
X56178236Y-64920044D01*
X56210909Y-64924345D01*
X56335000Y-64940682D01*
X56367927Y-64936346D01*
X56380849Y-64935500D01*
X71258282Y-64935500D01*
X71316473Y-64954407D01*
X71352437Y-65003907D01*
X71352437Y-65065093D01*
X71346903Y-65078625D01*
X71302595Y-65167611D01*
X71244244Y-65372690D01*
X71224571Y-65585000D01*
X71244244Y-65797310D01*
X71277717Y-65914955D01*
X71302596Y-66002391D01*
X71366820Y-66131372D01*
X71375833Y-66191890D01*
X71347552Y-66246148D01*
X71292781Y-66273420D01*
X71278199Y-66274500D01*
X53670849Y-66274500D01*
X53657927Y-66273653D01*
X53625000Y-66269318D01*
X53624999Y-66269318D01*
X53585639Y-66274500D01*
X53468238Y-66289955D01*
X53322158Y-66350464D01*
X53196717Y-66446718D01*
X53176498Y-66473067D01*
X53167962Y-66482801D01*
X52107801Y-67542962D01*
X52098067Y-67551498D01*
X52071719Y-67571716D01*
X52047549Y-67603216D01*
X51975465Y-67697157D01*
X51975464Y-67697158D01*
X51975464Y-67697159D01*
X51966112Y-67719738D01*
X51958387Y-67738387D01*
X51918649Y-67784912D01*
X51866923Y-67799500D01*
X51616740Y-67799500D01*
X51565640Y-67806945D01*
X51548606Y-67809427D01*
X51443518Y-67860801D01*
X51360801Y-67943518D01*
X51309427Y-68048606D01*
X51309427Y-68048607D01*
X51299500Y-68116740D01*
X51299500Y-69883260D01*
X51309427Y-69951393D01*
X51360802Y-70056483D01*
X51443517Y-70139198D01*
X51548607Y-70190573D01*
X51616740Y-70200500D01*
X51680500Y-70200500D01*
X51738691Y-70219407D01*
X51774655Y-70268907D01*
X51779500Y-70299500D01*
X51779500Y-73384678D01*
X51760593Y-73442869D01*
X51732618Y-73468849D01*
X51653438Y-73517876D01*
X51489020Y-73667763D01*
X51354941Y-73845311D01*
X51301202Y-73953234D01*
X51258338Y-73996896D01*
X51197997Y-74007025D01*
X51143227Y-73979752D01*
X51122856Y-73950944D01*
X51053598Y-73802419D01*
X50918112Y-73608925D01*
X50751074Y-73441887D01*
X50557576Y-73306398D01*
X50343495Y-73206570D01*
X50130000Y-73149364D01*
X50130000Y-74196981D01*
X50015199Y-74144554D01*
X49913975Y-74130000D01*
X49846025Y-74130000D01*
X49744801Y-74144554D01*
X49630000Y-74196981D01*
X49630000Y-73149364D01*
X49416505Y-73206570D01*
X49202424Y-73306398D01*
X49008925Y-73441887D01*
X48841887Y-73608925D01*
X48741695Y-73752014D01*
X48692830Y-73788836D01*
X48631654Y-73789904D01*
X48581534Y-73754809D01*
X48569135Y-73733116D01*
X48565044Y-73723240D01*
X48565044Y-73723238D01*
X48504536Y-73577159D01*
X48504535Y-73577158D01*
X48504535Y-73577157D01*
X48408282Y-73451717D01*
X48282841Y-73355464D01*
X48136761Y-73294955D01*
X48022574Y-73279923D01*
X48019361Y-73279500D01*
X48016120Y-73279500D01*
X46743881Y-73279500D01*
X46743865Y-73279500D01*
X46740640Y-73279501D01*
X46737429Y-73279923D01*
X46737424Y-73279924D01*
X46623238Y-73294955D01*
X46477158Y-73355464D01*
X46351717Y-73451717D01*
X46255464Y-73577158D01*
X46194955Y-73723238D01*
X46183105Y-73813255D01*
X46179500Y-73840639D01*
X46179500Y-73843878D01*
X46179500Y-73843879D01*
X46179500Y-75366118D01*
X46179500Y-75366133D01*
X46179501Y-75369360D01*
X46179923Y-75372571D01*
X46179924Y-75372575D01*
X46194955Y-75486761D01*
X46255464Y-75632841D01*
X46351717Y-75758282D01*
X46441774Y-75827384D01*
X46477159Y-75854536D01*
X46623238Y-75915044D01*
X46740639Y-75930500D01*
X48019360Y-75930499D01*
X48136762Y-75915044D01*
X48282841Y-75854536D01*
X48408282Y-75758282D01*
X48504536Y-75632841D01*
X48565044Y-75486762D01*
X48565044Y-75486759D01*
X48569135Y-75476884D01*
X48608871Y-75430358D01*
X48668366Y-75416074D01*
X48724894Y-75439489D01*
X48741695Y-75457985D01*
X48841887Y-75601074D01*
X49008925Y-75768112D01*
X49202423Y-75903601D01*
X49416504Y-76003429D01*
X49630000Y-76060634D01*
X49630000Y-75013018D01*
X49744801Y-75065446D01*
X49846025Y-75080000D01*
X49913975Y-75080000D01*
X50015199Y-75065446D01*
X50130000Y-75013018D01*
X50130000Y-76060633D01*
X50343495Y-76003429D01*
X50557575Y-75903601D01*
X50751074Y-75768112D01*
X50918112Y-75601074D01*
X51053598Y-75407580D01*
X51122856Y-75259055D01*
X51164584Y-75214307D01*
X51224646Y-75202632D01*
X51280098Y-75228490D01*
X51301202Y-75256766D01*
X51354940Y-75364686D01*
X51354941Y-75364687D01*
X51354942Y-75364689D01*
X51489019Y-75542236D01*
X51653438Y-75692124D01*
X51842599Y-75809247D01*
X52050060Y-75889618D01*
X52050063Y-75889619D01*
X52268755Y-75930500D01*
X52268757Y-75930500D01*
X52491245Y-75930500D01*
X52709936Y-75889619D01*
X52709937Y-75889618D01*
X52709940Y-75889618D01*
X52917401Y-75809247D01*
X53106562Y-75692124D01*
X53270981Y-75542236D01*
X53405058Y-75364689D01*
X53504229Y-75165528D01*
X53534779Y-75058152D01*
X53568889Y-75007358D01*
X53626342Y-74986314D01*
X53685191Y-75003058D01*
X53722960Y-75051195D01*
X53725216Y-75058140D01*
X53734998Y-75092519D01*
X53755771Y-75165529D01*
X53854940Y-75364686D01*
X53854941Y-75364687D01*
X53854942Y-75364689D01*
X53989019Y-75542236D01*
X54153438Y-75692124D01*
X54232616Y-75741148D01*
X54272137Y-75787856D01*
X54279499Y-75825319D01*
X54279499Y-76830257D01*
X54260592Y-76888448D01*
X54250503Y-76900261D01*
X52107801Y-79042962D01*
X52098067Y-79051498D01*
X52071718Y-79071717D01*
X51998184Y-79167550D01*
X51975464Y-79197158D01*
X51914955Y-79343238D01*
X51894318Y-79500000D01*
X51898653Y-79532927D01*
X51899500Y-79545849D01*
X51899500Y-80700500D01*
X51880593Y-80758691D01*
X51831093Y-80794655D01*
X51800500Y-80799500D01*
X51616740Y-80799500D01*
X51565640Y-80806945D01*
X51548606Y-80809427D01*
X51443518Y-80860801D01*
X51360801Y-80943518D01*
X51309427Y-81048606D01*
X51309427Y-81048607D01*
X51299500Y-81116740D01*
X51299500Y-82883260D01*
X51309427Y-82951393D01*
X51360802Y-83056483D01*
X51443517Y-83139198D01*
X51548607Y-83190573D01*
X51616740Y-83200500D01*
X51680500Y-83200500D01*
X51738691Y-83219407D01*
X51774655Y-83268907D01*
X51779500Y-83299500D01*
X51779500Y-86384678D01*
X51760593Y-86442869D01*
X51732618Y-86468849D01*
X51653438Y-86517876D01*
X51489020Y-86667763D01*
X51354941Y-86845311D01*
X51301202Y-86953234D01*
X51258338Y-86996896D01*
X51197997Y-87007025D01*
X51143227Y-86979752D01*
X51122856Y-86950944D01*
X51053598Y-86802419D01*
X50918112Y-86608925D01*
X50751074Y-86441887D01*
X50557576Y-86306398D01*
X50343495Y-86206570D01*
X50130000Y-86149364D01*
X50130000Y-87196981D01*
X50015199Y-87144554D01*
X49913975Y-87130000D01*
X49846025Y-87130000D01*
X49744801Y-87144554D01*
X49630000Y-87196981D01*
X49630000Y-86149364D01*
X49416505Y-86206570D01*
X49202424Y-86306398D01*
X49008925Y-86441887D01*
X48841887Y-86608925D01*
X48741695Y-86752014D01*
X48692830Y-86788836D01*
X48631654Y-86789904D01*
X48581534Y-86754809D01*
X48569135Y-86733116D01*
X48565044Y-86723240D01*
X48565044Y-86723238D01*
X48504536Y-86577159D01*
X48504535Y-86577158D01*
X48504535Y-86577157D01*
X48408282Y-86451717D01*
X48282841Y-86355464D01*
X48136761Y-86294955D01*
X48022574Y-86279923D01*
X48019361Y-86279500D01*
X48016120Y-86279500D01*
X46743881Y-86279500D01*
X46743865Y-86279500D01*
X46740640Y-86279501D01*
X46737429Y-86279923D01*
X46737424Y-86279924D01*
X46623238Y-86294955D01*
X46477158Y-86355464D01*
X46351717Y-86451717D01*
X46255464Y-86577158D01*
X46194955Y-86723238D01*
X46179923Y-86837425D01*
X46179500Y-86840639D01*
X46179500Y-86843878D01*
X46179500Y-86843879D01*
X46179500Y-88366118D01*
X46179500Y-88366133D01*
X46179501Y-88369360D01*
X46179923Y-88372571D01*
X46179924Y-88372575D01*
X46194955Y-88486761D01*
X46255464Y-88632841D01*
X46351717Y-88758282D01*
X46446220Y-88830796D01*
X46477159Y-88854536D01*
X46623238Y-88915044D01*
X46740639Y-88930500D01*
X48019360Y-88930499D01*
X48136762Y-88915044D01*
X48282841Y-88854536D01*
X48408282Y-88758282D01*
X48504536Y-88632841D01*
X48565044Y-88486762D01*
X48565044Y-88486759D01*
X48569135Y-88476884D01*
X48608871Y-88430358D01*
X48668366Y-88416074D01*
X48724894Y-88439489D01*
X48741695Y-88457985D01*
X48841887Y-88601074D01*
X49008925Y-88768112D01*
X49202423Y-88903601D01*
X49416504Y-89003429D01*
X49630000Y-89060634D01*
X49630000Y-88013018D01*
X49744801Y-88065446D01*
X49846025Y-88080000D01*
X49913975Y-88080000D01*
X50015199Y-88065446D01*
X50130000Y-88013018D01*
X50130000Y-89060633D01*
X50343495Y-89003429D01*
X50557575Y-88903601D01*
X50751074Y-88768112D01*
X50918112Y-88601074D01*
X51053598Y-88407580D01*
X51122856Y-88259055D01*
X51164584Y-88214307D01*
X51224646Y-88202632D01*
X51280098Y-88228490D01*
X51301202Y-88256766D01*
X51354940Y-88364686D01*
X51354941Y-88364687D01*
X51354942Y-88364689D01*
X51489019Y-88542236D01*
X51653438Y-88692124D01*
X51842599Y-88809247D01*
X52022479Y-88878933D01*
X52050063Y-88889619D01*
X52268755Y-88930500D01*
X52268757Y-88930500D01*
X52491245Y-88930500D01*
X52709936Y-88889619D01*
X52709937Y-88889618D01*
X52709940Y-88889618D01*
X52917401Y-88809247D01*
X53106562Y-88692124D01*
X53270981Y-88542236D01*
X53405058Y-88364689D01*
X53504229Y-88165528D01*
X53534779Y-88058152D01*
X53568889Y-88007358D01*
X53626342Y-87986314D01*
X53685191Y-88003058D01*
X53722960Y-88051195D01*
X53725216Y-88058140D01*
X53740810Y-88112946D01*
X53755771Y-88165529D01*
X53854940Y-88364686D01*
X53854941Y-88364687D01*
X53854942Y-88364689D01*
X53989019Y-88542236D01*
X54153438Y-88692124D01*
X54232616Y-88741148D01*
X54272137Y-88787856D01*
X54279499Y-88825319D01*
X54279499Y-89830256D01*
X54260592Y-89888447D01*
X54250503Y-89900260D01*
X52107801Y-92042962D01*
X52098067Y-92051498D01*
X52071719Y-92071716D01*
X51963682Y-92212512D01*
X51964403Y-92217483D01*
X51958297Y-92238601D01*
X51914955Y-92343236D01*
X51894318Y-92500000D01*
X51898653Y-92532927D01*
X51899500Y-92545849D01*
X51899500Y-93700500D01*
X51880593Y-93758691D01*
X51831093Y-93794655D01*
X51800500Y-93799500D01*
X51616740Y-93799500D01*
X51565640Y-93806945D01*
X51548606Y-93809427D01*
X51443518Y-93860801D01*
X51360801Y-93943518D01*
X51309427Y-94048606D01*
X51309427Y-94048607D01*
X51299500Y-94116740D01*
X51299500Y-95883260D01*
X51302192Y-95901736D01*
X51309427Y-95951393D01*
X51350746Y-96035914D01*
X51360802Y-96056483D01*
X51443517Y-96139198D01*
X51548607Y-96190573D01*
X51616740Y-96200500D01*
X51680500Y-96200500D01*
X51738691Y-96219407D01*
X51774655Y-96268907D01*
X51779500Y-96299500D01*
X51779500Y-99384678D01*
X51760593Y-99442869D01*
X51732618Y-99468849D01*
X51653441Y-99517874D01*
X51653438Y-99517876D01*
X51489019Y-99667764D01*
X51482914Y-99675849D01*
X51354941Y-99845311D01*
X51301202Y-99953234D01*
X51258338Y-99996896D01*
X51197997Y-100007025D01*
X51143227Y-99979752D01*
X51122856Y-99950944D01*
X51053598Y-99802419D01*
X50918112Y-99608925D01*
X50751074Y-99441887D01*
X50557576Y-99306398D01*
X50343495Y-99206570D01*
X50130000Y-99149364D01*
X50130000Y-100196981D01*
X50015199Y-100144554D01*
X49913975Y-100130000D01*
X49846025Y-100130000D01*
X49744801Y-100144554D01*
X49630000Y-100196981D01*
X49630000Y-99149364D01*
X49416505Y-99206570D01*
X49202424Y-99306398D01*
X49008925Y-99441887D01*
X48841887Y-99608925D01*
X48741695Y-99752014D01*
X48692830Y-99788836D01*
X48631654Y-99789904D01*
X48581534Y-99754809D01*
X48569135Y-99733116D01*
X48565044Y-99723240D01*
X48565044Y-99723238D01*
X48504536Y-99577159D01*
X48504535Y-99577158D01*
X48504535Y-99577157D01*
X48408282Y-99451717D01*
X48282841Y-99355464D01*
X48136761Y-99294955D01*
X48022574Y-99279923D01*
X48019361Y-99279500D01*
X48016120Y-99279500D01*
X46743881Y-99279500D01*
X46743865Y-99279500D01*
X46740640Y-99279501D01*
X46737429Y-99279923D01*
X46737424Y-99279924D01*
X46623238Y-99294955D01*
X46477158Y-99355464D01*
X46351717Y-99451717D01*
X46255464Y-99577158D01*
X46194955Y-99723238D01*
X46184046Y-99806106D01*
X46179500Y-99840639D01*
X46179500Y-99843878D01*
X46179500Y-99843879D01*
X46179500Y-101366118D01*
X46179500Y-101366133D01*
X43050500Y-101366133D01*
X43050500Y-53178000D01*
X62877240Y-53178000D01*
X62896249Y-53407403D01*
X62952759Y-53630558D01*
X63045222Y-53841350D01*
X63127760Y-53967684D01*
X63781477Y-53313966D01*
X63804155Y-53391201D01*
X63883131Y-53514090D01*
X63993530Y-53609752D01*
X64126408Y-53670435D01*
X64131400Y-53671152D01*
X63480039Y-54322513D01*
X63508686Y-54344809D01*
X63711134Y-54454368D01*
X63928851Y-54529110D01*
X64155905Y-54567000D01*
X64386095Y-54567000D01*
X64613148Y-54529110D01*
X64830865Y-54454368D01*
X65033314Y-54344808D01*
X65061959Y-54322513D01*
X64410599Y-53671152D01*
X64415592Y-53670435D01*
X64548470Y-53609752D01*
X64658869Y-53514090D01*
X64737845Y-53391201D01*
X64760522Y-53313968D01*
X65414239Y-53967685D01*
X65496775Y-53841355D01*
X65589240Y-53630558D01*
X65645750Y-53407403D01*
X65664759Y-53178000D01*
X65664759Y-53177999D01*
X102375240Y-53177999D01*
X102394249Y-53407403D01*
X102450759Y-53630558D01*
X102543222Y-53841350D01*
X102625760Y-53967684D01*
X103279477Y-53313967D01*
X103302155Y-53391201D01*
X103381131Y-53514090D01*
X103491530Y-53609752D01*
X103624408Y-53670435D01*
X103629400Y-53671152D01*
X102978039Y-54322513D01*
X103006686Y-54344809D01*
X103209134Y-54454368D01*
X103426851Y-54529110D01*
X103653905Y-54567000D01*
X103884095Y-54567000D01*
X104111148Y-54529110D01*
X104328865Y-54454368D01*
X104531314Y-54344808D01*
X104559959Y-54322513D01*
X103908599Y-53671152D01*
X103913592Y-53670435D01*
X104046470Y-53609752D01*
X104156869Y-53514090D01*
X104235845Y-53391201D01*
X104258522Y-53313968D01*
X104912239Y-53967685D01*
X104994775Y-53841355D01*
X105087240Y-53630558D01*
X105143750Y-53407403D01*
X105162759Y-53178000D01*
X105143750Y-52948596D01*
X105087240Y-52725441D01*
X104994777Y-52514649D01*
X104912238Y-52388314D01*
X104258521Y-53042030D01*
X104235845Y-52964799D01*
X104156869Y-52841910D01*
X104046470Y-52746248D01*
X103913592Y-52685565D01*
X103908597Y-52684846D01*
X104559959Y-52033485D01*
X104531312Y-52011190D01*
X104328865Y-51901631D01*
X104111148Y-51826889D01*
X103884095Y-51789000D01*
X103653905Y-51789000D01*
X103426851Y-51826889D01*
X103209134Y-51901631D01*
X103006687Y-52011190D01*
X102978039Y-52033485D01*
X103629401Y-52684847D01*
X103624408Y-52685565D01*
X103491530Y-52746248D01*
X103381131Y-52841910D01*
X103302155Y-52964799D01*
X103279477Y-53042030D01*
X102625759Y-52388313D01*
X102543223Y-52514646D01*
X102450759Y-52725441D01*
X102394249Y-52948596D01*
X102375240Y-53177999D01*
X65664759Y-53177999D01*
X65645750Y-52948596D01*
X65589240Y-52725441D01*
X65496777Y-52514649D01*
X65414238Y-52388314D01*
X64760521Y-53042030D01*
X64737845Y-52964799D01*
X64658869Y-52841910D01*
X64548470Y-52746248D01*
X64415592Y-52685565D01*
X64410597Y-52684846D01*
X65061959Y-52033485D01*
X65033312Y-52011190D01*
X64830865Y-51901631D01*
X64613148Y-51826889D01*
X64386095Y-51789000D01*
X64155905Y-51789000D01*
X63928851Y-51826889D01*
X63711134Y-51901631D01*
X63508687Y-52011190D01*
X63480039Y-52033485D01*
X64131401Y-52684847D01*
X64126408Y-52685565D01*
X63993530Y-52746248D01*
X63883131Y-52841910D01*
X63804155Y-52964799D01*
X63781478Y-53042030D01*
X63127759Y-52388312D01*
X63127759Y-52388313D01*
X63045223Y-52514646D01*
X62952759Y-52725441D01*
X62896249Y-52948596D01*
X62877240Y-53178000D01*
X43050500Y-53178000D01*
X43050500Y-37002279D01*
X43050553Y-37000000D01*
X43844536Y-37000000D01*
X43844692Y-37002777D01*
X43864220Y-37350514D01*
X43864221Y-37350523D01*
X43864377Y-37353300D01*
X43923650Y-37702157D01*
X43924415Y-37704814D01*
X43924418Y-37704825D01*
X43988560Y-37927466D01*
X44021610Y-38042184D01*
X44022671Y-38044745D01*
X44022674Y-38044754D01*
X44133236Y-38311674D01*
X44157025Y-38369105D01*
X44158368Y-38371536D01*
X44158371Y-38371541D01*
X44326847Y-38676376D01*
X44326854Y-38676387D01*
X44328192Y-38678808D01*
X44532959Y-38967400D01*
X44534811Y-38969472D01*
X44764047Y-39225988D01*
X44768750Y-39231250D01*
X45032600Y-39467041D01*
X45321192Y-39671808D01*
X45323617Y-39673148D01*
X45323623Y-39673152D01*
X45563903Y-39805949D01*
X45630895Y-39842975D01*
X45957816Y-39978390D01*
X46297843Y-40076350D01*
X46646700Y-40135623D01*
X47000000Y-40155464D01*
X47353300Y-40135623D01*
X47702157Y-40076350D01*
X48042184Y-39978390D01*
X48369105Y-39842975D01*
X48678808Y-39671808D01*
X48795008Y-39589360D01*
X52542000Y-39589360D01*
X52542423Y-39592573D01*
X52557455Y-39706760D01*
X52617964Y-39852842D01*
X52714217Y-39978282D01*
X52849999Y-40082471D01*
X52847794Y-40085344D01*
X52877403Y-40110624D01*
X52892000Y-40162366D01*
X52892000Y-48385753D01*
X52873093Y-48443944D01*
X52868839Y-48449388D01*
X52849509Y-48472424D01*
X52822072Y-48519946D01*
X52817433Y-48527227D01*
X52785967Y-48572167D01*
X52762779Y-48621892D01*
X52758792Y-48629550D01*
X52731354Y-48677074D01*
X52712591Y-48728625D01*
X52709288Y-48736601D01*
X52686095Y-48786341D01*
X52671895Y-48839336D01*
X52669299Y-48847571D01*
X52650534Y-48899128D01*
X52641005Y-48953167D01*
X52639136Y-48961596D01*
X52624937Y-49014591D01*
X52620154Y-49069250D01*
X52619027Y-49077808D01*
X52609500Y-49131844D01*
X52609500Y-49186713D01*
X52609123Y-49195342D01*
X52604340Y-49249999D01*
X52609123Y-49304657D01*
X52609500Y-49313286D01*
X52609500Y-49368154D01*
X52619027Y-49422190D01*
X52620154Y-49430749D01*
X52624937Y-49485408D01*
X52639136Y-49538404D01*
X52641005Y-49546832D01*
X52650534Y-49600873D01*
X52669298Y-49652429D01*
X52671894Y-49660662D01*
X52686096Y-49713662D01*
X52709283Y-49763385D01*
X52712586Y-49771358D01*
X52718316Y-49787100D01*
X52731356Y-49822929D01*
X52758792Y-49870450D01*
X52762779Y-49878109D01*
X52785964Y-49927829D01*
X52817436Y-49972776D01*
X52822076Y-49980060D01*
X52849507Y-50027573D01*
X52884777Y-50069607D01*
X52890032Y-50076455D01*
X52921505Y-50121402D01*
X52960305Y-50160202D01*
X52966129Y-50166557D01*
X53001404Y-50208596D01*
X53001407Y-50208599D01*
X53043434Y-50243864D01*
X53049801Y-50249698D01*
X53088598Y-50288494D01*
X53088599Y-50288495D01*
X53133537Y-50319961D01*
X53140388Y-50325218D01*
X53182426Y-50360492D01*
X53229940Y-50387924D01*
X53237224Y-50392564D01*
X53282167Y-50424033D01*
X53282170Y-50424035D01*
X53331914Y-50447231D01*
X53339541Y-50451201D01*
X53387074Y-50478645D01*
X53438644Y-50497414D01*
X53446604Y-50500712D01*
X53496337Y-50523903D01*
X53549341Y-50538104D01*
X53557554Y-50540693D01*
X53609129Y-50559466D01*
X53663165Y-50568993D01*
X53671592Y-50570862D01*
X53724586Y-50585062D01*
X53724589Y-50585062D01*
X53724592Y-50585063D01*
X53779271Y-50589846D01*
X53787789Y-50590967D01*
X53841847Y-50600500D01*
X53896714Y-50600500D01*
X53905343Y-50600877D01*
X53960000Y-50605659D01*
X54014657Y-50600877D01*
X54023286Y-50600500D01*
X54078151Y-50600500D01*
X54078153Y-50600500D01*
X54132212Y-50590967D01*
X54140724Y-50589846D01*
X54195408Y-50585063D01*
X54248416Y-50570859D01*
X54256830Y-50568994D01*
X54310871Y-50559466D01*
X54362459Y-50540688D01*
X54370635Y-50538110D01*
X54423663Y-50523903D01*
X54473391Y-50500713D01*
X54481353Y-50497415D01*
X54532926Y-50478645D01*
X54580455Y-50451202D01*
X54588096Y-50447225D01*
X54637830Y-50424035D01*
X54682794Y-50392549D01*
X54690039Y-50387934D01*
X54737574Y-50360491D01*
X54779620Y-50325208D01*
X54786441Y-50319975D01*
X54831401Y-50288495D01*
X54998495Y-50121401D01*
X54998495Y-50121399D01*
X55006641Y-50113254D01*
X55006644Y-50113249D01*
X55239143Y-49880753D01*
X55239143Y-49880752D01*
X55280995Y-49838901D01*
X55312480Y-49793932D01*
X55317711Y-49787116D01*
X55352990Y-49745074D01*
X55380426Y-49697551D01*
X55385051Y-49690291D01*
X55416535Y-49645329D01*
X55439732Y-49595582D01*
X55443700Y-49587958D01*
X55471144Y-49540426D01*
X55489910Y-49488863D01*
X55493200Y-49480919D01*
X55516403Y-49431163D01*
X55530609Y-49378141D01*
X55533194Y-49369940D01*
X55551965Y-49318371D01*
X55561492Y-49264339D01*
X55562454Y-49259999D01*
X57684340Y-49259999D01*
X57689123Y-49314657D01*
X57689500Y-49323286D01*
X57689500Y-49378154D01*
X57699027Y-49432190D01*
X57700154Y-49440749D01*
X57704937Y-49495408D01*
X57719136Y-49548404D01*
X57721005Y-49556832D01*
X57730534Y-49610873D01*
X57749298Y-49662429D01*
X57751894Y-49670662D01*
X57766096Y-49723662D01*
X57789283Y-49773385D01*
X57792586Y-49781358D01*
X57807056Y-49821115D01*
X57811356Y-49832929D01*
X57838792Y-49880450D01*
X57842779Y-49888109D01*
X57865964Y-49937829D01*
X57897436Y-49982776D01*
X57902076Y-49990060D01*
X57929507Y-50037573D01*
X57964777Y-50079607D01*
X57970032Y-50086455D01*
X58001505Y-50131402D01*
X58040305Y-50170202D01*
X58046129Y-50176557D01*
X58073016Y-50208599D01*
X58081407Y-50218599D01*
X58123434Y-50253864D01*
X58129801Y-50259698D01*
X58168598Y-50298494D01*
X58213537Y-50329961D01*
X58220388Y-50335218D01*
X58262426Y-50370492D01*
X58309940Y-50397924D01*
X58317224Y-50402564D01*
X58362167Y-50434033D01*
X58362170Y-50434035D01*
X58411914Y-50457231D01*
X58419541Y-50461201D01*
X58467074Y-50488645D01*
X58518644Y-50507414D01*
X58526604Y-50510712D01*
X58576337Y-50533903D01*
X58629341Y-50548104D01*
X58637554Y-50550693D01*
X58689129Y-50569466D01*
X58743165Y-50578993D01*
X58751592Y-50580862D01*
X58804586Y-50595062D01*
X58804589Y-50595062D01*
X58804592Y-50595063D01*
X58859271Y-50599846D01*
X58867789Y-50600967D01*
X58921847Y-50610500D01*
X58976714Y-50610500D01*
X58985343Y-50610877D01*
X59040000Y-50615659D01*
X59094657Y-50610877D01*
X59103286Y-50610500D01*
X59158151Y-50610500D01*
X59158153Y-50610500D01*
X59212212Y-50600967D01*
X59220724Y-50599846D01*
X59275408Y-50595063D01*
X59328416Y-50580859D01*
X59336830Y-50578994D01*
X59390871Y-50569466D01*
X59442459Y-50550688D01*
X59450635Y-50548110D01*
X59503663Y-50533903D01*
X59553391Y-50510713D01*
X59561353Y-50507415D01*
X59612926Y-50488645D01*
X59660455Y-50461202D01*
X59668096Y-50457225D01*
X59717830Y-50434035D01*
X59762794Y-50402549D01*
X59770039Y-50397934D01*
X59817574Y-50370491D01*
X59859620Y-50335208D01*
X59866441Y-50329975D01*
X59911401Y-50298495D01*
X60078495Y-50131401D01*
X60078496Y-50131399D01*
X60089852Y-50120043D01*
X60089853Y-50120040D01*
X65267643Y-44942253D01*
X65267643Y-44942252D01*
X65309495Y-44900401D01*
X65340967Y-44855453D01*
X65346208Y-44848620D01*
X65381491Y-44806574D01*
X65408937Y-44759034D01*
X65413552Y-44751788D01*
X65445035Y-44706829D01*
X65468223Y-44657098D01*
X65472195Y-44649468D01*
X65499645Y-44601926D01*
X65518419Y-44550340D01*
X65521707Y-44542403D01*
X65544903Y-44492663D01*
X65559112Y-44439627D01*
X65561690Y-44431450D01*
X65580465Y-44379871D01*
X65589992Y-44325836D01*
X65591860Y-44317412D01*
X65606062Y-44264411D01*
X65606063Y-44264408D01*
X65610846Y-44209726D01*
X65611967Y-44201207D01*
X65621500Y-44147153D01*
X65621500Y-43910847D01*
X65621500Y-43910846D01*
X65621500Y-36032999D01*
X102524764Y-36032999D01*
X102543667Y-36249056D01*
X102556740Y-36297843D01*
X102599802Y-36458553D01*
X102680244Y-36631062D01*
X102691462Y-36655120D01*
X102795362Y-36803504D01*
X102815861Y-36832779D01*
X102969221Y-36986139D01*
X103146882Y-37110539D01*
X103343447Y-37202198D01*
X103552941Y-37258332D01*
X103769000Y-37277235D01*
X103985059Y-37258332D01*
X104194553Y-37202198D01*
X104391118Y-37110539D01*
X104548984Y-37000000D01*
X107844536Y-37000000D01*
X107844692Y-37002777D01*
X107864220Y-37350514D01*
X107864221Y-37350523D01*
X107864377Y-37353300D01*
X107923650Y-37702157D01*
X107924415Y-37704814D01*
X107924418Y-37704825D01*
X107988560Y-37927466D01*
X108021610Y-38042184D01*
X108022671Y-38044745D01*
X108022674Y-38044754D01*
X108133236Y-38311674D01*
X108157025Y-38369105D01*
X108158368Y-38371536D01*
X108158371Y-38371541D01*
X108326847Y-38676376D01*
X108326854Y-38676387D01*
X108328192Y-38678808D01*
X108532959Y-38967400D01*
X108534811Y-38969472D01*
X108764047Y-39225988D01*
X108768750Y-39231250D01*
X109032600Y-39467041D01*
X109321192Y-39671808D01*
X109323617Y-39673148D01*
X109323623Y-39673152D01*
X109563903Y-39805949D01*
X109630895Y-39842975D01*
X109957816Y-39978390D01*
X110297843Y-40076350D01*
X110646700Y-40135623D01*
X111000000Y-40155464D01*
X111353300Y-40135623D01*
X111702157Y-40076350D01*
X112042184Y-39978390D01*
X112369105Y-39842975D01*
X112678808Y-39671808D01*
X112967400Y-39467041D01*
X113231250Y-39231250D01*
X113467041Y-38967400D01*
X113671808Y-38678808D01*
X113842975Y-38369105D01*
X113978390Y-38042184D01*
X114076350Y-37702157D01*
X114135623Y-37353300D01*
X114155464Y-37000000D01*
X114135623Y-36646700D01*
X114076350Y-36297843D01*
X113978390Y-35957816D01*
X113842975Y-35630895D01*
X113805949Y-35563903D01*
X113673152Y-35323623D01*
X113673148Y-35323617D01*
X113671808Y-35321192D01*
X113467041Y-35032600D01*
X113231250Y-34768750D01*
X113220449Y-34759098D01*
X113060737Y-34616370D01*
X112967400Y-34532959D01*
X112678808Y-34328192D01*
X112676387Y-34326854D01*
X112676376Y-34326847D01*
X112371541Y-34158371D01*
X112371536Y-34158368D01*
X112369105Y-34157025D01*
X112366534Y-34155960D01*
X112044754Y-34022674D01*
X112044745Y-34022671D01*
X112042184Y-34021610D01*
X112039515Y-34020841D01*
X112039512Y-34020840D01*
X111704825Y-33924418D01*
X111704814Y-33924415D01*
X111702157Y-33923650D01*
X111519998Y-33892700D01*
X111356050Y-33864844D01*
X111356045Y-33864843D01*
X111353300Y-33864377D01*
X111350523Y-33864221D01*
X111350514Y-33864220D01*
X111002778Y-33844692D01*
X111000000Y-33844536D01*
X110997222Y-33844692D01*
X110649485Y-33864220D01*
X110649474Y-33864221D01*
X110646700Y-33864377D01*
X110643956Y-33864843D01*
X110643949Y-33864844D01*
X110300585Y-33923184D01*
X110300582Y-33923184D01*
X110297843Y-33923650D01*
X110295189Y-33924414D01*
X110295174Y-33924418D01*
X109960487Y-34020840D01*
X109960478Y-34020842D01*
X109957816Y-34021610D01*
X109955259Y-34022668D01*
X109955245Y-34022674D01*
X109633465Y-34155960D01*
X109633457Y-34155963D01*
X109630895Y-34157025D01*
X109628470Y-34158365D01*
X109628458Y-34158371D01*
X109323623Y-34326847D01*
X109323604Y-34326858D01*
X109321192Y-34328192D01*
X109318932Y-34329794D01*
X109318928Y-34329798D01*
X109034867Y-34531350D01*
X109034861Y-34531354D01*
X109032600Y-34532959D01*
X109030532Y-34534806D01*
X109030527Y-34534811D01*
X108770828Y-34766892D01*
X108770818Y-34766901D01*
X108768750Y-34768750D01*
X108766901Y-34770818D01*
X108766892Y-34770828D01*
X108534811Y-35030527D01*
X108534806Y-35030532D01*
X108532959Y-35032600D01*
X108531354Y-35034861D01*
X108531350Y-35034867D01*
X108383144Y-35243744D01*
X108328192Y-35321192D01*
X108326858Y-35323604D01*
X108326847Y-35323623D01*
X108158371Y-35628458D01*
X108158365Y-35628470D01*
X108157025Y-35630895D01*
X108155963Y-35633457D01*
X108155960Y-35633465D01*
X108022674Y-35955245D01*
X108022668Y-35955259D01*
X108021610Y-35957816D01*
X108020842Y-35960478D01*
X108020840Y-35960487D01*
X107924418Y-36295174D01*
X107924414Y-36295189D01*
X107923650Y-36297843D01*
X107923184Y-36300582D01*
X107923184Y-36300585D01*
X107871278Y-36606085D01*
X107864377Y-36646700D01*
X107864221Y-36649474D01*
X107864220Y-36649485D01*
X107845825Y-36977039D01*
X107844536Y-37000000D01*
X104548984Y-37000000D01*
X104568779Y-36986139D01*
X104722139Y-36832779D01*
X104846539Y-36655118D01*
X104938198Y-36458553D01*
X104994332Y-36249059D01*
X105013235Y-36033000D01*
X104994332Y-35816941D01*
X104938198Y-35607447D01*
X104846539Y-35410883D01*
X104722139Y-35233221D01*
X104568779Y-35079861D01*
X104525024Y-35049223D01*
X104391120Y-34955462D01*
X104391118Y-34955461D01*
X104194553Y-34863802D01*
X104073598Y-34831392D01*
X103985056Y-34807667D01*
X103769000Y-34788764D01*
X103552943Y-34807667D01*
X103343447Y-34863802D01*
X103146880Y-34955462D01*
X102969224Y-35079858D01*
X102815858Y-35233224D01*
X102691462Y-35410880D01*
X102599802Y-35607447D01*
X102543667Y-35816943D01*
X102524764Y-36032999D01*
X65621500Y-36032999D01*
X65621500Y-35974034D01*
X65606063Y-35797592D01*
X65544903Y-35569337D01*
X65475398Y-35420285D01*
X65445036Y-35355173D01*
X65421242Y-35321192D01*
X65309495Y-35161599D01*
X65142401Y-34994505D01*
X65086640Y-34955461D01*
X64948827Y-34858963D01*
X64734667Y-34759098D01*
X64506405Y-34697936D01*
X64271000Y-34677340D01*
X64035594Y-34697936D01*
X63807332Y-34759098D01*
X63593173Y-34858963D01*
X63399602Y-34994502D01*
X63232502Y-35161602D01*
X63096963Y-35355173D01*
X62997098Y-35569332D01*
X62935936Y-35797594D01*
X62921919Y-35957816D01*
X62920500Y-35974034D01*
X62920499Y-35976180D01*
X62920499Y-35976203D01*
X62920499Y-43428596D01*
X62901592Y-43486787D01*
X62891503Y-43498600D01*
X58168602Y-48221502D01*
X58168599Y-48221505D01*
X58001504Y-48388599D01*
X57970031Y-48433545D01*
X57964777Y-48440392D01*
X57929509Y-48482424D01*
X57902072Y-48529946D01*
X57897433Y-48537227D01*
X57865967Y-48582167D01*
X57842779Y-48631892D01*
X57838792Y-48639550D01*
X57811354Y-48687074D01*
X57792591Y-48738625D01*
X57789288Y-48746601D01*
X57766095Y-48796341D01*
X57751895Y-48849336D01*
X57749299Y-48857571D01*
X57730534Y-48909128D01*
X57721005Y-48963167D01*
X57719136Y-48971596D01*
X57704937Y-49024591D01*
X57700154Y-49079250D01*
X57699027Y-49087808D01*
X57689500Y-49141844D01*
X57689500Y-49196713D01*
X57689123Y-49205342D01*
X57684340Y-49259999D01*
X55562454Y-49259999D01*
X55563362Y-49255904D01*
X55564945Y-49249999D01*
X55577563Y-49202908D01*
X55582346Y-49148229D01*
X55583468Y-49139706D01*
X55593000Y-49085654D01*
X55593000Y-48849347D01*
X55593000Y-48808351D01*
X55592999Y-48808339D01*
X55592999Y-44492663D01*
X55592999Y-40162362D01*
X55611906Y-40104175D01*
X55636675Y-40084653D01*
X55635001Y-40082471D01*
X55770782Y-39978282D01*
X55867035Y-39852842D01*
X55867034Y-39852842D01*
X55867036Y-39852841D01*
X55927544Y-39706761D01*
X55943000Y-39589360D01*
X55943000Y-38450000D01*
X56347774Y-38450000D01*
X56366652Y-38713959D01*
X56422902Y-38972533D01*
X56515381Y-39220481D01*
X56642202Y-39452736D01*
X56729539Y-39569404D01*
X57451265Y-38847677D01*
X57494816Y-38929822D01*
X57614509Y-39070735D01*
X57761695Y-39182623D01*
X57803902Y-39202150D01*
X57083093Y-39922960D01*
X57199758Y-40010294D01*
X57432018Y-40137118D01*
X57679966Y-40229597D01*
X57938540Y-40285847D01*
X58202500Y-40304725D01*
X58466459Y-40285847D01*
X58725033Y-40229597D01*
X58972981Y-40137118D01*
X59205241Y-40010294D01*
X59321905Y-39922960D01*
X58601107Y-39202162D01*
X58719931Y-39130669D01*
X58854158Y-39003523D01*
X58957362Y-38851307D01*
X59675460Y-39569405D01*
X59762794Y-39452741D01*
X59889618Y-39220481D01*
X59982097Y-38972533D01*
X60038347Y-38713959D01*
X60057225Y-38450000D01*
X60038347Y-38186040D01*
X59982097Y-37927466D01*
X59889618Y-37679518D01*
X59762794Y-37447258D01*
X59675460Y-37330593D01*
X58953732Y-38052320D01*
X58910184Y-37970178D01*
X58790491Y-37829265D01*
X58643305Y-37717377D01*
X58601094Y-37697848D01*
X59321904Y-36977039D01*
X59205236Y-36889702D01*
X58972981Y-36762881D01*
X58725033Y-36670402D01*
X58466459Y-36614152D01*
X58202500Y-36595274D01*
X57938540Y-36614152D01*
X57679966Y-36670402D01*
X57432018Y-36762881D01*
X57199759Y-36889704D01*
X57083093Y-36977038D01*
X57803892Y-37697837D01*
X57685069Y-37769331D01*
X57550842Y-37896477D01*
X57447637Y-38048692D01*
X56729538Y-37330593D01*
X56642204Y-37447259D01*
X56515381Y-37679518D01*
X56422902Y-37927466D01*
X56366652Y-38186040D01*
X56347774Y-38450000D01*
X55943000Y-38450000D01*
X55943000Y-37310640D01*
X55927544Y-37193239D01*
X55867036Y-37047159D01*
X55867035Y-37047158D01*
X55867035Y-37047157D01*
X55770782Y-36921717D01*
X55645342Y-36825464D01*
X55499260Y-36764955D01*
X55385073Y-36749923D01*
X55381860Y-36749500D01*
X53103140Y-36749500D01*
X53099927Y-36749922D01*
X53099926Y-36749923D01*
X52985739Y-36764955D01*
X52839657Y-36825464D01*
X52714217Y-36921717D01*
X52617964Y-37047157D01*
X52557455Y-37193239D01*
X52542423Y-37307426D01*
X52542000Y-37310640D01*
X52542000Y-39589360D01*
X48795008Y-39589360D01*
X48967400Y-39467041D01*
X49231250Y-39231250D01*
X49467041Y-38967400D01*
X49671808Y-38678808D01*
X49842975Y-38369105D01*
X49978390Y-38042184D01*
X50076350Y-37702157D01*
X50135623Y-37353300D01*
X50155464Y-37000000D01*
X50135623Y-36646700D01*
X50076350Y-36297843D01*
X49978390Y-35957816D01*
X49842975Y-35630895D01*
X49805949Y-35563903D01*
X49673152Y-35323623D01*
X49673148Y-35323617D01*
X49671808Y-35321192D01*
X49467041Y-35032600D01*
X49231250Y-34768750D01*
X49220449Y-34759098D01*
X49060737Y-34616370D01*
X48967400Y-34532959D01*
X48678808Y-34328192D01*
X48676387Y-34326854D01*
X48676376Y-34326847D01*
X48371541Y-34158371D01*
X48371536Y-34158368D01*
X48369105Y-34157025D01*
X48366534Y-34155960D01*
X48044754Y-34022674D01*
X48044745Y-34022671D01*
X48042184Y-34021610D01*
X48039515Y-34020841D01*
X48039512Y-34020840D01*
X47704825Y-33924418D01*
X47704814Y-33924415D01*
X47702157Y-33923650D01*
X47519998Y-33892700D01*
X47356050Y-33864844D01*
X47356045Y-33864843D01*
X47353300Y-33864377D01*
X47350523Y-33864221D01*
X47350514Y-33864220D01*
X47002778Y-33844692D01*
X47000000Y-33844536D01*
X46997222Y-33844692D01*
X46649485Y-33864220D01*
X46649474Y-33864221D01*
X46646700Y-33864377D01*
X46643956Y-33864843D01*
X46643949Y-33864844D01*
X46300585Y-33923184D01*
X46300582Y-33923184D01*
X46297843Y-33923650D01*
X46295189Y-33924414D01*
X46295174Y-33924418D01*
X45960487Y-34020840D01*
X45960478Y-34020842D01*
X45957816Y-34021610D01*
X45955259Y-34022668D01*
X45955245Y-34022674D01*
X45633465Y-34155960D01*
X45633457Y-34155963D01*
X45630895Y-34157025D01*
X45628470Y-34158365D01*
X45628458Y-34158371D01*
X45323623Y-34326847D01*
X45323604Y-34326858D01*
X45321192Y-34328192D01*
X45318932Y-34329794D01*
X45318928Y-34329798D01*
X45034867Y-34531350D01*
X45034861Y-34531354D01*
X45032600Y-34532959D01*
X45030532Y-34534806D01*
X45030527Y-34534811D01*
X44770828Y-34766892D01*
X44770818Y-34766901D01*
X44768750Y-34768750D01*
X44766901Y-34770818D01*
X44766892Y-34770828D01*
X44534811Y-35030527D01*
X44534806Y-35030532D01*
X44532959Y-35032600D01*
X44531354Y-35034861D01*
X44531350Y-35034867D01*
X44383144Y-35243744D01*
X44328192Y-35321192D01*
X44326858Y-35323604D01*
X44326847Y-35323623D01*
X44158371Y-35628458D01*
X44158365Y-35628470D01*
X44157025Y-35630895D01*
X44155963Y-35633457D01*
X44155960Y-35633465D01*
X44022674Y-35955245D01*
X44022668Y-35955259D01*
X44021610Y-35957816D01*
X44020842Y-35960478D01*
X44020840Y-35960487D01*
X43924418Y-36295174D01*
X43924414Y-36295189D01*
X43923650Y-36297843D01*
X43923184Y-36300582D01*
X43923184Y-36300585D01*
X43871278Y-36606085D01*
X43864377Y-36646700D01*
X43864221Y-36649474D01*
X43864220Y-36649485D01*
X43845825Y-36977039D01*
X43844536Y-37000000D01*
X43050553Y-37000000D01*
X43050606Y-36997707D01*
X43067136Y-36640167D01*
X43067979Y-36631062D01*
X43092043Y-36458552D01*
X43117119Y-36278785D01*
X43118792Y-36269840D01*
X43200222Y-35923621D01*
X43202723Y-35914832D01*
X43237456Y-35811202D01*
X43315747Y-35577611D01*
X43319048Y-35569092D01*
X43366740Y-35461080D01*
X43462710Y-35243729D01*
X43466771Y-35235572D01*
X43639844Y-34924845D01*
X43644647Y-34917089D01*
X43845648Y-34623665D01*
X43851158Y-34616370D01*
X43881709Y-34579579D01*
X44078365Y-34342753D01*
X44084505Y-34336017D01*
X44336017Y-34084505D01*
X44342753Y-34078365D01*
X44616371Y-33851156D01*
X44623667Y-33845647D01*
X44762911Y-33750262D01*
X44917089Y-33644647D01*
X44924845Y-33639844D01*
X45235572Y-33466771D01*
X45243729Y-33462710D01*
X45569099Y-33319045D01*
X45577611Y-33315747D01*
X45914837Y-33202721D01*
X45923621Y-33200222D01*
X46269840Y-33118792D01*
X46278785Y-33117119D01*
X46631063Y-33067978D01*
X46640162Y-33067136D01*
X46997707Y-33050605D01*
X47002279Y-33050500D01*
X47016408Y-33050500D01*
X110983592Y-33050500D01*
X110997721Y-33050500D01*
X111002292Y-33050605D01*
G37*
%TD.AperFunction*%
%TD*%
M02*
