%TF.GenerationSoftware,KiCad,Pcbnew,7.0.2-0*%
%TF.CreationDate,2024-10-30T20:33:57-04:00*%
%TF.ProjectId,2sliders,32736c69-6465-4727-932e-6b696361645f,rev?*%
%TF.SameCoordinates,Original*%
%TF.FileFunction,Copper,L1,Top*%
%TF.FilePolarity,Positive*%
%FSLAX46Y46*%
G04 Gerber Fmt 4.6, Leading zero omitted, Abs format (unit mm)*
G04 Created by KiCad (PCBNEW 7.0.2-0) date 2024-10-30 20:33:57*
%MOMM*%
%LPD*%
G01*
G04 APERTURE LIST*
G04 Aperture macros list*
%AMRoundRect*
0 Rectangle with rounded corners*
0 $1 Rounding radius*
0 $2 $3 $4 $5 $6 $7 $8 $9 X,Y pos of 4 corners*
0 Add a 4 corners polygon primitive as box body*
4,1,4,$2,$3,$4,$5,$6,$7,$8,$9,$2,$3,0*
0 Add four circle primitives for the rounded corners*
1,1,$1+$1,$2,$3*
1,1,$1+$1,$4,$5*
1,1,$1+$1,$6,$7*
1,1,$1+$1,$8,$9*
0 Add four rect primitives between the rounded corners*
20,1,$1+$1,$2,$3,$4,$5,0*
20,1,$1+$1,$4,$5,$6,$7,0*
20,1,$1+$1,$6,$7,$8,$9,0*
20,1,$1+$1,$8,$9,$2,$3,0*%
G04 Aperture macros list end*
%TA.AperFunction,ComponentPad*%
%ADD10C,5.600000*%
%TD*%
%TA.AperFunction,ComponentPad*%
%ADD11C,1.800000*%
%TD*%
%TA.AperFunction,ComponentPad*%
%ADD12RoundRect,0.250000X-0.725000X0.600000X-0.725000X-0.600000X0.725000X-0.600000X0.725000X0.600000X0*%
%TD*%
%TA.AperFunction,ComponentPad*%
%ADD13O,1.950000X1.700000*%
%TD*%
%TA.AperFunction,ViaPad*%
%ADD14C,0.800000*%
%TD*%
%TA.AperFunction,Conductor*%
%ADD15C,0.500000*%
%TD*%
G04 APERTURE END LIST*
D10*
%TO.P,H4,1*%
%TO.N,N/C*%
X56500000Y11500000D03*
%TD*%
%TO.P,H2,1*%
%TO.N,N/C*%
X4500000Y11500000D03*
%TD*%
D11*
%TO.P,R1,1,1*%
%TO.N,AREF*%
X42750000Y3000000D03*
%TO.P,R1,2,2*%
%TO.N,TRIGGER 1*%
X40250000Y3000000D03*
%TO.P,R1,3,3*%
%TO.N,GND*%
X42750000Y58000000D03*
%TO.P,R1,B,B*%
%TO.N,+5V*%
X47750000Y58000000D03*
%TO.P,R1,E,E*%
%TO.N,Net-(U1-OUTR)*%
X47750000Y3000000D03*
%TO.P,R1,L*%
%TO.N,N/C*%
X45250000Y3000000D03*
%TD*%
D10*
%TO.P,H3,1*%
%TO.N,N/C*%
X56500000Y49500000D03*
%TD*%
D11*
%TO.P,R2,1,1*%
%TO.N,AREF*%
X15750000Y3000000D03*
%TO.P,R2,2,2*%
%TO.N,TRIGGER 2*%
X13250000Y3000000D03*
%TO.P,R2,3,3*%
%TO.N,GND*%
X15750000Y58000000D03*
%TO.P,R2,B,B*%
%TO.N,+5V*%
X20750000Y58000000D03*
%TO.P,R2,E,E*%
%TO.N,Net-(U2-OUTR)*%
X20750000Y3000000D03*
%TO.P,R2,L*%
%TO.N,N/C*%
X18250000Y3000000D03*
%TD*%
D10*
%TO.P,H1,1*%
%TO.N,N/C*%
X4500000Y49500000D03*
%TD*%
D12*
%TO.P,J2,1,Pin_1*%
%TO.N,+5V*%
X30000000Y37500000D03*
D13*
%TO.P,J2,2,Pin_2*%
%TO.N,GND*%
X30000000Y35000000D03*
%TO.P,J2,3,Pin_3*%
%TO.N,DIN*%
X30000000Y32500000D03*
%TO.P,J2,4,Pin_4*%
%TO.N,DOUT*%
X30000000Y30000000D03*
%TO.P,J2,5,Pin_5*%
%TO.N,AREF*%
X30000000Y27500000D03*
%TO.P,J2,6,Pin_6*%
%TO.N,TRIGGER 1*%
X30000000Y25000000D03*
%TO.P,J2,7,Pin_7*%
%TO.N,TRIGGER 2*%
X30000000Y22500000D03*
%TO.P,J2,8,Pin_8*%
%TO.N,unconnected-(J2-Pin_8-Pad8)*%
X30000000Y20000000D03*
%TD*%
D14*
%TO.N,+5V*%
X46000000Y24500000D03*
X19000000Y24500000D03*
%TO.N,DIN*%
X42500000Y24500000D03*
%TO.N,DOUT*%
X15500000Y24500000D03*
%TO.N,AREF*%
X22750000Y5000000D03*
%TO.N,TRIGGER 1*%
X32000000Y6250000D03*
%TO.N,TRIGGER 2*%
X22000000Y6250000D03*
%TO.N,Net-(U1-DO)*%
X28750000Y14000000D03*
X34250000Y14000000D03*
%TD*%
D15*
%TO.N,DIN*%
X30000000Y32500000D02*
X34500000Y32500000D01*
X34500000Y32500000D02*
X42500000Y24500000D01*
%TO.N,DOUT*%
X30000000Y30000000D02*
X21000000Y30000000D01*
X21000000Y30000000D02*
X15500000Y24500000D01*
%TO.N,AREF*%
X22750000Y5000000D02*
X17750000Y5000000D01*
X17750000Y5000000D02*
X15750000Y3000000D01*
%TO.N,TRIGGER 1*%
X32000000Y6250000D02*
X32000000Y4500000D01*
X33500000Y3000000D02*
X40250000Y3000000D01*
X32000000Y4500000D02*
X33500000Y3000000D01*
%TO.N,TRIGGER 2*%
X22000000Y6250000D02*
X16500000Y6250000D01*
X16500000Y6250000D02*
X13250000Y3000000D01*
%TO.N,Net-(U1-DO)*%
X34250000Y14000000D02*
X28750000Y14000000D01*
%TD*%
%TA.AperFunction,Conductor*%
%TO.N,+5V*%
G36*
X52488057Y59908439D02*
G01*
X52509076Y59905671D01*
X52574978Y59896995D01*
X52606243Y59888617D01*
X52679667Y59858204D01*
X52707701Y59842019D01*
X52770750Y59793640D01*
X52793640Y59770750D01*
X52842019Y59707701D01*
X52858204Y59679667D01*
X52888617Y59606243D01*
X52896995Y59574978D01*
X52908439Y59488061D01*
X52909500Y59471874D01*
X52909500Y58496408D01*
X52909500Y58480000D01*
X52909500Y58261134D01*
X52909690Y58258715D01*
X52909691Y58258699D01*
X52938941Y57887047D01*
X52943844Y57824753D01*
X52944226Y57822340D01*
X52944227Y57822333D01*
X53011939Y57394811D01*
X53011943Y57394789D01*
X53012320Y57392411D01*
X53012884Y57390060D01*
X53012886Y57390052D01*
X53078484Y57116818D01*
X53114506Y56966774D01*
X53115256Y56964463D01*
X53115258Y56964459D01*
X53249019Y56552785D01*
X53249025Y56552766D01*
X53249773Y56550467D01*
X53250698Y56548232D01*
X53250705Y56548215D01*
X53416350Y56148313D01*
X53416355Y56148301D01*
X53417285Y56146057D01*
X53418385Y56143897D01*
X53418392Y56143883D01*
X53614908Y55758198D01*
X53614917Y55758180D01*
X53616011Y55756035D01*
X53617269Y55753981D01*
X53617282Y55753959D01*
X53843442Y55384900D01*
X53843454Y55384881D01*
X53844725Y55382808D01*
X53846160Y55380831D01*
X53846168Y55380821D01*
X54100584Y55030647D01*
X54100596Y55030631D01*
X54102017Y55028676D01*
X54103586Y55026838D01*
X54103597Y55026825D01*
X54384712Y54697681D01*
X54384726Y54697665D01*
X54386300Y54695823D01*
X54388018Y54694104D01*
X54388031Y54694091D01*
X54694091Y54388031D01*
X54694104Y54388018D01*
X54695823Y54386300D01*
X54697665Y54384726D01*
X54697681Y54384712D01*
X55026825Y54103597D01*
X55026838Y54103586D01*
X55028676Y54102017D01*
X55030631Y54100596D01*
X55030647Y54100584D01*
X55380821Y53846168D01*
X55380831Y53846160D01*
X55382808Y53844725D01*
X55384881Y53843454D01*
X55384900Y53843442D01*
X55753959Y53617282D01*
X55753981Y53617269D01*
X55756035Y53616011D01*
X55758180Y53614917D01*
X55758198Y53614908D01*
X56143883Y53418392D01*
X56143897Y53418385D01*
X56146057Y53417285D01*
X56148301Y53416355D01*
X56148313Y53416350D01*
X56548215Y53250705D01*
X56548232Y53250698D01*
X56550467Y53249773D01*
X56552766Y53249025D01*
X56552785Y53249019D01*
X56964459Y53115258D01*
X56964463Y53115256D01*
X56966774Y53114506D01*
X56969133Y53113939D01*
X56969139Y53113938D01*
X57390052Y53012886D01*
X57390060Y53012884D01*
X57392411Y53012320D01*
X57394789Y53011943D01*
X57394811Y53011939D01*
X57822333Y52944227D01*
X57822340Y52944226D01*
X57824753Y52943844D01*
X57827175Y52943653D01*
X57827187Y52943652D01*
X58258699Y52909691D01*
X58258715Y52909690D01*
X58261134Y52909500D01*
X58469955Y52909500D01*
X59463592Y52909500D01*
X59471874Y52909500D01*
X59488057Y52908439D01*
X59509076Y52905671D01*
X59574978Y52896995D01*
X59606243Y52888617D01*
X59679667Y52858204D01*
X59707701Y52842019D01*
X59770750Y52793640D01*
X59793640Y52770750D01*
X59842019Y52707701D01*
X59858204Y52679667D01*
X59888617Y52606243D01*
X59896995Y52574978D01*
X59908439Y52488061D01*
X59909500Y52471874D01*
X59909500Y50467213D01*
X59889815Y50400174D01*
X59837011Y50354419D01*
X59767853Y50344475D01*
X59704297Y50373500D01*
X59666523Y50432278D01*
X59666020Y50434040D01*
X59632324Y50555403D01*
X59499853Y50887880D01*
X59332211Y51204085D01*
X59131365Y51500311D01*
X58899668Y51773086D01*
X58639837Y52019211D01*
X58354919Y52235800D01*
X58048253Y52420315D01*
X57723435Y52570591D01*
X57384274Y52684868D01*
X57034746Y52761805D01*
X56678948Y52800500D01*
X56321052Y52800500D01*
X55965254Y52761805D01*
X55615726Y52684868D01*
X55276565Y52570591D01*
X54951747Y52420315D01*
X54645081Y52235800D01*
X54360163Y52019211D01*
X54357732Y52016908D01*
X54102769Y51775395D01*
X54102763Y51775389D01*
X54100332Y51773086D01*
X53868635Y51500311D01*
X53667789Y51204085D01*
X53500147Y50887880D01*
X53367676Y50555403D01*
X53366773Y50552152D01*
X53366773Y50552151D01*
X53293980Y50289972D01*
X53271929Y50210552D01*
X53271387Y50207248D01*
X53271384Y50207233D01*
X53214573Y49860697D01*
X53214028Y49857371D01*
X53213846Y49854018D01*
X53213845Y49854007D01*
X53196108Y49526862D01*
X53194652Y49500000D01*
X53194834Y49496643D01*
X53213845Y49145992D01*
X53213846Y49145979D01*
X53214028Y49142629D01*
X53214572Y49139309D01*
X53214573Y49139302D01*
X53271384Y48792766D01*
X53271388Y48792747D01*
X53271929Y48789448D01*
X53272826Y48786214D01*
X53272828Y48786209D01*
X53343190Y48532786D01*
X53367676Y48444597D01*
X53368922Y48441468D01*
X53368924Y48441464D01*
X53498902Y48115243D01*
X53498906Y48115232D01*
X53500147Y48112120D01*
X53501717Y48109157D01*
X53501722Y48109148D01*
X53666212Y47798889D01*
X53667789Y47795915D01*
X53669671Y47793138D01*
X53669679Y47793126D01*
X53866748Y47502471D01*
X53866755Y47502461D01*
X53868635Y47499689D01*
X53870802Y47497137D01*
X53870808Y47497130D01*
X54098158Y47229472D01*
X54098169Y47229459D01*
X54100332Y47226914D01*
X54102754Y47224619D01*
X54102769Y47224604D01*
X54357732Y46983091D01*
X54357739Y46983084D01*
X54360163Y46980789D01*
X54362814Y46978773D01*
X54362822Y46978767D01*
X54642412Y46766228D01*
X54642423Y46766220D01*
X54645081Y46764200D01*
X54647945Y46762476D01*
X54647958Y46762468D01*
X54948864Y46581419D01*
X54948873Y46581414D01*
X54951747Y46579685D01*
X54954792Y46578275D01*
X54954802Y46578271D01*
X55273509Y46430822D01*
X55273522Y46430816D01*
X55276565Y46429409D01*
X55279749Y46428336D01*
X55279752Y46428335D01*
X55612542Y46316204D01*
X55612555Y46316200D01*
X55615726Y46315132D01*
X55618988Y46314413D01*
X55619006Y46314409D01*
X55961966Y46238918D01*
X55961979Y46238915D01*
X55965254Y46238195D01*
X55968598Y46237831D01*
X55968600Y46237831D01*
X56317713Y46199863D01*
X56317715Y46199862D01*
X56321052Y46199500D01*
X56324410Y46199500D01*
X56675590Y46199500D01*
X56678948Y46199500D01*
X57034746Y46238195D01*
X57038023Y46238916D01*
X57038033Y46238918D01*
X57380993Y46314409D01*
X57381006Y46314412D01*
X57384274Y46315132D01*
X57387448Y46316201D01*
X57387457Y46316204D01*
X57720247Y46428335D01*
X57723435Y46429409D01*
X57726483Y46430819D01*
X57726490Y46430822D01*
X58045197Y46578271D01*
X58045199Y46578272D01*
X58048253Y46579685D01*
X58051135Y46581419D01*
X58352041Y46762468D01*
X58352045Y46762471D01*
X58354919Y46764200D01*
X58639837Y46980789D01*
X58701252Y47038964D01*
X58897230Y47224604D01*
X58897235Y47224609D01*
X58899668Y47226914D01*
X59131365Y47499689D01*
X59332211Y47795915D01*
X59499853Y48112120D01*
X59632324Y48444597D01*
X59666020Y48565960D01*
X59702922Y48625289D01*
X59766042Y48655250D01*
X59835340Y48646329D01*
X59888814Y48601359D01*
X59909486Y48534618D01*
X59909500Y48532786D01*
X59909500Y12467213D01*
X59889815Y12400174D01*
X59837011Y12354419D01*
X59767853Y12344475D01*
X59704297Y12373500D01*
X59666523Y12432278D01*
X59666020Y12434040D01*
X59632324Y12555403D01*
X59499853Y12887880D01*
X59332211Y13204085D01*
X59131365Y13500311D01*
X58899668Y13773086D01*
X58639837Y14019211D01*
X58354919Y14235800D01*
X58048253Y14420315D01*
X57723435Y14570591D01*
X57384274Y14684868D01*
X57034746Y14761805D01*
X56678948Y14800500D01*
X56321052Y14800500D01*
X55965254Y14761805D01*
X55615726Y14684868D01*
X55276565Y14570591D01*
X54951747Y14420315D01*
X54645081Y14235800D01*
X54360163Y14019211D01*
X54357732Y14016908D01*
X54102769Y13775395D01*
X54102763Y13775389D01*
X54100332Y13773086D01*
X53868635Y13500311D01*
X53866748Y13497528D01*
X53675765Y13215848D01*
X53667789Y13204085D01*
X53500147Y12887880D01*
X53367676Y12555403D01*
X53366773Y12552152D01*
X53366773Y12552151D01*
X53293980Y12289972D01*
X53271929Y12210552D01*
X53271387Y12207248D01*
X53271384Y12207233D01*
X53214573Y11860697D01*
X53214028Y11857371D01*
X53213846Y11854018D01*
X53213845Y11854007D01*
X53196108Y11526862D01*
X53194652Y11500000D01*
X53194834Y11496643D01*
X53213845Y11145992D01*
X53213846Y11145979D01*
X53214028Y11142629D01*
X53214572Y11139309D01*
X53214573Y11139302D01*
X53271384Y10792766D01*
X53271388Y10792747D01*
X53271929Y10789448D01*
X53272826Y10786214D01*
X53272828Y10786209D01*
X53343190Y10532786D01*
X53367676Y10444597D01*
X53368922Y10441468D01*
X53368924Y10441464D01*
X53498902Y10115243D01*
X53498906Y10115232D01*
X53500147Y10112120D01*
X53501717Y10109157D01*
X53501722Y10109148D01*
X53666212Y9798889D01*
X53667789Y9795915D01*
X53669671Y9793138D01*
X53669679Y9793126D01*
X53866748Y9502471D01*
X53866755Y9502461D01*
X53868635Y9499689D01*
X53870802Y9497137D01*
X53870808Y9497130D01*
X54098158Y9229472D01*
X54098169Y9229459D01*
X54100332Y9226914D01*
X54102754Y9224619D01*
X54102769Y9224604D01*
X54357732Y8983091D01*
X54357739Y8983084D01*
X54360163Y8980789D01*
X54362814Y8978773D01*
X54362822Y8978767D01*
X54642412Y8766228D01*
X54642423Y8766220D01*
X54645081Y8764200D01*
X54647945Y8762476D01*
X54647958Y8762468D01*
X54948864Y8581419D01*
X54948873Y8581414D01*
X54951747Y8579685D01*
X54954792Y8578275D01*
X54954802Y8578271D01*
X55273509Y8430822D01*
X55273522Y8430816D01*
X55276565Y8429409D01*
X55279749Y8428336D01*
X55279752Y8428335D01*
X55612542Y8316204D01*
X55612555Y8316200D01*
X55615726Y8315132D01*
X55618988Y8314413D01*
X55619006Y8314409D01*
X55961966Y8238918D01*
X55961979Y8238915D01*
X55965254Y8238195D01*
X55968598Y8237831D01*
X55968600Y8237831D01*
X56317713Y8199863D01*
X56317715Y8199862D01*
X56321052Y8199500D01*
X56324410Y8199500D01*
X56675590Y8199500D01*
X56678948Y8199500D01*
X57034746Y8238195D01*
X57038023Y8238916D01*
X57038033Y8238918D01*
X57380993Y8314409D01*
X57381006Y8314412D01*
X57384274Y8315132D01*
X57387448Y8316201D01*
X57387457Y8316204D01*
X57635005Y8399613D01*
X57723435Y8429409D01*
X57726483Y8430819D01*
X57726490Y8430822D01*
X58045197Y8578271D01*
X58045199Y8578272D01*
X58048253Y8579685D01*
X58051135Y8581419D01*
X58352041Y8762468D01*
X58352045Y8762471D01*
X58354919Y8764200D01*
X58639837Y8980789D01*
X58701252Y9038964D01*
X58897230Y9224604D01*
X58897235Y9224609D01*
X58899668Y9226914D01*
X59131365Y9499689D01*
X59332211Y9795915D01*
X59499853Y10112120D01*
X59632324Y10444597D01*
X59666020Y10565960D01*
X59702922Y10625289D01*
X59766042Y10655250D01*
X59835340Y10646329D01*
X59888814Y10601359D01*
X59909486Y10534618D01*
X59909500Y10532786D01*
X59909500Y8488125D01*
X59908439Y8471938D01*
X59896995Y8385021D01*
X59888617Y8353756D01*
X59858204Y8280332D01*
X59842019Y8252298D01*
X59793640Y8189249D01*
X59770752Y8166361D01*
X59728989Y8134314D01*
X59707701Y8117980D01*
X59679667Y8101795D01*
X59606243Y8071382D01*
X59574976Y8063004D01*
X59488059Y8051561D01*
X59471874Y8050500D01*
X58496408Y8050500D01*
X58480000Y8050500D01*
X58261134Y8050500D01*
X57824753Y8016156D01*
X57392411Y7947680D01*
X56966774Y7845494D01*
X56550467Y7710227D01*
X56146057Y7542715D01*
X55756035Y7343989D01*
X55753962Y7342718D01*
X55753959Y7342717D01*
X55613202Y7256461D01*
X55382808Y7115275D01*
X55028676Y6857983D01*
X54695823Y6573700D01*
X54386300Y6264177D01*
X54384715Y6262321D01*
X54384712Y6262318D01*
X54221579Y6071313D01*
X54102017Y5931324D01*
X54100587Y5929356D01*
X54100584Y5929352D01*
X53990386Y5777677D01*
X53844725Y5577192D01*
X53843446Y5575106D01*
X53843442Y5575099D01*
X53617282Y5206040D01*
X53617276Y5206029D01*
X53616011Y5203965D01*
X53614912Y5201808D01*
X53614908Y5201801D01*
X53467956Y4913391D01*
X53417285Y4813943D01*
X53416351Y4811688D01*
X53416350Y4811686D01*
X53267660Y4452715D01*
X53249773Y4409533D01*
X53249023Y4407225D01*
X53249019Y4407214D01*
X53174222Y4177011D01*
X53114506Y3993226D01*
X53113938Y3990860D01*
X53067838Y3798837D01*
X53012320Y3567589D01*
X53011942Y3565205D01*
X53011939Y3565188D01*
X52959058Y3231305D01*
X52943844Y3135247D01*
X52943653Y3132821D01*
X52943652Y3132812D01*
X52909691Y2701300D01*
X52909690Y2701285D01*
X52909500Y2698866D01*
X52909500Y2696420D01*
X52909500Y1488125D01*
X52908439Y1471938D01*
X52896995Y1385021D01*
X52888617Y1353756D01*
X52858204Y1280332D01*
X52842019Y1252298D01*
X52793640Y1189249D01*
X52770752Y1166361D01*
X52728989Y1134314D01*
X52707701Y1117980D01*
X52679667Y1101795D01*
X52606243Y1071382D01*
X52574976Y1063004D01*
X52488059Y1051561D01*
X52471874Y1050500D01*
X8488126Y1050500D01*
X8471941Y1051561D01*
X8385023Y1063004D01*
X8353756Y1071382D01*
X8280332Y1101795D01*
X8252300Y1117978D01*
X8189243Y1166364D01*
X8166364Y1189243D01*
X8117978Y1252300D01*
X8101795Y1280332D01*
X8071382Y1353756D01*
X8063004Y1385023D01*
X8051561Y1471940D01*
X8050500Y1488125D01*
X8050500Y2696420D01*
X8050500Y2698866D01*
X8026800Y3000000D01*
X11844699Y3000000D01*
X11863865Y2768700D01*
X11863865Y2768696D01*
X11863866Y2768695D01*
X11918201Y2554132D01*
X11920844Y2543696D01*
X12014076Y2331150D01*
X12141020Y2136848D01*
X12298215Y1966087D01*
X12481372Y1823531D01*
X12685501Y1713062D01*
X12905015Y1637702D01*
X13088164Y1607140D01*
X13133951Y1599500D01*
X13133952Y1599500D01*
X13366048Y1599500D01*
X13366049Y1599500D01*
X13423282Y1609050D01*
X13594984Y1637702D01*
X13814498Y1713062D01*
X13814499Y1713062D01*
X13814503Y1713064D01*
X14018626Y1823530D01*
X14201784Y1966087D01*
X14358979Y2136847D01*
X14396192Y2193805D01*
X14449338Y2239161D01*
X14518569Y2248585D01*
X14581905Y2219083D01*
X14603807Y2193807D01*
X14641021Y2136847D01*
X14641022Y2136846D01*
X14798215Y1966087D01*
X14981372Y1823531D01*
X15185501Y1713062D01*
X15405015Y1637702D01*
X15588164Y1607140D01*
X15633951Y1599500D01*
X15633952Y1599500D01*
X15866048Y1599500D01*
X15866049Y1599500D01*
X15923282Y1609050D01*
X16094984Y1637702D01*
X16314498Y1713062D01*
X16314499Y1713062D01*
X16314503Y1713064D01*
X16518626Y1823530D01*
X16701784Y1966087D01*
X16858979Y2136847D01*
X16896192Y2193805D01*
X16949338Y2239161D01*
X17018569Y2248585D01*
X17081905Y2219083D01*
X17103807Y2193807D01*
X17141021Y2136847D01*
X17141022Y2136846D01*
X17298215Y1966087D01*
X17481372Y1823531D01*
X17685501Y1713062D01*
X17905015Y1637702D01*
X18088164Y1607140D01*
X18133951Y1599500D01*
X18133952Y1599500D01*
X18366048Y1599500D01*
X18366049Y1599500D01*
X18423282Y1609050D01*
X18594984Y1637702D01*
X18814498Y1713062D01*
X18814499Y1713062D01*
X18814503Y1713064D01*
X19018626Y1823530D01*
X19201784Y1966087D01*
X19358979Y2136847D01*
X19396192Y2193805D01*
X19449338Y2239161D01*
X19518569Y2248585D01*
X19581905Y2219083D01*
X19603807Y2193807D01*
X19641021Y2136847D01*
X19641022Y2136846D01*
X19798215Y1966087D01*
X19981372Y1823531D01*
X20185501Y1713062D01*
X20405015Y1637702D01*
X20588164Y1607140D01*
X20633951Y1599500D01*
X20633952Y1599500D01*
X20866048Y1599500D01*
X20866049Y1599500D01*
X20923282Y1609050D01*
X21094984Y1637702D01*
X21314498Y1713062D01*
X21314499Y1713062D01*
X21314503Y1713064D01*
X21518626Y1823530D01*
X21701784Y1966087D01*
X21858979Y2136847D01*
X21985924Y2331151D01*
X22079157Y2543700D01*
X22136134Y2768695D01*
X22141748Y2836456D01*
X22155301Y3000000D01*
X22136134Y3231299D01*
X22136134Y3231305D01*
X22079157Y3456300D01*
X21985924Y3668849D01*
X21858979Y3863153D01*
X21701784Y4033913D01*
X21701782Y4033914D01*
X21694825Y4041472D01*
X21697884Y4044288D01*
X21669085Y4084177D01*
X21665303Y4153944D01*
X21699841Y4214681D01*
X21761733Y4247103D01*
X21785997Y4249500D01*
X22210663Y4249500D01*
X22277702Y4229815D01*
X22283550Y4225817D01*
X22297271Y4215847D01*
X22470197Y4138855D01*
X22655352Y4099500D01*
X22655354Y4099500D01*
X22844648Y4099500D01*
X23029802Y4138855D01*
X23202730Y4215848D01*
X23355870Y4327110D01*
X23482533Y4467783D01*
X23577179Y4631715D01*
X23635673Y4811742D01*
X23635674Y4811744D01*
X23655460Y5000000D01*
X23635674Y5188256D01*
X23577179Y5368284D01*
X23482533Y5532216D01*
X23355871Y5672888D01*
X23202730Y5784151D01*
X23202729Y5784151D01*
X23029806Y5861143D01*
X23029804Y5861143D01*
X23029803Y5861144D01*
X22968722Y5874127D01*
X22907242Y5907319D01*
X22873465Y5968481D01*
X22876573Y6033735D01*
X22885673Y6061742D01*
X22885674Y6061744D01*
X22905460Y6250000D01*
X31094540Y6250000D01*
X31114326Y6061742D01*
X31172820Y5881715D01*
X31232887Y5777677D01*
X31249500Y5715677D01*
X31249500Y4563705D01*
X31248191Y4545735D01*
X31244711Y4521975D01*
X31249028Y4472629D01*
X31249500Y4461823D01*
X31249500Y4456291D01*
X31249916Y4452730D01*
X31249917Y4452715D01*
X31253098Y4425501D01*
X31253464Y4421916D01*
X31260109Y4345961D01*
X31264330Y4326921D01*
X31290421Y4255232D01*
X31291603Y4251831D01*
X31315579Y4179479D01*
X31324077Y4161925D01*
X31365970Y4098228D01*
X31367905Y4095190D01*
X31407943Y4030281D01*
X31420257Y4015164D01*
X31475709Y3962847D01*
X31478295Y3960335D01*
X32924269Y2514362D01*
X32936049Y2500732D01*
X32950389Y2481470D01*
X32988337Y2449627D01*
X32996287Y2442344D01*
X32997670Y2440961D01*
X32997685Y2440947D01*
X33000223Y2438410D01*
X33003037Y2436184D01*
X33003046Y2436177D01*
X33024536Y2419184D01*
X33027326Y2416911D01*
X33085744Y2367894D01*
X33102185Y2357419D01*
X33171310Y2325184D01*
X33174551Y2323615D01*
X33242689Y2289396D01*
X33261095Y2282998D01*
X33335754Y2267582D01*
X33339273Y2266802D01*
X33413504Y2249209D01*
X33432876Y2247230D01*
X33509111Y2249448D01*
X33512716Y2249500D01*
X39000315Y2249500D01*
X39067354Y2229815D01*
X39104123Y2193322D01*
X39141018Y2136850D01*
X39298215Y1966087D01*
X39481372Y1823531D01*
X39685501Y1713062D01*
X39905015Y1637702D01*
X40088164Y1607140D01*
X40133951Y1599500D01*
X40133952Y1599500D01*
X40366048Y1599500D01*
X40366049Y1599500D01*
X40423281Y1609050D01*
X40594984Y1637702D01*
X40814498Y1713062D01*
X40814499Y1713062D01*
X40814503Y1713064D01*
X41018626Y1823530D01*
X41201784Y1966087D01*
X41358979Y2136847D01*
X41396192Y2193805D01*
X41449338Y2239161D01*
X41518569Y2248585D01*
X41581905Y2219083D01*
X41603807Y2193807D01*
X41641021Y2136847D01*
X41641022Y2136846D01*
X41798215Y1966087D01*
X41981372Y1823531D01*
X42185501Y1713062D01*
X42405015Y1637702D01*
X42588164Y1607140D01*
X42633951Y1599500D01*
X42633952Y1599500D01*
X42866048Y1599500D01*
X42866049Y1599500D01*
X42923281Y1609050D01*
X43094984Y1637702D01*
X43314498Y1713062D01*
X43314499Y1713062D01*
X43314503Y1713064D01*
X43518626Y1823530D01*
X43701784Y1966087D01*
X43858979Y2136847D01*
X43896192Y2193805D01*
X43949338Y2239161D01*
X44018569Y2248585D01*
X44081905Y2219083D01*
X44103807Y2193807D01*
X44141021Y2136847D01*
X44141022Y2136846D01*
X44298215Y1966087D01*
X44481372Y1823531D01*
X44685501Y1713062D01*
X44905015Y1637702D01*
X45088164Y1607140D01*
X45133951Y1599500D01*
X45133952Y1599500D01*
X45366048Y1599500D01*
X45366049Y1599500D01*
X45423281Y1609050D01*
X45594984Y1637702D01*
X45814498Y1713062D01*
X45814499Y1713062D01*
X45814503Y1713064D01*
X46018626Y1823530D01*
X46201784Y1966087D01*
X46358979Y2136847D01*
X46396192Y2193805D01*
X46449338Y2239161D01*
X46518569Y2248585D01*
X46581905Y2219083D01*
X46603807Y2193807D01*
X46641021Y2136847D01*
X46641022Y2136846D01*
X46798215Y1966087D01*
X46981372Y1823531D01*
X47185501Y1713062D01*
X47405015Y1637702D01*
X47588164Y1607140D01*
X47633951Y1599500D01*
X47633952Y1599500D01*
X47866048Y1599500D01*
X47866049Y1599500D01*
X47923281Y1609050D01*
X48094984Y1637702D01*
X48314498Y1713062D01*
X48314499Y1713062D01*
X48314503Y1713064D01*
X48518626Y1823530D01*
X48701784Y1966087D01*
X48858979Y2136847D01*
X48985924Y2331151D01*
X49079157Y2543700D01*
X49136134Y2768695D01*
X49155300Y3000000D01*
X49136134Y3231305D01*
X49079157Y3456300D01*
X48985924Y3668849D01*
X48858979Y3863153D01*
X48701784Y4033913D01*
X48518626Y4176470D01*
X48314503Y4286936D01*
X48094981Y4362298D01*
X47866049Y4400500D01*
X47633951Y4400500D01*
X47405019Y4362298D01*
X47405017Y4362297D01*
X47405015Y4362297D01*
X47330492Y4336713D01*
X47185497Y4286936D01*
X46981374Y4176470D01*
X46807928Y4041472D01*
X46798215Y4033912D01*
X46790711Y4025760D01*
X46641021Y3863153D01*
X46604125Y3806678D01*
X46603809Y3806195D01*
X46550663Y3760838D01*
X46481432Y3751414D01*
X46418096Y3780916D01*
X46396191Y3806195D01*
X46358979Y3863153D01*
X46201784Y4033913D01*
X46018626Y4176470D01*
X45814503Y4286936D01*
X45594981Y4362298D01*
X45366049Y4400500D01*
X45133951Y4400500D01*
X44905019Y4362298D01*
X44905017Y4362297D01*
X44905015Y4362297D01*
X44830492Y4336713D01*
X44685497Y4286936D01*
X44481374Y4176470D01*
X44307928Y4041472D01*
X44298215Y4033912D01*
X44290711Y4025760D01*
X44141021Y3863153D01*
X44104125Y3806678D01*
X44103809Y3806195D01*
X44050663Y3760838D01*
X43981432Y3751414D01*
X43918096Y3780916D01*
X43896191Y3806195D01*
X43858979Y3863153D01*
X43701784Y4033913D01*
X43518626Y4176470D01*
X43314503Y4286936D01*
X43094981Y4362298D01*
X42866049Y4400500D01*
X42633951Y4400500D01*
X42405019Y4362298D01*
X42405017Y4362297D01*
X42405015Y4362297D01*
X42330492Y4336713D01*
X42185497Y4286936D01*
X41981374Y4176470D01*
X41807928Y4041472D01*
X41798215Y4033912D01*
X41790711Y4025760D01*
X41641021Y3863153D01*
X41604125Y3806678D01*
X41603809Y3806195D01*
X41550663Y3760838D01*
X41481432Y3751414D01*
X41418096Y3780916D01*
X41396191Y3806195D01*
X41358979Y3863153D01*
X41201784Y4033913D01*
X41018626Y4176470D01*
X40814503Y4286936D01*
X40594981Y4362298D01*
X40366049Y4400500D01*
X40133951Y4400500D01*
X39905019Y4362298D01*
X39905017Y4362297D01*
X39905015Y4362297D01*
X39830492Y4336713D01*
X39685497Y4286936D01*
X39481374Y4176470D01*
X39307928Y4041472D01*
X39298215Y4033912D01*
X39290711Y4025760D01*
X39141021Y3863153D01*
X39141020Y3863151D01*
X39141018Y3863149D01*
X39104123Y3806678D01*
X39050976Y3761321D01*
X39000315Y3750500D01*
X33862230Y3750500D01*
X33795191Y3770185D01*
X33774549Y3786819D01*
X32786819Y4774548D01*
X32753334Y4835871D01*
X32750500Y4862229D01*
X32750500Y5287819D01*
X32750500Y5715680D01*
X32767111Y5777675D01*
X32805026Y5843346D01*
X32827179Y5881715D01*
X32885673Y6061742D01*
X32885674Y6061744D01*
X32905460Y6250000D01*
X32885674Y6438256D01*
X32827179Y6618284D01*
X32732533Y6782216D01*
X32605871Y6922888D01*
X32601685Y6925929D01*
X32452730Y7034151D01*
X32393707Y7060430D01*
X32279803Y7111144D01*
X32218083Y7124262D01*
X32094648Y7150500D01*
X32094646Y7150500D01*
X31905354Y7150500D01*
X31905352Y7150500D01*
X31720197Y7111144D01*
X31547269Y7034151D01*
X31394129Y6922889D01*
X31267466Y6782216D01*
X31172820Y6618284D01*
X31114326Y6438257D01*
X31094540Y6250000D01*
X22905460Y6250000D01*
X22885674Y6438256D01*
X22827179Y6618284D01*
X22732533Y6782216D01*
X22605871Y6922888D01*
X22601685Y6925929D01*
X22452730Y7034151D01*
X22393707Y7060430D01*
X22279803Y7111144D01*
X22218083Y7124262D01*
X22094648Y7150500D01*
X22094646Y7150500D01*
X21905354Y7150500D01*
X21905352Y7150500D01*
X21720197Y7111144D01*
X21547271Y7034152D01*
X21533550Y7024183D01*
X21467744Y7000702D01*
X21460663Y7000500D01*
X16563706Y7000500D01*
X16545736Y7001809D01*
X16542118Y7002338D01*
X16521977Y7005289D01*
X16473691Y7001064D01*
X16472631Y7000972D01*
X16461824Y7000500D01*
X16456291Y7000500D01*
X16429151Y6997327D01*
X16425520Y6996903D01*
X16421929Y6996536D01*
X16347203Y6989999D01*
X16347201Y6989998D01*
X16345949Y6989889D01*
X16326930Y6985672D01*
X16325746Y6985241D01*
X16325745Y6985241D01*
X16273792Y6966332D01*
X16255274Y6959592D01*
X16251868Y6958408D01*
X16179468Y6934417D01*
X16161936Y6925929D01*
X16160884Y6925237D01*
X16160883Y6925237D01*
X16098184Y6883999D01*
X16095181Y6882087D01*
X16030270Y6842050D01*
X16015172Y6829750D01*
X15962848Y6774290D01*
X15960335Y6771703D01*
X13602362Y4413730D01*
X13541039Y4380245D01*
X13494276Y4379102D01*
X13366049Y4400500D01*
X13133951Y4400500D01*
X12905019Y4362298D01*
X12905017Y4362297D01*
X12905015Y4362297D01*
X12830492Y4336713D01*
X12685497Y4286936D01*
X12481374Y4176470D01*
X12307928Y4041472D01*
X12298215Y4033912D01*
X12290711Y4025760D01*
X12141021Y3863153D01*
X12014076Y3668849D01*
X11921013Y3456687D01*
X11920843Y3456300D01*
X11863866Y3231305D01*
X11863865Y3231301D01*
X11863865Y3231299D01*
X11844699Y3000000D01*
X8026800Y3000000D01*
X8016156Y3135247D01*
X7947680Y3567589D01*
X7845494Y3993226D01*
X7710227Y4409533D01*
X7542715Y4813943D01*
X7343989Y5203965D01*
X7115275Y5577192D01*
X6857983Y5931324D01*
X6573700Y6264177D01*
X6264177Y6573700D01*
X5931324Y6857983D01*
X5577192Y7115275D01*
X5203965Y7343989D01*
X4813943Y7542715D01*
X4409533Y7710227D01*
X3993226Y7845494D01*
X3567589Y7947680D01*
X3135247Y8016156D01*
X2698866Y8050500D01*
X2696421Y8050500D01*
X1488126Y8050500D01*
X1471941Y8051561D01*
X1385023Y8063004D01*
X1353756Y8071382D01*
X1280332Y8101795D01*
X1252300Y8117978D01*
X1189243Y8166364D01*
X1166364Y8189243D01*
X1117978Y8252300D01*
X1101795Y8280332D01*
X1071382Y8353756D01*
X1063004Y8385023D01*
X1051561Y8471940D01*
X1050500Y8488125D01*
X1050500Y10676854D01*
X1070185Y10743893D01*
X1122989Y10789648D01*
X1192147Y10799592D01*
X1255703Y10770567D01*
X1293477Y10711789D01*
X1293980Y10710027D01*
X1343190Y10532786D01*
X1367676Y10444597D01*
X1368922Y10441468D01*
X1368924Y10441464D01*
X1498902Y10115243D01*
X1498906Y10115232D01*
X1500147Y10112120D01*
X1501717Y10109157D01*
X1501722Y10109148D01*
X1666212Y9798889D01*
X1667789Y9795915D01*
X1669671Y9793138D01*
X1669679Y9793126D01*
X1866748Y9502471D01*
X1866755Y9502461D01*
X1868635Y9499689D01*
X1870802Y9497137D01*
X1870808Y9497130D01*
X2098158Y9229472D01*
X2098169Y9229459D01*
X2100332Y9226914D01*
X2102754Y9224619D01*
X2102769Y9224604D01*
X2357732Y8983091D01*
X2357739Y8983084D01*
X2360163Y8980789D01*
X2362814Y8978773D01*
X2362822Y8978767D01*
X2642412Y8766228D01*
X2642423Y8766220D01*
X2645081Y8764200D01*
X2647945Y8762476D01*
X2647958Y8762468D01*
X2948864Y8581419D01*
X2948873Y8581414D01*
X2951747Y8579685D01*
X2954792Y8578275D01*
X2954802Y8578271D01*
X3273509Y8430822D01*
X3273522Y8430816D01*
X3276565Y8429409D01*
X3279749Y8428336D01*
X3279752Y8428335D01*
X3612542Y8316204D01*
X3612555Y8316200D01*
X3615726Y8315132D01*
X3618988Y8314413D01*
X3619006Y8314409D01*
X3961966Y8238918D01*
X3961979Y8238915D01*
X3965254Y8238195D01*
X3968598Y8237831D01*
X3968600Y8237831D01*
X4317713Y8199863D01*
X4317715Y8199862D01*
X4321052Y8199500D01*
X4324410Y8199500D01*
X4675590Y8199500D01*
X4678948Y8199500D01*
X5034746Y8238195D01*
X5038023Y8238916D01*
X5038033Y8238918D01*
X5380993Y8314409D01*
X5381006Y8314412D01*
X5384274Y8315132D01*
X5387448Y8316201D01*
X5387457Y8316204D01*
X5635005Y8399613D01*
X5723435Y8429409D01*
X5726483Y8430819D01*
X5726490Y8430822D01*
X6045197Y8578271D01*
X6045199Y8578272D01*
X6048253Y8579685D01*
X6051135Y8581419D01*
X6352041Y8762468D01*
X6352045Y8762471D01*
X6354919Y8764200D01*
X6639837Y8980789D01*
X6701252Y9038964D01*
X6897230Y9224604D01*
X6897235Y9224609D01*
X6899668Y9226914D01*
X7131365Y9499689D01*
X7332211Y9795915D01*
X7499853Y10112120D01*
X7632324Y10444597D01*
X7728071Y10789448D01*
X7785972Y11142629D01*
X7805348Y11500000D01*
X7785972Y11857371D01*
X7728071Y12210552D01*
X7632324Y12555403D01*
X7499853Y12887880D01*
X7332211Y13204085D01*
X7131365Y13500311D01*
X6899668Y13773086D01*
X6660118Y14000000D01*
X27844540Y14000000D01*
X27864326Y13811742D01*
X27922820Y13631715D01*
X28017466Y13467783D01*
X28144129Y13327110D01*
X28297269Y13215848D01*
X28470197Y13138855D01*
X28655352Y13099500D01*
X28655354Y13099500D01*
X28844648Y13099500D01*
X29029802Y13138855D01*
X29202728Y13215847D01*
X29216450Y13225817D01*
X29282256Y13249298D01*
X29289337Y13249500D01*
X33710663Y13249500D01*
X33777702Y13229815D01*
X33783550Y13225817D01*
X33797271Y13215847D01*
X33970197Y13138855D01*
X34155352Y13099500D01*
X34155354Y13099500D01*
X34344648Y13099500D01*
X34529802Y13138855D01*
X34702730Y13215848D01*
X34855870Y13327110D01*
X34982533Y13467783D01*
X35077179Y13631715D01*
X35135673Y13811742D01*
X35135674Y13811744D01*
X35155460Y14000000D01*
X35135674Y14188256D01*
X35077179Y14368284D01*
X34982533Y14532216D01*
X34855871Y14672888D01*
X34702730Y14784151D01*
X34529803Y14861144D01*
X34468083Y14874262D01*
X34344648Y14900500D01*
X34344646Y14900500D01*
X34155354Y14900500D01*
X34155352Y14900500D01*
X33970197Y14861144D01*
X33797271Y14784152D01*
X33783550Y14774183D01*
X33717744Y14750702D01*
X33710663Y14750500D01*
X29289337Y14750500D01*
X29222298Y14770185D01*
X29216450Y14774183D01*
X29214316Y14775733D01*
X29202730Y14784151D01*
X29029803Y14861144D01*
X28968083Y14874262D01*
X28844648Y14900500D01*
X28844646Y14900500D01*
X28655354Y14900500D01*
X28655352Y14900500D01*
X28470197Y14861144D01*
X28297269Y14784151D01*
X28144129Y14672889D01*
X28017466Y14532216D01*
X27922820Y14368284D01*
X27864326Y14188257D01*
X27844540Y14000000D01*
X6660118Y14000000D01*
X6639837Y14019211D01*
X6354919Y14235800D01*
X6048253Y14420315D01*
X5723435Y14570591D01*
X5384274Y14684868D01*
X5034746Y14761805D01*
X4678948Y14800500D01*
X4321052Y14800500D01*
X3965254Y14761805D01*
X3615726Y14684868D01*
X3276565Y14570591D01*
X2951747Y14420315D01*
X2645081Y14235800D01*
X2360163Y14019211D01*
X2357732Y14016908D01*
X2102769Y13775395D01*
X2102763Y13775389D01*
X2100332Y13773086D01*
X1868635Y13500311D01*
X1866748Y13497528D01*
X1675765Y13215848D01*
X1667789Y13204085D01*
X1500147Y12887880D01*
X1367676Y12555403D01*
X1366775Y12552158D01*
X1366773Y12552152D01*
X1293980Y12289972D01*
X1257078Y12230642D01*
X1193958Y12200681D01*
X1124661Y12209602D01*
X1071186Y12254572D01*
X1050514Y12321313D01*
X1050500Y12323145D01*
X1050500Y24500000D01*
X14594540Y24500000D01*
X14614326Y24311742D01*
X14672820Y24131715D01*
X14767466Y23967783D01*
X14894129Y23827110D01*
X15047269Y23715848D01*
X15220197Y23638855D01*
X15405352Y23599500D01*
X15405354Y23599500D01*
X15594648Y23599500D01*
X15779802Y23638855D01*
X15952730Y23715848D01*
X16105870Y23827110D01*
X16232533Y23967783D01*
X16327179Y24131715D01*
X16382521Y24302040D01*
X16412771Y24351403D01*
X21274548Y29213181D01*
X21335871Y29246666D01*
X21362229Y29249500D01*
X28687299Y29249500D01*
X28754338Y29229815D01*
X28788874Y29196623D01*
X28836505Y29128598D01*
X29003597Y28961505D01*
X29160596Y28851575D01*
X29204221Y28796998D01*
X29211415Y28727500D01*
X29179892Y28665145D01*
X29160596Y28648425D01*
X29003599Y28538495D01*
X28836505Y28371401D01*
X28700965Y28177830D01*
X28700965Y28177829D01*
X28700964Y28177827D01*
X28601097Y27963662D01*
X28539936Y27735407D01*
X28519340Y27500000D01*
X28539936Y27264592D01*
X28601097Y27036336D01*
X28700965Y26822170D01*
X28836505Y26628598D01*
X29003598Y26461505D01*
X29160596Y26351575D01*
X29204221Y26296998D01*
X29211415Y26227500D01*
X29179892Y26165145D01*
X29160596Y26148425D01*
X29003599Y26038495D01*
X28836505Y25871401D01*
X28700965Y25677830D01*
X28700965Y25677829D01*
X28700964Y25677827D01*
X28601097Y25463662D01*
X28539936Y25235407D01*
X28519341Y25000000D01*
X28539936Y24764592D01*
X28601097Y24536336D01*
X28700965Y24322170D01*
X28836505Y24128598D01*
X29003598Y23961505D01*
X29160596Y23851575D01*
X29204221Y23796998D01*
X29211415Y23727500D01*
X29179892Y23665145D01*
X29160596Y23648425D01*
X29003599Y23538495D01*
X28836505Y23371401D01*
X28700965Y23177830D01*
X28700965Y23177829D01*
X28700964Y23177827D01*
X28601097Y22963662D01*
X28539936Y22735407D01*
X28519340Y22500000D01*
X28539936Y22264592D01*
X28601097Y22036336D01*
X28700965Y21822170D01*
X28836505Y21628598D01*
X29003598Y21461505D01*
X29160596Y21351575D01*
X29204221Y21296998D01*
X29211415Y21227500D01*
X29179892Y21165145D01*
X29160596Y21148425D01*
X29003599Y21038495D01*
X28836505Y20871401D01*
X28700965Y20677830D01*
X28700965Y20677829D01*
X28700964Y20677827D01*
X28601097Y20463662D01*
X28539936Y20235407D01*
X28519340Y20000000D01*
X28539936Y19764592D01*
X28601097Y19536336D01*
X28700965Y19322170D01*
X28836505Y19128598D01*
X29003598Y18961505D01*
X29197170Y18825965D01*
X29411336Y18726097D01*
X29639592Y18664936D01*
X29813332Y18649736D01*
X29813341Y18649735D01*
X29816034Y18649500D01*
X29818742Y18649500D01*
X30181258Y18649500D01*
X30183966Y18649500D01*
X30186659Y18649735D01*
X30186667Y18649736D01*
X30360407Y18664936D01*
X30588663Y18726097D01*
X30802829Y18825965D01*
X30996401Y18961505D01*
X31163491Y19128595D01*
X31163495Y19128599D01*
X31299035Y19322170D01*
X31398903Y19536337D01*
X31460063Y19764592D01*
X31480659Y20000000D01*
X31460063Y20235408D01*
X31398903Y20463663D01*
X31299035Y20677829D01*
X31163495Y20871401D01*
X30996401Y21038495D01*
X30839401Y21148426D01*
X30795778Y21203002D01*
X30788584Y21272500D01*
X30820107Y21334855D01*
X30839398Y21351571D01*
X30996401Y21461505D01*
X31163495Y21628599D01*
X31299035Y21822170D01*
X31398903Y22036337D01*
X31460063Y22264592D01*
X31480659Y22500000D01*
X31460063Y22735408D01*
X31398903Y22963663D01*
X31299035Y23177829D01*
X31163495Y23371401D01*
X30996401Y23538495D01*
X30839401Y23648426D01*
X30795778Y23703002D01*
X30788584Y23772500D01*
X30820107Y23834855D01*
X30839398Y23851571D01*
X30996401Y23961505D01*
X31163495Y24128599D01*
X31299035Y24322170D01*
X31398903Y24536337D01*
X31460063Y24764592D01*
X31480659Y25000000D01*
X31460063Y25235408D01*
X31398903Y25463663D01*
X31299035Y25677829D01*
X31163495Y25871401D01*
X30996401Y26038495D01*
X30839401Y26148426D01*
X30795778Y26203002D01*
X30788584Y26272500D01*
X30820107Y26334855D01*
X30839398Y26351571D01*
X30996401Y26461505D01*
X31163495Y26628599D01*
X31299035Y26822170D01*
X31398903Y27036337D01*
X31460063Y27264592D01*
X31480659Y27500000D01*
X31460063Y27735408D01*
X31398903Y27963663D01*
X31299035Y28177829D01*
X31163495Y28371401D01*
X30996401Y28538495D01*
X30839401Y28648426D01*
X30795778Y28703002D01*
X30788584Y28772500D01*
X30820107Y28834855D01*
X30839398Y28851571D01*
X30996401Y28961505D01*
X31163495Y29128599D01*
X31299035Y29322170D01*
X31398903Y29536337D01*
X31460063Y29764592D01*
X31480659Y30000000D01*
X31460063Y30235408D01*
X31398903Y30463663D01*
X31299035Y30677829D01*
X31163495Y30871401D01*
X30996401Y31038495D01*
X30839401Y31148426D01*
X30795778Y31203002D01*
X30788584Y31272500D01*
X30820107Y31334855D01*
X30839398Y31351571D01*
X30996401Y31461505D01*
X31163495Y31628599D01*
X31211127Y31696625D01*
X31265703Y31740249D01*
X31312701Y31749500D01*
X34137770Y31749500D01*
X34204809Y31729815D01*
X34225451Y31713181D01*
X41587228Y24351403D01*
X41617478Y24302041D01*
X41672821Y24131714D01*
X41767466Y23967783D01*
X41894129Y23827110D01*
X42047269Y23715848D01*
X42220197Y23638855D01*
X42405352Y23599500D01*
X42405354Y23599500D01*
X42594648Y23599500D01*
X42779802Y23638855D01*
X42952730Y23715848D01*
X43105870Y23827110D01*
X43232533Y23967783D01*
X43327179Y24131715D01*
X43385673Y24311742D01*
X43385674Y24311744D01*
X43405460Y24500000D01*
X43385674Y24688256D01*
X43327179Y24868284D01*
X43232533Y25032216D01*
X43105871Y25172888D01*
X42952730Y25284151D01*
X42779806Y25361143D01*
X42779804Y25361143D01*
X42779803Y25361144D01*
X42714667Y25374988D01*
X42653188Y25408179D01*
X42652978Y25408387D01*
X35075724Y32985642D01*
X35063954Y32999260D01*
X35049610Y33018530D01*
X35011667Y33050366D01*
X35003688Y33057680D01*
X35003103Y33058264D01*
X34999777Y33061591D01*
X34975439Y33080833D01*
X34972670Y33083090D01*
X34955075Y33097853D01*
X34915214Y33131302D01*
X34915211Y33131303D01*
X34914244Y33132115D01*
X34897827Y33142573D01*
X34896682Y33143106D01*
X34896677Y33143111D01*
X34828646Y33174833D01*
X34825488Y33176362D01*
X34758433Y33210040D01*
X34758432Y33210040D01*
X34757294Y33210612D01*
X34738914Y33217000D01*
X34737675Y33217255D01*
X34737673Y33217257D01*
X34664103Y33232447D01*
X34660770Y33233186D01*
X34587721Y33250500D01*
X34587717Y33250500D01*
X34586489Y33250791D01*
X34567121Y33252770D01*
X34565859Y33252733D01*
X34565856Y33252734D01*
X34493556Y33250630D01*
X34490869Y33250552D01*
X34487263Y33250500D01*
X31312701Y33250500D01*
X31245662Y33270185D01*
X31211126Y33303377D01*
X31194670Y33326876D01*
X31163495Y33371401D01*
X30996401Y33538495D01*
X30839401Y33648426D01*
X30795778Y33703002D01*
X30788584Y33772500D01*
X30820107Y33834855D01*
X30839398Y33851571D01*
X30996401Y33961505D01*
X31163495Y34128599D01*
X31299035Y34322170D01*
X31398903Y34536337D01*
X31460063Y34764592D01*
X31480659Y35000000D01*
X31460063Y35235408D01*
X31398903Y35463663D01*
X31299035Y35677829D01*
X31163495Y35871401D01*
X31015928Y36018967D01*
X30982446Y36080287D01*
X30987430Y36149978D01*
X31029301Y36205912D01*
X31038515Y36212184D01*
X31193346Y36307684D01*
X31317316Y36431654D01*
X31409357Y36580877D01*
X31464506Y36747303D01*
X31474680Y36846890D01*
X31475000Y36853168D01*
X31475000Y37250000D01*
X30403969Y37250000D01*
X30436519Y37300649D01*
X30475000Y37431705D01*
X30475000Y37568295D01*
X30436519Y37699351D01*
X30403969Y37750000D01*
X31474999Y37750000D01*
X31474999Y38146829D01*
X31474678Y38153111D01*
X31464506Y38252695D01*
X31409357Y38419122D01*
X31317316Y38568345D01*
X31193345Y38692316D01*
X31044122Y38784357D01*
X30877696Y38839506D01*
X30778109Y38849680D01*
X30771831Y38849999D01*
X30250000Y38849999D01*
X30250000Y37908018D01*
X30135199Y37960446D01*
X30033975Y37975000D01*
X29966025Y37975000D01*
X29864801Y37960446D01*
X29750000Y37908018D01*
X29750000Y38849999D01*
X29228171Y38849999D01*
X29221888Y38849678D01*
X29122304Y38839506D01*
X28955877Y38784357D01*
X28806654Y38692316D01*
X28682683Y38568345D01*
X28590642Y38419122D01*
X28535493Y38252696D01*
X28525319Y38153109D01*
X28525000Y38146831D01*
X28525000Y37750000D01*
X29596031Y37750000D01*
X29563481Y37699351D01*
X29525000Y37568295D01*
X29525000Y37431705D01*
X29563481Y37300649D01*
X29596031Y37250000D01*
X28525001Y37250000D01*
X28525001Y36853170D01*
X28525321Y36846888D01*
X28535493Y36747304D01*
X28590642Y36580877D01*
X28682683Y36431654D01*
X28806653Y36307684D01*
X28961484Y36212184D01*
X29008208Y36160236D01*
X29019430Y36091273D01*
X28991587Y36027191D01*
X28984068Y36018964D01*
X28836505Y35871401D01*
X28700965Y35677830D01*
X28700965Y35677829D01*
X28700964Y35677827D01*
X28601097Y35463662D01*
X28539936Y35235407D01*
X28519340Y35000000D01*
X28539936Y34764592D01*
X28601097Y34536336D01*
X28700965Y34322170D01*
X28836505Y34128598D01*
X29003598Y33961505D01*
X29160596Y33851575D01*
X29204221Y33796998D01*
X29211415Y33727500D01*
X29179892Y33665145D01*
X29160596Y33648425D01*
X29003599Y33538495D01*
X28836505Y33371401D01*
X28700965Y33177830D01*
X28614324Y32992027D01*
X28601097Y32963662D01*
X28539936Y32735407D01*
X28519341Y32500000D01*
X28539936Y32264592D01*
X28601097Y32036336D01*
X28700965Y31822170D01*
X28836505Y31628598D01*
X29003598Y31461505D01*
X29160596Y31351575D01*
X29204221Y31296998D01*
X29211415Y31227500D01*
X29179892Y31165145D01*
X29160596Y31148425D01*
X29003599Y31038495D01*
X28836505Y30871401D01*
X28788872Y30803374D01*
X28734297Y30759751D01*
X28687299Y30750500D01*
X21063706Y30750500D01*
X21045736Y30751809D01*
X21042118Y30752338D01*
X21021977Y30755289D01*
X20973691Y30751064D01*
X20972631Y30750972D01*
X20961824Y30750500D01*
X20956291Y30750500D01*
X20929151Y30747327D01*
X20925520Y30746903D01*
X20921929Y30746536D01*
X20847203Y30739999D01*
X20847201Y30739998D01*
X20845949Y30739889D01*
X20826930Y30735672D01*
X20825746Y30735241D01*
X20825745Y30735241D01*
X20755274Y30709592D01*
X20751869Y30708408D01*
X20680666Y30684814D01*
X20680663Y30684812D01*
X20679464Y30684415D01*
X20661936Y30675929D01*
X20660884Y30675237D01*
X20660883Y30675237D01*
X20598188Y30634001D01*
X20595188Y30632090D01*
X20531345Y30592712D01*
X20531344Y30592711D01*
X20530269Y30592048D01*
X20515170Y30579748D01*
X20462831Y30524272D01*
X20460318Y30521685D01*
X15347228Y25408596D01*
X15285905Y25375111D01*
X15285658Y25375057D01*
X15220197Y25361144D01*
X15220196Y25361143D01*
X15220193Y25361143D01*
X15047269Y25284151D01*
X14894129Y25172889D01*
X14767466Y25032216D01*
X14672820Y24868284D01*
X14614326Y24688257D01*
X14594540Y24500000D01*
X1050500Y24500000D01*
X1050500Y48676854D01*
X1070185Y48743893D01*
X1122989Y48789648D01*
X1192147Y48799592D01*
X1255703Y48770567D01*
X1293477Y48711789D01*
X1293980Y48710027D01*
X1343190Y48532786D01*
X1367676Y48444597D01*
X1368922Y48441468D01*
X1368924Y48441464D01*
X1498902Y48115243D01*
X1498906Y48115232D01*
X1500147Y48112120D01*
X1501717Y48109157D01*
X1501722Y48109148D01*
X1666212Y47798889D01*
X1667789Y47795915D01*
X1669671Y47793138D01*
X1669679Y47793126D01*
X1866748Y47502471D01*
X1866755Y47502461D01*
X1868635Y47499689D01*
X1870802Y47497137D01*
X1870808Y47497130D01*
X2098158Y47229472D01*
X2098169Y47229459D01*
X2100332Y47226914D01*
X2102754Y47224619D01*
X2102769Y47224604D01*
X2357732Y46983091D01*
X2357739Y46983084D01*
X2360163Y46980789D01*
X2362814Y46978773D01*
X2362822Y46978767D01*
X2642412Y46766228D01*
X2642423Y46766220D01*
X2645081Y46764200D01*
X2647945Y46762476D01*
X2647958Y46762468D01*
X2948864Y46581419D01*
X2948873Y46581414D01*
X2951747Y46579685D01*
X2954792Y46578275D01*
X2954802Y46578271D01*
X3273509Y46430822D01*
X3273522Y46430816D01*
X3276565Y46429409D01*
X3279749Y46428336D01*
X3279752Y46428335D01*
X3612542Y46316204D01*
X3612555Y46316200D01*
X3615726Y46315132D01*
X3618988Y46314413D01*
X3619006Y46314409D01*
X3961966Y46238918D01*
X3961979Y46238915D01*
X3965254Y46238195D01*
X3968598Y46237831D01*
X3968600Y46237831D01*
X4317713Y46199863D01*
X4317715Y46199862D01*
X4321052Y46199500D01*
X4324410Y46199500D01*
X4675590Y46199500D01*
X4678948Y46199500D01*
X5034746Y46238195D01*
X5038023Y46238916D01*
X5038033Y46238918D01*
X5380993Y46314409D01*
X5381006Y46314412D01*
X5384274Y46315132D01*
X5387448Y46316201D01*
X5387457Y46316204D01*
X5720247Y46428335D01*
X5723435Y46429409D01*
X5726483Y46430819D01*
X5726490Y46430822D01*
X6045197Y46578271D01*
X6045199Y46578272D01*
X6048253Y46579685D01*
X6051135Y46581419D01*
X6352041Y46762468D01*
X6352045Y46762471D01*
X6354919Y46764200D01*
X6639837Y46980789D01*
X6701252Y47038964D01*
X6897230Y47224604D01*
X6897235Y47224609D01*
X6899668Y47226914D01*
X7131365Y47499689D01*
X7332211Y47795915D01*
X7499853Y48112120D01*
X7632324Y48444597D01*
X7728071Y48789448D01*
X7785972Y49142629D01*
X7805348Y49500000D01*
X7785972Y49857371D01*
X7728071Y50210552D01*
X7632324Y50555403D01*
X7499853Y50887880D01*
X7332211Y51204085D01*
X7131365Y51500311D01*
X6899668Y51773086D01*
X6639837Y52019211D01*
X6354919Y52235800D01*
X6048253Y52420315D01*
X5723435Y52570591D01*
X5384274Y52684868D01*
X5034746Y52761805D01*
X4678948Y52800500D01*
X4321052Y52800500D01*
X3965254Y52761805D01*
X3615726Y52684868D01*
X3276565Y52570591D01*
X2951747Y52420315D01*
X2645081Y52235800D01*
X2360163Y52019211D01*
X2357732Y52016908D01*
X2102769Y51775395D01*
X2102763Y51775389D01*
X2100332Y51773086D01*
X1868635Y51500311D01*
X1667789Y51204085D01*
X1500147Y50887880D01*
X1367676Y50555403D01*
X1366775Y50552158D01*
X1366773Y50552152D01*
X1293980Y50289972D01*
X1257078Y50230642D01*
X1193958Y50200681D01*
X1124661Y50209602D01*
X1071186Y50254572D01*
X1050514Y50321313D01*
X1050500Y50323145D01*
X1050500Y52471874D01*
X1051561Y52488059D01*
X1063004Y52574976D01*
X1071382Y52606243D01*
X1101795Y52679667D01*
X1117980Y52707701D01*
X1158940Y52761081D01*
X1166361Y52770752D01*
X1189249Y52793640D01*
X1190347Y52794482D01*
X1210537Y52809974D01*
X1252298Y52842019D01*
X1280332Y52858204D01*
X1353756Y52888617D01*
X1385021Y52896995D01*
X1447977Y52905284D01*
X1471942Y52908439D01*
X1488126Y52909500D01*
X2696421Y52909500D01*
X2698866Y52909500D01*
X2701285Y52909690D01*
X2701300Y52909691D01*
X3132812Y52943652D01*
X3132821Y52943653D01*
X3135247Y52943844D01*
X3137662Y52944226D01*
X3137666Y52944227D01*
X3565188Y53011939D01*
X3565205Y53011942D01*
X3567589Y53012320D01*
X3577603Y53014724D01*
X3990860Y53113939D01*
X3993226Y53114507D01*
X4184982Y53176812D01*
X4407214Y53249019D01*
X4407225Y53249023D01*
X4409533Y53249773D01*
X4411775Y53250701D01*
X4411784Y53250705D01*
X4811686Y53416351D01*
X4811688Y53416352D01*
X4813943Y53417286D01*
X4875923Y53448866D01*
X5201801Y53614908D01*
X5201808Y53614912D01*
X5203965Y53616011D01*
X5206029Y53617276D01*
X5206040Y53617282D01*
X5575102Y53843444D01*
X5575106Y53843446D01*
X5577192Y53844725D01*
X5579162Y53846156D01*
X5579169Y53846161D01*
X5929352Y54100585D01*
X5931323Y54102017D01*
X5945937Y54114498D01*
X6262318Y54384713D01*
X6262321Y54384716D01*
X6264177Y54386301D01*
X6573699Y54695823D01*
X6645185Y54779522D01*
X6856398Y55026821D01*
X6856401Y55026825D01*
X6857983Y55028677D01*
X7115275Y55382808D01*
X7343989Y55756035D01*
X7542714Y56146057D01*
X7710227Y56550467D01*
X7845493Y56966774D01*
X7947680Y57392411D01*
X8016156Y57824753D01*
X8029948Y58000000D01*
X14344699Y58000000D01*
X14363865Y57768700D01*
X14363865Y57768696D01*
X14363866Y57768695D01*
X14386366Y57679844D01*
X14420844Y57543696D01*
X14514076Y57331150D01*
X14641020Y57136848D01*
X14798215Y56966087D01*
X14981372Y56823531D01*
X14981374Y56823530D01*
X15124664Y56745985D01*
X15185501Y56713062D01*
X15405015Y56637702D01*
X15588164Y56607140D01*
X15633951Y56599500D01*
X15633952Y56599500D01*
X15866048Y56599500D01*
X15866049Y56599500D01*
X15923281Y56609050D01*
X16094984Y56637702D01*
X16314498Y56713062D01*
X16314499Y56713062D01*
X16314503Y56713064D01*
X16518626Y56823530D01*
X16701784Y56966087D01*
X16858979Y57136847D01*
X16985924Y57331151D01*
X17079157Y57543700D01*
X17136134Y57768695D01*
X17141748Y57836456D01*
X17155301Y58000000D01*
X19345201Y58000000D01*
X19364361Y57768782D01*
X19421319Y57543860D01*
X19514516Y57331390D01*
X19598812Y57202365D01*
X20224070Y57827623D01*
X20226884Y57814085D01*
X20296442Y57679844D01*
X20399638Y57569348D01*
X20528819Y57490791D01*
X20580002Y57476449D01*
X19951200Y56847647D01*
X19951200Y56847646D01*
X19981645Y56823952D01*
X20185703Y56713521D01*
X20405140Y56638188D01*
X20633993Y56600000D01*
X20866007Y56600000D01*
X21094859Y56638188D01*
X21314299Y56713522D01*
X21518349Y56823948D01*
X21548799Y56847647D01*
X21548799Y56847648D01*
X20921568Y57474878D01*
X21038458Y57525651D01*
X21155739Y57621066D01*
X21242928Y57744585D01*
X21273354Y57830197D01*
X21901186Y57202364D01*
X21985484Y57331392D01*
X22078680Y57543860D01*
X22135638Y57768782D01*
X22154798Y58000000D01*
X41344699Y58000000D01*
X41363865Y57768700D01*
X41363865Y57768696D01*
X41363866Y57768695D01*
X41386366Y57679844D01*
X41420844Y57543696D01*
X41514076Y57331150D01*
X41641020Y57136848D01*
X41798215Y56966087D01*
X41981372Y56823531D01*
X41981374Y56823530D01*
X42124664Y56745985D01*
X42185501Y56713062D01*
X42405015Y56637702D01*
X42588164Y56607140D01*
X42633951Y56599500D01*
X42633952Y56599500D01*
X42866048Y56599500D01*
X42866049Y56599500D01*
X42923281Y56609050D01*
X43094984Y56637702D01*
X43314498Y56713062D01*
X43314499Y56713062D01*
X43314503Y56713064D01*
X43518626Y56823530D01*
X43701784Y56966087D01*
X43858979Y57136847D01*
X43985924Y57331151D01*
X44079157Y57543700D01*
X44136134Y57768695D01*
X44141748Y57836456D01*
X44155301Y58000000D01*
X46345201Y58000000D01*
X46364361Y57768782D01*
X46421319Y57543860D01*
X46514516Y57331390D01*
X46598812Y57202365D01*
X47224070Y57827623D01*
X47226884Y57814085D01*
X47296442Y57679844D01*
X47399638Y57569348D01*
X47528819Y57490791D01*
X47580002Y57476449D01*
X46951200Y56847647D01*
X46951200Y56847646D01*
X46981645Y56823952D01*
X47185703Y56713521D01*
X47405140Y56638188D01*
X47633993Y56600000D01*
X47866007Y56600000D01*
X48094859Y56638188D01*
X48314299Y56713522D01*
X48518349Y56823948D01*
X48548799Y56847647D01*
X48548799Y56847648D01*
X47921568Y57474878D01*
X48038458Y57525651D01*
X48155739Y57621066D01*
X48242928Y57744585D01*
X48273354Y57830197D01*
X48901186Y57202364D01*
X48985484Y57331392D01*
X49078680Y57543860D01*
X49135638Y57768782D01*
X49154798Y58000000D01*
X49135638Y58231217D01*
X49078680Y58456138D01*
X48985483Y58668607D01*
X48901186Y58797634D01*
X48275929Y58172376D01*
X48273116Y58185915D01*
X48203558Y58320156D01*
X48100362Y58430652D01*
X47971181Y58509209D01*
X47919997Y58523550D01*
X48548798Y59152351D01*
X48518353Y59176048D01*
X48314296Y59286478D01*
X48094859Y59361811D01*
X47866007Y59400000D01*
X47633993Y59400000D01*
X47405140Y59361811D01*
X47185700Y59286477D01*
X46981650Y59176051D01*
X46951200Y59152351D01*
X46951199Y59152351D01*
X47578431Y58525121D01*
X47461542Y58474349D01*
X47344261Y58378934D01*
X47257072Y58255415D01*
X47226644Y58169801D01*
X46598811Y58797633D01*
X46514516Y58668609D01*
X46421319Y58456139D01*
X46364361Y58231217D01*
X46345201Y58000000D01*
X44155301Y58000000D01*
X44136134Y58231299D01*
X44136134Y58231305D01*
X44079157Y58456300D01*
X43985924Y58668849D01*
X43858979Y58863153D01*
X43701784Y59033913D01*
X43518626Y59176470D01*
X43314503Y59286936D01*
X43094981Y59362298D01*
X42866049Y59400500D01*
X42633951Y59400500D01*
X42405019Y59362298D01*
X42405017Y59362297D01*
X42405015Y59362297D01*
X42295257Y59324616D01*
X42185497Y59286936D01*
X41981374Y59176470D01*
X41798216Y59033913D01*
X41641021Y58863153D01*
X41598215Y58797633D01*
X41514076Y58668849D01*
X41430115Y58477437D01*
X41420843Y58456300D01*
X41363866Y58231305D01*
X41363865Y58231301D01*
X41363865Y58231299D01*
X41344699Y58000000D01*
X22154798Y58000000D01*
X22135638Y58231217D01*
X22078680Y58456138D01*
X21985483Y58668607D01*
X21901186Y58797634D01*
X21275929Y58172376D01*
X21273116Y58185915D01*
X21203558Y58320156D01*
X21100362Y58430652D01*
X20971181Y58509209D01*
X20919996Y58523550D01*
X21548798Y59152351D01*
X21518353Y59176048D01*
X21314296Y59286478D01*
X21094859Y59361811D01*
X20866007Y59400000D01*
X20633993Y59400000D01*
X20405140Y59361811D01*
X20185700Y59286477D01*
X19981650Y59176051D01*
X19951200Y59152351D01*
X19951199Y59152351D01*
X20578430Y58525120D01*
X20461542Y58474349D01*
X20344261Y58378934D01*
X20257072Y58255415D01*
X20226644Y58169801D01*
X19598811Y58797633D01*
X19514516Y58668609D01*
X19421319Y58456139D01*
X19364361Y58231217D01*
X19345201Y58000000D01*
X17155301Y58000000D01*
X17136134Y58231299D01*
X17136134Y58231305D01*
X17079157Y58456300D01*
X16985924Y58668849D01*
X16858979Y58863153D01*
X16701784Y59033913D01*
X16518626Y59176470D01*
X16314503Y59286936D01*
X16094981Y59362298D01*
X15866049Y59400500D01*
X15633951Y59400500D01*
X15405019Y59362298D01*
X15405017Y59362297D01*
X15405015Y59362297D01*
X15295257Y59324616D01*
X15185497Y59286936D01*
X14981374Y59176470D01*
X14798216Y59033913D01*
X14641021Y58863153D01*
X14598215Y58797633D01*
X14514076Y58668849D01*
X14430115Y58477437D01*
X14420843Y58456300D01*
X14363866Y58231305D01*
X14363865Y58231301D01*
X14363865Y58231299D01*
X14344699Y58000000D01*
X8029948Y58000000D01*
X8050500Y58261134D01*
X8050500Y58480000D01*
X8050500Y58496408D01*
X8050500Y59471874D01*
X8051561Y59488059D01*
X8063004Y59574976D01*
X8071382Y59606243D01*
X8101795Y59679667D01*
X8117980Y59707701D01*
X8166359Y59770750D01*
X8189249Y59793640D01*
X8190347Y59794482D01*
X8210537Y59809974D01*
X8252298Y59842019D01*
X8280332Y59858204D01*
X8353756Y59888617D01*
X8385021Y59896995D01*
X8447977Y59905284D01*
X8471942Y59908439D01*
X8488126Y59909500D01*
X8496408Y59909500D01*
X52463592Y59909500D01*
X52471874Y59909500D01*
X52488057Y59908439D01*
G37*
%TD.AperFunction*%
%TD*%
M02*
