%TF.GenerationSoftware,KiCad,Pcbnew,7.0.2-0*%
%TF.CreationDate,2024-10-30T20:33:58-04:00*%
%TF.ProjectId,2sliders,32736c69-6465-4727-932e-6b696361645f,rev?*%
%TF.SameCoordinates,Original*%
%TF.FileFunction,Legend,Top*%
%TF.FilePolarity,Positive*%
%FSLAX46Y46*%
G04 Gerber Fmt 4.6, Leading zero omitted, Abs format (unit mm)*
G04 Created by KiCad (PCBNEW 7.0.2-0) date 2024-10-30 20:33:58*
%MOMM*%
%LPD*%
G01*
G04 APERTURE LIST*
%ADD10C,0.150000*%
%ADD11C,0.127000*%
G04 APERTURE END LIST*
D10*
X4674857Y16419047D02*
X4636761Y16380952D01*
X4636761Y16380952D02*
X4522476Y16304761D01*
X4522476Y16304761D02*
X4446285Y16266666D01*
X4446285Y16266666D02*
X4332000Y16228571D01*
X4332000Y16228571D02*
X4141523Y16190476D01*
X4141523Y16190476D02*
X3989142Y16190476D01*
X3989142Y16190476D02*
X3798666Y16228571D01*
X3798666Y16228571D02*
X3684380Y16266666D01*
X3684380Y16266666D02*
X3608190Y16304761D01*
X3608190Y16304761D02*
X3493904Y16380952D01*
X3493904Y16380952D02*
X3455809Y16419047D01*
X4293904Y17180952D02*
X4332000Y17142856D01*
X4332000Y17142856D02*
X4370095Y17028571D01*
X4370095Y17028571D02*
X4370095Y16952380D01*
X4370095Y16952380D02*
X4332000Y16838094D01*
X4332000Y16838094D02*
X4255809Y16761904D01*
X4255809Y16761904D02*
X4179619Y16723809D01*
X4179619Y16723809D02*
X4027238Y16685713D01*
X4027238Y16685713D02*
X3912952Y16685713D01*
X3912952Y16685713D02*
X3760571Y16723809D01*
X3760571Y16723809D02*
X3684380Y16761904D01*
X3684380Y16761904D02*
X3608190Y16838094D01*
X3608190Y16838094D02*
X3570095Y16952380D01*
X3570095Y16952380D02*
X3570095Y17028571D01*
X3570095Y17028571D02*
X3608190Y17142856D01*
X3608190Y17142856D02*
X3646285Y17180952D01*
X4674857Y17447618D02*
X4636761Y17485713D01*
X4636761Y17485713D02*
X4522476Y17561904D01*
X4522476Y17561904D02*
X4446285Y17599999D01*
X4446285Y17599999D02*
X4332000Y17638094D01*
X4332000Y17638094D02*
X4141523Y17676190D01*
X4141523Y17676190D02*
X3989142Y17676190D01*
X3989142Y17676190D02*
X3798666Y17638094D01*
X3798666Y17638094D02*
X3684380Y17599999D01*
X3684380Y17599999D02*
X3608190Y17561904D01*
X3608190Y17561904D02*
X3493904Y17485713D01*
X3493904Y17485713D02*
X3455809Y17447618D01*
X3646285Y18628570D02*
X3608190Y18666666D01*
X3608190Y18666666D02*
X3570095Y18742856D01*
X3570095Y18742856D02*
X3570095Y18933332D01*
X3570095Y18933332D02*
X3608190Y19009523D01*
X3608190Y19009523D02*
X3646285Y19047618D01*
X3646285Y19047618D02*
X3722476Y19085713D01*
X3722476Y19085713D02*
X3798666Y19085713D01*
X3798666Y19085713D02*
X3912952Y19047618D01*
X3912952Y19047618D02*
X4370095Y18590475D01*
X4370095Y18590475D02*
X4370095Y19085713D01*
X3570095Y19580952D02*
X3570095Y19657142D01*
X3570095Y19657142D02*
X3608190Y19733333D01*
X3608190Y19733333D02*
X3646285Y19771428D01*
X3646285Y19771428D02*
X3722476Y19809523D01*
X3722476Y19809523D02*
X3874857Y19847618D01*
X3874857Y19847618D02*
X4065333Y19847618D01*
X4065333Y19847618D02*
X4217714Y19809523D01*
X4217714Y19809523D02*
X4293904Y19771428D01*
X4293904Y19771428D02*
X4332000Y19733333D01*
X4332000Y19733333D02*
X4370095Y19657142D01*
X4370095Y19657142D02*
X4370095Y19580952D01*
X4370095Y19580952D02*
X4332000Y19504761D01*
X4332000Y19504761D02*
X4293904Y19466666D01*
X4293904Y19466666D02*
X4217714Y19428571D01*
X4217714Y19428571D02*
X4065333Y19390475D01*
X4065333Y19390475D02*
X3874857Y19390475D01*
X3874857Y19390475D02*
X3722476Y19428571D01*
X3722476Y19428571D02*
X3646285Y19466666D01*
X3646285Y19466666D02*
X3608190Y19504761D01*
X3608190Y19504761D02*
X3570095Y19580952D01*
X3646285Y20152380D02*
X3608190Y20190476D01*
X3608190Y20190476D02*
X3570095Y20266666D01*
X3570095Y20266666D02*
X3570095Y20457142D01*
X3570095Y20457142D02*
X3608190Y20533333D01*
X3608190Y20533333D02*
X3646285Y20571428D01*
X3646285Y20571428D02*
X3722476Y20609523D01*
X3722476Y20609523D02*
X3798666Y20609523D01*
X3798666Y20609523D02*
X3912952Y20571428D01*
X3912952Y20571428D02*
X4370095Y20114285D01*
X4370095Y20114285D02*
X4370095Y20609523D01*
X3570095Y20876190D02*
X3570095Y21371428D01*
X3570095Y21371428D02*
X3874857Y21104762D01*
X3874857Y21104762D02*
X3874857Y21219047D01*
X3874857Y21219047D02*
X3912952Y21295238D01*
X3912952Y21295238D02*
X3951047Y21333333D01*
X3951047Y21333333D02*
X4027238Y21371428D01*
X4027238Y21371428D02*
X4217714Y21371428D01*
X4217714Y21371428D02*
X4293904Y21333333D01*
X4293904Y21333333D02*
X4332000Y21295238D01*
X4332000Y21295238D02*
X4370095Y21219047D01*
X4370095Y21219047D02*
X4370095Y20990476D01*
X4370095Y20990476D02*
X4332000Y20914285D01*
X4332000Y20914285D02*
X4293904Y20876190D01*
X4370095Y22704762D02*
X4370095Y22323810D01*
X4370095Y22323810D02*
X3570095Y22323810D01*
X3951047Y22971429D02*
X3951047Y23238095D01*
X4370095Y23352381D02*
X4370095Y22971429D01*
X4370095Y22971429D02*
X3570095Y22971429D01*
X3570095Y22971429D02*
X3570095Y23352381D01*
X4332000Y23657143D02*
X4370095Y23771429D01*
X4370095Y23771429D02*
X4370095Y23961905D01*
X4370095Y23961905D02*
X4332000Y24038096D01*
X4332000Y24038096D02*
X4293904Y24076191D01*
X4293904Y24076191D02*
X4217714Y24114286D01*
X4217714Y24114286D02*
X4141523Y24114286D01*
X4141523Y24114286D02*
X4065333Y24076191D01*
X4065333Y24076191D02*
X4027238Y24038096D01*
X4027238Y24038096D02*
X3989142Y23961905D01*
X3989142Y23961905D02*
X3951047Y23809524D01*
X3951047Y23809524D02*
X3912952Y23733334D01*
X3912952Y23733334D02*
X3874857Y23695239D01*
X3874857Y23695239D02*
X3798666Y23657143D01*
X3798666Y23657143D02*
X3722476Y23657143D01*
X3722476Y23657143D02*
X3646285Y23695239D01*
X3646285Y23695239D02*
X3608190Y23733334D01*
X3608190Y23733334D02*
X3570095Y23809524D01*
X3570095Y23809524D02*
X3570095Y24000001D01*
X3570095Y24000001D02*
X3608190Y24114286D01*
X4141523Y25028572D02*
X4141523Y25409525D01*
X4370095Y24952382D02*
X3570095Y25219049D01*
X3570095Y25219049D02*
X4370095Y25485715D01*
X4370095Y25752382D02*
X3570095Y25752382D01*
X3608190Y26552381D02*
X3570095Y26476191D01*
X3570095Y26476191D02*
X3570095Y26361905D01*
X3570095Y26361905D02*
X3608190Y26247619D01*
X3608190Y26247619D02*
X3684380Y26171429D01*
X3684380Y26171429D02*
X3760571Y26133334D01*
X3760571Y26133334D02*
X3912952Y26095238D01*
X3912952Y26095238D02*
X4027238Y26095238D01*
X4027238Y26095238D02*
X4179619Y26133334D01*
X4179619Y26133334D02*
X4255809Y26171429D01*
X4255809Y26171429D02*
X4332000Y26247619D01*
X4332000Y26247619D02*
X4370095Y26361905D01*
X4370095Y26361905D02*
X4370095Y26438096D01*
X4370095Y26438096D02*
X4332000Y26552381D01*
X4332000Y26552381D02*
X4293904Y26590477D01*
X4293904Y26590477D02*
X4027238Y26590477D01*
X4027238Y26590477D02*
X4027238Y26438096D01*
X4370095Y27314286D02*
X4370095Y26933334D01*
X4370095Y26933334D02*
X3570095Y26933334D01*
X3951047Y27580953D02*
X3951047Y27847619D01*
X4370095Y27961905D02*
X4370095Y27580953D01*
X4370095Y27580953D02*
X3570095Y27580953D01*
X3570095Y27580953D02*
X3570095Y27961905D01*
X4332000Y28266667D02*
X4370095Y28380953D01*
X4370095Y28380953D02*
X4370095Y28571429D01*
X4370095Y28571429D02*
X4332000Y28647620D01*
X4332000Y28647620D02*
X4293904Y28685715D01*
X4293904Y28685715D02*
X4217714Y28723810D01*
X4217714Y28723810D02*
X4141523Y28723810D01*
X4141523Y28723810D02*
X4065333Y28685715D01*
X4065333Y28685715D02*
X4027238Y28647620D01*
X4027238Y28647620D02*
X3989142Y28571429D01*
X3989142Y28571429D02*
X3951047Y28419048D01*
X3951047Y28419048D02*
X3912952Y28342858D01*
X3912952Y28342858D02*
X3874857Y28304763D01*
X3874857Y28304763D02*
X3798666Y28266667D01*
X3798666Y28266667D02*
X3722476Y28266667D01*
X3722476Y28266667D02*
X3646285Y28304763D01*
X3646285Y28304763D02*
X3608190Y28342858D01*
X3608190Y28342858D02*
X3570095Y28419048D01*
X3570095Y28419048D02*
X3570095Y28609525D01*
X3570095Y28609525D02*
X3608190Y28723810D01*
X4370095Y29676192D02*
X3570095Y29676192D01*
X3570095Y29676192D02*
X3570095Y29866668D01*
X3570095Y29866668D02*
X3608190Y29980954D01*
X3608190Y29980954D02*
X3684380Y30057144D01*
X3684380Y30057144D02*
X3760571Y30095239D01*
X3760571Y30095239D02*
X3912952Y30133335D01*
X3912952Y30133335D02*
X4027238Y30133335D01*
X4027238Y30133335D02*
X4179619Y30095239D01*
X4179619Y30095239D02*
X4255809Y30057144D01*
X4255809Y30057144D02*
X4332000Y29980954D01*
X4332000Y29980954D02*
X4370095Y29866668D01*
X4370095Y29866668D02*
X4370095Y29676192D01*
X3570095Y30514287D02*
X3722476Y30438096D01*
X3570095Y31009525D02*
X3570095Y31161906D01*
X3570095Y31161906D02*
X3608190Y31238096D01*
X3608190Y31238096D02*
X3684380Y31314287D01*
X3684380Y31314287D02*
X3836761Y31352382D01*
X3836761Y31352382D02*
X4103428Y31352382D01*
X4103428Y31352382D02*
X4255809Y31314287D01*
X4255809Y31314287D02*
X4332000Y31238096D01*
X4332000Y31238096D02*
X4370095Y31161906D01*
X4370095Y31161906D02*
X4370095Y31009525D01*
X4370095Y31009525D02*
X4332000Y30933334D01*
X4332000Y30933334D02*
X4255809Y30857144D01*
X4255809Y30857144D02*
X4103428Y30819048D01*
X4103428Y30819048D02*
X3836761Y30819048D01*
X3836761Y30819048D02*
X3684380Y30857144D01*
X3684380Y30857144D02*
X3608190Y30933334D01*
X3608190Y30933334D02*
X3570095Y31009525D01*
X4370095Y32152382D02*
X3989142Y31885715D01*
X4370095Y31695239D02*
X3570095Y31695239D01*
X3570095Y31695239D02*
X3570095Y32000001D01*
X3570095Y32000001D02*
X3608190Y32076191D01*
X3608190Y32076191D02*
X3646285Y32114286D01*
X3646285Y32114286D02*
X3722476Y32152382D01*
X3722476Y32152382D02*
X3836761Y32152382D01*
X3836761Y32152382D02*
X3912952Y32114286D01*
X3912952Y32114286D02*
X3951047Y32076191D01*
X3951047Y32076191D02*
X3989142Y32000001D01*
X3989142Y32000001D02*
X3989142Y31695239D01*
X3951047Y33371429D02*
X3951047Y33104763D01*
X4370095Y33104763D02*
X3570095Y33104763D01*
X3570095Y33104763D02*
X3570095Y33485715D01*
X4370095Y34247620D02*
X3989142Y33980953D01*
X4370095Y33790477D02*
X3570095Y33790477D01*
X3570095Y33790477D02*
X3570095Y34095239D01*
X3570095Y34095239D02*
X3608190Y34171429D01*
X3608190Y34171429D02*
X3646285Y34209524D01*
X3646285Y34209524D02*
X3722476Y34247620D01*
X3722476Y34247620D02*
X3836761Y34247620D01*
X3836761Y34247620D02*
X3912952Y34209524D01*
X3912952Y34209524D02*
X3951047Y34171429D01*
X3951047Y34171429D02*
X3989142Y34095239D01*
X3989142Y34095239D02*
X3989142Y33790477D01*
X4293904Y35047620D02*
X4332000Y35009524D01*
X4332000Y35009524D02*
X4370095Y34895239D01*
X4370095Y34895239D02*
X4370095Y34819048D01*
X4370095Y34819048D02*
X4332000Y34704762D01*
X4332000Y34704762D02*
X4255809Y34628572D01*
X4255809Y34628572D02*
X4179619Y34590477D01*
X4179619Y34590477D02*
X4027238Y34552381D01*
X4027238Y34552381D02*
X3912952Y34552381D01*
X3912952Y34552381D02*
X3760571Y34590477D01*
X3760571Y34590477D02*
X3684380Y34628572D01*
X3684380Y34628572D02*
X3608190Y34704762D01*
X3608190Y34704762D02*
X3570095Y34819048D01*
X3570095Y34819048D02*
X3570095Y34895239D01*
X3570095Y34895239D02*
X3608190Y35009524D01*
X3608190Y35009524D02*
X3646285Y35047620D01*
X4370095Y36038096D02*
X4370095Y36190477D01*
X4370095Y36190477D02*
X4332000Y36266667D01*
X4332000Y36266667D02*
X4293904Y36304763D01*
X4293904Y36304763D02*
X4179619Y36380953D01*
X4179619Y36380953D02*
X4027238Y36419048D01*
X4027238Y36419048D02*
X3722476Y36419048D01*
X3722476Y36419048D02*
X3646285Y36380953D01*
X3646285Y36380953D02*
X3608190Y36342858D01*
X3608190Y36342858D02*
X3570095Y36266667D01*
X3570095Y36266667D02*
X3570095Y36114286D01*
X3570095Y36114286D02*
X3608190Y36038096D01*
X3608190Y36038096D02*
X3646285Y36000001D01*
X3646285Y36000001D02*
X3722476Y35961905D01*
X3722476Y35961905D02*
X3912952Y35961905D01*
X3912952Y35961905D02*
X3989142Y36000001D01*
X3989142Y36000001D02*
X4027238Y36038096D01*
X4027238Y36038096D02*
X4065333Y36114286D01*
X4065333Y36114286D02*
X4065333Y36266667D01*
X4065333Y36266667D02*
X4027238Y36342858D01*
X4027238Y36342858D02*
X3989142Y36380953D01*
X3989142Y36380953D02*
X3912952Y36419048D01*
X3646285Y36723810D02*
X3608190Y36761906D01*
X3608190Y36761906D02*
X3570095Y36838096D01*
X3570095Y36838096D02*
X3570095Y37028572D01*
X3570095Y37028572D02*
X3608190Y37104763D01*
X3608190Y37104763D02*
X3646285Y37142858D01*
X3646285Y37142858D02*
X3722476Y37180953D01*
X3722476Y37180953D02*
X3798666Y37180953D01*
X3798666Y37180953D02*
X3912952Y37142858D01*
X3912952Y37142858D02*
X4370095Y36685715D01*
X4370095Y36685715D02*
X4370095Y37180953D01*
X3570095Y37447620D02*
X3570095Y37942858D01*
X3570095Y37942858D02*
X3874857Y37676192D01*
X3874857Y37676192D02*
X3874857Y37790477D01*
X3874857Y37790477D02*
X3912952Y37866668D01*
X3912952Y37866668D02*
X3951047Y37904763D01*
X3951047Y37904763D02*
X4027238Y37942858D01*
X4027238Y37942858D02*
X4217714Y37942858D01*
X4217714Y37942858D02*
X4293904Y37904763D01*
X4293904Y37904763D02*
X4332000Y37866668D01*
X4332000Y37866668D02*
X4370095Y37790477D01*
X4370095Y37790477D02*
X4370095Y37561906D01*
X4370095Y37561906D02*
X4332000Y37485715D01*
X4332000Y37485715D02*
X4293904Y37447620D01*
X3836761Y38628573D02*
X4370095Y38628573D01*
X3532000Y38438097D02*
X4103428Y38247620D01*
X4103428Y38247620D02*
X4103428Y38742859D01*
X5070095Y16419047D02*
X5641523Y16419047D01*
X5641523Y16419047D02*
X5755809Y16380952D01*
X5755809Y16380952D02*
X5832000Y16304761D01*
X5832000Y16304761D02*
X5870095Y16190476D01*
X5870095Y16190476D02*
X5870095Y16114285D01*
X5870095Y17180952D02*
X5870095Y16800000D01*
X5870095Y16800000D02*
X5070095Y16800000D01*
X5793904Y17904762D02*
X5832000Y17866666D01*
X5832000Y17866666D02*
X5870095Y17752381D01*
X5870095Y17752381D02*
X5870095Y17676190D01*
X5870095Y17676190D02*
X5832000Y17561904D01*
X5832000Y17561904D02*
X5755809Y17485714D01*
X5755809Y17485714D02*
X5679619Y17447619D01*
X5679619Y17447619D02*
X5527238Y17409523D01*
X5527238Y17409523D02*
X5412952Y17409523D01*
X5412952Y17409523D02*
X5260571Y17447619D01*
X5260571Y17447619D02*
X5184380Y17485714D01*
X5184380Y17485714D02*
X5108190Y17561904D01*
X5108190Y17561904D02*
X5070095Y17676190D01*
X5070095Y17676190D02*
X5070095Y17752381D01*
X5070095Y17752381D02*
X5108190Y17866666D01*
X5108190Y17866666D02*
X5146285Y17904762D01*
X5070095Y18476190D02*
X5641523Y18476190D01*
X5641523Y18476190D02*
X5755809Y18438095D01*
X5755809Y18438095D02*
X5832000Y18361904D01*
X5832000Y18361904D02*
X5870095Y18247619D01*
X5870095Y18247619D02*
X5870095Y18171428D01*
X5870095Y19238095D02*
X5870095Y18857143D01*
X5870095Y18857143D02*
X5070095Y18857143D01*
X5793904Y19961905D02*
X5832000Y19923809D01*
X5832000Y19923809D02*
X5870095Y19809524D01*
X5870095Y19809524D02*
X5870095Y19733333D01*
X5870095Y19733333D02*
X5832000Y19619047D01*
X5832000Y19619047D02*
X5755809Y19542857D01*
X5755809Y19542857D02*
X5679619Y19504762D01*
X5679619Y19504762D02*
X5527238Y19466666D01*
X5527238Y19466666D02*
X5412952Y19466666D01*
X5412952Y19466666D02*
X5260571Y19504762D01*
X5260571Y19504762D02*
X5184380Y19542857D01*
X5184380Y19542857D02*
X5108190Y19619047D01*
X5108190Y19619047D02*
X5070095Y19733333D01*
X5070095Y19733333D02*
X5070095Y19809524D01*
X5070095Y19809524D02*
X5108190Y19923809D01*
X5108190Y19923809D02*
X5146285Y19961905D01*
X5070095Y20533333D02*
X5641523Y20533333D01*
X5641523Y20533333D02*
X5755809Y20495238D01*
X5755809Y20495238D02*
X5832000Y20419047D01*
X5832000Y20419047D02*
X5870095Y20304762D01*
X5870095Y20304762D02*
X5870095Y20228571D01*
X5870095Y21295238D02*
X5870095Y20914286D01*
X5870095Y20914286D02*
X5070095Y20914286D01*
X5793904Y22019048D02*
X5832000Y21980952D01*
X5832000Y21980952D02*
X5870095Y21866667D01*
X5870095Y21866667D02*
X5870095Y21790476D01*
X5870095Y21790476D02*
X5832000Y21676190D01*
X5832000Y21676190D02*
X5755809Y21600000D01*
X5755809Y21600000D02*
X5679619Y21561905D01*
X5679619Y21561905D02*
X5527238Y21523809D01*
X5527238Y21523809D02*
X5412952Y21523809D01*
X5412952Y21523809D02*
X5260571Y21561905D01*
X5260571Y21561905D02*
X5184380Y21600000D01*
X5184380Y21600000D02*
X5108190Y21676190D01*
X5108190Y21676190D02*
X5070095Y21790476D01*
X5070095Y21790476D02*
X5070095Y21866667D01*
X5070095Y21866667D02*
X5108190Y21980952D01*
X5108190Y21980952D02*
X5146285Y22019048D01*
X5070095Y22590476D02*
X5641523Y22590476D01*
X5641523Y22590476D02*
X5755809Y22552381D01*
X5755809Y22552381D02*
X5832000Y22476190D01*
X5832000Y22476190D02*
X5870095Y22361905D01*
X5870095Y22361905D02*
X5870095Y22285714D01*
X5870095Y23352381D02*
X5870095Y22971429D01*
X5870095Y22971429D02*
X5070095Y22971429D01*
X5793904Y24076191D02*
X5832000Y24038095D01*
X5832000Y24038095D02*
X5870095Y23923810D01*
X5870095Y23923810D02*
X5870095Y23847619D01*
X5870095Y23847619D02*
X5832000Y23733333D01*
X5832000Y23733333D02*
X5755809Y23657143D01*
X5755809Y23657143D02*
X5679619Y23619048D01*
X5679619Y23619048D02*
X5527238Y23580952D01*
X5527238Y23580952D02*
X5412952Y23580952D01*
X5412952Y23580952D02*
X5260571Y23619048D01*
X5260571Y23619048D02*
X5184380Y23657143D01*
X5184380Y23657143D02*
X5108190Y23733333D01*
X5108190Y23733333D02*
X5070095Y23847619D01*
X5070095Y23847619D02*
X5070095Y23923810D01*
X5070095Y23923810D02*
X5108190Y24038095D01*
X5108190Y24038095D02*
X5146285Y24076191D01*
X2146285Y16152380D02*
X2108190Y16190476D01*
X2108190Y16190476D02*
X2070095Y16266666D01*
X2070095Y16266666D02*
X2070095Y16457142D01*
X2070095Y16457142D02*
X2108190Y16533333D01*
X2108190Y16533333D02*
X2146285Y16571428D01*
X2146285Y16571428D02*
X2222476Y16609523D01*
X2222476Y16609523D02*
X2298666Y16609523D01*
X2298666Y16609523D02*
X2412952Y16571428D01*
X2412952Y16571428D02*
X2870095Y16114285D01*
X2870095Y16114285D02*
X2870095Y16609523D01*
X2070095Y16876190D02*
X2870095Y17409524D01*
X2070095Y17409524D02*
X2870095Y16876190D01*
X2451047Y18590476D02*
X2451047Y18323810D01*
X2870095Y18323810D02*
X2070095Y18323810D01*
X2070095Y18323810D02*
X2070095Y18704762D01*
X2641523Y18971428D02*
X2641523Y19352381D01*
X2870095Y18895238D02*
X2070095Y19161905D01*
X2070095Y19161905D02*
X2870095Y19428571D01*
X2870095Y19695238D02*
X2070095Y19695238D01*
X2070095Y19695238D02*
X2070095Y19885714D01*
X2070095Y19885714D02*
X2108190Y20000000D01*
X2108190Y20000000D02*
X2184380Y20076190D01*
X2184380Y20076190D02*
X2260571Y20114285D01*
X2260571Y20114285D02*
X2412952Y20152381D01*
X2412952Y20152381D02*
X2527238Y20152381D01*
X2527238Y20152381D02*
X2679619Y20114285D01*
X2679619Y20114285D02*
X2755809Y20076190D01*
X2755809Y20076190D02*
X2832000Y20000000D01*
X2832000Y20000000D02*
X2870095Y19885714D01*
X2870095Y19885714D02*
X2870095Y19695238D01*
X2451047Y20495238D02*
X2451047Y20761904D01*
X2870095Y20876190D02*
X2870095Y20495238D01*
X2870095Y20495238D02*
X2070095Y20495238D01*
X2070095Y20495238D02*
X2070095Y20876190D01*
X2870095Y21676191D02*
X2489142Y21409524D01*
X2870095Y21219048D02*
X2070095Y21219048D01*
X2070095Y21219048D02*
X2070095Y21523810D01*
X2070095Y21523810D02*
X2108190Y21600000D01*
X2108190Y21600000D02*
X2146285Y21638095D01*
X2146285Y21638095D02*
X2222476Y21676191D01*
X2222476Y21676191D02*
X2336761Y21676191D01*
X2336761Y21676191D02*
X2412952Y21638095D01*
X2412952Y21638095D02*
X2451047Y21600000D01*
X2451047Y21600000D02*
X2489142Y21523810D01*
X2489142Y21523810D02*
X2489142Y21219048D01*
X2451047Y22895238D02*
X2489142Y23009524D01*
X2489142Y23009524D02*
X2527238Y23047619D01*
X2527238Y23047619D02*
X2603428Y23085715D01*
X2603428Y23085715D02*
X2717714Y23085715D01*
X2717714Y23085715D02*
X2793904Y23047619D01*
X2793904Y23047619D02*
X2832000Y23009524D01*
X2832000Y23009524D02*
X2870095Y22933334D01*
X2870095Y22933334D02*
X2870095Y22628572D01*
X2870095Y22628572D02*
X2070095Y22628572D01*
X2070095Y22628572D02*
X2070095Y22895238D01*
X2070095Y22895238D02*
X2108190Y22971429D01*
X2108190Y22971429D02*
X2146285Y23009524D01*
X2146285Y23009524D02*
X2222476Y23047619D01*
X2222476Y23047619D02*
X2298666Y23047619D01*
X2298666Y23047619D02*
X2374857Y23009524D01*
X2374857Y23009524D02*
X2412952Y22971429D01*
X2412952Y22971429D02*
X2451047Y22895238D01*
X2451047Y22895238D02*
X2451047Y22628572D01*
X2070095Y23580953D02*
X2070095Y23733334D01*
X2070095Y23733334D02*
X2108190Y23809524D01*
X2108190Y23809524D02*
X2184380Y23885715D01*
X2184380Y23885715D02*
X2336761Y23923810D01*
X2336761Y23923810D02*
X2603428Y23923810D01*
X2603428Y23923810D02*
X2755809Y23885715D01*
X2755809Y23885715D02*
X2832000Y23809524D01*
X2832000Y23809524D02*
X2870095Y23733334D01*
X2870095Y23733334D02*
X2870095Y23580953D01*
X2870095Y23580953D02*
X2832000Y23504762D01*
X2832000Y23504762D02*
X2755809Y23428572D01*
X2755809Y23428572D02*
X2603428Y23390476D01*
X2603428Y23390476D02*
X2336761Y23390476D01*
X2336761Y23390476D02*
X2184380Y23428572D01*
X2184380Y23428572D02*
X2108190Y23504762D01*
X2108190Y23504762D02*
X2070095Y23580953D01*
X2641523Y24228571D02*
X2641523Y24609524D01*
X2870095Y24152381D02*
X2070095Y24419048D01*
X2070095Y24419048D02*
X2870095Y24685714D01*
X2870095Y25409524D02*
X2489142Y25142857D01*
X2870095Y24952381D02*
X2070095Y24952381D01*
X2070095Y24952381D02*
X2070095Y25257143D01*
X2070095Y25257143D02*
X2108190Y25333333D01*
X2108190Y25333333D02*
X2146285Y25371428D01*
X2146285Y25371428D02*
X2222476Y25409524D01*
X2222476Y25409524D02*
X2336761Y25409524D01*
X2336761Y25409524D02*
X2412952Y25371428D01*
X2412952Y25371428D02*
X2451047Y25333333D01*
X2451047Y25333333D02*
X2489142Y25257143D01*
X2489142Y25257143D02*
X2489142Y24952381D01*
X2870095Y25752381D02*
X2070095Y25752381D01*
X2070095Y25752381D02*
X2070095Y25942857D01*
X2070095Y25942857D02*
X2108190Y26057143D01*
X2108190Y26057143D02*
X2184380Y26133333D01*
X2184380Y26133333D02*
X2260571Y26171428D01*
X2260571Y26171428D02*
X2412952Y26209524D01*
X2412952Y26209524D02*
X2527238Y26209524D01*
X2527238Y26209524D02*
X2679619Y26171428D01*
X2679619Y26171428D02*
X2755809Y26133333D01*
X2755809Y26133333D02*
X2832000Y26057143D01*
X2832000Y26057143D02*
X2870095Y25942857D01*
X2870095Y25942857D02*
X2870095Y25752381D01*
X2070095Y27047619D02*
X2870095Y27314286D01*
X2870095Y27314286D02*
X2070095Y27580952D01*
X2870095Y28266666D02*
X2870095Y27809523D01*
X2870095Y28038095D02*
X2070095Y28038095D01*
X2070095Y28038095D02*
X2184380Y27961904D01*
X2184380Y27961904D02*
X2260571Y27885714D01*
X2260571Y27885714D02*
X2298666Y27809523D01*
%TO.C,R1*%
X38712619Y2833333D02*
X38236428Y2500000D01*
X38712619Y2261905D02*
X37712619Y2261905D01*
X37712619Y2261905D02*
X37712619Y2642857D01*
X37712619Y2642857D02*
X37760238Y2738095D01*
X37760238Y2738095D02*
X37807857Y2785714D01*
X37807857Y2785714D02*
X37903095Y2833333D01*
X37903095Y2833333D02*
X38045952Y2833333D01*
X38045952Y2833333D02*
X38141190Y2785714D01*
X38141190Y2785714D02*
X38188809Y2738095D01*
X38188809Y2738095D02*
X38236428Y2642857D01*
X38236428Y2642857D02*
X38236428Y2261905D01*
X38712619Y3785714D02*
X38712619Y3214286D01*
X38712619Y3500000D02*
X37712619Y3500000D01*
X37712619Y3500000D02*
X37855476Y3404762D01*
X37855476Y3404762D02*
X37950714Y3309524D01*
X37950714Y3309524D02*
X37998333Y3214286D01*
%TO.C,R2*%
X11712619Y2833333D02*
X11236428Y2500000D01*
X11712619Y2261905D02*
X10712619Y2261905D01*
X10712619Y2261905D02*
X10712619Y2642857D01*
X10712619Y2642857D02*
X10760238Y2738095D01*
X10760238Y2738095D02*
X10807857Y2785714D01*
X10807857Y2785714D02*
X10903095Y2833333D01*
X10903095Y2833333D02*
X11045952Y2833333D01*
X11045952Y2833333D02*
X11141190Y2785714D01*
X11141190Y2785714D02*
X11188809Y2738095D01*
X11188809Y2738095D02*
X11236428Y2642857D01*
X11236428Y2642857D02*
X11236428Y2261905D01*
X10807857Y3214286D02*
X10760238Y3261905D01*
X10760238Y3261905D02*
X10712619Y3357143D01*
X10712619Y3357143D02*
X10712619Y3595238D01*
X10712619Y3595238D02*
X10760238Y3690476D01*
X10760238Y3690476D02*
X10807857Y3738095D01*
X10807857Y3738095D02*
X10903095Y3785714D01*
X10903095Y3785714D02*
X10998333Y3785714D01*
X10998333Y3785714D02*
X11141190Y3738095D01*
X11141190Y3738095D02*
X11712619Y3166667D01*
X11712619Y3166667D02*
X11712619Y3785714D01*
D11*
%TO.C,R1*%
X39500000Y500000D02*
X48500000Y500000D01*
X39500000Y500000D02*
X39500000Y2100000D01*
X48500000Y500000D02*
X48500000Y2100000D01*
X39500000Y3900000D02*
X39500000Y60500000D01*
X48500000Y3900000D02*
X48500000Y57100000D01*
X48500000Y58900000D02*
X48500000Y60500000D01*
X39500000Y60500000D02*
X48500000Y60500000D01*
%TO.C,R2*%
X12500000Y500000D02*
X21500000Y500000D01*
X12500000Y500000D02*
X12500000Y2100000D01*
X21500000Y500000D02*
X21500000Y2100000D01*
X12500000Y3900000D02*
X12500000Y60500000D01*
X21500000Y3900000D02*
X21500000Y57100000D01*
X21500000Y58900000D02*
X21500000Y60500000D01*
X12500000Y60500000D02*
X21500000Y60500000D01*
%TD*%
M02*
