%TF.GenerationSoftware,KiCad,Pcbnew,7.0.2-0*%
%TF.CreationDate,2024-10-30T20:33:58-04:00*%
%TF.ProjectId,2sliders,32736c69-6465-4727-932e-6b696361645f,rev?*%
%TF.SameCoordinates,Original*%
%TF.FileFunction,Profile,NP*%
%FSLAX46Y46*%
G04 Gerber Fmt 4.6, Leading zero omitted, Abs format (unit mm)*
G04 Created by KiCad (PCBNEW 7.0.2-0) date 2024-10-30 20:33:58*
%MOMM*%
%LPD*%
G01*
G04 APERTURE LIST*
%TA.AperFunction,Profile*%
%ADD10C,0.100000*%
%TD*%
G04 APERTURE END LIST*
D10*
X7000000Y2480000D02*
X7000000Y1480000D01*
X7000000Y2480000D02*
G75*
G03*
X2480000Y7000000I-4520000J0D01*
G01*
X59480000Y7000000D02*
G75*
G03*
X60960000Y8480000I0J1480000D01*
G01*
X1480000Y53960000D02*
G75*
G03*
X0Y52480000I0J-1480000D01*
G01*
X53960000Y58480000D02*
X53960000Y59480000D01*
X0Y52480000D02*
X0Y8480000D01*
X60960000Y52480000D02*
G75*
G03*
X59480000Y53960000I-1480000J0D01*
G01*
X0Y8480000D02*
G75*
G03*
X1480000Y7000000I1480000J0D01*
G01*
X53960000Y59480000D02*
G75*
G03*
X52480000Y60960000I-1480000J0D01*
G01*
X52480000Y0D02*
G75*
G03*
X53960000Y1480000I0J1480000D01*
G01*
X53960000Y1480000D02*
X53960000Y2480000D01*
X2480000Y53960000D02*
G75*
G03*
X7000000Y58480000I0J4520000D01*
G01*
X60960000Y8480000D02*
X60960000Y52480000D01*
X53960000Y58480000D02*
G75*
G03*
X58480000Y53960000I4520000J0D01*
G01*
X59480000Y53960000D02*
X58480000Y53960000D01*
X2480000Y53960000D02*
X1480000Y53960000D01*
X8480000Y0D02*
X52480000Y0D01*
X58480000Y7000000D02*
G75*
G03*
X53960000Y2480000I0J-4520000D01*
G01*
X7000000Y59480000D02*
X7000000Y58480000D01*
X1480000Y7000000D02*
X2480000Y7000000D01*
X8480000Y60960000D02*
G75*
G03*
X7000000Y59480000I0J-1480000D01*
G01*
X58480000Y7000000D02*
X59480000Y7000000D01*
X52480000Y60960000D02*
X8480000Y60960000D01*
X7000000Y1480000D02*
G75*
G03*
X8480000Y0I1480000J0D01*
G01*
M02*
