%TF.GenerationSoftware,KiCad,Pcbnew,7.0.2-0*%
%TF.CreationDate,2024-10-30T20:33:58-04:00*%
%TF.ProjectId,2sliders,32736c69-6465-4727-932e-6b696361645f,rev?*%
%TF.SameCoordinates,Original*%
%TF.FileFunction,Legend,Bot*%
%TF.FilePolarity,Positive*%
%FSLAX46Y46*%
G04 Gerber Fmt 4.6, Leading zero omitted, Abs format (unit mm)*
G04 Created by KiCad (PCBNEW 7.0.2-0) date 2024-10-30 20:33:58*
%MOMM*%
%LPD*%
G01*
G04 APERTURE LIST*
%ADD10C,0.150000*%
%ADD11C,0.120000*%
G04 APERTURE END LIST*
D10*
%TO.C,R6*%
X17612619Y21666666D02*
X17136428Y21999999D01*
X17612619Y22238094D02*
X16612619Y22238094D01*
X16612619Y22238094D02*
X16612619Y21857142D01*
X16612619Y21857142D02*
X16660238Y21761904D01*
X16660238Y21761904D02*
X16707857Y21714285D01*
X16707857Y21714285D02*
X16803095Y21666666D01*
X16803095Y21666666D02*
X16945952Y21666666D01*
X16945952Y21666666D02*
X17041190Y21714285D01*
X17041190Y21714285D02*
X17088809Y21761904D01*
X17088809Y21761904D02*
X17136428Y21857142D01*
X17136428Y21857142D02*
X17136428Y22238094D01*
X16612619Y20809523D02*
X16612619Y20999999D01*
X16612619Y20999999D02*
X16660238Y21095237D01*
X16660238Y21095237D02*
X16707857Y21142856D01*
X16707857Y21142856D02*
X16850714Y21238094D01*
X16850714Y21238094D02*
X17041190Y21285713D01*
X17041190Y21285713D02*
X17422142Y21285713D01*
X17422142Y21285713D02*
X17517380Y21238094D01*
X17517380Y21238094D02*
X17565000Y21190475D01*
X17565000Y21190475D02*
X17612619Y21095237D01*
X17612619Y21095237D02*
X17612619Y20904761D01*
X17612619Y20904761D02*
X17565000Y20809523D01*
X17565000Y20809523D02*
X17517380Y20761904D01*
X17517380Y20761904D02*
X17422142Y20714285D01*
X17422142Y20714285D02*
X17184047Y20714285D01*
X17184047Y20714285D02*
X17088809Y20761904D01*
X17088809Y20761904D02*
X17041190Y20809523D01*
X17041190Y20809523D02*
X16993571Y20904761D01*
X16993571Y20904761D02*
X16993571Y21095237D01*
X16993571Y21095237D02*
X17041190Y21190475D01*
X17041190Y21190475D02*
X17088809Y21238094D01*
X17088809Y21238094D02*
X17184047Y21285713D01*
%TO.C,R5*%
X44612619Y21666666D02*
X44136428Y21999999D01*
X44612619Y22238094D02*
X43612619Y22238094D01*
X43612619Y22238094D02*
X43612619Y21857142D01*
X43612619Y21857142D02*
X43660238Y21761904D01*
X43660238Y21761904D02*
X43707857Y21714285D01*
X43707857Y21714285D02*
X43803095Y21666666D01*
X43803095Y21666666D02*
X43945952Y21666666D01*
X43945952Y21666666D02*
X44041190Y21714285D01*
X44041190Y21714285D02*
X44088809Y21761904D01*
X44088809Y21761904D02*
X44136428Y21857142D01*
X44136428Y21857142D02*
X44136428Y22238094D01*
X43612619Y20761904D02*
X43612619Y21238094D01*
X43612619Y21238094D02*
X44088809Y21285713D01*
X44088809Y21285713D02*
X44041190Y21238094D01*
X44041190Y21238094D02*
X43993571Y21142856D01*
X43993571Y21142856D02*
X43993571Y20904761D01*
X43993571Y20904761D02*
X44041190Y20809523D01*
X44041190Y20809523D02*
X44088809Y20761904D01*
X44088809Y20761904D02*
X44184047Y20714285D01*
X44184047Y20714285D02*
X44422142Y20714285D01*
X44422142Y20714285D02*
X44517380Y20761904D01*
X44517380Y20761904D02*
X44565000Y20809523D01*
X44565000Y20809523D02*
X44612619Y20904761D01*
X44612619Y20904761D02*
X44612619Y21142856D01*
X44612619Y21142856D02*
X44565000Y21238094D01*
X44565000Y21238094D02*
X44517380Y21285713D01*
%TO.C,C2*%
X23547380Y17166666D02*
X23595000Y17214285D01*
X23595000Y17214285D02*
X23642619Y17357142D01*
X23642619Y17357142D02*
X23642619Y17452380D01*
X23642619Y17452380D02*
X23595000Y17595237D01*
X23595000Y17595237D02*
X23499761Y17690475D01*
X23499761Y17690475D02*
X23404523Y17738094D01*
X23404523Y17738094D02*
X23214047Y17785713D01*
X23214047Y17785713D02*
X23071190Y17785713D01*
X23071190Y17785713D02*
X22880714Y17738094D01*
X22880714Y17738094D02*
X22785476Y17690475D01*
X22785476Y17690475D02*
X22690238Y17595237D01*
X22690238Y17595237D02*
X22642619Y17452380D01*
X22642619Y17452380D02*
X22642619Y17357142D01*
X22642619Y17357142D02*
X22690238Y17214285D01*
X22690238Y17214285D02*
X22737857Y17166666D01*
X22737857Y16785713D02*
X22690238Y16738094D01*
X22690238Y16738094D02*
X22642619Y16642856D01*
X22642619Y16642856D02*
X22642619Y16404761D01*
X22642619Y16404761D02*
X22690238Y16309523D01*
X22690238Y16309523D02*
X22737857Y16261904D01*
X22737857Y16261904D02*
X22833095Y16214285D01*
X22833095Y16214285D02*
X22928333Y16214285D01*
X22928333Y16214285D02*
X23071190Y16261904D01*
X23071190Y16261904D02*
X23642619Y16833332D01*
X23642619Y16833332D02*
X23642619Y16214285D01*
%TO.C,R3*%
X48112619Y21666666D02*
X47636428Y21999999D01*
X48112619Y22238094D02*
X47112619Y22238094D01*
X47112619Y22238094D02*
X47112619Y21857142D01*
X47112619Y21857142D02*
X47160238Y21761904D01*
X47160238Y21761904D02*
X47207857Y21714285D01*
X47207857Y21714285D02*
X47303095Y21666666D01*
X47303095Y21666666D02*
X47445952Y21666666D01*
X47445952Y21666666D02*
X47541190Y21714285D01*
X47541190Y21714285D02*
X47588809Y21761904D01*
X47588809Y21761904D02*
X47636428Y21857142D01*
X47636428Y21857142D02*
X47636428Y22238094D01*
X47112619Y21333332D02*
X47112619Y20714285D01*
X47112619Y20714285D02*
X47493571Y21047618D01*
X47493571Y21047618D02*
X47493571Y20904761D01*
X47493571Y20904761D02*
X47541190Y20809523D01*
X47541190Y20809523D02*
X47588809Y20761904D01*
X47588809Y20761904D02*
X47684047Y20714285D01*
X47684047Y20714285D02*
X47922142Y20714285D01*
X47922142Y20714285D02*
X48017380Y20761904D01*
X48017380Y20761904D02*
X48065000Y20809523D01*
X48065000Y20809523D02*
X48112619Y20904761D01*
X48112619Y20904761D02*
X48112619Y21190475D01*
X48112619Y21190475D02*
X48065000Y21285713D01*
X48065000Y21285713D02*
X48017380Y21333332D01*
%TO.C,U2*%
X19862619Y14261904D02*
X20672142Y14261904D01*
X20672142Y14261904D02*
X20767380Y14214285D01*
X20767380Y14214285D02*
X20815000Y14166666D01*
X20815000Y14166666D02*
X20862619Y14071428D01*
X20862619Y14071428D02*
X20862619Y13880952D01*
X20862619Y13880952D02*
X20815000Y13785714D01*
X20815000Y13785714D02*
X20767380Y13738095D01*
X20767380Y13738095D02*
X20672142Y13690476D01*
X20672142Y13690476D02*
X19862619Y13690476D01*
X19957857Y13261904D02*
X19910238Y13214285D01*
X19910238Y13214285D02*
X19862619Y13119047D01*
X19862619Y13119047D02*
X19862619Y12880952D01*
X19862619Y12880952D02*
X19910238Y12785714D01*
X19910238Y12785714D02*
X19957857Y12738095D01*
X19957857Y12738095D02*
X20053095Y12690476D01*
X20053095Y12690476D02*
X20148333Y12690476D01*
X20148333Y12690476D02*
X20291190Y12738095D01*
X20291190Y12738095D02*
X20862619Y13309523D01*
X20862619Y13309523D02*
X20862619Y12690476D01*
%TO.C,R4*%
X21112619Y21666666D02*
X20636428Y21999999D01*
X21112619Y22238094D02*
X20112619Y22238094D01*
X20112619Y22238094D02*
X20112619Y21857142D01*
X20112619Y21857142D02*
X20160238Y21761904D01*
X20160238Y21761904D02*
X20207857Y21714285D01*
X20207857Y21714285D02*
X20303095Y21666666D01*
X20303095Y21666666D02*
X20445952Y21666666D01*
X20445952Y21666666D02*
X20541190Y21714285D01*
X20541190Y21714285D02*
X20588809Y21761904D01*
X20588809Y21761904D02*
X20636428Y21857142D01*
X20636428Y21857142D02*
X20636428Y22238094D01*
X20445952Y20809523D02*
X21112619Y20809523D01*
X20065000Y21047618D02*
X20779285Y21285713D01*
X20779285Y21285713D02*
X20779285Y20666666D01*
%TO.C,J2*%
X25912619Y29083333D02*
X26626904Y29083333D01*
X26626904Y29083333D02*
X26769761Y29130952D01*
X26769761Y29130952D02*
X26865000Y29226190D01*
X26865000Y29226190D02*
X26912619Y29369047D01*
X26912619Y29369047D02*
X26912619Y29464285D01*
X26007857Y28654761D02*
X25960238Y28607142D01*
X25960238Y28607142D02*
X25912619Y28511904D01*
X25912619Y28511904D02*
X25912619Y28273809D01*
X25912619Y28273809D02*
X25960238Y28178571D01*
X25960238Y28178571D02*
X26007857Y28130952D01*
X26007857Y28130952D02*
X26103095Y28083333D01*
X26103095Y28083333D02*
X26198333Y28083333D01*
X26198333Y28083333D02*
X26341190Y28130952D01*
X26341190Y28130952D02*
X26912619Y28702380D01*
X26912619Y28702380D02*
X26912619Y28083333D01*
%TO.C,U1*%
X46767619Y14336904D02*
X47577142Y14336904D01*
X47577142Y14336904D02*
X47672380Y14289285D01*
X47672380Y14289285D02*
X47720000Y14241666D01*
X47720000Y14241666D02*
X47767619Y14146428D01*
X47767619Y14146428D02*
X47767619Y13955952D01*
X47767619Y13955952D02*
X47720000Y13860714D01*
X47720000Y13860714D02*
X47672380Y13813095D01*
X47672380Y13813095D02*
X47577142Y13765476D01*
X47577142Y13765476D02*
X46767619Y13765476D01*
X47767619Y12765476D02*
X47767619Y13336904D01*
X47767619Y13051190D02*
X46767619Y13051190D01*
X46767619Y13051190D02*
X46910476Y13146428D01*
X46910476Y13146428D02*
X47005714Y13241666D01*
X47005714Y13241666D02*
X47053333Y13336904D01*
%TO.C,C1*%
X50547380Y17166666D02*
X50595000Y17214285D01*
X50595000Y17214285D02*
X50642619Y17357142D01*
X50642619Y17357142D02*
X50642619Y17452380D01*
X50642619Y17452380D02*
X50595000Y17595237D01*
X50595000Y17595237D02*
X50499761Y17690475D01*
X50499761Y17690475D02*
X50404523Y17738094D01*
X50404523Y17738094D02*
X50214047Y17785713D01*
X50214047Y17785713D02*
X50071190Y17785713D01*
X50071190Y17785713D02*
X49880714Y17738094D01*
X49880714Y17738094D02*
X49785476Y17690475D01*
X49785476Y17690475D02*
X49690238Y17595237D01*
X49690238Y17595237D02*
X49642619Y17452380D01*
X49642619Y17452380D02*
X49642619Y17357142D01*
X49642619Y17357142D02*
X49690238Y17214285D01*
X49690238Y17214285D02*
X49737857Y17166666D01*
X50642619Y16214285D02*
X50642619Y16785713D01*
X50642619Y16499999D02*
X49642619Y16499999D01*
X49642619Y16499999D02*
X49785476Y16595237D01*
X49785476Y16595237D02*
X49880714Y16690475D01*
X49880714Y16690475D02*
X49928333Y16785713D01*
D11*
%TO.C,R6*%
X14765000Y21272936D02*
X14765000Y21727064D01*
X16235000Y21272936D02*
X16235000Y21727064D01*
%TO.C,R5*%
X41765000Y21272936D02*
X41765000Y21727064D01*
X43235000Y21272936D02*
X43235000Y21727064D01*
%TO.C,C2*%
X20765000Y16738748D02*
X20765000Y17261252D01*
X22235000Y16738748D02*
X22235000Y17261252D01*
%TO.C,R3*%
X45265000Y21272936D02*
X45265000Y21727064D01*
X46735000Y21272936D02*
X46735000Y21727064D01*
%TO.C,U2*%
X14440000Y13500000D02*
X14440000Y11550000D01*
X14440000Y13500000D02*
X14440000Y15450000D01*
X19560000Y13500000D02*
X19560000Y10050000D01*
X19560000Y13500000D02*
X19560000Y15450000D01*
%TO.C,R4*%
X18265000Y21272936D02*
X18265000Y21727064D01*
X19735000Y21272936D02*
X19735000Y21727064D01*
%TO.C,J2*%
X27250000Y40350000D02*
X28500000Y40350000D01*
X33510000Y40060000D02*
X33510000Y17440000D01*
X27540000Y40060000D02*
X33510000Y40060000D01*
X29800000Y40050000D02*
X29800000Y39300000D01*
X28300000Y40050000D02*
X28300000Y38250000D01*
X27550000Y40050000D02*
X28300000Y40050000D01*
X32750000Y39300000D02*
X32750000Y28750000D01*
X29800000Y39300000D02*
X32750000Y39300000D01*
X27250000Y39100000D02*
X27250000Y40350000D01*
X28300000Y38250000D02*
X27550000Y38250000D01*
X27550000Y38250000D02*
X27550000Y40050000D01*
X28300000Y36750000D02*
X28300000Y20750000D01*
X27550000Y36750000D02*
X28300000Y36750000D01*
X28300000Y20750000D02*
X27550000Y20750000D01*
X27550000Y20750000D02*
X27550000Y36750000D01*
X28300000Y19250000D02*
X28300000Y17450000D01*
X27550000Y19250000D02*
X28300000Y19250000D01*
X32750000Y18200000D02*
X32750000Y28750000D01*
X29800000Y18200000D02*
X32750000Y18200000D01*
X29800000Y17450000D02*
X29800000Y18200000D01*
X28300000Y17450000D02*
X27550000Y17450000D01*
X27550000Y17450000D02*
X27550000Y19250000D01*
X33510000Y17440000D02*
X27540000Y17440000D01*
X27540000Y17440000D02*
X27540000Y40060000D01*
%TO.C,U1*%
X41345000Y13575000D02*
X41345000Y11625000D01*
X41345000Y13575000D02*
X41345000Y15525000D01*
X46465000Y13575000D02*
X46465000Y10125000D01*
X46465000Y13575000D02*
X46465000Y15525000D01*
%TO.C,C1*%
X47765000Y16738748D02*
X47765000Y17261252D01*
X49235000Y16738748D02*
X49235000Y17261252D01*
%TD*%
M02*
