%TF.GenerationSoftware,KiCad,Pcbnew,7.0.2-0*%
%TF.CreationDate,2024-10-30T20:33:57-04:00*%
%TF.ProjectId,2sliders,32736c69-6465-4727-932e-6b696361645f,rev?*%
%TF.SameCoordinates,Original*%
%TF.FileFunction,Copper,L2,Bot*%
%TF.FilePolarity,Positive*%
%FSLAX46Y46*%
G04 Gerber Fmt 4.6, Leading zero omitted, Abs format (unit mm)*
G04 Created by KiCad (PCBNEW 7.0.2-0) date 2024-10-30 20:33:57*
%MOMM*%
%LPD*%
G01*
G04 APERTURE LIST*
G04 Aperture macros list*
%AMRoundRect*
0 Rectangle with rounded corners*
0 $1 Rounding radius*
0 $2 $3 $4 $5 $6 $7 $8 $9 X,Y pos of 4 corners*
0 Add a 4 corners polygon primitive as box body*
4,1,4,$2,$3,$4,$5,$6,$7,$8,$9,$2,$3,0*
0 Add four circle primitives for the rounded corners*
1,1,$1+$1,$2,$3*
1,1,$1+$1,$4,$5*
1,1,$1+$1,$6,$7*
1,1,$1+$1,$8,$9*
0 Add four rect primitives between the rounded corners*
20,1,$1+$1,$2,$3,$4,$5,0*
20,1,$1+$1,$4,$5,$6,$7,0*
20,1,$1+$1,$6,$7,$8,$9,0*
20,1,$1+$1,$8,$9,$2,$3,0*%
G04 Aperture macros list end*
%TA.AperFunction,ComponentPad*%
%ADD10C,5.600000*%
%TD*%
%TA.AperFunction,ComponentPad*%
%ADD11C,1.800000*%
%TD*%
%TA.AperFunction,SMDPad,CuDef*%
%ADD12RoundRect,0.250000X0.450000X-0.350000X0.450000X0.350000X-0.450000X0.350000X-0.450000X-0.350000X0*%
%TD*%
%TA.AperFunction,SMDPad,CuDef*%
%ADD13RoundRect,0.250000X0.475000X-0.337500X0.475000X0.337500X-0.475000X0.337500X-0.475000X-0.337500X0*%
%TD*%
%TA.AperFunction,SMDPad,CuDef*%
%ADD14RoundRect,0.150000X0.150000X-0.725000X0.150000X0.725000X-0.150000X0.725000X-0.150000X-0.725000X0*%
%TD*%
%TA.AperFunction,ComponentPad*%
%ADD15RoundRect,0.250000X-0.725000X0.600000X-0.725000X-0.600000X0.725000X-0.600000X0.725000X0.600000X0*%
%TD*%
%TA.AperFunction,ComponentPad*%
%ADD16O,1.950000X1.700000*%
%TD*%
%TA.AperFunction,ViaPad*%
%ADD17C,0.800000*%
%TD*%
%TA.AperFunction,Conductor*%
%ADD18C,0.500000*%
%TD*%
G04 APERTURE END LIST*
D10*
%TO.P,H4,1*%
%TO.N,N/C*%
X56500000Y11500000D03*
%TD*%
%TO.P,H2,1*%
%TO.N,N/C*%
X4500000Y11500000D03*
%TD*%
D11*
%TO.P,R1,1,1*%
%TO.N,AREF*%
X42750000Y3000000D03*
%TO.P,R1,2,2*%
%TO.N,TRIGGER 1*%
X40250000Y3000000D03*
%TO.P,R1,3,3*%
%TO.N,GND*%
X42750000Y58000000D03*
%TO.P,R1,B,B*%
%TO.N,+5V*%
X47750000Y58000000D03*
%TO.P,R1,E,E*%
%TO.N,Net-(U1-OUTR)*%
X47750000Y3000000D03*
%TO.P,R1,L*%
%TO.N,N/C*%
X45250000Y3000000D03*
%TD*%
D10*
%TO.P,H3,1*%
%TO.N,N/C*%
X56500000Y49500000D03*
%TD*%
D11*
%TO.P,R2,1,1*%
%TO.N,AREF*%
X15750000Y3000000D03*
%TO.P,R2,2,2*%
%TO.N,TRIGGER 2*%
X13250000Y3000000D03*
%TO.P,R2,3,3*%
%TO.N,GND*%
X15750000Y58000000D03*
%TO.P,R2,B,B*%
%TO.N,+5V*%
X20750000Y58000000D03*
%TO.P,R2,E,E*%
%TO.N,Net-(U2-OUTR)*%
X20750000Y3000000D03*
%TO.P,R2,L*%
%TO.N,N/C*%
X18250000Y3000000D03*
%TD*%
D10*
%TO.P,H1,1*%
%TO.N,N/C*%
X4500000Y49500000D03*
%TD*%
D12*
%TO.P,R6,1*%
%TO.N,Net-(U2-DO)*%
X15500000Y20500000D03*
%TO.P,R6,2*%
%TO.N,DOUT*%
X15500000Y22500000D03*
%TD*%
%TO.P,R5,1*%
%TO.N,Net-(U1-DIN)*%
X42500000Y20500000D03*
%TO.P,R5,2*%
%TO.N,DIN*%
X42500000Y22500000D03*
%TD*%
D13*
%TO.P,C2,1*%
%TO.N,GND*%
X21500000Y15962500D03*
%TO.P,C2,2*%
%TO.N,Net-(U2-VDD)*%
X21500000Y18037500D03*
%TD*%
D12*
%TO.P,R3,1*%
%TO.N,Net-(U1-VDD)*%
X46000000Y20500000D03*
%TO.P,R3,2*%
%TO.N,+5V*%
X46000000Y22500000D03*
%TD*%
D14*
%TO.P,U2,1,OUTR*%
%TO.N,Net-(U2-OUTR)*%
X18905000Y10925000D03*
%TO.P,U2,2,OUTG*%
%TO.N,unconnected-(U2-OUTG-Pad2)*%
X17635000Y10925000D03*
%TO.P,U2,3,OUTB*%
%TO.N,unconnected-(U2-OUTB-Pad3)*%
X16365000Y10925000D03*
%TO.P,U2,4,GND*%
%TO.N,GND*%
X15095000Y10925000D03*
%TO.P,U2,5,DO*%
%TO.N,Net-(U2-DO)*%
X15095000Y16075000D03*
%TO.P,U2,6,DIN*%
%TO.N,Net-(U1-DO)*%
X16365000Y16075000D03*
%TO.P,U2,7,SET*%
%TO.N,unconnected-(U2-SET-Pad7)*%
X17635000Y16075000D03*
%TO.P,U2,8,VDD*%
%TO.N,Net-(U2-VDD)*%
X18905000Y16075000D03*
%TD*%
D12*
%TO.P,R4,1*%
%TO.N,Net-(U2-VDD)*%
X19000000Y20500000D03*
%TO.P,R4,2*%
%TO.N,+5V*%
X19000000Y22500000D03*
%TD*%
D15*
%TO.P,J2,1,Pin_1*%
%TO.N,+5V*%
X30000000Y37500000D03*
D16*
%TO.P,J2,2,Pin_2*%
%TO.N,GND*%
X30000000Y35000000D03*
%TO.P,J2,3,Pin_3*%
%TO.N,DIN*%
X30000000Y32500000D03*
%TO.P,J2,4,Pin_4*%
%TO.N,DOUT*%
X30000000Y30000000D03*
%TO.P,J2,5,Pin_5*%
%TO.N,AREF*%
X30000000Y27500000D03*
%TO.P,J2,6,Pin_6*%
%TO.N,TRIGGER 1*%
X30000000Y25000000D03*
%TO.P,J2,7,Pin_7*%
%TO.N,TRIGGER 2*%
X30000000Y22500000D03*
%TO.P,J2,8,Pin_8*%
%TO.N,unconnected-(J2-Pin_8-Pad8)*%
X30000000Y20000000D03*
%TD*%
D14*
%TO.P,U1,1,OUTR*%
%TO.N,Net-(U1-OUTR)*%
X45810000Y11000000D03*
%TO.P,U1,2,OUTG*%
%TO.N,unconnected-(U1-OUTG-Pad2)*%
X44540000Y11000000D03*
%TO.P,U1,3,OUTB*%
%TO.N,unconnected-(U1-OUTB-Pad3)*%
X43270000Y11000000D03*
%TO.P,U1,4,GND*%
%TO.N,GND*%
X42000000Y11000000D03*
%TO.P,U1,5,DO*%
%TO.N,Net-(U1-DO)*%
X42000000Y16150000D03*
%TO.P,U1,6,DIN*%
%TO.N,Net-(U1-DIN)*%
X43270000Y16150000D03*
%TO.P,U1,7,SET*%
%TO.N,unconnected-(U1-SET-Pad7)*%
X44540000Y16150000D03*
%TO.P,U1,8,VDD*%
%TO.N,Net-(U1-VDD)*%
X45810000Y16150000D03*
%TD*%
D13*
%TO.P,C1,1*%
%TO.N,GND*%
X48500000Y15962500D03*
%TO.P,C1,2*%
%TO.N,Net-(U1-VDD)*%
X48500000Y18037500D03*
%TD*%
D17*
%TO.N,+5V*%
X46000000Y24500000D03*
X19000000Y24500000D03*
%TO.N,DIN*%
X42500000Y24500000D03*
%TO.N,DOUT*%
X15500000Y24500000D03*
%TO.N,AREF*%
X22750000Y5000000D03*
%TO.N,TRIGGER 1*%
X32000000Y6250000D03*
%TO.N,TRIGGER 2*%
X22000000Y6250000D03*
%TO.N,Net-(U1-DO)*%
X28750000Y14000000D03*
X34250000Y14000000D03*
%TD*%
D18*
%TO.N,Net-(U1-VDD)*%
X45810000Y18000000D02*
X45810000Y20310000D01*
X45810000Y20310000D02*
X46000000Y20500000D01*
X45810000Y16150000D02*
X45810000Y18000000D01*
X48500000Y18037500D02*
X45847500Y18037500D01*
X45847500Y18037500D02*
X45810000Y18000000D01*
%TO.N,Net-(U2-VDD)*%
X18905000Y16075000D02*
X18905000Y18000000D01*
X21500000Y18037500D02*
X18942500Y18037500D01*
X18942500Y18037500D02*
X18905000Y18000000D01*
X18905000Y18000000D02*
X18905000Y20405000D01*
X18905000Y20405000D02*
X19000000Y20500000D01*
%TO.N,+5V*%
X19000000Y22500000D02*
X19000000Y24500000D01*
X46000000Y22500000D02*
X46000000Y24500000D01*
%TO.N,DIN*%
X42500000Y24500000D02*
X42500000Y22500000D01*
%TO.N,DOUT*%
X15500000Y24500000D02*
X15500000Y22500000D01*
%TO.N,AREF*%
X34250000Y5000000D02*
X40750000Y5000000D01*
X33000000Y5000000D02*
X34250000Y5000000D01*
X34250000Y5000000D02*
X22750000Y5000000D01*
X33000000Y26250000D02*
X33000000Y5000000D01*
X30000000Y27500000D02*
X31750000Y27500000D01*
X40750000Y5000000D02*
X42750000Y3000000D01*
X31750000Y27500000D02*
X33000000Y26250000D01*
%TO.N,TRIGGER 1*%
X31250000Y25000000D02*
X30000000Y25000000D01*
X32000000Y24250000D02*
X31250000Y25000000D01*
X32000000Y6250000D02*
X32000000Y24250000D01*
%TO.N,TRIGGER 2*%
X30000000Y22500000D02*
X27750000Y20250000D01*
X29000000Y6250000D02*
X22000000Y6250000D01*
X30000000Y7250000D02*
X29000000Y6250000D01*
X27750000Y17750000D02*
X30000000Y15500000D01*
X30000000Y15500000D02*
X30000000Y7250000D01*
X27750000Y20250000D02*
X27750000Y17750000D01*
%TO.N,Net-(U1-OUTR)*%
X47750000Y3000000D02*
X47750000Y5250000D01*
X47750000Y5250000D02*
X45810000Y7190000D01*
X45810000Y7190000D02*
X45810000Y11000000D01*
%TO.N,Net-(U2-OUTR)*%
X18905000Y7345000D02*
X18905000Y10925000D01*
X20750000Y5500000D02*
X18905000Y7345000D01*
X20750000Y3000000D02*
X20750000Y5500000D01*
%TO.N,Net-(U1-DIN)*%
X43270000Y19730000D02*
X42500000Y20500000D01*
X43270000Y16150000D02*
X43270000Y19730000D01*
%TO.N,Net-(U2-DO)*%
X15095000Y16075000D02*
X15095000Y20095000D01*
X15095000Y20095000D02*
X15500000Y20500000D01*
%TO.N,Net-(U1-DO)*%
X17000000Y14000000D02*
X28750000Y14000000D01*
X34250000Y14000000D02*
X41250000Y14000000D01*
X41250000Y14000000D02*
X42000000Y14750000D01*
X16365000Y16075000D02*
X16365000Y14635000D01*
X16365000Y14635000D02*
X17000000Y14000000D01*
X42000000Y14750000D02*
X42000000Y16150000D01*
%TD*%
%TA.AperFunction,Conductor*%
%TO.N,GND*%
G36*
X52488057Y59908439D02*
G01*
X52509076Y59905671D01*
X52574978Y59896995D01*
X52606243Y59888617D01*
X52679667Y59858204D01*
X52707701Y59842019D01*
X52770750Y59793640D01*
X52793640Y59770750D01*
X52842019Y59707701D01*
X52858204Y59679667D01*
X52888617Y59606243D01*
X52896995Y59574978D01*
X52908439Y59488061D01*
X52909500Y59471874D01*
X52909500Y58496408D01*
X52909500Y58480000D01*
X52909500Y58261134D01*
X52909690Y58258715D01*
X52909691Y58258699D01*
X52938941Y57887047D01*
X52943844Y57824753D01*
X52944226Y57822340D01*
X52944227Y57822333D01*
X53011939Y57394811D01*
X53011943Y57394789D01*
X53012320Y57392411D01*
X53012884Y57390060D01*
X53012886Y57390052D01*
X53078484Y57116818D01*
X53114506Y56966774D01*
X53115256Y56964463D01*
X53115258Y56964459D01*
X53249019Y56552785D01*
X53249025Y56552766D01*
X53249773Y56550467D01*
X53250698Y56548232D01*
X53250705Y56548215D01*
X53416350Y56148313D01*
X53416355Y56148301D01*
X53417285Y56146057D01*
X53418385Y56143897D01*
X53418392Y56143883D01*
X53614908Y55758198D01*
X53614917Y55758180D01*
X53616011Y55756035D01*
X53617269Y55753981D01*
X53617282Y55753959D01*
X53843442Y55384900D01*
X53843454Y55384881D01*
X53844725Y55382808D01*
X53846160Y55380831D01*
X53846168Y55380821D01*
X54100584Y55030647D01*
X54100596Y55030631D01*
X54102017Y55028676D01*
X54103586Y55026838D01*
X54103597Y55026825D01*
X54384712Y54697681D01*
X54384726Y54697665D01*
X54386300Y54695823D01*
X54388018Y54694104D01*
X54388031Y54694091D01*
X54694091Y54388031D01*
X54694104Y54388018D01*
X54695823Y54386300D01*
X54697665Y54384726D01*
X54697681Y54384712D01*
X55026825Y54103597D01*
X55026838Y54103586D01*
X55028676Y54102017D01*
X55030631Y54100596D01*
X55030647Y54100584D01*
X55380821Y53846168D01*
X55380831Y53846160D01*
X55382808Y53844725D01*
X55384881Y53843454D01*
X55384900Y53843442D01*
X55753959Y53617282D01*
X55753981Y53617269D01*
X55756035Y53616011D01*
X55758180Y53614917D01*
X55758198Y53614908D01*
X56143883Y53418392D01*
X56143897Y53418385D01*
X56146057Y53417285D01*
X56148301Y53416355D01*
X56148313Y53416350D01*
X56548215Y53250705D01*
X56548232Y53250698D01*
X56550467Y53249773D01*
X56552766Y53249025D01*
X56552785Y53249019D01*
X56964459Y53115258D01*
X56964463Y53115256D01*
X56966774Y53114506D01*
X56969133Y53113939D01*
X56969139Y53113938D01*
X57390052Y53012886D01*
X57390060Y53012884D01*
X57392411Y53012320D01*
X57394789Y53011943D01*
X57394811Y53011939D01*
X57822333Y52944227D01*
X57822340Y52944226D01*
X57824753Y52943844D01*
X57827175Y52943653D01*
X57827187Y52943652D01*
X58258699Y52909691D01*
X58258715Y52909690D01*
X58261134Y52909500D01*
X58469955Y52909500D01*
X59463592Y52909500D01*
X59471874Y52909500D01*
X59488057Y52908439D01*
X59509076Y52905671D01*
X59574978Y52896995D01*
X59606243Y52888617D01*
X59679667Y52858204D01*
X59707701Y52842019D01*
X59770750Y52793640D01*
X59793640Y52770750D01*
X59842019Y52707701D01*
X59858204Y52679667D01*
X59888617Y52606243D01*
X59896995Y52574978D01*
X59908439Y52488061D01*
X59909500Y52471874D01*
X59909500Y50467213D01*
X59889815Y50400174D01*
X59837011Y50354419D01*
X59767853Y50344475D01*
X59704297Y50373500D01*
X59666523Y50432278D01*
X59666020Y50434040D01*
X59632324Y50555403D01*
X59499853Y50887880D01*
X59332211Y51204085D01*
X59131365Y51500311D01*
X58899668Y51773086D01*
X58639837Y52019211D01*
X58354919Y52235800D01*
X58048253Y52420315D01*
X57723435Y52570591D01*
X57384274Y52684868D01*
X57034746Y52761805D01*
X56678948Y52800500D01*
X56321052Y52800500D01*
X55965254Y52761805D01*
X55615726Y52684868D01*
X55276565Y52570591D01*
X54951747Y52420315D01*
X54645081Y52235800D01*
X54360163Y52019211D01*
X54357732Y52016908D01*
X54102769Y51775395D01*
X54102763Y51775389D01*
X54100332Y51773086D01*
X53868635Y51500311D01*
X53667789Y51204085D01*
X53500147Y50887880D01*
X53367676Y50555403D01*
X53366773Y50552152D01*
X53366773Y50552151D01*
X53293980Y50289972D01*
X53271929Y50210552D01*
X53271387Y50207248D01*
X53271384Y50207233D01*
X53214573Y49860697D01*
X53214028Y49857371D01*
X53213846Y49854018D01*
X53213845Y49854007D01*
X53196108Y49526862D01*
X53194652Y49500000D01*
X53194834Y49496643D01*
X53213845Y49145992D01*
X53213846Y49145979D01*
X53214028Y49142629D01*
X53214572Y49139309D01*
X53214573Y49139302D01*
X53271384Y48792766D01*
X53271388Y48792747D01*
X53271929Y48789448D01*
X53272826Y48786214D01*
X53272828Y48786209D01*
X53343190Y48532786D01*
X53367676Y48444597D01*
X53368922Y48441468D01*
X53368924Y48441464D01*
X53498902Y48115243D01*
X53498906Y48115232D01*
X53500147Y48112120D01*
X53501717Y48109157D01*
X53501722Y48109148D01*
X53666212Y47798889D01*
X53667789Y47795915D01*
X53669671Y47793138D01*
X53669679Y47793126D01*
X53866748Y47502471D01*
X53866755Y47502461D01*
X53868635Y47499689D01*
X53870802Y47497137D01*
X53870808Y47497130D01*
X54098158Y47229472D01*
X54098169Y47229459D01*
X54100332Y47226914D01*
X54102754Y47224619D01*
X54102769Y47224604D01*
X54357732Y46983091D01*
X54357739Y46983084D01*
X54360163Y46980789D01*
X54362814Y46978773D01*
X54362822Y46978767D01*
X54642412Y46766228D01*
X54642423Y46766220D01*
X54645081Y46764200D01*
X54647945Y46762476D01*
X54647958Y46762468D01*
X54948864Y46581419D01*
X54948873Y46581414D01*
X54951747Y46579685D01*
X54954792Y46578275D01*
X54954802Y46578271D01*
X55273509Y46430822D01*
X55273522Y46430816D01*
X55276565Y46429409D01*
X55279749Y46428336D01*
X55279752Y46428335D01*
X55612542Y46316204D01*
X55612555Y46316200D01*
X55615726Y46315132D01*
X55618988Y46314413D01*
X55619006Y46314409D01*
X55961966Y46238918D01*
X55961979Y46238915D01*
X55965254Y46238195D01*
X55968598Y46237831D01*
X55968600Y46237831D01*
X56317713Y46199863D01*
X56317715Y46199862D01*
X56321052Y46199500D01*
X56324410Y46199500D01*
X56675590Y46199500D01*
X56678948Y46199500D01*
X57034746Y46238195D01*
X57038023Y46238916D01*
X57038033Y46238918D01*
X57380993Y46314409D01*
X57381006Y46314412D01*
X57384274Y46315132D01*
X57387448Y46316201D01*
X57387457Y46316204D01*
X57720247Y46428335D01*
X57723435Y46429409D01*
X57726483Y46430819D01*
X57726490Y46430822D01*
X58045197Y46578271D01*
X58045199Y46578272D01*
X58048253Y46579685D01*
X58051135Y46581419D01*
X58352041Y46762468D01*
X58352045Y46762471D01*
X58354919Y46764200D01*
X58639837Y46980789D01*
X58701252Y47038964D01*
X58897230Y47224604D01*
X58897235Y47224609D01*
X58899668Y47226914D01*
X59131365Y47499689D01*
X59332211Y47795915D01*
X59499853Y48112120D01*
X59632324Y48444597D01*
X59666020Y48565960D01*
X59702922Y48625289D01*
X59766042Y48655250D01*
X59835340Y48646329D01*
X59888814Y48601359D01*
X59909486Y48534618D01*
X59909500Y48532786D01*
X59909500Y12467213D01*
X59889815Y12400174D01*
X59837011Y12354419D01*
X59767853Y12344475D01*
X59704297Y12373500D01*
X59666523Y12432278D01*
X59666020Y12434040D01*
X59632324Y12555403D01*
X59499853Y12887880D01*
X59332211Y13204085D01*
X59131365Y13500311D01*
X58899668Y13773086D01*
X58639837Y14019211D01*
X58354919Y14235800D01*
X58048253Y14420315D01*
X57723435Y14570591D01*
X57384274Y14684868D01*
X57034746Y14761805D01*
X56678948Y14800500D01*
X56321052Y14800500D01*
X55965254Y14761805D01*
X55615726Y14684868D01*
X55276565Y14570591D01*
X54951747Y14420315D01*
X54645081Y14235800D01*
X54360163Y14019211D01*
X54357732Y14016908D01*
X54102769Y13775395D01*
X54102763Y13775389D01*
X54100332Y13773086D01*
X53868635Y13500311D01*
X53866748Y13497528D01*
X53682524Y13225817D01*
X53667789Y13204085D01*
X53500147Y12887880D01*
X53367676Y12555403D01*
X53366773Y12552152D01*
X53366773Y12552151D01*
X53296097Y12297598D01*
X53271929Y12210552D01*
X53271387Y12207248D01*
X53271384Y12207233D01*
X53222721Y11910398D01*
X53214028Y11857371D01*
X53213846Y11854018D01*
X53213845Y11854007D01*
X53206214Y11713248D01*
X53194652Y11500000D01*
X53194834Y11496643D01*
X53213845Y11145992D01*
X53213846Y11145979D01*
X53214028Y11142629D01*
X53214572Y11139309D01*
X53214573Y11139302D01*
X53271384Y10792766D01*
X53271388Y10792747D01*
X53271929Y10789448D01*
X53272826Y10786214D01*
X53272828Y10786209D01*
X53343190Y10532786D01*
X53367676Y10444597D01*
X53368922Y10441468D01*
X53368924Y10441464D01*
X53498902Y10115243D01*
X53498906Y10115232D01*
X53500147Y10112120D01*
X53501717Y10109157D01*
X53501722Y10109148D01*
X53626849Y9873135D01*
X53667789Y9795915D01*
X53669671Y9793138D01*
X53669679Y9793126D01*
X53866748Y9502471D01*
X53866755Y9502461D01*
X53868635Y9499689D01*
X53870802Y9497137D01*
X53870808Y9497130D01*
X54098158Y9229472D01*
X54098169Y9229459D01*
X54100332Y9226914D01*
X54102754Y9224619D01*
X54102769Y9224604D01*
X54357732Y8983091D01*
X54357739Y8983084D01*
X54360163Y8980789D01*
X54362814Y8978773D01*
X54362822Y8978767D01*
X54642412Y8766228D01*
X54642423Y8766220D01*
X54645081Y8764200D01*
X54647945Y8762476D01*
X54647958Y8762468D01*
X54948864Y8581419D01*
X54948873Y8581414D01*
X54951747Y8579685D01*
X54954792Y8578275D01*
X54954802Y8578271D01*
X55273509Y8430822D01*
X55273522Y8430816D01*
X55276565Y8429409D01*
X55279749Y8428336D01*
X55279752Y8428335D01*
X55612542Y8316204D01*
X55612555Y8316200D01*
X55615726Y8315132D01*
X55618988Y8314413D01*
X55619006Y8314409D01*
X55961966Y8238918D01*
X55961979Y8238915D01*
X55965254Y8238195D01*
X55968598Y8237831D01*
X55968600Y8237831D01*
X56317713Y8199863D01*
X56317715Y8199862D01*
X56321052Y8199500D01*
X56324410Y8199500D01*
X56675590Y8199500D01*
X56678948Y8199500D01*
X57034746Y8238195D01*
X57038023Y8238916D01*
X57038033Y8238918D01*
X57380993Y8314409D01*
X57381006Y8314412D01*
X57384274Y8315132D01*
X57387448Y8316201D01*
X57387457Y8316204D01*
X57635005Y8399613D01*
X57723435Y8429409D01*
X57726483Y8430819D01*
X57726490Y8430822D01*
X58045197Y8578271D01*
X58045199Y8578272D01*
X58048253Y8579685D01*
X58051135Y8581419D01*
X58352041Y8762468D01*
X58352045Y8762471D01*
X58354919Y8764200D01*
X58639837Y8980789D01*
X58701252Y9038964D01*
X58897230Y9224604D01*
X58897235Y9224609D01*
X58899668Y9226914D01*
X59131365Y9499689D01*
X59332211Y9795915D01*
X59499853Y10112120D01*
X59632324Y10444597D01*
X59666020Y10565960D01*
X59702922Y10625289D01*
X59766042Y10655250D01*
X59835340Y10646329D01*
X59888814Y10601359D01*
X59909486Y10534618D01*
X59909500Y10532786D01*
X59909500Y8488125D01*
X59908439Y8471938D01*
X59896995Y8385021D01*
X59888617Y8353756D01*
X59858204Y8280332D01*
X59842019Y8252298D01*
X59793640Y8189249D01*
X59770752Y8166361D01*
X59728989Y8134314D01*
X59707701Y8117980D01*
X59679667Y8101795D01*
X59606243Y8071382D01*
X59574976Y8063004D01*
X59488059Y8051561D01*
X59471874Y8050500D01*
X58496408Y8050500D01*
X58480000Y8050500D01*
X58261134Y8050500D01*
X57824753Y8016156D01*
X57392411Y7947680D01*
X56966774Y7845494D01*
X56550467Y7710227D01*
X56146057Y7542715D01*
X55756035Y7343989D01*
X55753962Y7342718D01*
X55753959Y7342717D01*
X55493131Y7182881D01*
X55382808Y7115275D01*
X55028676Y6857983D01*
X55001516Y6834786D01*
X54787048Y6651613D01*
X54695823Y6573700D01*
X54386300Y6264177D01*
X54384715Y6262321D01*
X54384712Y6262318D01*
X54221579Y6071313D01*
X54102017Y5931324D01*
X54100587Y5929356D01*
X54100584Y5929352D01*
X53941660Y5710612D01*
X53844725Y5577192D01*
X53843446Y5575106D01*
X53843442Y5575099D01*
X53617282Y5206040D01*
X53617276Y5206029D01*
X53616011Y5203965D01*
X53614912Y5201808D01*
X53614908Y5201801D01*
X53499577Y4975450D01*
X53417285Y4813943D01*
X53416351Y4811688D01*
X53416350Y4811686D01*
X53341804Y4631715D01*
X53249773Y4409533D01*
X53249023Y4407225D01*
X53249019Y4407214D01*
X53175522Y4181012D01*
X53114506Y3993226D01*
X53113938Y3990860D01*
X53067838Y3798837D01*
X53012320Y3567589D01*
X53011942Y3565205D01*
X53011939Y3565188D01*
X52959058Y3231305D01*
X52943844Y3135247D01*
X52943653Y3132821D01*
X52943652Y3132812D01*
X52909691Y2701300D01*
X52909690Y2701285D01*
X52909500Y2698866D01*
X52909500Y2696420D01*
X52909500Y1488125D01*
X52908439Y1471938D01*
X52896995Y1385021D01*
X52888617Y1353756D01*
X52858204Y1280332D01*
X52842019Y1252298D01*
X52793640Y1189249D01*
X52770752Y1166361D01*
X52728989Y1134314D01*
X52707701Y1117980D01*
X52679667Y1101795D01*
X52606243Y1071382D01*
X52574976Y1063004D01*
X52488059Y1051561D01*
X52471874Y1050500D01*
X8488126Y1050500D01*
X8471941Y1051561D01*
X8385023Y1063004D01*
X8353756Y1071382D01*
X8280332Y1101795D01*
X8252300Y1117978D01*
X8189243Y1166364D01*
X8166364Y1189243D01*
X8117978Y1252300D01*
X8101795Y1280332D01*
X8071382Y1353756D01*
X8063004Y1385023D01*
X8051561Y1471940D01*
X8050500Y1488125D01*
X8050500Y2696420D01*
X8050500Y2698866D01*
X8026800Y3000000D01*
X11844699Y3000000D01*
X11863865Y2768700D01*
X11863865Y2768696D01*
X11863866Y2768695D01*
X11918201Y2554132D01*
X11920844Y2543696D01*
X12014076Y2331150D01*
X12141020Y2136848D01*
X12298215Y1966087D01*
X12481372Y1823531D01*
X12685501Y1713062D01*
X12905015Y1637702D01*
X13088164Y1607140D01*
X13133951Y1599500D01*
X13133952Y1599500D01*
X13366048Y1599500D01*
X13366049Y1599500D01*
X13423282Y1609050D01*
X13594984Y1637702D01*
X13814498Y1713062D01*
X13814499Y1713062D01*
X13814503Y1713064D01*
X14018626Y1823530D01*
X14201784Y1966087D01*
X14358979Y2136847D01*
X14396192Y2193805D01*
X14449338Y2239161D01*
X14518569Y2248585D01*
X14581905Y2219083D01*
X14603807Y2193807D01*
X14641021Y2136847D01*
X14641022Y2136846D01*
X14798215Y1966087D01*
X14981372Y1823531D01*
X15185501Y1713062D01*
X15405015Y1637702D01*
X15588164Y1607140D01*
X15633951Y1599500D01*
X15633952Y1599500D01*
X15866048Y1599500D01*
X15866049Y1599500D01*
X15923282Y1609050D01*
X16094984Y1637702D01*
X16314498Y1713062D01*
X16314499Y1713062D01*
X16314503Y1713064D01*
X16518626Y1823530D01*
X16701784Y1966087D01*
X16858979Y2136847D01*
X16896192Y2193805D01*
X16949338Y2239161D01*
X17018569Y2248585D01*
X17081905Y2219083D01*
X17103807Y2193807D01*
X17141021Y2136847D01*
X17141022Y2136846D01*
X17298215Y1966087D01*
X17481372Y1823531D01*
X17685501Y1713062D01*
X17905015Y1637702D01*
X18088164Y1607140D01*
X18133951Y1599500D01*
X18133952Y1599500D01*
X18366048Y1599500D01*
X18366049Y1599500D01*
X18423282Y1609050D01*
X18594984Y1637702D01*
X18814498Y1713062D01*
X18814499Y1713062D01*
X18814503Y1713064D01*
X19018626Y1823530D01*
X19201784Y1966087D01*
X19358979Y2136847D01*
X19396192Y2193805D01*
X19449338Y2239161D01*
X19518569Y2248585D01*
X19581905Y2219083D01*
X19603807Y2193807D01*
X19641021Y2136847D01*
X19641022Y2136846D01*
X19798215Y1966087D01*
X19981372Y1823531D01*
X20185501Y1713062D01*
X20405015Y1637702D01*
X20588164Y1607140D01*
X20633951Y1599500D01*
X20633952Y1599500D01*
X20866048Y1599500D01*
X20866049Y1599500D01*
X20923282Y1609050D01*
X21094984Y1637702D01*
X21314498Y1713062D01*
X21314499Y1713062D01*
X21314503Y1713064D01*
X21518626Y1823530D01*
X21701784Y1966087D01*
X21858979Y2136847D01*
X21985924Y2331151D01*
X22079157Y2543700D01*
X22136134Y2768695D01*
X22141748Y2836456D01*
X22155301Y3000000D01*
X22136134Y3231299D01*
X22136134Y3231305D01*
X22079157Y3456300D01*
X21985924Y3668849D01*
X21858979Y3863153D01*
X21701784Y4033913D01*
X21548335Y4153345D01*
X21507525Y4210053D01*
X21500500Y4251197D01*
X21500500Y5295728D01*
X21520185Y5362767D01*
X21572989Y5408522D01*
X21642147Y5418466D01*
X21674934Y5409008D01*
X21686049Y5404060D01*
X21720201Y5388854D01*
X21781277Y5375872D01*
X21842759Y5342679D01*
X21876535Y5281516D01*
X21873427Y5216266D01*
X21864326Y5188256D01*
X21844540Y5000000D01*
X21864326Y4811742D01*
X21922820Y4631715D01*
X22017466Y4467783D01*
X22144129Y4327110D01*
X22297269Y4215848D01*
X22470197Y4138855D01*
X22655352Y4099500D01*
X22655354Y4099500D01*
X22844648Y4099500D01*
X23029802Y4138855D01*
X23202728Y4215847D01*
X23216450Y4225817D01*
X23282256Y4249298D01*
X23289337Y4249500D01*
X32912279Y4249500D01*
X32974554Y4249500D01*
X32981764Y4249290D01*
X33043934Y4245668D01*
X33054977Y4247616D01*
X33076510Y4249500D01*
X34162279Y4249500D01*
X39214003Y4249500D01*
X39281042Y4229815D01*
X39326797Y4177011D01*
X39336741Y4107853D01*
X39307716Y4044297D01*
X39304951Y4041677D01*
X39305175Y4041472D01*
X39298217Y4033914D01*
X39298216Y4033913D01*
X39141021Y3863153D01*
X39014076Y3668849D01*
X38921013Y3456687D01*
X38920843Y3456300D01*
X38863866Y3231305D01*
X38863865Y3231301D01*
X38863865Y3231299D01*
X38844699Y3000000D01*
X38863865Y2768700D01*
X38863865Y2768696D01*
X38863866Y2768695D01*
X38918201Y2554132D01*
X38920844Y2543696D01*
X39014076Y2331150D01*
X39141020Y2136848D01*
X39298215Y1966087D01*
X39481372Y1823531D01*
X39685501Y1713062D01*
X39905015Y1637702D01*
X40088164Y1607140D01*
X40133951Y1599500D01*
X40133952Y1599500D01*
X40366048Y1599500D01*
X40366049Y1599500D01*
X40423281Y1609050D01*
X40594984Y1637702D01*
X40814498Y1713062D01*
X40814499Y1713062D01*
X40814503Y1713064D01*
X41018626Y1823530D01*
X41201784Y1966087D01*
X41358979Y2136847D01*
X41396192Y2193805D01*
X41449338Y2239161D01*
X41518569Y2248585D01*
X41581905Y2219083D01*
X41603807Y2193807D01*
X41641021Y2136847D01*
X41641022Y2136846D01*
X41798215Y1966087D01*
X41981372Y1823531D01*
X42185501Y1713062D01*
X42405015Y1637702D01*
X42588164Y1607140D01*
X42633951Y1599500D01*
X42633952Y1599500D01*
X42866048Y1599500D01*
X42866049Y1599500D01*
X42923281Y1609050D01*
X43094984Y1637702D01*
X43314498Y1713062D01*
X43314499Y1713062D01*
X43314503Y1713064D01*
X43518626Y1823530D01*
X43701784Y1966087D01*
X43858979Y2136847D01*
X43896192Y2193805D01*
X43949338Y2239161D01*
X44018569Y2248585D01*
X44081905Y2219083D01*
X44103807Y2193807D01*
X44141021Y2136847D01*
X44141022Y2136846D01*
X44298215Y1966087D01*
X44481372Y1823531D01*
X44685501Y1713062D01*
X44905015Y1637702D01*
X45088164Y1607140D01*
X45133951Y1599500D01*
X45133952Y1599500D01*
X45366048Y1599500D01*
X45366049Y1599500D01*
X45423281Y1609050D01*
X45594984Y1637702D01*
X45814498Y1713062D01*
X45814499Y1713062D01*
X45814503Y1713064D01*
X46018626Y1823530D01*
X46201784Y1966087D01*
X46358979Y2136847D01*
X46396192Y2193805D01*
X46449338Y2239161D01*
X46518569Y2248585D01*
X46581905Y2219083D01*
X46603807Y2193807D01*
X46641021Y2136847D01*
X46641022Y2136846D01*
X46798215Y1966087D01*
X46981372Y1823531D01*
X47185501Y1713062D01*
X47405015Y1637702D01*
X47588164Y1607140D01*
X47633951Y1599500D01*
X47633952Y1599500D01*
X47866048Y1599500D01*
X47866049Y1599500D01*
X47923281Y1609050D01*
X48094984Y1637702D01*
X48314498Y1713062D01*
X48314499Y1713062D01*
X48314503Y1713064D01*
X48518626Y1823530D01*
X48701784Y1966087D01*
X48858979Y2136847D01*
X48985924Y2331151D01*
X49079157Y2543700D01*
X49136134Y2768695D01*
X49155300Y3000000D01*
X49136134Y3231305D01*
X49079157Y3456300D01*
X48985924Y3668849D01*
X48858979Y3863153D01*
X48701784Y4033913D01*
X48548335Y4153345D01*
X48507525Y4210053D01*
X48500500Y4251197D01*
X48500500Y5186294D01*
X48501809Y5204264D01*
X48503567Y5216266D01*
X48505289Y5228023D01*
X48500971Y5277365D01*
X48500500Y5288172D01*
X48500500Y5290099D01*
X48500500Y5293709D01*
X48496900Y5324499D01*
X48496534Y5328087D01*
X48489888Y5404060D01*
X48485673Y5423067D01*
X48470102Y5465849D01*
X48459577Y5494763D01*
X48458424Y5498080D01*
X48434814Y5569335D01*
X48434811Y5569338D01*
X48434415Y5570536D01*
X48425931Y5588061D01*
X48425237Y5589115D01*
X48425237Y5589117D01*
X48384008Y5651800D01*
X48382125Y5654756D01*
X48342712Y5718656D01*
X48342709Y5718658D01*
X48342048Y5719731D01*
X48329753Y5734824D01*
X48328832Y5735692D01*
X48328830Y5735696D01*
X48274254Y5787184D01*
X48271736Y5789630D01*
X46596817Y7464549D01*
X46563334Y7525870D01*
X46560500Y7552228D01*
X46560500Y9992672D01*
X46565424Y10027267D01*
X46607597Y10172427D01*
X46607598Y10172431D01*
X46610500Y10209306D01*
X46610500Y11790694D01*
X46607598Y11827569D01*
X46561744Y11985398D01*
X46478081Y12126865D01*
X46361865Y12243081D01*
X46220398Y12326744D01*
X46062569Y12372598D01*
X46025694Y12375500D01*
X45594306Y12375500D01*
X45557431Y12372598D01*
X45557427Y12372597D01*
X45556388Y12372295D01*
X45399602Y12326744D01*
X45272784Y12251744D01*
X45244652Y12235107D01*
X45243456Y12237129D01*
X45201358Y12214142D01*
X45131666Y12219126D01*
X45105747Y12235783D01*
X45105348Y12235107D01*
X45091865Y12243081D01*
X44950398Y12326744D01*
X44792569Y12372598D01*
X44755694Y12375500D01*
X44324306Y12375500D01*
X44287431Y12372598D01*
X44287427Y12372597D01*
X44286388Y12372295D01*
X44129602Y12326744D01*
X44002784Y12251744D01*
X43974652Y12235107D01*
X43973456Y12237129D01*
X43931358Y12214142D01*
X43861666Y12219126D01*
X43835747Y12235783D01*
X43835348Y12235107D01*
X43821865Y12243081D01*
X43680398Y12326744D01*
X43522569Y12372598D01*
X43485694Y12375500D01*
X43054306Y12375500D01*
X43017431Y12372598D01*
X43017427Y12372597D01*
X43016388Y12372295D01*
X42859602Y12326744D01*
X42732784Y12251744D01*
X42704652Y12235107D01*
X42703527Y12237007D01*
X42661004Y12213788D01*
X42591312Y12218772D01*
X42565447Y12235397D01*
X42565040Y12234709D01*
X42410200Y12326280D01*
X42252488Y12372099D01*
X42250000Y12372295D01*
X42250000Y9627703D01*
X42252487Y9627900D01*
X42410200Y9673719D01*
X42565040Y9765291D01*
X42566245Y9763252D01*
X42608288Y9786210D01*
X42677980Y9781226D01*
X42704306Y9764309D01*
X42704652Y9764893D01*
X42859602Y9673255D01*
X43017427Y9627402D01*
X43051871Y9624691D01*
X43051886Y9624690D01*
X43054306Y9624500D01*
X43056751Y9624500D01*
X43483249Y9624500D01*
X43485694Y9624500D01*
X43488114Y9624690D01*
X43488128Y9624691D01*
X43522572Y9627402D01*
X43680397Y9673255D01*
X43835348Y9764893D01*
X43836543Y9762870D01*
X43878642Y9785858D01*
X43948334Y9780874D01*
X43974252Y9764216D01*
X43974652Y9764893D01*
X44129602Y9673255D01*
X44287427Y9627402D01*
X44321871Y9624691D01*
X44321886Y9624690D01*
X44324306Y9624500D01*
X44326751Y9624500D01*
X44753249Y9624500D01*
X44755694Y9624500D01*
X44758114Y9624690D01*
X44758128Y9624691D01*
X44792572Y9627402D01*
X44900905Y9658876D01*
X44970774Y9658677D01*
X45029444Y9620735D01*
X45058288Y9557096D01*
X45059500Y9539800D01*
X45059500Y7253705D01*
X45058191Y7235735D01*
X45054711Y7211975D01*
X45059028Y7162629D01*
X45059500Y7151823D01*
X45059500Y7146291D01*
X45059916Y7142730D01*
X45059917Y7142715D01*
X45063098Y7115501D01*
X45063464Y7111916D01*
X45070109Y7035961D01*
X45074330Y7016921D01*
X45100421Y6945232D01*
X45101603Y6941831D01*
X45125579Y6869479D01*
X45134077Y6851925D01*
X45175970Y6788228D01*
X45177905Y6785190D01*
X45217943Y6720281D01*
X45230257Y6705164D01*
X45285709Y6652847D01*
X45288295Y6650335D01*
X46963181Y4975450D01*
X46996666Y4914127D01*
X46999500Y4887769D01*
X46999500Y4251197D01*
X46979815Y4184158D01*
X46951666Y4153347D01*
X46798216Y4033913D01*
X46641021Y3863153D01*
X46617793Y3827599D01*
X46603809Y3806195D01*
X46550663Y3760838D01*
X46481432Y3751414D01*
X46418096Y3780916D01*
X46396191Y3806195D01*
X46385419Y3822683D01*
X46358979Y3863153D01*
X46201784Y4033913D01*
X46018626Y4176470D01*
X45814503Y4286936D01*
X45594981Y4362298D01*
X45366049Y4400500D01*
X45133951Y4400500D01*
X44905019Y4362298D01*
X44905017Y4362297D01*
X44905015Y4362297D01*
X44802526Y4327112D01*
X44685497Y4286936D01*
X44481374Y4176470D01*
X44298216Y4033913D01*
X44141021Y3863153D01*
X44117793Y3827599D01*
X44103809Y3806195D01*
X44050663Y3760838D01*
X43981432Y3751414D01*
X43918096Y3780916D01*
X43896191Y3806195D01*
X43885419Y3822683D01*
X43858979Y3863153D01*
X43701784Y4033913D01*
X43518626Y4176470D01*
X43314503Y4286936D01*
X43094981Y4362298D01*
X42866049Y4400500D01*
X42633951Y4400500D01*
X42505724Y4379102D01*
X42436362Y4387484D01*
X42397639Y4413727D01*
X41325724Y5485642D01*
X41313954Y5499260D01*
X41299610Y5518530D01*
X41261667Y5550366D01*
X41253688Y5557680D01*
X41253103Y5558264D01*
X41249777Y5561591D01*
X41225439Y5580833D01*
X41222670Y5583090D01*
X41205075Y5597853D01*
X41165214Y5631302D01*
X41165211Y5631303D01*
X41164244Y5632115D01*
X41147827Y5642573D01*
X41146682Y5643106D01*
X41146677Y5643111D01*
X41078646Y5674833D01*
X41075488Y5676362D01*
X41008433Y5710040D01*
X41008432Y5710040D01*
X41007294Y5710612D01*
X40988914Y5717000D01*
X40987675Y5717255D01*
X40987673Y5717257D01*
X40914103Y5732447D01*
X40910770Y5733186D01*
X40837721Y5750500D01*
X40837717Y5750500D01*
X40836489Y5750791D01*
X40817121Y5752770D01*
X40815859Y5752733D01*
X40815856Y5752734D01*
X40743556Y5750630D01*
X40740869Y5750552D01*
X40737263Y5750500D01*
X33874500Y5750500D01*
X33807461Y5770185D01*
X33761706Y5822989D01*
X33750500Y5874500D01*
X33750500Y10750000D01*
X41200000Y10750000D01*
X41200000Y10211803D01*
X41200191Y10206923D01*
X41202900Y10172506D01*
X41248717Y10014802D01*
X41332317Y9873442D01*
X41448442Y9757317D01*
X41589799Y9673719D01*
X41747512Y9627900D01*
X41750000Y9627703D01*
X41750000Y10750000D01*
X41200000Y10750000D01*
X33750500Y10750000D01*
X33750500Y11250000D01*
X41200000Y11250000D01*
X41750000Y11250000D01*
X41750000Y12372295D01*
X41749999Y12372295D01*
X41747511Y12372099D01*
X41589799Y12326280D01*
X41448442Y12242682D01*
X41332317Y12126557D01*
X41248717Y11985197D01*
X41202900Y11827493D01*
X41200191Y11793076D01*
X41200000Y11788196D01*
X41200000Y11250000D01*
X33750500Y11250000D01*
X33750500Y13045728D01*
X33770185Y13112767D01*
X33822989Y13158522D01*
X33892147Y13168466D01*
X33924934Y13159008D01*
X33949444Y13148095D01*
X33970201Y13138854D01*
X34155352Y13099500D01*
X34155354Y13099500D01*
X34344648Y13099500D01*
X34529802Y13138855D01*
X34702728Y13215847D01*
X34716450Y13225817D01*
X34782256Y13249298D01*
X34789337Y13249500D01*
X41186294Y13249500D01*
X41204264Y13248191D01*
X41228023Y13244711D01*
X41277369Y13249028D01*
X41288176Y13249500D01*
X41290109Y13249500D01*
X41293709Y13249500D01*
X41297272Y13249916D01*
X41297282Y13249917D01*
X41324496Y13253098D01*
X41328082Y13253464D01*
X41404041Y13260109D01*
X41423071Y13264329D01*
X41424251Y13264758D01*
X41424255Y13264759D01*
X41494742Y13290413D01*
X41498107Y13291582D01*
X41570524Y13315580D01*
X41588072Y13324075D01*
X41651784Y13365979D01*
X41654789Y13367894D01*
X41718656Y13407288D01*
X41719732Y13407952D01*
X41734831Y13420253D01*
X41787152Y13475710D01*
X41789665Y13478297D01*
X42485635Y14174268D01*
X42499260Y14186044D01*
X42518530Y14200390D01*
X42550373Y14238340D01*
X42557681Y14246314D01*
X42559029Y14247662D01*
X42561590Y14250223D01*
X42563829Y14253055D01*
X42563838Y14253065D01*
X42580819Y14274542D01*
X42583063Y14277298D01*
X42631302Y14334786D01*
X42631303Y14334788D01*
X42632116Y14335757D01*
X42642576Y14352177D01*
X42643109Y14353321D01*
X42643111Y14353323D01*
X42674835Y14421357D01*
X42676335Y14424456D01*
X42710040Y14491567D01*
X42710611Y14492704D01*
X42716998Y14511084D01*
X42717253Y14512321D01*
X42717256Y14512327D01*
X42732439Y14585862D01*
X42733181Y14589209D01*
X42750500Y14662279D01*
X42750500Y14662282D01*
X42750790Y14663506D01*
X42752769Y14682873D01*
X42752732Y14684140D01*
X42752733Y14684144D01*
X42752691Y14685573D01*
X42754275Y14691611D01*
X42755664Y14698338D01*
X42756020Y14698264D01*
X42770418Y14753155D01*
X42821869Y14800427D01*
X42890709Y14812377D01*
X42911233Y14808255D01*
X43017430Y14777402D01*
X43051871Y14774691D01*
X43051886Y14774690D01*
X43054306Y14774500D01*
X43056751Y14774500D01*
X43483249Y14774500D01*
X43485694Y14774500D01*
X43488114Y14774690D01*
X43488128Y14774691D01*
X43522572Y14777402D01*
X43680397Y14823255D01*
X43835348Y14914893D01*
X43836543Y14912870D01*
X43878642Y14935858D01*
X43948334Y14930874D01*
X43974252Y14914216D01*
X43974652Y14914893D01*
X44129602Y14823255D01*
X44287427Y14777402D01*
X44321871Y14774691D01*
X44321886Y14774690D01*
X44324306Y14774500D01*
X44326751Y14774500D01*
X44753249Y14774500D01*
X44755694Y14774500D01*
X44758114Y14774690D01*
X44758128Y14774691D01*
X44792572Y14777402D01*
X44950397Y14823255D01*
X45105348Y14914893D01*
X45106543Y14912870D01*
X45148642Y14935858D01*
X45218334Y14930874D01*
X45244252Y14914216D01*
X45244652Y14914893D01*
X45399602Y14823255D01*
X45557427Y14777402D01*
X45591871Y14774691D01*
X45591886Y14774690D01*
X45594306Y14774500D01*
X45596751Y14774500D01*
X46023249Y14774500D01*
X46025694Y14774500D01*
X46028114Y14774690D01*
X46028128Y14774691D01*
X46062572Y14777402D01*
X46220397Y14823255D01*
X46361865Y14906919D01*
X46478080Y15023134D01*
X46483728Y15032683D01*
X46561744Y15164602D01*
X46607598Y15322431D01*
X46610500Y15359306D01*
X46610500Y15712500D01*
X47275001Y15712500D01*
X47275001Y15578170D01*
X47275321Y15571888D01*
X47285493Y15472304D01*
X47340642Y15305877D01*
X47432683Y15156654D01*
X47556654Y15032683D01*
X47705877Y14940642D01*
X47872303Y14885493D01*
X47971890Y14875319D01*
X47978168Y14875000D01*
X48250000Y14875000D01*
X48250000Y15712500D01*
X48750000Y15712500D01*
X48750000Y14875000D01*
X49021828Y14875000D01*
X49028111Y14875321D01*
X49127695Y14885493D01*
X49294122Y14940642D01*
X49443345Y15032683D01*
X49567316Y15156654D01*
X49659357Y15305877D01*
X49714506Y15472303D01*
X49724680Y15571890D01*
X49725000Y15578168D01*
X49725000Y15712500D01*
X48750000Y15712500D01*
X48250000Y15712500D01*
X47275001Y15712500D01*
X46610500Y15712500D01*
X46610500Y16940694D01*
X46607598Y16977569D01*
X46565424Y17122732D01*
X46560500Y17157327D01*
X46560500Y17163000D01*
X46580185Y17230039D01*
X46632989Y17275794D01*
X46684500Y17287000D01*
X47328752Y17287000D01*
X47395791Y17267315D01*
X47421536Y17241089D01*
X47422039Y17241592D01*
X47556344Y17107286D01*
X47559659Y17105242D01*
X47606382Y17053292D01*
X47617601Y16984329D01*
X47589755Y16920248D01*
X47559656Y16894168D01*
X47556654Y16892316D01*
X47432683Y16768345D01*
X47340642Y16619122D01*
X47285493Y16452696D01*
X47275319Y16353109D01*
X47275000Y16346831D01*
X47275000Y16212500D01*
X49724999Y16212500D01*
X49724999Y16346829D01*
X49724678Y16353111D01*
X49714506Y16452695D01*
X49659357Y16619122D01*
X49567316Y16768345D01*
X49443348Y16892313D01*
X49440348Y16894164D01*
X49393621Y16946110D01*
X49382396Y17015072D01*
X49410236Y17079156D01*
X49440345Y17105246D01*
X49443659Y17107290D01*
X49567711Y17231342D01*
X49637932Y17345190D01*
X49659814Y17380666D01*
X49705290Y17517902D01*
X49714999Y17547202D01*
X49725180Y17646858D01*
X49725180Y17646859D01*
X49725500Y17649991D01*
X49725499Y18425008D01*
X49714999Y18527797D01*
X49659814Y18694334D01*
X49567712Y18843656D01*
X49443656Y18967712D01*
X49294334Y19059814D01*
X49127797Y19114999D01*
X49025009Y19125500D01*
X47974992Y19125499D01*
X47872203Y19114999D01*
X47705666Y19059814D01*
X47667717Y19036407D01*
X47556342Y18967711D01*
X47422039Y18833408D01*
X47420735Y18834711D01*
X47382344Y18800179D01*
X47328752Y18788000D01*
X46684500Y18788000D01*
X46617461Y18807685D01*
X46571706Y18860489D01*
X46560500Y18912000D01*
X46560500Y19306443D01*
X46580185Y19373482D01*
X46632989Y19419237D01*
X46645495Y19424149D01*
X46769335Y19465186D01*
X46918657Y19557288D01*
X47042711Y19681342D01*
X47094059Y19764592D01*
X47134814Y19830666D01*
X47189999Y19997203D01*
X47200500Y20099991D01*
X47200499Y20900008D01*
X47189999Y21002797D01*
X47134814Y21169334D01*
X47042712Y21318656D01*
X46949047Y21412320D01*
X46915564Y21473641D01*
X46920548Y21543333D01*
X46949047Y21587679D01*
X47042712Y21681344D01*
X47134814Y21830666D01*
X47189999Y21997203D01*
X47200500Y22099991D01*
X47200499Y22900008D01*
X47189999Y23002797D01*
X47134814Y23169334D01*
X47042712Y23318656D01*
X46918656Y23442712D01*
X46809404Y23510099D01*
X46762679Y23562047D01*
X46750500Y23615638D01*
X46750500Y23965677D01*
X46767113Y24027677D01*
X46827179Y24131715D01*
X46885673Y24311742D01*
X46885674Y24311744D01*
X46905460Y24500000D01*
X46885674Y24688256D01*
X46827179Y24868284D01*
X46732533Y25032216D01*
X46605871Y25172888D01*
X46452730Y25284151D01*
X46279803Y25361144D01*
X46218084Y25374262D01*
X46094648Y25400500D01*
X46094646Y25400500D01*
X45905354Y25400500D01*
X45905352Y25400500D01*
X45720197Y25361144D01*
X45547269Y25284151D01*
X45394129Y25172889D01*
X45267466Y25032216D01*
X45172820Y24868284D01*
X45114326Y24688257D01*
X45094540Y24500000D01*
X45114326Y24311742D01*
X45172820Y24131715D01*
X45232887Y24027677D01*
X45249500Y23965677D01*
X45249500Y23615638D01*
X45229815Y23548599D01*
X45190596Y23510099D01*
X45081342Y23442711D01*
X44957288Y23318657D01*
X44865186Y23169334D01*
X44810000Y23002797D01*
X44799819Y22903141D01*
X44799818Y22903122D01*
X44799500Y22900009D01*
X44799500Y22896860D01*
X44799500Y22103141D01*
X44799500Y22103121D01*
X44799501Y22099992D01*
X44799820Y22096860D01*
X44799821Y22096858D01*
X44810000Y21997203D01*
X44865186Y21830665D01*
X44957288Y21681342D01*
X45050950Y21587681D01*
X45084435Y21526358D01*
X45079451Y21456666D01*
X45050950Y21412319D01*
X44957288Y21318657D01*
X44865186Y21169334D01*
X44810000Y21002797D01*
X44799819Y20903141D01*
X44799818Y20903122D01*
X44799500Y20900009D01*
X44799500Y20896860D01*
X44799500Y20103141D01*
X44799500Y20103121D01*
X44799501Y20099992D01*
X44799820Y20096860D01*
X44799821Y20096858D01*
X44810000Y19997203D01*
X44865186Y19830665D01*
X44957288Y19681342D01*
X45023182Y19615448D01*
X45056667Y19554125D01*
X45059500Y19527768D01*
X45059500Y18089343D01*
X45057229Y18067121D01*
X45059448Y17990869D01*
X45059500Y17987263D01*
X45059500Y17610199D01*
X45039815Y17543160D01*
X44987011Y17497405D01*
X44917853Y17487461D01*
X44900910Y17491121D01*
X44792569Y17522598D01*
X44755694Y17525500D01*
X44324306Y17525500D01*
X44287431Y17522598D01*
X44179094Y17491123D01*
X44109226Y17491322D01*
X44050556Y17529263D01*
X44021712Y17592902D01*
X44020500Y17610199D01*
X44020500Y18527797D01*
X44020500Y19666307D01*
X44021806Y19684248D01*
X44025289Y19708023D01*
X44020971Y19757365D01*
X44020500Y19768172D01*
X44020500Y19770099D01*
X44020500Y19773709D01*
X44016900Y19804499D01*
X44016534Y19808087D01*
X44009888Y19884060D01*
X44005673Y19903067D01*
X44005241Y19904255D01*
X43979577Y19974763D01*
X43978424Y19978080D01*
X43954814Y20049335D01*
X43954811Y20049338D01*
X43954415Y20050536D01*
X43945931Y20068062D01*
X43922860Y20103139D01*
X43904013Y20131792D01*
X43902087Y20134817D01*
X43862711Y20198656D01*
X43862709Y20198657D01*
X43862046Y20199733D01*
X43849751Y20214826D01*
X43848831Y20215693D01*
X43848830Y20215696D01*
X43794236Y20267201D01*
X43791719Y20269647D01*
X43736817Y20324549D01*
X43703333Y20385872D01*
X43700499Y20412229D01*
X43700499Y20896859D01*
X43700499Y20896860D01*
X43700499Y20900008D01*
X43689999Y21002797D01*
X43634814Y21169334D01*
X43542712Y21318656D01*
X43449047Y21412320D01*
X43415564Y21473641D01*
X43420548Y21543333D01*
X43449047Y21587679D01*
X43542712Y21681344D01*
X43634814Y21830666D01*
X43689999Y21997203D01*
X43700500Y22099991D01*
X43700499Y22900008D01*
X43689999Y23002797D01*
X43634814Y23169334D01*
X43542712Y23318656D01*
X43418656Y23442712D01*
X43309404Y23510099D01*
X43262679Y23562047D01*
X43250500Y23615638D01*
X43250500Y23965677D01*
X43267113Y24027677D01*
X43327179Y24131715D01*
X43385673Y24311742D01*
X43385674Y24311744D01*
X43405460Y24500000D01*
X43385674Y24688256D01*
X43327179Y24868284D01*
X43232533Y25032216D01*
X43105871Y25172888D01*
X42952730Y25284151D01*
X42779803Y25361144D01*
X42718084Y25374262D01*
X42594648Y25400500D01*
X42594646Y25400500D01*
X42405354Y25400500D01*
X42405352Y25400500D01*
X42220197Y25361144D01*
X42047269Y25284151D01*
X41894129Y25172889D01*
X41767466Y25032216D01*
X41672820Y24868284D01*
X41614326Y24688257D01*
X41594540Y24500000D01*
X41614326Y24311742D01*
X41672820Y24131715D01*
X41732887Y24027677D01*
X41749500Y23965677D01*
X41749500Y23615638D01*
X41729815Y23548599D01*
X41690596Y23510099D01*
X41581342Y23442711D01*
X41457288Y23318657D01*
X41365186Y23169334D01*
X41310000Y23002797D01*
X41299819Y22903141D01*
X41299818Y22903122D01*
X41299500Y22900009D01*
X41299500Y22896860D01*
X41299500Y22103141D01*
X41299500Y22103121D01*
X41299501Y22099992D01*
X41299820Y22096860D01*
X41299821Y22096858D01*
X41310000Y21997203D01*
X41365186Y21830665D01*
X41457288Y21681342D01*
X41550950Y21587681D01*
X41584435Y21526358D01*
X41579451Y21456666D01*
X41550950Y21412319D01*
X41457288Y21318657D01*
X41365186Y21169334D01*
X41310000Y21002797D01*
X41299819Y20903141D01*
X41299818Y20903122D01*
X41299500Y20900009D01*
X41299500Y20896860D01*
X41299500Y20103141D01*
X41299500Y20103121D01*
X41299501Y20099992D01*
X41299820Y20096860D01*
X41299821Y20096858D01*
X41310000Y19997203D01*
X41365186Y19830665D01*
X41457288Y19681342D01*
X41581342Y19557288D01*
X41730665Y19465186D01*
X41897202Y19410000D01*
X41996858Y19399819D01*
X41996878Y19399817D01*
X41999991Y19399500D01*
X42395500Y19399500D01*
X42462539Y19379815D01*
X42508294Y19327011D01*
X42519500Y19275500D01*
X42519500Y17610199D01*
X42499815Y17543160D01*
X42447011Y17497405D01*
X42377853Y17487461D01*
X42360910Y17491121D01*
X42252569Y17522598D01*
X42215694Y17525500D01*
X41784306Y17525500D01*
X41747431Y17522598D01*
X41747427Y17522597D01*
X41731267Y17517902D01*
X41589602Y17476744D01*
X41448135Y17393081D01*
X41448134Y17393080D01*
X41331919Y17276865D01*
X41248255Y17135397D01*
X41202402Y16977572D01*
X41199691Y16943128D01*
X41199690Y16943114D01*
X41199500Y16940694D01*
X41199500Y15359306D01*
X41199690Y15356886D01*
X41199691Y15356871D01*
X41202402Y15322427D01*
X41244576Y15177267D01*
X41249500Y15142672D01*
X41249500Y15112230D01*
X41229815Y15045191D01*
X41213181Y15024549D01*
X40975451Y14786819D01*
X40914128Y14753334D01*
X40887770Y14750500D01*
X34789337Y14750500D01*
X34722298Y14770185D01*
X34716450Y14774183D01*
X34712019Y14777402D01*
X34702730Y14784151D01*
X34529803Y14861144D01*
X34463105Y14875321D01*
X34344648Y14900500D01*
X34344646Y14900500D01*
X34155354Y14900500D01*
X34155352Y14900500D01*
X33970199Y14861145D01*
X33970197Y14861144D01*
X33924934Y14840991D01*
X33855687Y14831706D01*
X33792410Y14861334D01*
X33755196Y14920468D01*
X33750500Y14954271D01*
X33750500Y26186294D01*
X33751809Y26204264D01*
X33752123Y26206412D01*
X33755289Y26228023D01*
X33750971Y26277369D01*
X33750500Y26288175D01*
X33750500Y26290099D01*
X33750500Y26293709D01*
X33746894Y26324550D01*
X33746539Y26328031D01*
X33739999Y26402797D01*
X33739998Y26402797D01*
X33739889Y26404052D01*
X33735674Y26423062D01*
X33735241Y26424250D01*
X33735241Y26424255D01*
X33709557Y26494820D01*
X33708419Y26498095D01*
X33684814Y26569334D01*
X33684811Y26569338D01*
X33684414Y26570537D01*
X33675930Y26588064D01*
X33649269Y26628598D01*
X33633998Y26651815D01*
X33632115Y26654770D01*
X33592712Y26718655D01*
X33592710Y26718656D01*
X33592046Y26719734D01*
X33579751Y26734826D01*
X33578831Y26735693D01*
X33578830Y26735696D01*
X33524236Y26787201D01*
X33521720Y26789645D01*
X32325724Y27985642D01*
X32313954Y27999260D01*
X32299610Y28018530D01*
X32261667Y28050366D01*
X32253688Y28057680D01*
X32253103Y28058264D01*
X32249777Y28061591D01*
X32225439Y28080833D01*
X32222670Y28083090D01*
X32205075Y28097853D01*
X32165214Y28131302D01*
X32165211Y28131303D01*
X32164244Y28132115D01*
X32147827Y28142573D01*
X32146682Y28143106D01*
X32146677Y28143111D01*
X32078646Y28174833D01*
X32075488Y28176362D01*
X32008433Y28210040D01*
X32008432Y28210040D01*
X32007294Y28210612D01*
X31988914Y28217000D01*
X31987675Y28217255D01*
X31987673Y28217257D01*
X31914103Y28232447D01*
X31910770Y28233186D01*
X31837721Y28250500D01*
X31837717Y28250500D01*
X31836489Y28250791D01*
X31817121Y28252770D01*
X31815859Y28252733D01*
X31815856Y28252734D01*
X31743556Y28250630D01*
X31740869Y28250552D01*
X31737263Y28250500D01*
X31312701Y28250500D01*
X31245662Y28270185D01*
X31211126Y28303377D01*
X31194670Y28326876D01*
X31163495Y28371401D01*
X30996401Y28538495D01*
X30839401Y28648426D01*
X30795778Y28703002D01*
X30788584Y28772500D01*
X30820107Y28834855D01*
X30839398Y28851571D01*
X30996401Y28961505D01*
X31163495Y29128599D01*
X31299035Y29322170D01*
X31398903Y29536337D01*
X31460063Y29764592D01*
X31480659Y30000000D01*
X31460063Y30235408D01*
X31398903Y30463663D01*
X31299035Y30677829D01*
X31163495Y30871401D01*
X30996401Y31038495D01*
X30839401Y31148426D01*
X30795778Y31203002D01*
X30788584Y31272500D01*
X30820107Y31334855D01*
X30839398Y31351571D01*
X30996401Y31461505D01*
X31163495Y31628599D01*
X31299035Y31822170D01*
X31398903Y32036337D01*
X31460063Y32264592D01*
X31480659Y32500000D01*
X31460063Y32735408D01*
X31398903Y32963663D01*
X31299035Y33177829D01*
X31163495Y33371401D01*
X30996401Y33538495D01*
X30838965Y33648732D01*
X30795342Y33703306D01*
X30788148Y33772805D01*
X30819671Y33835160D01*
X30838967Y33851880D01*
X30996078Y33961890D01*
X31163106Y34128918D01*
X31298600Y34322423D01*
X31398430Y34536507D01*
X31455636Y34750000D01*
X30403969Y34750000D01*
X30436519Y34800649D01*
X30475000Y34931705D01*
X30475000Y35068295D01*
X30436519Y35199351D01*
X30403969Y35250000D01*
X31455635Y35250000D01*
X31398430Y35463492D01*
X31298599Y35677578D01*
X31163111Y35871075D01*
X31015856Y36018330D01*
X30982371Y36079654D01*
X30987355Y36149345D01*
X31029226Y36205279D01*
X31038441Y36211551D01*
X31193657Y36307288D01*
X31317711Y36431342D01*
X31409813Y36580665D01*
X31409814Y36580666D01*
X31464999Y36747203D01*
X31475500Y36849991D01*
X31475499Y38150008D01*
X31464999Y38252797D01*
X31409814Y38419334D01*
X31317712Y38568656D01*
X31193656Y38692712D01*
X31044334Y38784814D01*
X30877797Y38839999D01*
X30775009Y38850500D01*
X29224992Y38850499D01*
X29122203Y38839999D01*
X28955666Y38784814D01*
X28862895Y38727593D01*
X28806342Y38692711D01*
X28682288Y38568657D01*
X28590186Y38419334D01*
X28535000Y38252797D01*
X28524819Y38153141D01*
X28524818Y38153122D01*
X28524500Y38150009D01*
X28524500Y38146860D01*
X28524500Y36853140D01*
X28524500Y36853120D01*
X28524501Y36849992D01*
X28524820Y36846860D01*
X28524821Y36846858D01*
X28535000Y36747203D01*
X28590186Y36580665D01*
X28682288Y36431342D01*
X28806341Y36307289D01*
X28961559Y36211551D01*
X29008283Y36159603D01*
X29019506Y36090640D01*
X28991662Y36026558D01*
X28984143Y36018331D01*
X28836893Y35871081D01*
X28701399Y35677576D01*
X28601569Y35463492D01*
X28544364Y35250000D01*
X29596031Y35250000D01*
X29563481Y35199351D01*
X29525000Y35068295D01*
X29525000Y34931705D01*
X29563481Y34800649D01*
X29596031Y34750000D01*
X28544364Y34750000D01*
X28601569Y34536507D01*
X28701400Y34322421D01*
X28836890Y34128921D01*
X29003918Y33961893D01*
X29161033Y33851880D01*
X29204658Y33797303D01*
X29211850Y33727804D01*
X29180328Y33665450D01*
X29161033Y33648731D01*
X29003599Y33538495D01*
X28836505Y33371401D01*
X28700965Y33177830D01*
X28700965Y33177829D01*
X28700964Y33177827D01*
X28601097Y32963662D01*
X28539936Y32735407D01*
X28519341Y32500000D01*
X28539936Y32264592D01*
X28601097Y32036336D01*
X28700965Y31822170D01*
X28836505Y31628598D01*
X29003598Y31461505D01*
X29160596Y31351575D01*
X29204221Y31296998D01*
X29211415Y31227500D01*
X29179892Y31165145D01*
X29160596Y31148425D01*
X29003599Y31038495D01*
X28836505Y30871401D01*
X28700965Y30677830D01*
X28700965Y30677829D01*
X28700964Y30677827D01*
X28601097Y30463662D01*
X28539936Y30235407D01*
X28519340Y30000000D01*
X28539936Y29764592D01*
X28601097Y29536336D01*
X28700965Y29322170D01*
X28836505Y29128598D01*
X29003598Y28961505D01*
X29160596Y28851575D01*
X29204221Y28796998D01*
X29211415Y28727500D01*
X29179892Y28665145D01*
X29160596Y28648425D01*
X29003599Y28538495D01*
X28836505Y28371401D01*
X28700965Y28177830D01*
X28614324Y27992027D01*
X28601097Y27963662D01*
X28539936Y27735407D01*
X28519340Y27500000D01*
X28539936Y27264592D01*
X28601097Y27036336D01*
X28700965Y26822170D01*
X28836505Y26628598D01*
X29003598Y26461505D01*
X29160596Y26351575D01*
X29204221Y26296998D01*
X29211415Y26227500D01*
X29179892Y26165145D01*
X29160596Y26148425D01*
X29003599Y26038495D01*
X28836505Y25871401D01*
X28700965Y25677830D01*
X28614324Y25492027D01*
X28601097Y25463662D01*
X28539936Y25235407D01*
X28519341Y25000000D01*
X28539936Y24764592D01*
X28601097Y24536336D01*
X28700965Y24322170D01*
X28836505Y24128598D01*
X29003598Y23961505D01*
X29160596Y23851575D01*
X29204221Y23796998D01*
X29211415Y23727500D01*
X29179892Y23665145D01*
X29160596Y23648425D01*
X29003599Y23538495D01*
X28836505Y23371401D01*
X28700965Y23177830D01*
X28619346Y23002796D01*
X28601097Y22963662D01*
X28539936Y22735407D01*
X28519340Y22500000D01*
X28539936Y22264591D01*
X28555914Y22204960D01*
X28554251Y22135110D01*
X28523820Y22085187D01*
X27881344Y21442712D01*
X27264360Y20825728D01*
X27250727Y20813946D01*
X27231469Y20799609D01*
X27199631Y20761666D01*
X27192323Y20753691D01*
X27188409Y20749777D01*
X27186173Y20746949D01*
X27169169Y20725444D01*
X27166890Y20722647D01*
X27117890Y20664251D01*
X27107422Y20647821D01*
X27075186Y20578691D01*
X27073615Y20575447D01*
X27039394Y20507306D01*
X27032997Y20488903D01*
X27017574Y20414211D01*
X27016794Y20410692D01*
X26999208Y20336490D01*
X26997229Y20317121D01*
X26999448Y20240869D01*
X26999500Y20237263D01*
X26999500Y17813705D01*
X26998191Y17795735D01*
X26994711Y17771975D01*
X26999028Y17722629D01*
X26999500Y17711823D01*
X26999500Y17706291D01*
X26999916Y17702730D01*
X26999917Y17702715D01*
X27003098Y17675501D01*
X27003464Y17671916D01*
X27010109Y17595961D01*
X27014330Y17576921D01*
X27040421Y17505232D01*
X27041603Y17501831D01*
X27065579Y17429479D01*
X27074077Y17411925D01*
X27115970Y17348228D01*
X27117905Y17345190D01*
X27157943Y17280281D01*
X27170257Y17265164D01*
X27225709Y17212847D01*
X27228295Y17210335D01*
X29213180Y15225451D01*
X29246665Y15164128D01*
X29249499Y15137770D01*
X29249499Y14954272D01*
X29229814Y14887233D01*
X29177010Y14841478D01*
X29107852Y14831534D01*
X29075063Y14840993D01*
X29056985Y14849041D01*
X29029803Y14861144D01*
X28963105Y14875321D01*
X28844648Y14900500D01*
X28844646Y14900500D01*
X28655354Y14900500D01*
X28655352Y14900500D01*
X28470197Y14861144D01*
X28297271Y14784152D01*
X28283550Y14774183D01*
X28217744Y14750702D01*
X28210663Y14750500D01*
X22423091Y14750500D01*
X22356052Y14770185D01*
X22310297Y14822989D01*
X22300353Y14892147D01*
X22329378Y14955703D01*
X22357994Y14980039D01*
X22443346Y15032684D01*
X22567316Y15156654D01*
X22659357Y15305877D01*
X22714506Y15472303D01*
X22724680Y15571890D01*
X22725000Y15578168D01*
X22725000Y15712500D01*
X20275001Y15712500D01*
X20275001Y15578170D01*
X20275321Y15571888D01*
X20285493Y15472304D01*
X20340642Y15305877D01*
X20432683Y15156654D01*
X20556653Y15032684D01*
X20642006Y14980039D01*
X20688730Y14928091D01*
X20699953Y14859128D01*
X20672109Y14795046D01*
X20614041Y14756190D01*
X20576909Y14750500D01*
X19673595Y14750500D01*
X19606556Y14770185D01*
X19560801Y14822989D01*
X19550857Y14892147D01*
X19566863Y14937621D01*
X19630480Y15045191D01*
X19656744Y15089602D01*
X19676225Y15156654D01*
X19702597Y15247427D01*
X19702598Y15247431D01*
X19705500Y15284306D01*
X19705500Y16865694D01*
X19702598Y16902569D01*
X19669913Y17015072D01*
X19660424Y17047732D01*
X19655500Y17082327D01*
X19655500Y17163000D01*
X19675185Y17230039D01*
X19727989Y17275794D01*
X19779500Y17287000D01*
X20328752Y17287000D01*
X20395791Y17267315D01*
X20421536Y17241089D01*
X20422039Y17241592D01*
X20556344Y17107286D01*
X20559659Y17105242D01*
X20606382Y17053292D01*
X20617601Y16984329D01*
X20589755Y16920248D01*
X20559656Y16894168D01*
X20556654Y16892316D01*
X20432683Y16768345D01*
X20340642Y16619122D01*
X20285493Y16452696D01*
X20275319Y16353109D01*
X20275000Y16346831D01*
X20275000Y16212500D01*
X22724999Y16212500D01*
X22724999Y16346829D01*
X22724678Y16353111D01*
X22714506Y16452695D01*
X22659357Y16619122D01*
X22567316Y16768345D01*
X22443348Y16892313D01*
X22440348Y16894164D01*
X22393621Y16946110D01*
X22382396Y17015072D01*
X22410236Y17079156D01*
X22440345Y17105246D01*
X22443659Y17107290D01*
X22567711Y17231342D01*
X22637932Y17345190D01*
X22659814Y17380666D01*
X22705290Y17517902D01*
X22714999Y17547202D01*
X22725180Y17646858D01*
X22725180Y17646859D01*
X22725500Y17649991D01*
X22725499Y18425008D01*
X22714999Y18527797D01*
X22659814Y18694334D01*
X22567712Y18843656D01*
X22443656Y18967712D01*
X22294334Y19059814D01*
X22127797Y19114999D01*
X22025009Y19125500D01*
X20974992Y19125499D01*
X20872203Y19114999D01*
X20705666Y19059814D01*
X20667717Y19036407D01*
X20556342Y18967711D01*
X20422039Y18833408D01*
X20420735Y18834711D01*
X20382344Y18800179D01*
X20328752Y18788000D01*
X19779500Y18788000D01*
X19712461Y18807685D01*
X19666706Y18860489D01*
X19655500Y18912000D01*
X19655500Y19337924D01*
X19675185Y19404963D01*
X19727989Y19450718D01*
X19740489Y19455627D01*
X19769334Y19465186D01*
X19845500Y19512165D01*
X19918657Y19557288D01*
X20042711Y19681342D01*
X20094059Y19764592D01*
X20134814Y19830666D01*
X20189999Y19997203D01*
X20200500Y20099991D01*
X20200499Y20900008D01*
X20189999Y21002797D01*
X20134814Y21169334D01*
X20042712Y21318656D01*
X19949047Y21412320D01*
X19915564Y21473641D01*
X19920548Y21543333D01*
X19949047Y21587679D01*
X20042712Y21681344D01*
X20134814Y21830666D01*
X20189999Y21997203D01*
X20200500Y22099991D01*
X20200499Y22900008D01*
X20189999Y23002797D01*
X20134814Y23169334D01*
X20042712Y23318656D01*
X19918656Y23442712D01*
X19809404Y23510099D01*
X19762679Y23562047D01*
X19750500Y23615638D01*
X19750500Y23965677D01*
X19767113Y24027677D01*
X19827179Y24131715D01*
X19885673Y24311742D01*
X19885674Y24311744D01*
X19905460Y24500000D01*
X19885674Y24688256D01*
X19827179Y24868284D01*
X19732533Y25032216D01*
X19605871Y25172888D01*
X19452730Y25284151D01*
X19279803Y25361144D01*
X19218083Y25374262D01*
X19094648Y25400500D01*
X19094646Y25400500D01*
X18905354Y25400500D01*
X18905352Y25400500D01*
X18720197Y25361144D01*
X18547269Y25284151D01*
X18394129Y25172889D01*
X18267466Y25032216D01*
X18172820Y24868284D01*
X18114326Y24688257D01*
X18094540Y24500000D01*
X18114326Y24311742D01*
X18172820Y24131715D01*
X18232887Y24027677D01*
X18249500Y23965677D01*
X18249500Y23615638D01*
X18229815Y23548599D01*
X18190596Y23510099D01*
X18081342Y23442711D01*
X17957288Y23318657D01*
X17865186Y23169334D01*
X17810000Y23002797D01*
X17799819Y22903141D01*
X17799818Y22903122D01*
X17799500Y22900009D01*
X17799500Y22896860D01*
X17799500Y22103141D01*
X17799500Y22103121D01*
X17799501Y22099992D01*
X17799820Y22096860D01*
X17799821Y22096858D01*
X17810000Y21997203D01*
X17865186Y21830665D01*
X17957288Y21681342D01*
X18050950Y21587681D01*
X18084435Y21526358D01*
X18079451Y21456666D01*
X18050950Y21412319D01*
X17957288Y21318657D01*
X17865186Y21169334D01*
X17810000Y21002797D01*
X17799819Y20903141D01*
X17799818Y20903122D01*
X17799500Y20900009D01*
X17799500Y20896860D01*
X17799500Y20103141D01*
X17799500Y20103121D01*
X17799501Y20099992D01*
X17799820Y20096860D01*
X17799821Y20096858D01*
X17810000Y19997203D01*
X17865186Y19830665D01*
X17957288Y19681342D01*
X18081344Y19557286D01*
X18095599Y19548494D01*
X18142323Y19496545D01*
X18154500Y19442957D01*
X18154500Y18089343D01*
X18152229Y18067121D01*
X18154448Y17990869D01*
X18154500Y17987263D01*
X18154500Y17535199D01*
X18134815Y17468160D01*
X18082011Y17422405D01*
X18012853Y17412461D01*
X17995910Y17416121D01*
X17887569Y17447598D01*
X17850694Y17450500D01*
X17419306Y17450500D01*
X17382431Y17447598D01*
X17382427Y17447597D01*
X17295717Y17422405D01*
X17224602Y17401744D01*
X17131555Y17346716D01*
X17069652Y17310107D01*
X17068456Y17312129D01*
X17026358Y17289142D01*
X16956666Y17294126D01*
X16930747Y17310783D01*
X16930348Y17310107D01*
X16916865Y17318081D01*
X16775398Y17401744D01*
X16617569Y17447598D01*
X16580694Y17450500D01*
X16149306Y17450500D01*
X16112431Y17447598D01*
X16004094Y17416123D01*
X15934226Y17416322D01*
X15875556Y17454263D01*
X15846712Y17517902D01*
X15845500Y17535199D01*
X15845500Y19275500D01*
X15865185Y19342539D01*
X15917989Y19388294D01*
X15969496Y19399500D01*
X15996856Y19399500D01*
X15996875Y19399500D01*
X16000008Y19399501D01*
X16003139Y19399820D01*
X16003142Y19399821D01*
X16102796Y19410000D01*
X16269334Y19465186D01*
X16418657Y19557288D01*
X16542711Y19681342D01*
X16594059Y19764592D01*
X16634814Y19830666D01*
X16689999Y19997203D01*
X16700500Y20099991D01*
X16700499Y20900008D01*
X16689999Y21002797D01*
X16634814Y21169334D01*
X16542712Y21318656D01*
X16449047Y21412320D01*
X16415564Y21473641D01*
X16420548Y21543333D01*
X16449047Y21587679D01*
X16542712Y21681344D01*
X16634814Y21830666D01*
X16689999Y21997203D01*
X16700500Y22099991D01*
X16700499Y22900008D01*
X16689999Y23002797D01*
X16634814Y23169334D01*
X16542712Y23318656D01*
X16418656Y23442712D01*
X16309404Y23510099D01*
X16262679Y23562047D01*
X16250500Y23615638D01*
X16250500Y23965677D01*
X16267113Y24027677D01*
X16327179Y24131715D01*
X16385673Y24311742D01*
X16385674Y24311744D01*
X16405460Y24500000D01*
X16385674Y24688256D01*
X16327179Y24868284D01*
X16232533Y25032216D01*
X16105871Y25172888D01*
X15952730Y25284151D01*
X15779803Y25361144D01*
X15718083Y25374262D01*
X15594648Y25400500D01*
X15594646Y25400500D01*
X15405354Y25400500D01*
X15405352Y25400500D01*
X15220197Y25361144D01*
X15047269Y25284151D01*
X14894129Y25172889D01*
X14767466Y25032216D01*
X14672820Y24868284D01*
X14614326Y24688257D01*
X14594540Y24500000D01*
X14614326Y24311742D01*
X14672820Y24131716D01*
X14732887Y24027676D01*
X14749499Y23965677D01*
X14749499Y23615638D01*
X14729814Y23548599D01*
X14690596Y23510099D01*
X14612648Y23462020D01*
X14581341Y23442710D01*
X14457288Y23318657D01*
X14365186Y23169334D01*
X14310000Y23002797D01*
X14299819Y22903141D01*
X14299818Y22903122D01*
X14299500Y22900009D01*
X14299500Y22896860D01*
X14299500Y22103141D01*
X14299500Y22103121D01*
X14299501Y22099992D01*
X14299820Y22096860D01*
X14299821Y22096858D01*
X14310000Y21997203D01*
X14365186Y21830665D01*
X14457288Y21681342D01*
X14550950Y21587681D01*
X14584435Y21526358D01*
X14579451Y21456666D01*
X14550950Y21412319D01*
X14457288Y21318657D01*
X14365186Y21169334D01*
X14310000Y21002797D01*
X14299819Y20903141D01*
X14299818Y20903122D01*
X14299500Y20900009D01*
X14299500Y20896860D01*
X14299500Y20103141D01*
X14299500Y20103121D01*
X14299501Y20099992D01*
X14299820Y20096860D01*
X14299821Y20096858D01*
X14310000Y19997203D01*
X14338206Y19912086D01*
X14344500Y19873082D01*
X14344500Y17082327D01*
X14339576Y17047732D01*
X14297402Y16902572D01*
X14294691Y16868128D01*
X14294690Y16868114D01*
X14294500Y16865694D01*
X14294500Y15284306D01*
X14294690Y15281886D01*
X14294691Y15281871D01*
X14297402Y15247427D01*
X14343255Y15089602D01*
X14426919Y14948134D01*
X14543134Y14831919D01*
X14684602Y14748255D01*
X14842427Y14702402D01*
X14876871Y14699691D01*
X14876886Y14699690D01*
X14879306Y14699500D01*
X14881751Y14699500D01*
X15308249Y14699500D01*
X15310694Y14699500D01*
X15313114Y14699690D01*
X15313128Y14699691D01*
X15347572Y14702402D01*
X15454371Y14733430D01*
X15524241Y14733231D01*
X15582911Y14695289D01*
X15611754Y14631650D01*
X15612494Y14625163D01*
X15614028Y14607632D01*
X15614500Y14596823D01*
X15614500Y14591291D01*
X15614916Y14587730D01*
X15614917Y14587715D01*
X15618098Y14560501D01*
X15618464Y14556916D01*
X15625109Y14480961D01*
X15629330Y14461921D01*
X15655421Y14390232D01*
X15656603Y14386831D01*
X15680579Y14314479D01*
X15689077Y14296925D01*
X15730970Y14233228D01*
X15732905Y14230190D01*
X15772943Y14165281D01*
X15785257Y14150164D01*
X15840710Y14097846D01*
X15843296Y14095334D01*
X16424269Y13514362D01*
X16436049Y13500732D01*
X16450389Y13481470D01*
X16488337Y13449627D01*
X16496287Y13442344D01*
X16497662Y13440969D01*
X16497677Y13440955D01*
X16500224Y13438409D01*
X16503050Y13436173D01*
X16503064Y13436162D01*
X16524534Y13419185D01*
X16527325Y13416912D01*
X16585744Y13367894D01*
X16602186Y13357419D01*
X16671316Y13325181D01*
X16674556Y13323612D01*
X16742695Y13289392D01*
X16761099Y13282996D01*
X16835774Y13267577D01*
X16839293Y13266797D01*
X16913507Y13249208D01*
X16932879Y13247229D01*
X17009132Y13249448D01*
X17012738Y13249500D01*
X28210663Y13249500D01*
X28277702Y13229815D01*
X28283550Y13225817D01*
X28297271Y13215847D01*
X28470197Y13138855D01*
X28655352Y13099500D01*
X28655354Y13099500D01*
X28844648Y13099500D01*
X29029801Y13138854D01*
X29075064Y13159007D01*
X29144314Y13168291D01*
X29207591Y13138662D01*
X29244804Y13079527D01*
X29249499Y13045727D01*
X29249499Y7612229D01*
X29229814Y7545190D01*
X29213180Y7524548D01*
X28725451Y7036819D01*
X28664128Y7003334D01*
X28637770Y7000500D01*
X22539337Y7000500D01*
X22472298Y7020185D01*
X22466450Y7024183D01*
X22462968Y7026713D01*
X22452730Y7034151D01*
X22442380Y7038759D01*
X22393707Y7060430D01*
X22279803Y7111144D01*
X22218083Y7124262D01*
X22094648Y7150500D01*
X22094646Y7150500D01*
X21905354Y7150500D01*
X21905352Y7150500D01*
X21720197Y7111144D01*
X21547269Y7034151D01*
X21394129Y6922889D01*
X21267466Y6782216D01*
X21172820Y6618284D01*
X21117700Y6448641D01*
X21078262Y6390965D01*
X21013904Y6363767D01*
X20945057Y6375682D01*
X20912091Y6399275D01*
X19691817Y7619550D01*
X19658334Y7680871D01*
X19655500Y7707229D01*
X19655500Y9917672D01*
X19660424Y9952267D01*
X19702597Y10097427D01*
X19702598Y10097431D01*
X19705500Y10134306D01*
X19705500Y11715694D01*
X19702598Y11752569D01*
X19656744Y11910398D01*
X19573081Y12051865D01*
X19456865Y12168081D01*
X19315398Y12251744D01*
X19157569Y12297598D01*
X19120694Y12300500D01*
X18689306Y12300500D01*
X18652431Y12297598D01*
X18652427Y12297597D01*
X18650713Y12297099D01*
X18494602Y12251744D01*
X18423344Y12209602D01*
X18339652Y12160107D01*
X18338456Y12162129D01*
X18296358Y12139142D01*
X18226666Y12144126D01*
X18200747Y12160783D01*
X18200348Y12160107D01*
X18120662Y12207233D01*
X18045398Y12251744D01*
X17887569Y12297598D01*
X17850694Y12300500D01*
X17419306Y12300500D01*
X17382431Y12297598D01*
X17382427Y12297597D01*
X17380713Y12297099D01*
X17224602Y12251744D01*
X17153344Y12209602D01*
X17069652Y12160107D01*
X17068456Y12162129D01*
X17026358Y12139142D01*
X16956666Y12144126D01*
X16930747Y12160783D01*
X16930348Y12160107D01*
X16850662Y12207233D01*
X16775398Y12251744D01*
X16617569Y12297598D01*
X16580694Y12300500D01*
X16149306Y12300500D01*
X16112431Y12297598D01*
X16112427Y12297597D01*
X16110713Y12297099D01*
X15954602Y12251744D01*
X15883344Y12209602D01*
X15799652Y12160107D01*
X15798527Y12162007D01*
X15756004Y12138788D01*
X15686312Y12143772D01*
X15660447Y12160397D01*
X15660040Y12159709D01*
X15505197Y12251282D01*
X15347492Y12297100D01*
X15344999Y12297295D01*
X15345000Y11175000D01*
X15344999Y9552702D01*
X15347491Y9552899D01*
X15505197Y9598717D01*
X15660040Y9690291D01*
X15661245Y9688252D01*
X15703288Y9711210D01*
X15772980Y9706226D01*
X15799306Y9689309D01*
X15799652Y9689893D01*
X15954602Y9598255D01*
X16112427Y9552402D01*
X16146871Y9549691D01*
X16146886Y9549690D01*
X16149306Y9549500D01*
X16151751Y9549500D01*
X16578249Y9549500D01*
X16580694Y9549500D01*
X16583114Y9549690D01*
X16583128Y9549691D01*
X16617572Y9552402D01*
X16775397Y9598255D01*
X16902215Y9673255D01*
X16916865Y9681919D01*
X16930348Y9689893D01*
X16931543Y9687870D01*
X16973642Y9710858D01*
X17043334Y9705874D01*
X17069252Y9689216D01*
X17069652Y9689893D01*
X17224602Y9598255D01*
X17382427Y9552402D01*
X17416871Y9549691D01*
X17416886Y9549690D01*
X17419306Y9549500D01*
X17421751Y9549500D01*
X17848249Y9549500D01*
X17850694Y9549500D01*
X17853114Y9549690D01*
X17853128Y9549691D01*
X17887572Y9552402D01*
X17995905Y9583876D01*
X18065774Y9583677D01*
X18124444Y9545735D01*
X18153288Y9482096D01*
X18154500Y9464800D01*
X18154500Y7408705D01*
X18153191Y7390735D01*
X18149711Y7366975D01*
X18154028Y7317629D01*
X18154500Y7306823D01*
X18154500Y7301291D01*
X18154916Y7297730D01*
X18154917Y7297715D01*
X18158098Y7270501D01*
X18158464Y7266916D01*
X18165109Y7190961D01*
X18169330Y7171921D01*
X18195421Y7100232D01*
X18196603Y7096831D01*
X18220579Y7024479D01*
X18229077Y7006925D01*
X18270970Y6943228D01*
X18272905Y6940190D01*
X18312943Y6875281D01*
X18325256Y6860164D01*
X18380708Y6807848D01*
X18383294Y6805336D01*
X19963181Y5225450D01*
X19996666Y5164127D01*
X19999500Y5137769D01*
X19999500Y4251197D01*
X19979815Y4184158D01*
X19951666Y4153347D01*
X19798216Y4033913D01*
X19641021Y3863153D01*
X19617793Y3827599D01*
X19603809Y3806195D01*
X19550663Y3760838D01*
X19481432Y3751414D01*
X19418096Y3780916D01*
X19396191Y3806195D01*
X19385419Y3822683D01*
X19358979Y3863153D01*
X19201784Y4033913D01*
X19018626Y4176470D01*
X18814503Y4286936D01*
X18594981Y4362298D01*
X18366049Y4400500D01*
X18133951Y4400500D01*
X17905019Y4362298D01*
X17905017Y4362297D01*
X17905015Y4362297D01*
X17802526Y4327112D01*
X17685497Y4286936D01*
X17481374Y4176470D01*
X17298216Y4033913D01*
X17141021Y3863153D01*
X17117793Y3827599D01*
X17103809Y3806195D01*
X17050663Y3760838D01*
X16981432Y3751414D01*
X16918096Y3780916D01*
X16896191Y3806195D01*
X16885419Y3822683D01*
X16858979Y3863153D01*
X16701784Y4033913D01*
X16518626Y4176470D01*
X16314503Y4286936D01*
X16094981Y4362298D01*
X15866049Y4400500D01*
X15633951Y4400500D01*
X15405019Y4362298D01*
X15405017Y4362297D01*
X15405015Y4362297D01*
X15302526Y4327112D01*
X15185497Y4286936D01*
X14981374Y4176470D01*
X14798216Y4033913D01*
X14641021Y3863153D01*
X14617793Y3827599D01*
X14603809Y3806195D01*
X14550663Y3760838D01*
X14481432Y3751414D01*
X14418096Y3780916D01*
X14396191Y3806195D01*
X14385419Y3822683D01*
X14358979Y3863153D01*
X14201784Y4033913D01*
X14018626Y4176470D01*
X13814503Y4286936D01*
X13594981Y4362298D01*
X13366049Y4400500D01*
X13133951Y4400500D01*
X12905019Y4362298D01*
X12905017Y4362297D01*
X12905015Y4362297D01*
X12802526Y4327112D01*
X12685497Y4286936D01*
X12481374Y4176470D01*
X12298216Y4033913D01*
X12141021Y3863153D01*
X12014076Y3668849D01*
X11921013Y3456687D01*
X11920843Y3456300D01*
X11863866Y3231305D01*
X11863865Y3231301D01*
X11863865Y3231299D01*
X11844699Y3000000D01*
X8026800Y3000000D01*
X8016156Y3135247D01*
X7947680Y3567589D01*
X7845494Y3993226D01*
X7710227Y4409533D01*
X7542715Y4813943D01*
X7343989Y5203965D01*
X7115275Y5577192D01*
X6857983Y5931324D01*
X6573700Y6264177D01*
X6264177Y6573700D01*
X5931324Y6857983D01*
X5577192Y7115275D01*
X5203965Y7343989D01*
X4813943Y7542715D01*
X4409533Y7710227D01*
X3993226Y7845494D01*
X3567589Y7947680D01*
X3135247Y8016156D01*
X2698866Y8050500D01*
X2696421Y8050500D01*
X1488126Y8050500D01*
X1471941Y8051561D01*
X1385023Y8063004D01*
X1353756Y8071382D01*
X1280332Y8101795D01*
X1252300Y8117978D01*
X1189243Y8166364D01*
X1166364Y8189243D01*
X1117978Y8252300D01*
X1101795Y8280332D01*
X1071382Y8353756D01*
X1063004Y8385023D01*
X1051561Y8471940D01*
X1050500Y8488125D01*
X1050500Y10676854D01*
X1070185Y10743893D01*
X1122989Y10789648D01*
X1192147Y10799592D01*
X1255703Y10770567D01*
X1293477Y10711789D01*
X1293980Y10710027D01*
X1343190Y10532786D01*
X1367676Y10444597D01*
X1368922Y10441468D01*
X1368924Y10441464D01*
X1498902Y10115243D01*
X1498906Y10115232D01*
X1500147Y10112120D01*
X1501717Y10109157D01*
X1501722Y10109148D01*
X1626849Y9873135D01*
X1667789Y9795915D01*
X1669671Y9793138D01*
X1669679Y9793126D01*
X1866748Y9502471D01*
X1866755Y9502461D01*
X1868635Y9499689D01*
X1870802Y9497137D01*
X1870808Y9497130D01*
X2098158Y9229472D01*
X2098169Y9229459D01*
X2100332Y9226914D01*
X2102754Y9224619D01*
X2102769Y9224604D01*
X2357732Y8983091D01*
X2357739Y8983084D01*
X2360163Y8980789D01*
X2362814Y8978773D01*
X2362822Y8978767D01*
X2642412Y8766228D01*
X2642423Y8766220D01*
X2645081Y8764200D01*
X2647945Y8762476D01*
X2647958Y8762468D01*
X2948864Y8581419D01*
X2948873Y8581414D01*
X2951747Y8579685D01*
X2954792Y8578275D01*
X2954802Y8578271D01*
X3273509Y8430822D01*
X3273522Y8430816D01*
X3276565Y8429409D01*
X3279749Y8428336D01*
X3279752Y8428335D01*
X3612542Y8316204D01*
X3612555Y8316200D01*
X3615726Y8315132D01*
X3618988Y8314413D01*
X3619006Y8314409D01*
X3961966Y8238918D01*
X3961979Y8238915D01*
X3965254Y8238195D01*
X3968598Y8237831D01*
X3968600Y8237831D01*
X4317713Y8199863D01*
X4317715Y8199862D01*
X4321052Y8199500D01*
X4324410Y8199500D01*
X4675590Y8199500D01*
X4678948Y8199500D01*
X5034746Y8238195D01*
X5038023Y8238916D01*
X5038033Y8238918D01*
X5380993Y8314409D01*
X5381006Y8314412D01*
X5384274Y8315132D01*
X5387448Y8316201D01*
X5387457Y8316204D01*
X5635005Y8399613D01*
X5723435Y8429409D01*
X5726483Y8430819D01*
X5726490Y8430822D01*
X6045197Y8578271D01*
X6045199Y8578272D01*
X6048253Y8579685D01*
X6051135Y8581419D01*
X6352041Y8762468D01*
X6352045Y8762471D01*
X6354919Y8764200D01*
X6639837Y8980789D01*
X6701252Y9038964D01*
X6897230Y9224604D01*
X6897235Y9224609D01*
X6899668Y9226914D01*
X7131365Y9499689D01*
X7332211Y9795915D01*
X7499853Y10112120D01*
X7632324Y10444597D01*
X7696295Y10675000D01*
X14295000Y10675000D01*
X14295000Y10136803D01*
X14295191Y10131923D01*
X14297900Y10097506D01*
X14343717Y9939802D01*
X14427317Y9798442D01*
X14543442Y9682317D01*
X14684802Y9598717D01*
X14842506Y9552900D01*
X14844999Y9552703D01*
X14845000Y10675000D01*
X14295000Y10675000D01*
X7696295Y10675000D01*
X7728071Y10789448D01*
X7785972Y11142629D01*
X7787727Y11175000D01*
X14294999Y11175000D01*
X14844999Y11175000D01*
X14844999Y12297294D01*
X14844998Y12297295D01*
X14842505Y12297099D01*
X14684802Y12251282D01*
X14543442Y12167682D01*
X14427317Y12051557D01*
X14343717Y11910197D01*
X14297900Y11752493D01*
X14295191Y11718076D01*
X14295000Y11713196D01*
X14294999Y11175000D01*
X7787727Y11175000D01*
X7805348Y11500000D01*
X7785972Y11857371D01*
X7728071Y12210552D01*
X7632324Y12555403D01*
X7499853Y12887880D01*
X7332211Y13204085D01*
X7131365Y13500311D01*
X6899668Y13773086D01*
X6639837Y14019211D01*
X6354919Y14235800D01*
X6048253Y14420315D01*
X5723435Y14570591D01*
X5384274Y14684868D01*
X5034746Y14761805D01*
X4678948Y14800500D01*
X4321052Y14800500D01*
X3965254Y14761805D01*
X3615726Y14684868D01*
X3276565Y14570591D01*
X2951747Y14420315D01*
X2645081Y14235800D01*
X2360163Y14019211D01*
X2357732Y14016908D01*
X2102769Y13775395D01*
X2102763Y13775389D01*
X2100332Y13773086D01*
X1868635Y13500311D01*
X1866748Y13497528D01*
X1682524Y13225817D01*
X1667789Y13204085D01*
X1500147Y12887880D01*
X1367676Y12555403D01*
X1304190Y12326744D01*
X1293980Y12289972D01*
X1257078Y12230642D01*
X1193958Y12200681D01*
X1124661Y12209602D01*
X1071186Y12254572D01*
X1050514Y12321313D01*
X1050500Y12323145D01*
X1050500Y48676854D01*
X1070185Y48743893D01*
X1122989Y48789648D01*
X1192147Y48799592D01*
X1255703Y48770567D01*
X1293477Y48711789D01*
X1293980Y48710027D01*
X1343190Y48532786D01*
X1367676Y48444597D01*
X1368922Y48441468D01*
X1368924Y48441464D01*
X1498902Y48115243D01*
X1498906Y48115232D01*
X1500147Y48112120D01*
X1501717Y48109157D01*
X1501722Y48109148D01*
X1666212Y47798889D01*
X1667789Y47795915D01*
X1669671Y47793138D01*
X1669679Y47793126D01*
X1866748Y47502471D01*
X1866755Y47502461D01*
X1868635Y47499689D01*
X1870802Y47497137D01*
X1870808Y47497130D01*
X2098158Y47229472D01*
X2098169Y47229459D01*
X2100332Y47226914D01*
X2102754Y47224619D01*
X2102769Y47224604D01*
X2357732Y46983091D01*
X2357739Y46983084D01*
X2360163Y46980789D01*
X2362814Y46978773D01*
X2362822Y46978767D01*
X2642412Y46766228D01*
X2642423Y46766220D01*
X2645081Y46764200D01*
X2647945Y46762476D01*
X2647958Y46762468D01*
X2948864Y46581419D01*
X2948873Y46581414D01*
X2951747Y46579685D01*
X2954792Y46578275D01*
X2954802Y46578271D01*
X3273509Y46430822D01*
X3273522Y46430816D01*
X3276565Y46429409D01*
X3279749Y46428336D01*
X3279752Y46428335D01*
X3612542Y46316204D01*
X3612555Y46316200D01*
X3615726Y46315132D01*
X3618988Y46314413D01*
X3619006Y46314409D01*
X3961966Y46238918D01*
X3961979Y46238915D01*
X3965254Y46238195D01*
X3968598Y46237831D01*
X3968600Y46237831D01*
X4317713Y46199863D01*
X4317715Y46199862D01*
X4321052Y46199500D01*
X4324410Y46199500D01*
X4675590Y46199500D01*
X4678948Y46199500D01*
X5034746Y46238195D01*
X5038023Y46238916D01*
X5038033Y46238918D01*
X5380993Y46314409D01*
X5381006Y46314412D01*
X5384274Y46315132D01*
X5387448Y46316201D01*
X5387457Y46316204D01*
X5720247Y46428335D01*
X5723435Y46429409D01*
X5726483Y46430819D01*
X5726490Y46430822D01*
X6045197Y46578271D01*
X6045199Y46578272D01*
X6048253Y46579685D01*
X6051135Y46581419D01*
X6352041Y46762468D01*
X6352045Y46762471D01*
X6354919Y46764200D01*
X6639837Y46980789D01*
X6701252Y47038964D01*
X6897230Y47224604D01*
X6897235Y47224609D01*
X6899668Y47226914D01*
X7131365Y47499689D01*
X7332211Y47795915D01*
X7499853Y48112120D01*
X7632324Y48444597D01*
X7728071Y48789448D01*
X7785972Y49142629D01*
X7805348Y49500000D01*
X7785972Y49857371D01*
X7728071Y50210552D01*
X7632324Y50555403D01*
X7499853Y50887880D01*
X7332211Y51204085D01*
X7131365Y51500311D01*
X6899668Y51773086D01*
X6639837Y52019211D01*
X6354919Y52235800D01*
X6048253Y52420315D01*
X5723435Y52570591D01*
X5384274Y52684868D01*
X5034746Y52761805D01*
X4678948Y52800500D01*
X4321052Y52800500D01*
X3965254Y52761805D01*
X3615726Y52684868D01*
X3276565Y52570591D01*
X2951747Y52420315D01*
X2645081Y52235800D01*
X2360163Y52019211D01*
X2357732Y52016908D01*
X2102769Y51775395D01*
X2102763Y51775389D01*
X2100332Y51773086D01*
X1868635Y51500311D01*
X1667789Y51204085D01*
X1500147Y50887880D01*
X1367676Y50555403D01*
X1366775Y50552158D01*
X1366773Y50552152D01*
X1293980Y50289972D01*
X1257078Y50230642D01*
X1193958Y50200681D01*
X1124661Y50209602D01*
X1071186Y50254572D01*
X1050514Y50321313D01*
X1050500Y50323145D01*
X1050500Y52471874D01*
X1051561Y52488059D01*
X1063004Y52574976D01*
X1071382Y52606243D01*
X1101795Y52679667D01*
X1117980Y52707701D01*
X1158940Y52761081D01*
X1166361Y52770752D01*
X1189249Y52793640D01*
X1190347Y52794482D01*
X1210537Y52809974D01*
X1252298Y52842019D01*
X1280332Y52858204D01*
X1353756Y52888617D01*
X1385021Y52896995D01*
X1447977Y52905284D01*
X1471942Y52908439D01*
X1488126Y52909500D01*
X2696421Y52909500D01*
X2698866Y52909500D01*
X2701285Y52909690D01*
X2701300Y52909691D01*
X3132812Y52943652D01*
X3132821Y52943653D01*
X3135247Y52943844D01*
X3137662Y52944226D01*
X3137666Y52944227D01*
X3565188Y53011939D01*
X3565205Y53011942D01*
X3567589Y53012320D01*
X3577603Y53014724D01*
X3990860Y53113939D01*
X3993226Y53114507D01*
X4184982Y53176812D01*
X4407214Y53249019D01*
X4407225Y53249023D01*
X4409533Y53249773D01*
X4411775Y53250701D01*
X4411784Y53250705D01*
X4811686Y53416351D01*
X4811688Y53416352D01*
X4813943Y53417286D01*
X4875923Y53448866D01*
X5201801Y53614908D01*
X5201808Y53614912D01*
X5203965Y53616011D01*
X5206029Y53617276D01*
X5206040Y53617282D01*
X5575102Y53843444D01*
X5575106Y53843446D01*
X5577192Y53844725D01*
X5579162Y53846156D01*
X5579169Y53846161D01*
X5929352Y54100585D01*
X5931323Y54102017D01*
X5945937Y54114498D01*
X6262318Y54384713D01*
X6262321Y54384716D01*
X6264177Y54386301D01*
X6573699Y54695823D01*
X6645185Y54779522D01*
X6856398Y55026821D01*
X6856401Y55026825D01*
X6857983Y55028677D01*
X7115275Y55382808D01*
X7343989Y55756035D01*
X7542714Y56146057D01*
X7710227Y56550467D01*
X7845493Y56966774D01*
X7947680Y57392411D01*
X8016156Y57824753D01*
X8029948Y58000000D01*
X14345201Y58000000D01*
X14364361Y57768782D01*
X14421319Y57543860D01*
X14514516Y57331390D01*
X14598812Y57202365D01*
X15224070Y57827624D01*
X15226884Y57814085D01*
X15296442Y57679844D01*
X15399638Y57569348D01*
X15528819Y57490791D01*
X15580002Y57476449D01*
X14951200Y56847647D01*
X14951200Y56847646D01*
X14981645Y56823952D01*
X15185703Y56713521D01*
X15405140Y56638188D01*
X15633993Y56600000D01*
X15866007Y56600000D01*
X16094859Y56638188D01*
X16314299Y56713522D01*
X16518349Y56823948D01*
X16548799Y56847647D01*
X16548799Y56847648D01*
X15921568Y57474878D01*
X16038458Y57525651D01*
X16155739Y57621066D01*
X16242928Y57744585D01*
X16273354Y57830196D01*
X16901186Y57202364D01*
X16985484Y57331392D01*
X17078680Y57543860D01*
X17135638Y57768782D01*
X17154798Y58000000D01*
X19344699Y58000000D01*
X19363865Y57768700D01*
X19363865Y57768696D01*
X19363866Y57768695D01*
X19386366Y57679844D01*
X19420844Y57543696D01*
X19514076Y57331150D01*
X19641020Y57136848D01*
X19798215Y56966087D01*
X19981372Y56823531D01*
X19981374Y56823530D01*
X20124664Y56745985D01*
X20185501Y56713062D01*
X20405015Y56637702D01*
X20588164Y56607140D01*
X20633951Y56599500D01*
X20633952Y56599500D01*
X20866048Y56599500D01*
X20866049Y56599500D01*
X20923281Y56609050D01*
X21094984Y56637702D01*
X21314498Y56713062D01*
X21314499Y56713062D01*
X21314503Y56713064D01*
X21518626Y56823530D01*
X21701784Y56966087D01*
X21858979Y57136847D01*
X21985924Y57331151D01*
X22079157Y57543700D01*
X22136134Y57768695D01*
X22155300Y58000000D01*
X41345201Y58000000D01*
X41364361Y57768782D01*
X41421319Y57543860D01*
X41514516Y57331390D01*
X41598812Y57202365D01*
X42224070Y57827623D01*
X42226884Y57814085D01*
X42296442Y57679844D01*
X42399638Y57569348D01*
X42528819Y57490791D01*
X42580002Y57476449D01*
X41951200Y56847647D01*
X41951200Y56847646D01*
X41981645Y56823952D01*
X42185703Y56713521D01*
X42405140Y56638188D01*
X42633993Y56600000D01*
X42866007Y56600000D01*
X43094859Y56638188D01*
X43314299Y56713522D01*
X43518349Y56823948D01*
X43548799Y56847647D01*
X43548799Y56847648D01*
X42921568Y57474878D01*
X43038458Y57525651D01*
X43155739Y57621066D01*
X43242928Y57744585D01*
X43273354Y57830197D01*
X43901186Y57202364D01*
X43985484Y57331392D01*
X44078680Y57543860D01*
X44135638Y57768782D01*
X44154798Y58000000D01*
X46344699Y58000000D01*
X46363865Y57768700D01*
X46363865Y57768696D01*
X46363866Y57768695D01*
X46386366Y57679844D01*
X46420844Y57543696D01*
X46514076Y57331150D01*
X46641020Y57136848D01*
X46798215Y56966087D01*
X46981372Y56823531D01*
X46981374Y56823530D01*
X47124664Y56745985D01*
X47185501Y56713062D01*
X47405015Y56637702D01*
X47588164Y56607140D01*
X47633951Y56599500D01*
X47633952Y56599500D01*
X47866048Y56599500D01*
X47866049Y56599500D01*
X47923281Y56609050D01*
X48094984Y56637702D01*
X48314498Y56713062D01*
X48314499Y56713062D01*
X48314503Y56713064D01*
X48518626Y56823530D01*
X48701784Y56966087D01*
X48858979Y57136847D01*
X48985924Y57331151D01*
X49079157Y57543700D01*
X49136134Y57768695D01*
X49155300Y58000000D01*
X49136134Y58231305D01*
X49079157Y58456300D01*
X48985924Y58668849D01*
X48858979Y58863153D01*
X48701784Y59033913D01*
X48518626Y59176470D01*
X48314503Y59286936D01*
X48094981Y59362298D01*
X47866049Y59400500D01*
X47633951Y59400500D01*
X47405019Y59362298D01*
X47405017Y59362297D01*
X47405015Y59362297D01*
X47295257Y59324616D01*
X47185497Y59286936D01*
X46981374Y59176470D01*
X46798216Y59033913D01*
X46641021Y58863153D01*
X46598215Y58797633D01*
X46514076Y58668849D01*
X46430115Y58477437D01*
X46420843Y58456300D01*
X46363866Y58231305D01*
X46363865Y58231301D01*
X46363865Y58231299D01*
X46344699Y58000000D01*
X44154798Y58000000D01*
X44135638Y58231217D01*
X44078680Y58456138D01*
X43985483Y58668607D01*
X43901186Y58797634D01*
X43275929Y58172377D01*
X43273116Y58185915D01*
X43203558Y58320156D01*
X43100362Y58430652D01*
X42971181Y58509209D01*
X42919997Y58523550D01*
X43548798Y59152351D01*
X43518353Y59176048D01*
X43314296Y59286478D01*
X43094859Y59361811D01*
X42866007Y59400000D01*
X42633993Y59400000D01*
X42405140Y59361811D01*
X42185700Y59286477D01*
X41981650Y59176051D01*
X41951200Y59152351D01*
X41951199Y59152351D01*
X42578431Y58525121D01*
X42461542Y58474349D01*
X42344261Y58378934D01*
X42257072Y58255415D01*
X42226644Y58169801D01*
X41598811Y58797633D01*
X41514516Y58668609D01*
X41421319Y58456139D01*
X41364361Y58231217D01*
X41345201Y58000000D01*
X22155300Y58000000D01*
X22136134Y58231305D01*
X22079157Y58456300D01*
X21985924Y58668849D01*
X21858979Y58863153D01*
X21701784Y59033913D01*
X21518626Y59176470D01*
X21314503Y59286936D01*
X21094981Y59362298D01*
X20866049Y59400500D01*
X20633951Y59400500D01*
X20405019Y59362298D01*
X20405017Y59362297D01*
X20405015Y59362297D01*
X20295257Y59324616D01*
X20185497Y59286936D01*
X19981374Y59176470D01*
X19798216Y59033913D01*
X19641021Y58863153D01*
X19598215Y58797633D01*
X19514076Y58668849D01*
X19430115Y58477437D01*
X19420843Y58456300D01*
X19363866Y58231305D01*
X19363865Y58231301D01*
X19363865Y58231299D01*
X19344699Y58000000D01*
X17154798Y58000000D01*
X17135638Y58231217D01*
X17078680Y58456138D01*
X16985483Y58668607D01*
X16901186Y58797634D01*
X16275929Y58172377D01*
X16273116Y58185915D01*
X16203558Y58320156D01*
X16100362Y58430652D01*
X15971181Y58509209D01*
X15919996Y58523550D01*
X16548798Y59152351D01*
X16518353Y59176048D01*
X16314296Y59286478D01*
X16094859Y59361811D01*
X15866007Y59400000D01*
X15633993Y59400000D01*
X15405140Y59361811D01*
X15185700Y59286477D01*
X14981650Y59176051D01*
X14951200Y59152351D01*
X14951199Y59152351D01*
X15578430Y58525120D01*
X15461542Y58474349D01*
X15344261Y58378934D01*
X15257072Y58255415D01*
X15226644Y58169801D01*
X14598811Y58797634D01*
X14514516Y58668609D01*
X14421319Y58456139D01*
X14364361Y58231217D01*
X14345201Y58000000D01*
X8029948Y58000000D01*
X8050500Y58261134D01*
X8050500Y58480000D01*
X8050500Y58496408D01*
X8050500Y59471874D01*
X8051561Y59488059D01*
X8063004Y59574976D01*
X8071382Y59606243D01*
X8101795Y59679667D01*
X8117980Y59707701D01*
X8166359Y59770750D01*
X8189249Y59793640D01*
X8190347Y59794482D01*
X8210537Y59809974D01*
X8252298Y59842019D01*
X8280332Y59858204D01*
X8353756Y59888617D01*
X8385021Y59896995D01*
X8447977Y59905284D01*
X8471942Y59908439D01*
X8488126Y59909500D01*
X8496408Y59909500D01*
X52463592Y59909500D01*
X52471874Y59909500D01*
X52488057Y59908439D01*
G37*
%TD.AperFunction*%
%TD*%
M02*
