G04 EAGLE Gerber RS-274X export*
G75*
%MOMM*%
%FSLAX34Y34*%
%LPD*%
%INTop Copper*%
%IPPOS*%
%AMOC8*
5,1,8,0,0,1.08239X$1,22.5*%
G01*
G04 Define Apertures*
%ADD10C,1.397000*%
%ADD11C,1.219200*%
%ADD12C,8.500000*%
%ADD13R,1.508000X1.508000*%
%ADD14C,1.508000*%
%ADD15C,0.406400*%
%ADD16C,0.756400*%
G36*
X304005Y17687D02*
X303213Y17526D01*
X97500Y17526D01*
X96974Y17595D01*
X93003Y18659D01*
X92092Y19185D01*
X89185Y22092D01*
X88659Y23003D01*
X87595Y26974D01*
X87526Y27500D01*
X87526Y44086D01*
X84117Y56809D01*
X77531Y68217D01*
X68217Y77531D01*
X56809Y84117D01*
X44086Y87526D01*
X27500Y87526D01*
X26974Y87595D01*
X23003Y88659D01*
X22092Y89185D01*
X19185Y92092D01*
X18659Y93003D01*
X17595Y96974D01*
X17526Y97500D01*
X17526Y303213D01*
X17752Y304143D01*
X18258Y304774D01*
X18970Y305158D01*
X19775Y305233D01*
X20546Y304988D01*
X21160Y304463D01*
X21521Y303739D01*
X22649Y299527D01*
X28780Y288909D01*
X37449Y280240D01*
X48067Y274109D01*
X59910Y270936D01*
X72170Y270936D01*
X84013Y274109D01*
X94631Y280240D01*
X103301Y288909D01*
X109431Y299527D01*
X112604Y311370D01*
X112604Y323630D01*
X109431Y335473D01*
X103301Y346091D01*
X94631Y354761D01*
X84013Y360891D01*
X72170Y364064D01*
X59910Y364064D01*
X48067Y360891D01*
X37449Y354761D01*
X28780Y346091D01*
X22649Y335473D01*
X21521Y331261D01*
X21062Y330421D01*
X20410Y329942D01*
X19623Y329756D01*
X18826Y329892D01*
X18144Y330328D01*
X17687Y330995D01*
X17526Y331787D01*
X17526Y537500D01*
X17595Y538026D01*
X18659Y541997D01*
X19185Y542908D01*
X22092Y545815D01*
X23003Y546341D01*
X26974Y547405D01*
X27500Y547474D01*
X44086Y547474D01*
X56809Y550883D01*
X68217Y557469D01*
X77531Y566783D01*
X84117Y578191D01*
X87526Y590914D01*
X87526Y607500D01*
X87595Y608026D01*
X88659Y611997D01*
X89185Y612908D01*
X92092Y615815D01*
X93003Y616341D01*
X96974Y617405D01*
X97500Y617474D01*
X303213Y617474D01*
X304143Y617248D01*
X304774Y616742D01*
X305158Y616030D01*
X305233Y615225D01*
X304988Y614454D01*
X304463Y613840D01*
X303739Y613479D01*
X299527Y612351D01*
X288909Y606221D01*
X280240Y597551D01*
X274109Y586933D01*
X270936Y575090D01*
X270936Y562830D01*
X274109Y550987D01*
X280240Y540369D01*
X288909Y531700D01*
X299527Y525569D01*
X311370Y522396D01*
X323630Y522396D01*
X335473Y525569D01*
X346091Y531700D01*
X354761Y540369D01*
X360891Y550987D01*
X364064Y562830D01*
X364064Y575090D01*
X360891Y586933D01*
X354761Y597551D01*
X346091Y606221D01*
X335473Y612351D01*
X331261Y613479D01*
X330421Y613938D01*
X329942Y614590D01*
X329756Y615377D01*
X329892Y616175D01*
X330328Y616856D01*
X330995Y617313D01*
X331787Y617474D01*
X537500Y617474D01*
X538026Y617405D01*
X541997Y616341D01*
X542908Y615815D01*
X545815Y612908D01*
X546341Y611997D01*
X547405Y608026D01*
X547474Y607500D01*
X547474Y590914D01*
X550883Y578191D01*
X557469Y566783D01*
X566783Y557469D01*
X578191Y550883D01*
X590914Y547474D01*
X607500Y547474D01*
X608026Y547405D01*
X611997Y546341D01*
X612908Y545815D01*
X615815Y542908D01*
X616341Y541997D01*
X617405Y538026D01*
X617474Y537500D01*
X617474Y331787D01*
X617248Y330857D01*
X616742Y330226D01*
X616030Y329842D01*
X615225Y329767D01*
X614454Y330012D01*
X613840Y330538D01*
X613479Y331261D01*
X612351Y335473D01*
X606221Y346091D01*
X597551Y354761D01*
X586933Y360891D01*
X575090Y364064D01*
X562830Y364064D01*
X550987Y360891D01*
X540369Y354761D01*
X531700Y346091D01*
X525569Y335473D01*
X522396Y323630D01*
X522396Y311370D01*
X525569Y299527D01*
X531700Y288909D01*
X540369Y280240D01*
X550987Y274109D01*
X562830Y270936D01*
X575090Y270936D01*
X586933Y274109D01*
X597551Y280240D01*
X606221Y288909D01*
X612351Y299527D01*
X613479Y303739D01*
X613938Y304579D01*
X614590Y305058D01*
X615377Y305244D01*
X616175Y305108D01*
X616856Y304672D01*
X617313Y304005D01*
X617474Y303213D01*
X617474Y97500D01*
X617405Y96974D01*
X616341Y93003D01*
X615815Y92092D01*
X612908Y89185D01*
X611997Y88659D01*
X608026Y87595D01*
X607500Y87526D01*
X590914Y87526D01*
X578191Y84117D01*
X566783Y77531D01*
X557469Y68217D01*
X550883Y56809D01*
X547474Y44086D01*
X547474Y27500D01*
X547405Y26974D01*
X546341Y23003D01*
X545815Y22092D01*
X542908Y19185D01*
X541997Y18659D01*
X538026Y17595D01*
X537500Y17526D01*
X331787Y17526D01*
X330857Y17752D01*
X330226Y18258D01*
X329842Y18970D01*
X329767Y19775D01*
X330012Y20546D01*
X330538Y21160D01*
X331261Y21521D01*
X335473Y22649D01*
X346091Y28780D01*
X354761Y37449D01*
X360891Y48067D01*
X364064Y59910D01*
X364064Y72170D01*
X360891Y84013D01*
X354761Y94631D01*
X346091Y103301D01*
X335473Y109431D01*
X323630Y112604D01*
X311370Y112604D01*
X299527Y109431D01*
X288909Y103301D01*
X280240Y94631D01*
X274109Y84013D01*
X270936Y72170D01*
X270936Y59910D01*
X274109Y48067D01*
X280240Y37449D01*
X288909Y28780D01*
X299527Y22649D01*
X303739Y21521D01*
X304579Y21062D01*
X305058Y20410D01*
X305244Y19623D01*
X305108Y18826D01*
X304672Y18144D01*
X304005Y17687D01*
G37*
%LPC*%
G36*
X517391Y504063D02*
X524009Y504063D01*
X530124Y506596D01*
X534804Y511276D01*
X537337Y517391D01*
X537337Y524009D01*
X534804Y530124D01*
X530124Y534804D01*
X524009Y537337D01*
X517391Y537337D01*
X511276Y534804D01*
X506596Y530124D01*
X504063Y524009D01*
X504063Y517391D01*
X506596Y511276D01*
X511276Y506596D01*
X517391Y504063D01*
G37*
G36*
X390391Y504063D02*
X397009Y504063D01*
X403124Y506596D01*
X407804Y511276D01*
X410337Y517391D01*
X410337Y524009D01*
X407804Y530124D01*
X403124Y534804D01*
X397009Y537337D01*
X390391Y537337D01*
X384276Y534804D01*
X379596Y530124D01*
X377063Y524009D01*
X377063Y517391D01*
X379596Y511276D01*
X384276Y506596D01*
X390391Y504063D01*
G37*
G36*
X237991Y504063D02*
X244609Y504063D01*
X250724Y506596D01*
X255404Y511276D01*
X257937Y517391D01*
X257937Y524009D01*
X255404Y530124D01*
X250724Y534804D01*
X244609Y537337D01*
X237991Y537337D01*
X231876Y534804D01*
X227196Y530124D01*
X224663Y524009D01*
X224663Y517391D01*
X227196Y511276D01*
X231876Y506596D01*
X237991Y504063D01*
G37*
G36*
X110991Y504063D02*
X117609Y504063D01*
X123724Y506596D01*
X128404Y511276D01*
X130937Y517391D01*
X130937Y524009D01*
X128404Y530124D01*
X123724Y534804D01*
X117609Y537337D01*
X110991Y537337D01*
X104876Y534804D01*
X100196Y530124D01*
X97663Y524009D01*
X97663Y517391D01*
X100196Y511276D01*
X104876Y506596D01*
X110991Y504063D01*
G37*
G36*
X432319Y466090D02*
X436361Y466090D01*
X440095Y467637D01*
X440523Y468065D01*
X441138Y468486D01*
X441928Y468660D01*
X442723Y468511D01*
X443397Y468065D01*
X443825Y467637D01*
X447559Y466090D01*
X451601Y466090D01*
X455335Y467637D01*
X455763Y468065D01*
X456378Y468486D01*
X457168Y468660D01*
X457963Y468511D01*
X458637Y468065D01*
X459065Y467637D01*
X462799Y466090D01*
X466841Y466090D01*
X470575Y467637D01*
X472081Y469142D01*
X472695Y469564D01*
X473485Y469737D01*
X474280Y469589D01*
X474954Y469142D01*
X475168Y468929D01*
X478342Y467614D01*
X478536Y467614D01*
X478536Y484886D01*
X478342Y484886D01*
X475168Y483571D01*
X474954Y483358D01*
X474340Y482936D01*
X473550Y482763D01*
X472755Y482911D01*
X472081Y483358D01*
X470575Y484863D01*
X466841Y486410D01*
X462799Y486410D01*
X459065Y484863D01*
X458637Y484435D01*
X458022Y484014D01*
X457232Y483840D01*
X456437Y483989D01*
X455763Y484435D01*
X455335Y484863D01*
X451601Y486410D01*
X447559Y486410D01*
X443825Y484863D01*
X443397Y484435D01*
X442782Y484014D01*
X441992Y483840D01*
X441197Y483989D01*
X440523Y484435D01*
X440095Y484863D01*
X436361Y486410D01*
X432319Y486410D01*
X428585Y484863D01*
X425727Y482005D01*
X424180Y478271D01*
X424180Y474229D01*
X425727Y470495D01*
X428585Y467637D01*
X432319Y466090D01*
G37*
G36*
X152919Y466090D02*
X156961Y466090D01*
X160695Y467637D01*
X161123Y468065D01*
X161738Y468486D01*
X162528Y468660D01*
X163323Y468511D01*
X163997Y468065D01*
X164425Y467637D01*
X168159Y466090D01*
X172201Y466090D01*
X175935Y467637D01*
X176363Y468065D01*
X176978Y468486D01*
X177768Y468660D01*
X178563Y468511D01*
X179237Y468065D01*
X179665Y467637D01*
X183399Y466090D01*
X187441Y466090D01*
X191175Y467637D01*
X192681Y469142D01*
X193295Y469564D01*
X194085Y469737D01*
X194880Y469589D01*
X195554Y469142D01*
X195768Y468929D01*
X198942Y467614D01*
X199136Y467614D01*
X199136Y484886D01*
X198942Y484886D01*
X195768Y483571D01*
X195554Y483358D01*
X194940Y482936D01*
X194150Y482763D01*
X193355Y482911D01*
X192681Y483358D01*
X191175Y484863D01*
X187441Y486410D01*
X183399Y486410D01*
X179665Y484863D01*
X179237Y484435D01*
X178622Y484014D01*
X177832Y483840D01*
X177037Y483989D01*
X176363Y484435D01*
X175935Y484863D01*
X172201Y486410D01*
X168159Y486410D01*
X164425Y484863D01*
X163997Y484435D01*
X163382Y484014D01*
X162592Y483840D01*
X161797Y483989D01*
X161123Y484435D01*
X160695Y484863D01*
X156961Y486410D01*
X152919Y486410D01*
X149185Y484863D01*
X146327Y482005D01*
X144780Y478271D01*
X144780Y474229D01*
X146327Y470495D01*
X149185Y467637D01*
X152919Y466090D01*
G37*
G36*
X517391Y377063D02*
X524009Y377063D01*
X530124Y379596D01*
X534804Y384276D01*
X537337Y390391D01*
X537337Y397009D01*
X534804Y403124D01*
X530124Y407804D01*
X524009Y410337D01*
X517391Y410337D01*
X511276Y407804D01*
X508505Y405033D01*
X507934Y404632D01*
X507149Y404439D01*
X506350Y404569D01*
X505666Y404999D01*
X505203Y405662D01*
X505036Y406454D01*
X505191Y407247D01*
X506349Y410044D01*
X506349Y414440D01*
X504667Y418501D01*
X501991Y421176D01*
X501557Y421821D01*
X501396Y422613D01*
X501396Y470408D01*
X501545Y471171D01*
X501929Y471752D01*
X503146Y474689D01*
X503146Y477811D01*
X501952Y480694D01*
X499744Y482902D01*
X496861Y484096D01*
X493739Y484096D01*
X490856Y482902D01*
X489675Y481721D01*
X489061Y481300D01*
X488271Y481126D01*
X487476Y481275D01*
X486802Y481721D01*
X484952Y483571D01*
X481778Y484886D01*
X481584Y484886D01*
X481584Y467614D01*
X481778Y467614D01*
X484952Y468929D01*
X485735Y469712D01*
X486320Y470120D01*
X487107Y470306D01*
X487905Y470171D01*
X488586Y469735D01*
X489043Y469068D01*
X489204Y468275D01*
X489204Y448280D01*
X489079Y447578D01*
X488654Y446890D01*
X487994Y446422D01*
X487204Y446248D01*
X486409Y446397D01*
X485924Y446718D01*
X482081Y448310D01*
X478039Y448310D01*
X474305Y446763D01*
X473877Y446335D01*
X473262Y445914D01*
X472472Y445740D01*
X471677Y445889D01*
X471003Y446335D01*
X470575Y446763D01*
X466841Y448310D01*
X462799Y448310D01*
X459065Y446763D01*
X458637Y446335D01*
X458022Y445914D01*
X457232Y445740D01*
X456437Y445889D01*
X455763Y446335D01*
X455335Y446763D01*
X451601Y448310D01*
X447559Y448310D01*
X443825Y446763D01*
X442319Y445258D01*
X441705Y444836D01*
X440915Y444663D01*
X440120Y444811D01*
X439446Y445258D01*
X439232Y445471D01*
X436058Y446786D01*
X435864Y446786D01*
X435864Y429514D01*
X436058Y429514D01*
X439232Y430829D01*
X439446Y431042D01*
X440060Y431464D01*
X440850Y431637D01*
X441645Y431489D01*
X442319Y431042D01*
X443825Y429537D01*
X447559Y427990D01*
X451601Y427990D01*
X455335Y429537D01*
X455763Y429965D01*
X456378Y430386D01*
X457168Y430560D01*
X457963Y430411D01*
X458637Y429965D01*
X459065Y429537D01*
X462799Y427990D01*
X466841Y427990D01*
X470575Y429537D01*
X471003Y429965D01*
X471618Y430386D01*
X472408Y430560D01*
X473203Y430411D01*
X473877Y429965D01*
X474305Y429537D01*
X478039Y427990D01*
X482081Y427990D01*
X485901Y429572D01*
X486320Y429865D01*
X487107Y430051D01*
X487905Y429915D01*
X488586Y429479D01*
X489043Y428812D01*
X489204Y428020D01*
X489204Y422613D01*
X489055Y421851D01*
X488609Y421176D01*
X485933Y418501D01*
X484251Y414440D01*
X484251Y410044D01*
X485933Y405983D01*
X489041Y402875D01*
X493102Y401193D01*
X497498Y401193D01*
X501559Y402875D01*
X502758Y404074D01*
X503328Y404476D01*
X504114Y404668D01*
X504912Y404539D01*
X505597Y404108D01*
X506060Y403445D01*
X506227Y402654D01*
X506072Y401860D01*
X504063Y397009D01*
X504063Y390391D01*
X506596Y384276D01*
X511276Y379596D01*
X517391Y377063D01*
G37*
G36*
X237991Y377063D02*
X244609Y377063D01*
X250724Y379596D01*
X255404Y384276D01*
X257937Y390391D01*
X257937Y397009D01*
X255404Y403124D01*
X255343Y403185D01*
X254935Y403770D01*
X254749Y404557D01*
X254885Y405355D01*
X255320Y406036D01*
X255987Y406493D01*
X256780Y406654D01*
X324358Y406654D01*
X325121Y406505D01*
X325702Y406121D01*
X328639Y404904D01*
X331761Y404904D01*
X334644Y406098D01*
X336852Y408306D01*
X338046Y411189D01*
X338046Y414311D01*
X336852Y417194D01*
X334644Y419402D01*
X331761Y420596D01*
X328639Y420596D01*
X325706Y419381D01*
X325151Y419007D01*
X324358Y418846D01*
X225763Y418846D01*
X225001Y418995D01*
X224326Y419441D01*
X222591Y421176D01*
X222157Y421821D01*
X221996Y422613D01*
X221996Y470408D01*
X222145Y471171D01*
X222529Y471752D01*
X223746Y474689D01*
X223746Y477811D01*
X222552Y480694D01*
X220344Y482902D01*
X217461Y484096D01*
X214339Y484096D01*
X211456Y482902D01*
X210275Y481721D01*
X209661Y481300D01*
X208871Y481126D01*
X208076Y481275D01*
X207402Y481721D01*
X205552Y483571D01*
X202378Y484886D01*
X202184Y484886D01*
X202184Y467614D01*
X202378Y467614D01*
X205552Y468929D01*
X206335Y469712D01*
X206920Y470120D01*
X207707Y470306D01*
X208505Y470171D01*
X209186Y469735D01*
X209643Y469068D01*
X209804Y468275D01*
X209804Y448280D01*
X209679Y447578D01*
X209254Y446890D01*
X208594Y446422D01*
X207804Y446248D01*
X207009Y446397D01*
X206524Y446718D01*
X202681Y448310D01*
X198639Y448310D01*
X194905Y446763D01*
X194477Y446335D01*
X193862Y445914D01*
X193072Y445740D01*
X192277Y445889D01*
X191603Y446335D01*
X191175Y446763D01*
X187441Y448310D01*
X183399Y448310D01*
X179665Y446763D01*
X179237Y446335D01*
X178622Y445914D01*
X177832Y445740D01*
X177037Y445889D01*
X176363Y446335D01*
X175935Y446763D01*
X172201Y448310D01*
X168159Y448310D01*
X164425Y446763D01*
X162919Y445258D01*
X162305Y444836D01*
X161515Y444663D01*
X160720Y444811D01*
X160046Y445258D01*
X159832Y445471D01*
X156658Y446786D01*
X156464Y446786D01*
X156464Y429514D01*
X156658Y429514D01*
X159832Y430829D01*
X160046Y431042D01*
X160660Y431464D01*
X161450Y431637D01*
X162245Y431489D01*
X162919Y431042D01*
X164425Y429537D01*
X168159Y427990D01*
X172201Y427990D01*
X175935Y429537D01*
X176363Y429965D01*
X176978Y430386D01*
X177768Y430560D01*
X178563Y430411D01*
X179237Y429965D01*
X179665Y429537D01*
X183399Y427990D01*
X187441Y427990D01*
X191175Y429537D01*
X191603Y429965D01*
X192218Y430386D01*
X193008Y430560D01*
X193803Y430411D01*
X194477Y429965D01*
X194905Y429537D01*
X198639Y427990D01*
X202681Y427990D01*
X206501Y429572D01*
X206920Y429865D01*
X207707Y430051D01*
X208505Y429915D01*
X209186Y429479D01*
X209643Y428812D01*
X209804Y428020D01*
X209804Y422613D01*
X209655Y421851D01*
X209209Y421176D01*
X206533Y418501D01*
X204851Y414440D01*
X204851Y410044D01*
X206533Y405983D01*
X209641Y402875D01*
X213702Y401193D01*
X218098Y401193D01*
X222159Y402875D01*
X223358Y404074D01*
X223928Y404476D01*
X224714Y404668D01*
X225512Y404539D01*
X226197Y404108D01*
X226660Y403445D01*
X226827Y402654D01*
X226672Y401860D01*
X224663Y397009D01*
X224663Y390391D01*
X227196Y384276D01*
X231876Y379596D01*
X237991Y377063D01*
G37*
G36*
X425704Y439674D02*
X432816Y439674D01*
X432816Y446786D01*
X432622Y446786D01*
X429448Y445471D01*
X427019Y443042D01*
X425704Y439868D01*
X425704Y439674D01*
G37*
G36*
X146304Y439674D02*
X153416Y439674D01*
X153416Y446786D01*
X153222Y446786D01*
X150048Y445471D01*
X147619Y443042D01*
X146304Y439868D01*
X146304Y439674D01*
G37*
G36*
X432622Y429514D02*
X432816Y429514D01*
X432816Y436626D01*
X425704Y436626D01*
X425704Y436432D01*
X427019Y433258D01*
X429448Y430829D01*
X432622Y429514D01*
G37*
G36*
X153222Y429514D02*
X153416Y429514D01*
X153416Y436626D01*
X146304Y436626D01*
X146304Y436432D01*
X147619Y433258D01*
X150048Y430829D01*
X153222Y429514D01*
G37*
G36*
X390391Y377063D02*
X397009Y377063D01*
X403124Y379596D01*
X407804Y384276D01*
X410337Y390391D01*
X410337Y397009D01*
X408328Y401860D01*
X408175Y402540D01*
X408298Y403340D01*
X408723Y404028D01*
X409383Y404496D01*
X410173Y404669D01*
X410968Y404521D01*
X411642Y404074D01*
X412841Y402875D01*
X416902Y401193D01*
X421298Y401193D01*
X425359Y402875D01*
X428467Y405983D01*
X430149Y410044D01*
X430149Y414440D01*
X428467Y418501D01*
X425359Y421609D01*
X421298Y423291D01*
X416902Y423291D01*
X412841Y421609D01*
X409733Y418501D01*
X408051Y414440D01*
X408051Y410044D01*
X409210Y407247D01*
X409362Y406567D01*
X409239Y405768D01*
X408814Y405079D01*
X408154Y404612D01*
X407365Y404438D01*
X406570Y404586D01*
X405895Y405033D01*
X403124Y407804D01*
X397009Y410337D01*
X390391Y410337D01*
X384276Y407804D01*
X379596Y403124D01*
X377063Y397009D01*
X377063Y390391D01*
X379596Y384276D01*
X384276Y379596D01*
X390391Y377063D01*
G37*
G36*
X110991Y377063D02*
X117609Y377063D01*
X123724Y379596D01*
X128404Y384276D01*
X130937Y390391D01*
X130937Y397009D01*
X128928Y401860D01*
X128775Y402540D01*
X128898Y403340D01*
X129323Y404028D01*
X129983Y404496D01*
X130773Y404669D01*
X131568Y404521D01*
X132242Y404074D01*
X133441Y402875D01*
X137502Y401193D01*
X141898Y401193D01*
X145959Y402875D01*
X149067Y405983D01*
X150749Y410044D01*
X150749Y414440D01*
X149067Y418501D01*
X145959Y421609D01*
X141898Y423291D01*
X137502Y423291D01*
X133441Y421609D01*
X130333Y418501D01*
X128651Y414440D01*
X128651Y410044D01*
X129810Y407247D01*
X129962Y406567D01*
X129839Y405768D01*
X129414Y405079D01*
X128754Y404612D01*
X127965Y404438D01*
X127170Y404586D01*
X126495Y405033D01*
X123724Y407804D01*
X117609Y410337D01*
X110991Y410337D01*
X104876Y407804D01*
X100196Y403124D01*
X97663Y397009D01*
X97663Y390391D01*
X100196Y384276D01*
X104876Y379596D01*
X110991Y377063D01*
G37*
G36*
X327623Y332514D02*
X330745Y332514D01*
X333628Y333708D01*
X335836Y335916D01*
X337030Y338799D01*
X337030Y341921D01*
X335836Y344804D01*
X333628Y347012D01*
X330745Y348206D01*
X327623Y348206D01*
X324690Y346991D01*
X324135Y346617D01*
X323342Y346456D01*
X297236Y346456D01*
X296473Y346605D01*
X295826Y347033D01*
X292927Y348234D01*
X289805Y348234D01*
X286922Y347040D01*
X284714Y344832D01*
X283520Y341949D01*
X283520Y338827D01*
X284714Y335944D01*
X286922Y333736D01*
X289805Y332542D01*
X292927Y332542D01*
X295895Y333772D01*
X296387Y334103D01*
X297180Y334264D01*
X323342Y334264D01*
X324105Y334115D01*
X324686Y333731D01*
X327623Y332514D01*
G37*
G36*
X227692Y300646D02*
X232308Y300646D01*
X236573Y302413D01*
X239837Y305677D01*
X240623Y307573D01*
X241007Y308174D01*
X241663Y308647D01*
X242451Y308827D01*
X243248Y308685D01*
X243925Y308243D01*
X244377Y307573D01*
X245163Y305677D01*
X248427Y302413D01*
X252692Y300646D01*
X257308Y300646D01*
X261573Y302413D01*
X264837Y305677D01*
X265623Y307573D01*
X266007Y308174D01*
X266663Y308647D01*
X267451Y308827D01*
X268248Y308685D01*
X268925Y308243D01*
X269377Y307573D01*
X270163Y305677D01*
X273427Y302413D01*
X277692Y300646D01*
X282308Y300646D01*
X286573Y302413D01*
X289837Y305677D01*
X290623Y307573D01*
X291007Y308174D01*
X291663Y308647D01*
X292451Y308827D01*
X293248Y308685D01*
X293925Y308243D01*
X294377Y307573D01*
X295163Y305677D01*
X298427Y302413D01*
X302692Y300646D01*
X307308Y300646D01*
X311573Y302413D01*
X314837Y305677D01*
X315623Y307573D01*
X316007Y308174D01*
X316663Y308647D01*
X317451Y308827D01*
X318248Y308685D01*
X318925Y308243D01*
X319377Y307573D01*
X320163Y305677D01*
X323427Y302413D01*
X327692Y300646D01*
X332308Y300646D01*
X336573Y302413D01*
X339837Y305677D01*
X340623Y307573D01*
X341007Y308174D01*
X341663Y308647D01*
X342451Y308827D01*
X343248Y308685D01*
X343925Y308243D01*
X344377Y307573D01*
X345163Y305677D01*
X348427Y302413D01*
X352692Y300646D01*
X357308Y300646D01*
X361573Y302413D01*
X364837Y305677D01*
X365623Y307573D01*
X366007Y308174D01*
X366663Y308647D01*
X367451Y308827D01*
X368248Y308685D01*
X368925Y308243D01*
X369377Y307573D01*
X370163Y305677D01*
X373427Y302413D01*
X377692Y300646D01*
X382308Y300646D01*
X386573Y302413D01*
X389837Y305677D01*
X391011Y308509D01*
X391384Y309098D01*
X392036Y309577D01*
X392823Y309763D01*
X393621Y309627D01*
X394302Y309191D01*
X394759Y308524D01*
X394920Y307732D01*
X394920Y303658D01*
X396408Y302170D01*
X403476Y302170D01*
X403476Y322330D01*
X396408Y322330D01*
X394920Y320842D01*
X394920Y316768D01*
X394800Y316081D01*
X394381Y315390D01*
X393725Y314917D01*
X392937Y314737D01*
X392140Y314879D01*
X391463Y315320D01*
X391011Y315991D01*
X389837Y318823D01*
X386573Y322087D01*
X382308Y323854D01*
X377692Y323854D01*
X373427Y322087D01*
X370163Y318823D01*
X369377Y316927D01*
X368993Y316326D01*
X368337Y315853D01*
X367549Y315674D01*
X366752Y315815D01*
X366075Y316257D01*
X365623Y316927D01*
X364837Y318823D01*
X361573Y322087D01*
X357308Y323854D01*
X352692Y323854D01*
X348427Y322087D01*
X345163Y318823D01*
X344377Y316927D01*
X343993Y316326D01*
X343337Y315853D01*
X342549Y315674D01*
X341752Y315815D01*
X341075Y316257D01*
X340623Y316927D01*
X339837Y318823D01*
X336573Y322087D01*
X332308Y323854D01*
X327692Y323854D01*
X323427Y322087D01*
X320163Y318823D01*
X319377Y316927D01*
X318993Y316326D01*
X318337Y315853D01*
X317549Y315674D01*
X316752Y315815D01*
X316075Y316257D01*
X315623Y316927D01*
X314837Y318823D01*
X311573Y322087D01*
X307308Y323854D01*
X302692Y323854D01*
X298427Y322087D01*
X295163Y318823D01*
X294377Y316927D01*
X293993Y316326D01*
X293337Y315853D01*
X292549Y315674D01*
X291752Y315815D01*
X291075Y316257D01*
X290623Y316927D01*
X289837Y318823D01*
X286573Y322087D01*
X282308Y323854D01*
X277692Y323854D01*
X273427Y322087D01*
X270163Y318823D01*
X269377Y316927D01*
X268993Y316326D01*
X268337Y315853D01*
X267549Y315674D01*
X266752Y315815D01*
X266075Y316257D01*
X265623Y316927D01*
X264837Y318823D01*
X261573Y322087D01*
X257308Y323854D01*
X252692Y323854D01*
X248427Y322087D01*
X245163Y318823D01*
X244377Y316927D01*
X243993Y316326D01*
X243337Y315853D01*
X242549Y315674D01*
X241752Y315815D01*
X241075Y316257D01*
X240623Y316927D01*
X239837Y318823D01*
X236573Y322087D01*
X232308Y323854D01*
X227692Y323854D01*
X223427Y322087D01*
X220163Y318823D01*
X218396Y314558D01*
X218396Y309942D01*
X220163Y305677D01*
X223427Y302413D01*
X227692Y300646D01*
G37*
G36*
X406524Y313774D02*
X415080Y313774D01*
X415080Y320842D01*
X413592Y322330D01*
X406524Y322330D01*
X406524Y313774D01*
G37*
G36*
X406524Y302170D02*
X413592Y302170D01*
X415080Y303658D01*
X415080Y310726D01*
X406524Y310726D01*
X406524Y302170D01*
G37*
G36*
X138139Y125504D02*
X141261Y125504D01*
X144144Y126698D01*
X146352Y128906D01*
X147546Y131789D01*
X147546Y134911D01*
X146331Y137844D01*
X145957Y138399D01*
X145796Y139192D01*
X145796Y150775D01*
X145921Y151477D01*
X146346Y152165D01*
X147006Y152633D01*
X147796Y152807D01*
X148591Y152659D01*
X149265Y152212D01*
X150048Y151429D01*
X153222Y150114D01*
X153416Y150114D01*
X153416Y167386D01*
X153222Y167386D01*
X150048Y166071D01*
X149265Y165288D01*
X148680Y164880D01*
X147893Y164694D01*
X147096Y164829D01*
X146414Y165265D01*
X145957Y165932D01*
X145796Y166725D01*
X145796Y186720D01*
X145921Y187422D01*
X146346Y188110D01*
X147006Y188578D01*
X147796Y188752D01*
X148591Y188603D01*
X149076Y188282D01*
X152919Y186690D01*
X156961Y186690D01*
X160695Y188237D01*
X161123Y188665D01*
X161738Y189086D01*
X162528Y189260D01*
X163323Y189111D01*
X163997Y188665D01*
X164425Y188237D01*
X168159Y186690D01*
X172201Y186690D01*
X175935Y188237D01*
X176363Y188665D01*
X176978Y189086D01*
X177768Y189260D01*
X178563Y189111D01*
X179237Y188665D01*
X179665Y188237D01*
X183399Y186690D01*
X187441Y186690D01*
X191175Y188237D01*
X192681Y189742D01*
X193295Y190164D01*
X194085Y190337D01*
X194880Y190189D01*
X195554Y189742D01*
X195768Y189529D01*
X198942Y188214D01*
X199136Y188214D01*
X199136Y205486D01*
X198942Y205486D01*
X195768Y204171D01*
X195554Y203958D01*
X194940Y203536D01*
X194150Y203363D01*
X193355Y203511D01*
X192681Y203958D01*
X191175Y205463D01*
X187441Y207010D01*
X183399Y207010D01*
X179665Y205463D01*
X179237Y205035D01*
X178622Y204614D01*
X177832Y204440D01*
X177037Y204589D01*
X176363Y205035D01*
X175935Y205463D01*
X172201Y207010D01*
X168159Y207010D01*
X164425Y205463D01*
X163997Y205035D01*
X163382Y204614D01*
X162592Y204440D01*
X161797Y204589D01*
X161123Y205035D01*
X160695Y205463D01*
X156961Y207010D01*
X152919Y207010D01*
X149099Y205428D01*
X148680Y205135D01*
X147893Y204949D01*
X147096Y205085D01*
X146414Y205521D01*
X145957Y206188D01*
X145796Y206980D01*
X145796Y212387D01*
X145945Y213149D01*
X146391Y213824D01*
X149067Y216499D01*
X150749Y220560D01*
X150749Y224956D01*
X149067Y229017D01*
X145959Y232125D01*
X141898Y233807D01*
X137502Y233807D01*
X133441Y232125D01*
X132242Y230926D01*
X131672Y230524D01*
X130886Y230332D01*
X130088Y230461D01*
X129403Y230892D01*
X128940Y231555D01*
X128773Y232346D01*
X128928Y233140D01*
X130937Y237991D01*
X130937Y244609D01*
X128404Y250724D01*
X123724Y255404D01*
X117609Y257937D01*
X110991Y257937D01*
X104876Y255404D01*
X100196Y250724D01*
X97663Y244609D01*
X97663Y237991D01*
X100196Y231876D01*
X104876Y227196D01*
X110991Y224663D01*
X117609Y224663D01*
X123724Y227196D01*
X126495Y229967D01*
X127066Y230368D01*
X127851Y230561D01*
X128650Y230431D01*
X129334Y230001D01*
X129797Y229338D01*
X129964Y228546D01*
X129810Y227753D01*
X128651Y224956D01*
X128651Y220560D01*
X130333Y216499D01*
X133009Y213824D01*
X133443Y213179D01*
X133604Y212387D01*
X133604Y164592D01*
X133455Y163829D01*
X133071Y163248D01*
X131854Y160311D01*
X131854Y157189D01*
X133069Y154256D01*
X133443Y153701D01*
X133604Y152908D01*
X133604Y139192D01*
X133455Y138429D01*
X133071Y137848D01*
X131854Y134911D01*
X131854Y131789D01*
X133048Y128906D01*
X135256Y126698D01*
X138139Y125504D01*
G37*
G36*
X390391Y97663D02*
X397009Y97663D01*
X403124Y100196D01*
X407804Y104876D01*
X410337Y110991D01*
X410337Y117609D01*
X409256Y120220D01*
X409103Y120900D01*
X409226Y121700D01*
X409651Y122388D01*
X410311Y122856D01*
X411101Y123029D01*
X411896Y122881D01*
X412570Y122434D01*
X414656Y120348D01*
X417539Y119154D01*
X420661Y119154D01*
X423544Y120348D01*
X425752Y122556D01*
X426946Y125439D01*
X426946Y128561D01*
X425731Y131494D01*
X425357Y132049D01*
X425196Y132842D01*
X425196Y150775D01*
X425321Y151477D01*
X425746Y152165D01*
X426406Y152633D01*
X427196Y152807D01*
X427991Y152659D01*
X428665Y152212D01*
X429448Y151429D01*
X432622Y150114D01*
X432816Y150114D01*
X432816Y167386D01*
X432622Y167386D01*
X429448Y166071D01*
X428665Y165288D01*
X428080Y164880D01*
X427293Y164694D01*
X426496Y164829D01*
X425814Y165265D01*
X425357Y165932D01*
X425196Y166725D01*
X425196Y186720D01*
X425321Y187422D01*
X425746Y188110D01*
X426406Y188578D01*
X427196Y188752D01*
X427991Y188603D01*
X428476Y188282D01*
X432319Y186690D01*
X436361Y186690D01*
X440095Y188237D01*
X440523Y188665D01*
X441138Y189086D01*
X441928Y189260D01*
X442723Y189111D01*
X443397Y188665D01*
X443825Y188237D01*
X447559Y186690D01*
X451601Y186690D01*
X455335Y188237D01*
X455763Y188665D01*
X456378Y189086D01*
X457168Y189260D01*
X457963Y189111D01*
X458637Y188665D01*
X459065Y188237D01*
X462799Y186690D01*
X466841Y186690D01*
X470575Y188237D01*
X472081Y189742D01*
X472695Y190164D01*
X473485Y190337D01*
X474280Y190189D01*
X474954Y189742D01*
X475168Y189529D01*
X478342Y188214D01*
X478536Y188214D01*
X478536Y205486D01*
X478342Y205486D01*
X475168Y204171D01*
X474954Y203958D01*
X474340Y203536D01*
X473550Y203363D01*
X472755Y203511D01*
X472081Y203958D01*
X470575Y205463D01*
X466841Y207010D01*
X462799Y207010D01*
X459065Y205463D01*
X458637Y205035D01*
X458022Y204614D01*
X457232Y204440D01*
X456437Y204589D01*
X455763Y205035D01*
X455335Y205463D01*
X451601Y207010D01*
X447559Y207010D01*
X443825Y205463D01*
X443397Y205035D01*
X442782Y204614D01*
X441992Y204440D01*
X441197Y204589D01*
X440523Y205035D01*
X440095Y205463D01*
X436361Y207010D01*
X432319Y207010D01*
X428499Y205428D01*
X428080Y205135D01*
X427293Y204949D01*
X426496Y205085D01*
X425814Y205521D01*
X425357Y206188D01*
X425196Y206980D01*
X425196Y212387D01*
X425345Y213149D01*
X425791Y213824D01*
X428467Y216499D01*
X430149Y220560D01*
X430149Y224956D01*
X428467Y229017D01*
X425359Y232125D01*
X421298Y233807D01*
X416902Y233807D01*
X412841Y232125D01*
X411642Y230926D01*
X411072Y230524D01*
X410286Y230332D01*
X409488Y230461D01*
X408803Y230892D01*
X408340Y231555D01*
X408173Y232346D01*
X408328Y233140D01*
X410337Y237991D01*
X410337Y244609D01*
X407804Y250724D01*
X403124Y255404D01*
X397009Y257937D01*
X390391Y257937D01*
X384276Y255404D01*
X379596Y250724D01*
X377063Y244609D01*
X377063Y237991D01*
X379596Y231876D01*
X384276Y227196D01*
X390391Y224663D01*
X397009Y224663D01*
X403124Y227196D01*
X405895Y229967D01*
X406466Y230368D01*
X407251Y230561D01*
X408050Y230431D01*
X408734Y230001D01*
X409197Y229338D01*
X409364Y228546D01*
X409210Y227753D01*
X408051Y224956D01*
X408051Y220560D01*
X409733Y216499D01*
X412409Y213824D01*
X412843Y213179D01*
X413004Y212387D01*
X413004Y132842D01*
X412855Y132079D01*
X412471Y131498D01*
X411254Y128561D01*
X411254Y125180D01*
X411129Y124478D01*
X410704Y123790D01*
X410044Y123322D01*
X409254Y123148D01*
X408459Y123296D01*
X407785Y123743D01*
X403124Y128404D01*
X397009Y130937D01*
X390391Y130937D01*
X384276Y128404D01*
X379596Y123724D01*
X377063Y117609D01*
X377063Y110991D01*
X379596Y104876D01*
X384276Y100196D01*
X390391Y97663D01*
G37*
G36*
X213702Y211709D02*
X218098Y211709D01*
X222159Y213391D01*
X225267Y216499D01*
X226949Y220560D01*
X226949Y224956D01*
X225791Y227753D01*
X225638Y228433D01*
X225761Y229232D01*
X226186Y229921D01*
X226846Y230388D01*
X227635Y230562D01*
X228430Y230414D01*
X229105Y229967D01*
X231876Y227196D01*
X237991Y224663D01*
X244609Y224663D01*
X250724Y227196D01*
X255404Y231876D01*
X257937Y237991D01*
X257937Y244609D01*
X255404Y250724D01*
X250724Y255404D01*
X244609Y257937D01*
X237991Y257937D01*
X231876Y255404D01*
X227196Y250724D01*
X224663Y244609D01*
X224663Y237991D01*
X226672Y233140D01*
X226825Y232460D01*
X226702Y231660D01*
X226277Y230972D01*
X225617Y230504D01*
X224827Y230331D01*
X224032Y230479D01*
X223358Y230926D01*
X222159Y232125D01*
X218098Y233807D01*
X213702Y233807D01*
X209641Y232125D01*
X206533Y229017D01*
X204851Y224956D01*
X204851Y220560D01*
X206533Y216499D01*
X209641Y213391D01*
X213702Y211709D01*
G37*
G36*
X493102Y211709D02*
X497498Y211709D01*
X501559Y213391D01*
X504667Y216499D01*
X506349Y220560D01*
X506349Y224956D01*
X505191Y227753D01*
X505038Y228433D01*
X505161Y229232D01*
X505586Y229921D01*
X506246Y230388D01*
X507035Y230562D01*
X507830Y230414D01*
X508505Y229967D01*
X511276Y227196D01*
X517391Y224663D01*
X524009Y224663D01*
X530124Y227196D01*
X534804Y231876D01*
X537337Y237991D01*
X537337Y244609D01*
X534804Y250724D01*
X530124Y255404D01*
X524009Y257937D01*
X517391Y257937D01*
X511276Y255404D01*
X506596Y250724D01*
X504063Y244609D01*
X504063Y237991D01*
X506072Y233140D01*
X506225Y232460D01*
X506102Y231660D01*
X505677Y230972D01*
X505017Y230504D01*
X504227Y230331D01*
X503432Y230479D01*
X502758Y230926D01*
X501559Y232125D01*
X497498Y233807D01*
X493102Y233807D01*
X489041Y232125D01*
X485933Y229017D01*
X484251Y224956D01*
X484251Y220560D01*
X485933Y216499D01*
X489041Y213391D01*
X493102Y211709D01*
G37*
G36*
X481584Y198374D02*
X488696Y198374D01*
X488696Y198568D01*
X487381Y201742D01*
X484952Y204171D01*
X481778Y205486D01*
X481584Y205486D01*
X481584Y198374D01*
G37*
G36*
X202184Y198374D02*
X209296Y198374D01*
X209296Y198568D01*
X207981Y201742D01*
X205552Y204171D01*
X202378Y205486D01*
X202184Y205486D01*
X202184Y198374D01*
G37*
G36*
X202184Y188214D02*
X202378Y188214D01*
X205552Y189529D01*
X207981Y191958D01*
X209296Y195132D01*
X209296Y195326D01*
X202184Y195326D01*
X202184Y188214D01*
G37*
G36*
X481584Y188214D02*
X481778Y188214D01*
X484952Y189529D01*
X487381Y191958D01*
X488696Y195132D01*
X488696Y195326D01*
X481584Y195326D01*
X481584Y188214D01*
G37*
G36*
X447559Y148590D02*
X451601Y148590D01*
X455335Y150137D01*
X455763Y150565D01*
X456378Y150986D01*
X457168Y151160D01*
X457963Y151011D01*
X458637Y150565D01*
X459065Y150137D01*
X462799Y148590D01*
X466841Y148590D01*
X470575Y150137D01*
X471003Y150565D01*
X471618Y150986D01*
X472408Y151160D01*
X473203Y151011D01*
X473877Y150565D01*
X474305Y150137D01*
X478039Y148590D01*
X482081Y148590D01*
X485815Y150137D01*
X488673Y152995D01*
X490220Y156729D01*
X490220Y160771D01*
X488673Y164505D01*
X485815Y167363D01*
X482081Y168910D01*
X478039Y168910D01*
X474305Y167363D01*
X473877Y166935D01*
X473262Y166514D01*
X472472Y166340D01*
X471677Y166489D01*
X471003Y166935D01*
X470575Y167363D01*
X466841Y168910D01*
X462799Y168910D01*
X459065Y167363D01*
X458637Y166935D01*
X458022Y166514D01*
X457232Y166340D01*
X456437Y166489D01*
X455763Y166935D01*
X455335Y167363D01*
X451601Y168910D01*
X447559Y168910D01*
X443825Y167363D01*
X442319Y165858D01*
X441705Y165436D01*
X440915Y165263D01*
X440120Y165411D01*
X439446Y165858D01*
X439232Y166071D01*
X436058Y167386D01*
X435864Y167386D01*
X435864Y150114D01*
X436058Y150114D01*
X439232Y151429D01*
X439446Y151642D01*
X440060Y152064D01*
X440850Y152237D01*
X441645Y152089D01*
X442319Y151642D01*
X443825Y150137D01*
X447559Y148590D01*
G37*
G36*
X168159Y148590D02*
X172201Y148590D01*
X175935Y150137D01*
X176363Y150565D01*
X176978Y150986D01*
X177768Y151160D01*
X178563Y151011D01*
X179237Y150565D01*
X179665Y150137D01*
X183399Y148590D01*
X187441Y148590D01*
X191175Y150137D01*
X191603Y150565D01*
X192218Y150986D01*
X193008Y151160D01*
X193803Y151011D01*
X194477Y150565D01*
X194905Y150137D01*
X198639Y148590D01*
X202681Y148590D01*
X206415Y150137D01*
X209273Y152995D01*
X210820Y156729D01*
X210820Y160771D01*
X209273Y164505D01*
X206415Y167363D01*
X202681Y168910D01*
X198639Y168910D01*
X194905Y167363D01*
X194477Y166935D01*
X193862Y166514D01*
X193072Y166340D01*
X192277Y166489D01*
X191603Y166935D01*
X191175Y167363D01*
X187441Y168910D01*
X183399Y168910D01*
X179665Y167363D01*
X179237Y166935D01*
X178622Y166514D01*
X177832Y166340D01*
X177037Y166489D01*
X176363Y166935D01*
X175935Y167363D01*
X172201Y168910D01*
X168159Y168910D01*
X164425Y167363D01*
X162919Y165858D01*
X162305Y165436D01*
X161515Y165263D01*
X160720Y165411D01*
X160046Y165858D01*
X159832Y166071D01*
X156658Y167386D01*
X156464Y167386D01*
X156464Y150114D01*
X156658Y150114D01*
X159832Y151429D01*
X160046Y151642D01*
X160660Y152064D01*
X161450Y152237D01*
X162245Y152089D01*
X162919Y151642D01*
X164425Y150137D01*
X168159Y148590D01*
G37*
G36*
X517391Y97663D02*
X524009Y97663D01*
X530124Y100196D01*
X534804Y104876D01*
X537337Y110991D01*
X537337Y117609D01*
X534804Y123724D01*
X530124Y128404D01*
X524009Y130937D01*
X517391Y130937D01*
X511276Y128404D01*
X506596Y123724D01*
X504063Y117609D01*
X504063Y110991D01*
X506596Y104876D01*
X511276Y100196D01*
X517391Y97663D01*
G37*
G36*
X237991Y97663D02*
X244609Y97663D01*
X250724Y100196D01*
X255404Y104876D01*
X257937Y110991D01*
X257937Y117609D01*
X255404Y123724D01*
X250724Y128404D01*
X244609Y130937D01*
X237991Y130937D01*
X231876Y128404D01*
X227196Y123724D01*
X224663Y117609D01*
X224663Y110991D01*
X227196Y104876D01*
X231876Y100196D01*
X237991Y97663D01*
G37*
G36*
X110991Y97663D02*
X117609Y97663D01*
X123724Y100196D01*
X128404Y104876D01*
X130937Y110991D01*
X130937Y117609D01*
X128404Y123724D01*
X123724Y128404D01*
X117609Y130937D01*
X110991Y130937D01*
X104876Y128404D01*
X100196Y123724D01*
X97663Y117609D01*
X97663Y110991D01*
X100196Y104876D01*
X104876Y100196D01*
X110991Y97663D01*
G37*
%LPD*%
D10*
X139700Y412242D03*
X215900Y412242D03*
D11*
X170180Y438150D03*
X170180Y476250D03*
X154940Y438150D03*
X154940Y476250D03*
X185420Y438150D03*
X185420Y476250D03*
X200660Y438150D03*
X200660Y476250D03*
D10*
X419100Y412242D03*
X495300Y412242D03*
D11*
X449580Y438150D03*
X449580Y476250D03*
X434340Y438150D03*
X434340Y476250D03*
X464820Y438150D03*
X464820Y476250D03*
X480060Y438150D03*
X480060Y476250D03*
D10*
X495300Y222758D03*
X419100Y222758D03*
D11*
X464820Y196850D03*
X464820Y158750D03*
X480060Y196850D03*
X480060Y158750D03*
X449580Y196850D03*
X449580Y158750D03*
X434340Y196850D03*
X434340Y158750D03*
D10*
X215900Y222758D03*
X139700Y222758D03*
D11*
X185420Y196850D03*
X185420Y158750D03*
X200660Y196850D03*
X200660Y158750D03*
X170180Y196850D03*
X170180Y158750D03*
X154940Y196850D03*
X154940Y158750D03*
D12*
X317500Y568960D03*
X568960Y317500D03*
X317500Y66040D03*
X66040Y317500D03*
D13*
X405000Y312250D03*
D14*
X380000Y312250D03*
X355000Y312250D03*
X330000Y312250D03*
X305000Y312250D03*
X280000Y312250D03*
X255000Y312250D03*
X230000Y312250D03*
D15*
X495300Y412242D02*
X495300Y476250D01*
D16*
X495300Y476250D03*
D15*
X419100Y222758D02*
X419100Y127000D01*
D16*
X419100Y127000D03*
D15*
X139700Y158750D02*
X139700Y222758D01*
D16*
X139700Y133350D03*
D15*
X215900Y412242D02*
X215900Y476250D01*
D16*
X215900Y476250D03*
D15*
X216408Y412750D02*
X215900Y412242D01*
X216408Y412750D02*
X330200Y412750D01*
D16*
X330200Y412750D03*
X139700Y158750D03*
D15*
X139700Y133350D01*
D16*
X342900Y133350D03*
X190500Y279400D03*
X361950Y254000D03*
X444500Y279400D03*
X444500Y355600D03*
X552450Y101600D03*
X292100Y501650D03*
X273050Y381000D03*
X190500Y355600D03*
X82550Y533400D03*
X120650Y209550D03*
X527050Y414119D03*
X329184Y340360D03*
D15*
X291338Y340360D01*
X291366Y340388D01*
D16*
X291366Y340388D03*
M02*
