M48
;GenerationSoftware,Autodesk,EAGLE,9.7.0*%
;CreationDate,2024-10-31T00:43:08Z*%
FMAT,2
ICI,OFF
METRIC,TZ,000.000
T6C0.350
T5C0.711
T4C0.889
T3C1.000
T2C1.295
T1C3.200
%
G90
M71
T1
X6604Y31750
X31750Y6604
X56896Y31750
X31750Y56896
X31750Y56896
X56896Y31750
X31750Y6604
X6604Y31750
T2
X24130Y39370
X52070Y39370
X11430Y11430
X24130Y11430
X24130Y24130
X11430Y24130
X39370Y11430
X52070Y11430
X52070Y24130
X39370Y24130
X52070Y52070
X39370Y52070
X39370Y39370
X11430Y39370
X11430Y52070
X24130Y52070
T3
X38000Y31225
X40500Y31225
X25500Y31225
X28000Y31225
X30500Y31225
X35500Y31225
X33000Y31225
X23000Y31225
T4
X41910Y22276
X13970Y22276
X49530Y22276
X49530Y41224
X41910Y41224
X21590Y41224
X13970Y41224
X21590Y22276
T5
X18542Y43815
X44958Y19685
X17018Y43815
X17018Y47625
X15494Y43815
X15494Y47625
X15494Y15875
X18542Y47625
X20066Y43815
X20066Y47625
X15494Y19685
X17018Y15875
X44958Y43815
X44958Y47625
X43434Y43815
X43434Y47625
X46482Y43815
X46482Y47625
X48006Y43815
X48006Y47625
X17018Y19685
X20066Y15875
X46482Y19685
X46482Y15875
X48006Y19685
X48006Y15875
X20066Y19685
X44958Y15875
X43434Y19685
X43434Y15875
X18542Y15875
X18542Y19685
T6
X29210Y50165
X27305Y38100
X32918Y34036
X19050Y35560
X8255Y53340
X12065Y20955
X52705Y41412
X29137Y34039
X55245Y10160
X44450Y35560
X44450Y27940
X36195Y25400
X19050Y27940
X34290Y13335
X13970Y15875
X33020Y41275
X21590Y47625
X13970Y13335
X41910Y12700
X49530Y47625
M30