G04 EAGLE Gerber RS-274X export*
G75*
%MOMM*%
%FSLAX34Y34*%
%LPD*%
%INSilkscreen Top*%
%IPPOS*%
%AMOC8*
5,1,8,0,0,1.08239X$1,22.5*%
G01*
G04 Define Apertures*
%ADD10C,0.152400*%
G36*
X176013Y546100D02*
X174016Y546100D01*
X170382Y558441D01*
X172124Y558441D01*
X174340Y550602D01*
X174719Y549109D01*
X175067Y547571D01*
X175553Y549673D01*
X175809Y550648D01*
X176299Y552435D01*
X177984Y558441D01*
X179587Y558441D01*
X181733Y550760D01*
X182171Y549021D01*
X182503Y547571D01*
X182582Y547878D01*
X182968Y549520D01*
X183657Y552068D01*
X185429Y558441D01*
X187172Y558441D01*
X183537Y546100D01*
X181540Y546100D01*
X179403Y553939D01*
X179144Y554966D01*
X178790Y556575D01*
X178404Y554876D01*
X177728Y552340D01*
X176013Y546100D01*
G37*
G36*
X164409Y545925D02*
X163860Y545937D01*
X163340Y545974D01*
X162850Y546035D01*
X162390Y546121D01*
X161960Y546231D01*
X161559Y546366D01*
X161188Y546525D01*
X160846Y546709D01*
X160534Y546917D01*
X160252Y547150D01*
X159999Y547407D01*
X159776Y547689D01*
X159582Y547995D01*
X159419Y548325D01*
X159284Y548681D01*
X159180Y549060D01*
X160800Y549384D01*
X160880Y549116D01*
X160980Y548865D01*
X161099Y548633D01*
X161238Y548420D01*
X161397Y548225D01*
X161575Y548049D01*
X161773Y547891D01*
X161991Y547751D01*
X162229Y547629D01*
X162488Y547523D01*
X162767Y547433D01*
X163066Y547360D01*
X163386Y547303D01*
X163727Y547262D01*
X164088Y547238D01*
X164470Y547230D01*
X164863Y547239D01*
X165234Y547265D01*
X165581Y547308D01*
X165905Y547369D01*
X166206Y547447D01*
X166484Y547543D01*
X166739Y547656D01*
X166970Y547786D01*
X167177Y547933D01*
X167356Y548097D01*
X167507Y548276D01*
X167631Y548472D01*
X167727Y548685D01*
X167796Y548913D01*
X167837Y549158D01*
X167851Y549419D01*
X167833Y549707D01*
X167782Y549967D01*
X167696Y550198D01*
X167575Y550400D01*
X167423Y550581D01*
X167243Y550744D01*
X167035Y550891D01*
X166800Y551022D01*
X166538Y551140D01*
X166252Y551248D01*
X165942Y551346D01*
X165609Y551434D01*
X164076Y551793D01*
X163388Y551955D01*
X162789Y552117D01*
X162278Y552279D01*
X161855Y552441D01*
X161497Y552608D01*
X161178Y552784D01*
X160899Y552969D01*
X160660Y553164D01*
X160454Y553372D01*
X160273Y553596D01*
X160119Y553838D01*
X159990Y554097D01*
X159888Y554374D01*
X159816Y554670D01*
X159772Y554987D01*
X159758Y555323D01*
X159777Y555708D01*
X159834Y556070D01*
X159928Y556409D01*
X160061Y556726D01*
X160232Y557020D01*
X160440Y557292D01*
X160687Y557540D01*
X160971Y557766D01*
X161290Y557968D01*
X161643Y558142D01*
X162028Y558289D01*
X162446Y558410D01*
X162896Y558504D01*
X163379Y558571D01*
X163895Y558611D01*
X164444Y558625D01*
X164954Y558615D01*
X165433Y558584D01*
X165881Y558534D01*
X166298Y558464D01*
X166685Y558373D01*
X167040Y558263D01*
X167364Y558132D01*
X167658Y557981D01*
X167926Y557806D01*
X168173Y557602D01*
X168399Y557371D01*
X168604Y557111D01*
X168788Y556822D01*
X168952Y556505D01*
X169095Y556160D01*
X169217Y555787D01*
X167570Y555498D01*
X167495Y555735D01*
X167404Y555955D01*
X167298Y556158D01*
X167176Y556344D01*
X167039Y556514D01*
X166887Y556666D01*
X166720Y556802D01*
X166537Y556921D01*
X166337Y557025D01*
X166119Y557115D01*
X165883Y557191D01*
X165628Y557253D01*
X165355Y557301D01*
X165064Y557336D01*
X164754Y557357D01*
X164426Y557363D01*
X164067Y557356D01*
X163730Y557333D01*
X163414Y557295D01*
X163121Y557241D01*
X162850Y557172D01*
X162600Y557088D01*
X162372Y556988D01*
X162166Y556873D01*
X161984Y556743D01*
X161825Y556598D01*
X161691Y556437D01*
X161582Y556262D01*
X161497Y556072D01*
X161436Y555866D01*
X161399Y555646D01*
X161387Y555410D01*
X161406Y555138D01*
X161462Y554890D01*
X161557Y554667D01*
X161689Y554469D01*
X161857Y554290D01*
X162058Y554125D01*
X162293Y553974D01*
X162561Y553838D01*
X162916Y553702D01*
X163412Y553550D01*
X164050Y553384D01*
X164829Y553203D01*
X165963Y552936D01*
X166516Y552787D01*
X167045Y552612D01*
X167545Y552407D01*
X168013Y552170D01*
X168231Y552036D01*
X168434Y551887D01*
X168623Y551725D01*
X168797Y551548D01*
X168954Y551356D01*
X169093Y551147D01*
X169215Y550922D01*
X169318Y550681D01*
X169400Y550420D01*
X169459Y550138D01*
X169494Y549833D01*
X169506Y549507D01*
X169485Y549092D01*
X169423Y548701D01*
X169318Y548335D01*
X169172Y547992D01*
X168984Y547673D01*
X168755Y547379D01*
X168483Y547108D01*
X168170Y546862D01*
X167819Y546642D01*
X167434Y546452D01*
X167015Y546291D01*
X166562Y546159D01*
X166075Y546057D01*
X165553Y545983D01*
X164998Y545940D01*
X164409Y545925D01*
G37*
G36*
X196340Y546100D02*
X188607Y546100D01*
X188607Y547440D01*
X191751Y547440D01*
X191751Y556934D01*
X188966Y554946D01*
X188966Y556435D01*
X191882Y558441D01*
X193336Y558441D01*
X193336Y547440D01*
X196340Y547440D01*
X196340Y546100D01*
G37*
G36*
X455413Y546100D02*
X453416Y546100D01*
X449782Y558441D01*
X451524Y558441D01*
X453740Y550602D01*
X454119Y549109D01*
X454467Y547571D01*
X454953Y549673D01*
X455209Y550648D01*
X455699Y552435D01*
X457384Y558441D01*
X458987Y558441D01*
X461133Y550760D01*
X461571Y549021D01*
X461903Y547571D01*
X461982Y547878D01*
X462368Y549520D01*
X463057Y552068D01*
X464829Y558441D01*
X466572Y558441D01*
X462937Y546100D01*
X460940Y546100D01*
X458803Y553939D01*
X458544Y554966D01*
X458190Y556575D01*
X457804Y554876D01*
X457128Y552340D01*
X455413Y546100D01*
G37*
G36*
X443809Y545925D02*
X443260Y545937D01*
X442740Y545974D01*
X442250Y546035D01*
X441790Y546121D01*
X441360Y546231D01*
X440959Y546366D01*
X440588Y546525D01*
X440246Y546709D01*
X439934Y546917D01*
X439652Y547150D01*
X439399Y547407D01*
X439176Y547689D01*
X438982Y547995D01*
X438819Y548325D01*
X438684Y548681D01*
X438580Y549060D01*
X440200Y549384D01*
X440280Y549116D01*
X440380Y548865D01*
X440499Y548633D01*
X440638Y548420D01*
X440797Y548225D01*
X440975Y548049D01*
X441173Y547891D01*
X441391Y547751D01*
X441629Y547629D01*
X441888Y547523D01*
X442167Y547433D01*
X442466Y547360D01*
X442786Y547303D01*
X443127Y547262D01*
X443488Y547238D01*
X443870Y547230D01*
X444263Y547239D01*
X444634Y547265D01*
X444981Y547308D01*
X445305Y547369D01*
X445606Y547447D01*
X445884Y547543D01*
X446139Y547656D01*
X446370Y547786D01*
X446577Y547933D01*
X446756Y548097D01*
X446907Y548276D01*
X447031Y548472D01*
X447127Y548685D01*
X447196Y548913D01*
X447237Y549158D01*
X447251Y549419D01*
X447233Y549707D01*
X447182Y549967D01*
X447096Y550198D01*
X446975Y550400D01*
X446823Y550581D01*
X446643Y550744D01*
X446435Y550891D01*
X446200Y551022D01*
X445938Y551140D01*
X445652Y551248D01*
X445342Y551346D01*
X445009Y551434D01*
X443476Y551793D01*
X442788Y551955D01*
X442189Y552117D01*
X441678Y552279D01*
X441255Y552441D01*
X440897Y552608D01*
X440578Y552784D01*
X440299Y552969D01*
X440060Y553164D01*
X439854Y553372D01*
X439673Y553596D01*
X439519Y553838D01*
X439390Y554097D01*
X439288Y554374D01*
X439216Y554670D01*
X439172Y554987D01*
X439158Y555323D01*
X439177Y555708D01*
X439234Y556070D01*
X439328Y556409D01*
X439461Y556726D01*
X439632Y557020D01*
X439840Y557292D01*
X440087Y557540D01*
X440371Y557766D01*
X440690Y557968D01*
X441043Y558142D01*
X441428Y558289D01*
X441846Y558410D01*
X442296Y558504D01*
X442779Y558571D01*
X443295Y558611D01*
X443844Y558625D01*
X444354Y558615D01*
X444833Y558584D01*
X445281Y558534D01*
X445698Y558464D01*
X446085Y558373D01*
X446440Y558263D01*
X446764Y558132D01*
X447058Y557981D01*
X447326Y557806D01*
X447573Y557602D01*
X447799Y557371D01*
X448004Y557111D01*
X448188Y556822D01*
X448352Y556505D01*
X448495Y556160D01*
X448617Y555787D01*
X446970Y555498D01*
X446895Y555735D01*
X446804Y555955D01*
X446698Y556158D01*
X446576Y556344D01*
X446439Y556514D01*
X446287Y556666D01*
X446120Y556802D01*
X445937Y556921D01*
X445737Y557025D01*
X445519Y557115D01*
X445283Y557191D01*
X445028Y557253D01*
X444755Y557301D01*
X444464Y557336D01*
X444154Y557357D01*
X443826Y557363D01*
X443467Y557356D01*
X443130Y557333D01*
X442814Y557295D01*
X442521Y557241D01*
X442250Y557172D01*
X442000Y557088D01*
X441772Y556988D01*
X441566Y556873D01*
X441384Y556743D01*
X441225Y556598D01*
X441091Y556437D01*
X440982Y556262D01*
X440897Y556072D01*
X440836Y555866D01*
X440799Y555646D01*
X440787Y555410D01*
X440806Y555138D01*
X440862Y554890D01*
X440957Y554667D01*
X441089Y554469D01*
X441257Y554290D01*
X441458Y554125D01*
X441693Y553974D01*
X441961Y553838D01*
X442316Y553702D01*
X442812Y553550D01*
X443450Y553384D01*
X444229Y553203D01*
X445363Y552936D01*
X445916Y552787D01*
X446445Y552612D01*
X446945Y552407D01*
X447413Y552170D01*
X447631Y552036D01*
X447834Y551887D01*
X448023Y551725D01*
X448197Y551548D01*
X448354Y551356D01*
X448493Y551147D01*
X448615Y550922D01*
X448718Y550681D01*
X448800Y550420D01*
X448859Y550138D01*
X448894Y549833D01*
X448906Y549507D01*
X448885Y549092D01*
X448823Y548701D01*
X448718Y548335D01*
X448572Y547992D01*
X448384Y547673D01*
X448155Y547379D01*
X447883Y547108D01*
X447570Y546862D01*
X447219Y546642D01*
X446834Y546452D01*
X446415Y546291D01*
X445962Y546159D01*
X445475Y546057D01*
X444953Y545983D01*
X444398Y545940D01*
X443809Y545925D01*
G37*
G36*
X475714Y546100D02*
X467542Y546100D01*
X467542Y547212D01*
X467778Y547710D01*
X468038Y548177D01*
X468323Y548614D01*
X468633Y549021D01*
X468959Y549404D01*
X469293Y549768D01*
X469635Y550113D01*
X469986Y550440D01*
X470692Y551052D01*
X471392Y551618D01*
X472054Y552161D01*
X472649Y552704D01*
X472915Y552979D01*
X473155Y553260D01*
X473369Y553548D01*
X473555Y553843D01*
X473706Y554150D01*
X473815Y554478D01*
X473879Y554825D01*
X473901Y555191D01*
X473892Y555438D01*
X473864Y555671D01*
X473817Y555889D01*
X473752Y556093D01*
X473668Y556283D01*
X473566Y556459D01*
X473445Y556621D01*
X473305Y556768D01*
X473149Y556899D01*
X472979Y557013D01*
X472793Y557109D01*
X472594Y557188D01*
X472380Y557250D01*
X472151Y557293D01*
X471908Y557320D01*
X471650Y557328D01*
X471404Y557320D01*
X471169Y557294D01*
X470945Y557251D01*
X470732Y557192D01*
X470530Y557115D01*
X470339Y557021D01*
X470159Y556909D01*
X469990Y556781D01*
X469836Y556637D01*
X469698Y556480D01*
X469577Y556308D01*
X469472Y556123D01*
X469385Y555924D01*
X469315Y555711D01*
X469261Y555484D01*
X469224Y555244D01*
X467612Y555393D01*
X467670Y555753D01*
X467757Y556095D01*
X467871Y556418D01*
X468014Y556722D01*
X468185Y557007D01*
X468385Y557273D01*
X468613Y557520D01*
X468869Y557749D01*
X469149Y557954D01*
X469449Y558132D01*
X469767Y558283D01*
X470105Y558406D01*
X470463Y558502D01*
X470839Y558570D01*
X471235Y558611D01*
X471650Y558625D01*
X472103Y558611D01*
X472529Y558570D01*
X472928Y558501D01*
X473300Y558405D01*
X473645Y558281D01*
X473963Y558130D01*
X474254Y557951D01*
X474518Y557744D01*
X474754Y557513D01*
X474957Y557258D01*
X475130Y556980D01*
X475271Y556679D01*
X475380Y556355D01*
X475459Y556008D01*
X475506Y555637D01*
X475521Y555244D01*
X475501Y554885D01*
X475439Y554528D01*
X475337Y554172D01*
X475193Y553816D01*
X475009Y553462D01*
X474785Y553107D01*
X474520Y552752D01*
X474216Y552397D01*
X473818Y551994D01*
X473273Y551493D01*
X472579Y550895D01*
X471738Y550199D01*
X471260Y549797D01*
X470833Y549416D01*
X470458Y549055D01*
X470135Y548714D01*
X469858Y548387D01*
X469622Y548065D01*
X469429Y547750D01*
X469277Y547440D01*
X475714Y547440D01*
X475714Y546100D01*
G37*
G36*
X455413Y76200D02*
X453416Y76200D01*
X449782Y88541D01*
X451524Y88541D01*
X453740Y80702D01*
X454119Y79209D01*
X454467Y77671D01*
X454953Y79773D01*
X455209Y80748D01*
X455699Y82535D01*
X457384Y88541D01*
X458987Y88541D01*
X461133Y80860D01*
X461571Y79121D01*
X461903Y77671D01*
X461982Y77978D01*
X462368Y79620D01*
X463057Y82168D01*
X464829Y88541D01*
X466572Y88541D01*
X462937Y76200D01*
X460940Y76200D01*
X458803Y84039D01*
X458544Y85066D01*
X458190Y86675D01*
X457804Y84976D01*
X457128Y82440D01*
X455413Y76200D01*
G37*
G36*
X443809Y76025D02*
X443260Y76037D01*
X442740Y76074D01*
X442250Y76135D01*
X441790Y76221D01*
X441360Y76331D01*
X440959Y76466D01*
X440588Y76625D01*
X440246Y76809D01*
X439934Y77017D01*
X439652Y77250D01*
X439399Y77507D01*
X439176Y77789D01*
X438982Y78095D01*
X438819Y78425D01*
X438684Y78781D01*
X438580Y79160D01*
X440200Y79484D01*
X440280Y79216D01*
X440380Y78965D01*
X440499Y78733D01*
X440638Y78520D01*
X440797Y78325D01*
X440975Y78149D01*
X441173Y77991D01*
X441391Y77851D01*
X441629Y77729D01*
X441888Y77623D01*
X442167Y77533D01*
X442466Y77460D01*
X442786Y77403D01*
X443127Y77362D01*
X443488Y77338D01*
X443870Y77330D01*
X444263Y77339D01*
X444634Y77365D01*
X444981Y77408D01*
X445305Y77469D01*
X445606Y77547D01*
X445884Y77643D01*
X446139Y77756D01*
X446370Y77886D01*
X446577Y78033D01*
X446756Y78197D01*
X446907Y78376D01*
X447031Y78572D01*
X447127Y78785D01*
X447196Y79013D01*
X447237Y79258D01*
X447251Y79519D01*
X447233Y79807D01*
X447182Y80067D01*
X447096Y80298D01*
X446975Y80500D01*
X446823Y80681D01*
X446643Y80844D01*
X446435Y80991D01*
X446200Y81122D01*
X445938Y81240D01*
X445652Y81348D01*
X445342Y81446D01*
X445009Y81534D01*
X443476Y81893D01*
X442788Y82055D01*
X442189Y82217D01*
X441678Y82379D01*
X441255Y82541D01*
X440897Y82708D01*
X440578Y82884D01*
X440299Y83069D01*
X440060Y83264D01*
X439854Y83472D01*
X439673Y83696D01*
X439519Y83938D01*
X439390Y84197D01*
X439288Y84474D01*
X439216Y84770D01*
X439172Y85087D01*
X439158Y85423D01*
X439177Y85808D01*
X439234Y86170D01*
X439328Y86509D01*
X439461Y86826D01*
X439632Y87120D01*
X439840Y87392D01*
X440087Y87640D01*
X440371Y87866D01*
X440690Y88068D01*
X441043Y88242D01*
X441428Y88389D01*
X441846Y88510D01*
X442296Y88604D01*
X442779Y88671D01*
X443295Y88711D01*
X443844Y88725D01*
X444354Y88715D01*
X444833Y88684D01*
X445281Y88634D01*
X445698Y88564D01*
X446085Y88473D01*
X446440Y88363D01*
X446764Y88232D01*
X447058Y88081D01*
X447326Y87906D01*
X447573Y87702D01*
X447799Y87471D01*
X448004Y87211D01*
X448188Y86922D01*
X448352Y86605D01*
X448495Y86260D01*
X448617Y85887D01*
X446970Y85598D01*
X446895Y85835D01*
X446804Y86055D01*
X446698Y86258D01*
X446576Y86444D01*
X446439Y86614D01*
X446287Y86766D01*
X446120Y86902D01*
X445937Y87021D01*
X445737Y87125D01*
X445519Y87215D01*
X445283Y87291D01*
X445028Y87353D01*
X444755Y87401D01*
X444464Y87436D01*
X444154Y87457D01*
X443826Y87463D01*
X443467Y87456D01*
X443130Y87433D01*
X442814Y87395D01*
X442521Y87341D01*
X442250Y87272D01*
X442000Y87188D01*
X441772Y87088D01*
X441566Y86973D01*
X441384Y86843D01*
X441225Y86698D01*
X441091Y86537D01*
X440982Y86362D01*
X440897Y86172D01*
X440836Y85966D01*
X440799Y85746D01*
X440787Y85510D01*
X440806Y85238D01*
X440862Y84990D01*
X440957Y84767D01*
X441089Y84569D01*
X441257Y84390D01*
X441458Y84225D01*
X441693Y84074D01*
X441961Y83938D01*
X442316Y83802D01*
X442812Y83650D01*
X443450Y83484D01*
X444229Y83303D01*
X445363Y83036D01*
X445916Y82887D01*
X446445Y82712D01*
X446945Y82507D01*
X447413Y82270D01*
X447631Y82136D01*
X447834Y81987D01*
X448023Y81825D01*
X448197Y81648D01*
X448354Y81456D01*
X448493Y81247D01*
X448615Y81022D01*
X448718Y80781D01*
X448800Y80520D01*
X448859Y80238D01*
X448894Y79933D01*
X448906Y79607D01*
X448885Y79192D01*
X448823Y78801D01*
X448718Y78435D01*
X448572Y78092D01*
X448384Y77773D01*
X448155Y77479D01*
X447883Y77208D01*
X447570Y76962D01*
X447219Y76742D01*
X446834Y76552D01*
X446415Y76391D01*
X445962Y76259D01*
X445475Y76157D01*
X444953Y76083D01*
X444398Y76040D01*
X443809Y76025D01*
G37*
G36*
X471641Y76025D02*
X471185Y76038D01*
X470752Y76078D01*
X470342Y76144D01*
X469956Y76236D01*
X469594Y76355D01*
X469256Y76500D01*
X468941Y76672D01*
X468650Y76870D01*
X468385Y77094D01*
X468149Y77343D01*
X467940Y77618D01*
X467760Y77918D01*
X467608Y78243D01*
X467485Y78594D01*
X467390Y78969D01*
X467323Y79371D01*
X468952Y79519D01*
X469000Y79254D01*
X469063Y79006D01*
X469143Y78775D01*
X469239Y78562D01*
X469351Y78365D01*
X469478Y78185D01*
X469622Y78023D01*
X469782Y77877D01*
X469958Y77749D01*
X470151Y77638D01*
X470359Y77544D01*
X470583Y77467D01*
X470824Y77407D01*
X471080Y77364D01*
X471353Y77338D01*
X471641Y77330D01*
X471931Y77339D01*
X472205Y77367D01*
X472463Y77412D01*
X472704Y77477D01*
X472930Y77559D01*
X473140Y77660D01*
X473334Y77779D01*
X473511Y77917D01*
X473670Y78072D01*
X473808Y78246D01*
X473925Y78437D01*
X474020Y78646D01*
X474095Y78873D01*
X474148Y79117D01*
X474179Y79379D01*
X474190Y79660D01*
X474178Y79905D01*
X474142Y80136D01*
X474081Y80353D01*
X473996Y80556D01*
X473887Y80746D01*
X473754Y80922D01*
X473597Y81084D01*
X473415Y81232D01*
X473210Y81364D01*
X472984Y81479D01*
X472737Y81576D01*
X472468Y81655D01*
X472177Y81717D01*
X471865Y81761D01*
X471532Y81788D01*
X471177Y81797D01*
X470284Y81797D01*
X470284Y83163D01*
X471142Y83163D01*
X471457Y83172D01*
X471754Y83198D01*
X472032Y83242D01*
X472293Y83304D01*
X472535Y83384D01*
X472759Y83481D01*
X472965Y83596D01*
X473152Y83728D01*
X473319Y83876D01*
X473464Y84038D01*
X473587Y84213D01*
X473688Y84401D01*
X473766Y84603D01*
X473821Y84819D01*
X473855Y85049D01*
X473866Y85291D01*
X473857Y85532D01*
X473830Y85760D01*
X473784Y85975D01*
X473720Y86177D01*
X473638Y86366D01*
X473538Y86542D01*
X473420Y86705D01*
X473284Y86855D01*
X473129Y86989D01*
X472957Y87106D01*
X472767Y87204D01*
X472560Y87285D01*
X472335Y87348D01*
X472092Y87393D01*
X471832Y87419D01*
X471554Y87428D01*
X471299Y87420D01*
X471058Y87395D01*
X470828Y87353D01*
X470611Y87295D01*
X470407Y87220D01*
X470214Y87128D01*
X470035Y87019D01*
X469868Y86894D01*
X469715Y86754D01*
X469580Y86600D01*
X469461Y86432D01*
X469359Y86250D01*
X469273Y86055D01*
X469205Y85846D01*
X469154Y85624D01*
X469119Y85388D01*
X467534Y85510D01*
X467592Y85879D01*
X467678Y86226D01*
X467792Y86553D01*
X467935Y86859D01*
X468107Y87144D01*
X468306Y87409D01*
X468534Y87652D01*
X468790Y87875D01*
X469070Y88074D01*
X469370Y88247D01*
X469689Y88393D01*
X470026Y88512D01*
X470384Y88605D01*
X470760Y88672D01*
X471156Y88711D01*
X471571Y88725D01*
X472023Y88711D01*
X472448Y88671D01*
X472847Y88603D01*
X473221Y88509D01*
X473569Y88388D01*
X473891Y88239D01*
X474187Y88064D01*
X474457Y87862D01*
X474698Y87636D01*
X474907Y87388D01*
X475084Y87120D01*
X475229Y86830D01*
X475342Y86518D01*
X475422Y86186D01*
X475470Y85833D01*
X475486Y85458D01*
X475476Y85169D01*
X475445Y84894D01*
X475393Y84633D01*
X475321Y84386D01*
X475228Y84153D01*
X475114Y83933D01*
X474980Y83727D01*
X474825Y83535D01*
X474650Y83358D01*
X474457Y83195D01*
X474245Y83047D01*
X474014Y82915D01*
X473764Y82797D01*
X473496Y82694D01*
X473208Y82606D01*
X472903Y82532D01*
X472903Y82497D01*
X473239Y82450D01*
X473556Y82384D01*
X473854Y82297D01*
X474133Y82191D01*
X474393Y82065D01*
X474633Y81919D01*
X474855Y81754D01*
X475057Y81569D01*
X475238Y81368D01*
X475394Y81154D01*
X475527Y80928D01*
X475635Y80689D01*
X475720Y80437D01*
X475780Y80173D01*
X475816Y79896D01*
X475828Y79607D01*
X475811Y79192D01*
X475760Y78801D01*
X475675Y78435D01*
X475556Y78092D01*
X475404Y77773D01*
X475217Y77479D01*
X474996Y77208D01*
X474742Y76962D01*
X474456Y76742D01*
X474141Y76552D01*
X473797Y76391D01*
X473424Y76259D01*
X473022Y76157D01*
X472591Y76083D01*
X472130Y76040D01*
X471641Y76025D01*
G37*
G36*
X176013Y76200D02*
X174016Y76200D01*
X170382Y88541D01*
X172124Y88541D01*
X174340Y80702D01*
X174719Y79209D01*
X175067Y77671D01*
X175553Y79773D01*
X175809Y80748D01*
X176299Y82535D01*
X177984Y88541D01*
X179587Y88541D01*
X181733Y80860D01*
X182171Y79121D01*
X182503Y77671D01*
X182582Y77978D01*
X182968Y79620D01*
X183657Y82168D01*
X185429Y88541D01*
X187172Y88541D01*
X183537Y76200D01*
X181540Y76200D01*
X179403Y84039D01*
X179144Y85066D01*
X178790Y86675D01*
X178404Y84976D01*
X177728Y82440D01*
X176013Y76200D01*
G37*
G36*
X194956Y76200D02*
X193468Y76200D01*
X193468Y78994D01*
X187652Y78994D01*
X187652Y80220D01*
X193301Y88541D01*
X194956Y88541D01*
X194956Y80238D01*
X196691Y80238D01*
X196691Y78994D01*
X194956Y78994D01*
X194956Y76200D01*
G37*
%LPC*%
G36*
X193468Y80238D02*
X193468Y86763D01*
X193222Y86299D01*
X192881Y85721D01*
X189719Y81061D01*
X189246Y80413D01*
X189106Y80238D01*
X193468Y80238D01*
G37*
%LPD*%
G36*
X164409Y76025D02*
X163860Y76037D01*
X163340Y76074D01*
X162850Y76135D01*
X162390Y76221D01*
X161960Y76331D01*
X161559Y76466D01*
X161188Y76625D01*
X160846Y76809D01*
X160534Y77017D01*
X160252Y77250D01*
X159999Y77507D01*
X159776Y77789D01*
X159582Y78095D01*
X159419Y78425D01*
X159284Y78781D01*
X159180Y79160D01*
X160800Y79484D01*
X160880Y79216D01*
X160980Y78965D01*
X161099Y78733D01*
X161238Y78520D01*
X161397Y78325D01*
X161575Y78149D01*
X161773Y77991D01*
X161991Y77851D01*
X162229Y77729D01*
X162488Y77623D01*
X162767Y77533D01*
X163066Y77460D01*
X163386Y77403D01*
X163727Y77362D01*
X164088Y77338D01*
X164470Y77330D01*
X164863Y77339D01*
X165234Y77365D01*
X165581Y77408D01*
X165905Y77469D01*
X166206Y77547D01*
X166484Y77643D01*
X166739Y77756D01*
X166970Y77886D01*
X167177Y78033D01*
X167356Y78197D01*
X167507Y78376D01*
X167631Y78572D01*
X167727Y78785D01*
X167796Y79013D01*
X167837Y79258D01*
X167851Y79519D01*
X167833Y79807D01*
X167782Y80067D01*
X167696Y80298D01*
X167575Y80500D01*
X167423Y80681D01*
X167243Y80844D01*
X167035Y80991D01*
X166800Y81122D01*
X166538Y81240D01*
X166252Y81348D01*
X165942Y81446D01*
X165609Y81534D01*
X164076Y81893D01*
X163388Y82055D01*
X162789Y82217D01*
X162278Y82379D01*
X161855Y82541D01*
X161497Y82708D01*
X161178Y82884D01*
X160899Y83069D01*
X160660Y83264D01*
X160454Y83472D01*
X160273Y83696D01*
X160119Y83938D01*
X159990Y84197D01*
X159888Y84474D01*
X159816Y84770D01*
X159772Y85087D01*
X159758Y85423D01*
X159777Y85808D01*
X159834Y86170D01*
X159928Y86509D01*
X160061Y86826D01*
X160232Y87120D01*
X160440Y87392D01*
X160687Y87640D01*
X160971Y87866D01*
X161290Y88068D01*
X161643Y88242D01*
X162028Y88389D01*
X162446Y88510D01*
X162896Y88604D01*
X163379Y88671D01*
X163895Y88711D01*
X164444Y88725D01*
X164954Y88715D01*
X165433Y88684D01*
X165881Y88634D01*
X166298Y88564D01*
X166685Y88473D01*
X167040Y88363D01*
X167364Y88232D01*
X167658Y88081D01*
X167926Y87906D01*
X168173Y87702D01*
X168399Y87471D01*
X168604Y87211D01*
X168788Y86922D01*
X168952Y86605D01*
X169095Y86260D01*
X169217Y85887D01*
X167570Y85598D01*
X167495Y85835D01*
X167404Y86055D01*
X167298Y86258D01*
X167176Y86444D01*
X167039Y86614D01*
X166887Y86766D01*
X166720Y86902D01*
X166537Y87021D01*
X166337Y87125D01*
X166119Y87215D01*
X165883Y87291D01*
X165628Y87353D01*
X165355Y87401D01*
X165064Y87436D01*
X164754Y87457D01*
X164426Y87463D01*
X164067Y87456D01*
X163730Y87433D01*
X163414Y87395D01*
X163121Y87341D01*
X162850Y87272D01*
X162600Y87188D01*
X162372Y87088D01*
X162166Y86973D01*
X161984Y86843D01*
X161825Y86698D01*
X161691Y86537D01*
X161582Y86362D01*
X161497Y86172D01*
X161436Y85966D01*
X161399Y85746D01*
X161387Y85510D01*
X161406Y85238D01*
X161462Y84990D01*
X161557Y84767D01*
X161689Y84569D01*
X161857Y84390D01*
X162058Y84225D01*
X162293Y84074D01*
X162561Y83938D01*
X162916Y83802D01*
X163412Y83650D01*
X164050Y83484D01*
X164829Y83303D01*
X165963Y83036D01*
X166516Y82887D01*
X167045Y82712D01*
X167545Y82507D01*
X168013Y82270D01*
X168231Y82136D01*
X168434Y81987D01*
X168623Y81825D01*
X168797Y81648D01*
X168954Y81456D01*
X169093Y81247D01*
X169215Y81022D01*
X169318Y80781D01*
X169400Y80520D01*
X169459Y80238D01*
X169494Y79933D01*
X169506Y79607D01*
X169485Y79192D01*
X169423Y78801D01*
X169318Y78435D01*
X169172Y78092D01*
X168984Y77773D01*
X168755Y77479D01*
X168483Y77208D01*
X168170Y76962D01*
X167819Y76742D01*
X167434Y76552D01*
X167015Y76391D01*
X166562Y76259D01*
X166075Y76157D01*
X165553Y76083D01*
X164998Y76040D01*
X164409Y76025D01*
G37*
D10*
X254000Y381000D02*
X101600Y381000D01*
X101600Y533400D01*
X254000Y533400D01*
X254000Y381000D01*
X381000Y381000D02*
X533400Y381000D01*
X381000Y381000D02*
X381000Y533400D01*
X533400Y533400D01*
X533400Y381000D01*
X533400Y254000D02*
X381000Y254000D01*
X533400Y254000D02*
X533400Y101600D01*
X381000Y101600D01*
X381000Y254000D01*
X254000Y254000D02*
X101600Y254000D01*
X254000Y254000D02*
X254000Y101600D01*
X101600Y101600D01*
X101600Y254000D01*
M02*
