G04 EAGLE Gerber RS-274X export*
G75*
%MOMM*%
%FSLAX34Y34*%
%LPD*%
%INSilkscreen Bottom*%
%IPPOS*%
%AMOC8*
5,1,8,0,0,1.08239X$1,22.5*%
G01*
G04 Define Apertures*
%ADD10C,0.127000*%
%ADD11C,0.200000*%
G36*
X93962Y412575D02*
X93574Y412584D01*
X93200Y412611D01*
X92838Y412656D01*
X92490Y412718D01*
X92154Y412799D01*
X91831Y412898D01*
X91522Y413014D01*
X91225Y413149D01*
X90943Y413300D01*
X90678Y413467D01*
X90429Y413651D01*
X90196Y413850D01*
X89980Y414066D01*
X89780Y414297D01*
X89597Y414545D01*
X89430Y414808D01*
X89281Y415086D01*
X89152Y415377D01*
X89043Y415681D01*
X88953Y415997D01*
X88884Y416327D01*
X88834Y416669D01*
X88805Y417024D01*
X88795Y417392D01*
X88795Y425091D01*
X90459Y425091D01*
X90459Y417488D01*
X90473Y417066D01*
X90516Y416669D01*
X90589Y416299D01*
X90690Y415955D01*
X90820Y415636D01*
X90978Y415344D01*
X91166Y415079D01*
X91383Y414839D01*
X91625Y414626D01*
X91891Y414442D01*
X92180Y414287D01*
X92492Y414159D01*
X92827Y414060D01*
X93185Y413989D01*
X93566Y413947D01*
X93971Y413932D01*
X94364Y413946D01*
X94733Y413987D01*
X95079Y414056D01*
X95401Y414151D01*
X95699Y414275D01*
X95973Y414425D01*
X96223Y414603D01*
X96450Y414808D01*
X96651Y415040D01*
X96825Y415297D01*
X96973Y415580D01*
X97093Y415888D01*
X97187Y416221D01*
X97254Y416580D01*
X97294Y416965D01*
X97308Y417375D01*
X97308Y425091D01*
X98981Y425091D01*
X98981Y417234D01*
X98971Y416877D01*
X98942Y416533D01*
X98893Y416201D01*
X98825Y415881D01*
X98738Y415574D01*
X98631Y415280D01*
X98505Y414998D01*
X98359Y414729D01*
X98196Y414474D01*
X98016Y414235D01*
X97821Y414011D01*
X97610Y413803D01*
X97383Y413611D01*
X97140Y413434D01*
X96882Y413272D01*
X96607Y413127D01*
X96319Y412997D01*
X96018Y412885D01*
X95706Y412790D01*
X95381Y412713D01*
X95044Y412652D01*
X94696Y412609D01*
X94335Y412583D01*
X93962Y412575D01*
G37*
G36*
X86061Y412750D02*
X78327Y412750D01*
X78327Y414090D01*
X81331Y414090D01*
X81331Y425091D01*
X82785Y425091D01*
X85702Y423085D01*
X85702Y421596D01*
X82916Y423584D01*
X82916Y414090D01*
X86061Y414090D01*
X86061Y412750D01*
G37*
G36*
X55337Y526875D02*
X54888Y526888D01*
X54453Y526927D01*
X54032Y526992D01*
X53625Y527083D01*
X53232Y527200D01*
X52853Y527343D01*
X52487Y527512D01*
X52135Y527707D01*
X51800Y527927D01*
X51484Y528171D01*
X51188Y528438D01*
X50910Y528729D01*
X50652Y529045D01*
X50413Y529384D01*
X50194Y529746D01*
X49994Y530133D01*
X51360Y530816D01*
X51528Y530505D01*
X51707Y530215D01*
X51895Y529944D01*
X52093Y529693D01*
X52302Y529463D01*
X52520Y529252D01*
X52749Y529062D01*
X52987Y528891D01*
X53236Y528741D01*
X53494Y528611D01*
X53763Y528501D01*
X54042Y528410D01*
X54331Y528340D01*
X54630Y528290D01*
X54939Y528260D01*
X55258Y528250D01*
X55751Y528271D01*
X56217Y528336D01*
X56658Y528444D01*
X57072Y528595D01*
X57460Y528789D01*
X57822Y529026D01*
X58158Y529306D01*
X58468Y529629D01*
X58746Y529988D01*
X58987Y530375D01*
X59191Y530789D01*
X59358Y531231D01*
X59488Y531701D01*
X59580Y532199D01*
X59636Y532724D01*
X59655Y533277D01*
X59637Y533836D01*
X59583Y534364D01*
X59494Y534861D01*
X59370Y535328D01*
X59210Y535764D01*
X59014Y536170D01*
X58783Y536545D01*
X58516Y536890D01*
X58217Y537199D01*
X57890Y537467D01*
X57534Y537693D01*
X57150Y537879D01*
X56737Y538023D01*
X56296Y538126D01*
X55826Y538188D01*
X55328Y538208D01*
X55007Y538199D01*
X54698Y538173D01*
X54399Y538128D01*
X54112Y538066D01*
X53835Y537986D01*
X53570Y537888D01*
X53316Y537773D01*
X53073Y537639D01*
X52843Y537489D01*
X52630Y537323D01*
X52433Y537141D01*
X52253Y536943D01*
X52088Y536729D01*
X51940Y536499D01*
X51808Y536254D01*
X51693Y535992D01*
X50108Y536518D01*
X50274Y536885D01*
X50462Y537229D01*
X50673Y537550D01*
X50905Y537847D01*
X51159Y538121D01*
X51435Y538372D01*
X51732Y538600D01*
X52052Y538804D01*
X52393Y538985D01*
X52754Y539141D01*
X53135Y539274D01*
X53537Y539382D01*
X53959Y539466D01*
X54401Y539527D01*
X54863Y539563D01*
X55345Y539575D01*
X55693Y539568D01*
X56031Y539549D01*
X56360Y539516D01*
X56679Y539470D01*
X56988Y539411D01*
X57288Y539339D01*
X57578Y539255D01*
X57859Y539156D01*
X58130Y539045D01*
X58392Y538921D01*
X58644Y538784D01*
X58886Y538634D01*
X59342Y538294D01*
X59760Y537902D01*
X60133Y537464D01*
X60457Y536985D01*
X60731Y536467D01*
X60849Y536193D01*
X60955Y535909D01*
X61049Y535615D01*
X61130Y535311D01*
X61198Y534997D01*
X61254Y534673D01*
X61298Y534339D01*
X61329Y533995D01*
X61348Y533641D01*
X61354Y533277D01*
X61343Y532793D01*
X61309Y532325D01*
X61253Y531874D01*
X61175Y531439D01*
X61075Y531021D01*
X60952Y530619D01*
X60807Y530234D01*
X60640Y529866D01*
X60451Y529516D01*
X60242Y529187D01*
X60013Y528879D01*
X59764Y528592D01*
X59494Y528325D01*
X59205Y528079D01*
X58895Y527854D01*
X58564Y527650D01*
X58216Y527468D01*
X57852Y527311D01*
X57472Y527178D01*
X57076Y527069D01*
X56665Y526984D01*
X56238Y526923D01*
X55795Y526887D01*
X55337Y526875D01*
G37*
G36*
X47961Y527050D02*
X40227Y527050D01*
X40227Y528390D01*
X43231Y528390D01*
X43231Y539391D01*
X44685Y539391D01*
X47602Y537385D01*
X47602Y535896D01*
X44816Y537884D01*
X44816Y528390D01*
X47961Y528390D01*
X47961Y527050D01*
G37*
G36*
X191770Y400050D02*
X189843Y400050D01*
X191855Y403103D01*
X193346Y405366D01*
X193003Y405439D01*
X192679Y405532D01*
X192374Y405648D01*
X192088Y405785D01*
X191932Y405877D01*
X191821Y405943D01*
X191573Y406124D01*
X191345Y406325D01*
X191135Y406549D01*
X190947Y406790D01*
X190784Y407045D01*
X190646Y407313D01*
X190534Y407595D01*
X190446Y407891D01*
X190383Y408201D01*
X190346Y408524D01*
X190333Y408861D01*
X190351Y409266D01*
X190404Y409647D01*
X190493Y410006D01*
X190617Y410342D01*
X190776Y410656D01*
X190971Y410946D01*
X191202Y411213D01*
X191468Y411458D01*
X191766Y411677D01*
X192094Y411866D01*
X192452Y412026D01*
X192839Y412158D01*
X193257Y412260D01*
X193703Y412332D01*
X194180Y412376D01*
X194686Y412391D01*
X200493Y412391D01*
X200493Y400050D01*
X198820Y400050D01*
X198820Y405174D01*
X194975Y405174D01*
X191770Y400050D01*
G37*
%LPC*%
G36*
X198820Y406496D02*
X198820Y411051D01*
X194853Y411051D01*
X194519Y411042D01*
X194205Y411015D01*
X193912Y410971D01*
X193639Y410910D01*
X193385Y410830D01*
X193152Y410733D01*
X192939Y410618D01*
X192746Y410486D01*
X192575Y410337D01*
X192426Y410171D01*
X192301Y409990D01*
X192198Y409793D01*
X192118Y409580D01*
X192061Y409350D01*
X192026Y409105D01*
X192015Y408844D01*
X192026Y408573D01*
X192060Y408318D01*
X192117Y408079D01*
X192196Y407855D01*
X192297Y407646D01*
X192421Y407453D01*
X192568Y407276D01*
X192737Y407114D01*
X192928Y406969D01*
X193136Y406844D01*
X193364Y406737D01*
X193610Y406651D01*
X193875Y406583D01*
X194159Y406535D01*
X194461Y406506D01*
X194783Y406496D01*
X198820Y406496D01*
G37*
%LPD*%
G36*
X187661Y400050D02*
X179927Y400050D01*
X179927Y401390D01*
X182931Y401390D01*
X182931Y412391D01*
X184385Y412391D01*
X187302Y410385D01*
X187302Y408896D01*
X184516Y410884D01*
X184516Y401390D01*
X187661Y401390D01*
X187661Y400050D01*
G37*
G36*
X109220Y495300D02*
X107293Y495300D01*
X109305Y498353D01*
X110796Y500616D01*
X110453Y500689D01*
X110129Y500782D01*
X109824Y500898D01*
X109538Y501035D01*
X109382Y501127D01*
X109271Y501193D01*
X109023Y501374D01*
X108795Y501575D01*
X108585Y501799D01*
X108397Y502040D01*
X108234Y502295D01*
X108096Y502563D01*
X107984Y502845D01*
X107896Y503141D01*
X107833Y503451D01*
X107796Y503774D01*
X107783Y504111D01*
X107801Y504516D01*
X107854Y504897D01*
X107943Y505256D01*
X108067Y505592D01*
X108226Y505906D01*
X108421Y506196D01*
X108652Y506463D01*
X108918Y506708D01*
X109216Y506927D01*
X109544Y507116D01*
X109902Y507276D01*
X110289Y507408D01*
X110707Y507510D01*
X111153Y507582D01*
X111630Y507626D01*
X112136Y507641D01*
X117943Y507641D01*
X117943Y495300D01*
X116270Y495300D01*
X116270Y500424D01*
X112425Y500424D01*
X109220Y495300D01*
G37*
%LPC*%
G36*
X116270Y501746D02*
X116270Y506301D01*
X112303Y506301D01*
X111969Y506292D01*
X111655Y506265D01*
X111362Y506221D01*
X111089Y506160D01*
X110835Y506080D01*
X110602Y505983D01*
X110389Y505868D01*
X110196Y505736D01*
X110025Y505587D01*
X109876Y505421D01*
X109751Y505240D01*
X109648Y505043D01*
X109568Y504830D01*
X109511Y504600D01*
X109476Y504355D01*
X109465Y504094D01*
X109476Y503823D01*
X109510Y503568D01*
X109567Y503329D01*
X109646Y503105D01*
X109747Y502896D01*
X109871Y502703D01*
X110018Y502526D01*
X110187Y502364D01*
X110378Y502219D01*
X110586Y502094D01*
X110814Y501987D01*
X111060Y501901D01*
X111325Y501833D01*
X111609Y501785D01*
X111911Y501756D01*
X112233Y501746D01*
X116270Y501746D01*
G37*
%LPD*%
G36*
X101634Y495125D02*
X101133Y495142D01*
X100661Y495195D01*
X100216Y495283D01*
X99800Y495405D01*
X99412Y495563D01*
X99051Y495755D01*
X98719Y495983D01*
X98415Y496246D01*
X98143Y496539D01*
X97907Y496858D01*
X97708Y497204D01*
X97545Y497575D01*
X97418Y497972D01*
X97327Y498396D01*
X97273Y498845D01*
X97254Y499320D01*
X97271Y499739D01*
X97322Y500138D01*
X97406Y500517D01*
X97525Y500875D01*
X97677Y501213D01*
X97863Y501531D01*
X98083Y501828D01*
X98336Y502105D01*
X98618Y502356D01*
X98923Y502573D01*
X99251Y502757D01*
X99603Y502907D01*
X99977Y503024D01*
X100375Y503107D01*
X100796Y503157D01*
X101240Y503174D01*
X101613Y503162D01*
X101970Y503125D01*
X102312Y503063D01*
X102639Y502977D01*
X102949Y502866D01*
X103245Y502731D01*
X103524Y502570D01*
X103788Y502386D01*
X103552Y506301D01*
X97973Y506301D01*
X97973Y507641D01*
X104988Y507641D01*
X105400Y501002D01*
X103858Y501002D01*
X103582Y501225D01*
X103307Y501413D01*
X103031Y501567D01*
X102755Y501685D01*
X102473Y501773D01*
X102181Y501836D01*
X101878Y501874D01*
X101564Y501886D01*
X101265Y501875D01*
X100982Y501842D01*
X100715Y501785D01*
X100463Y501707D01*
X100228Y501606D01*
X100008Y501482D01*
X99803Y501337D01*
X99615Y501168D01*
X99445Y500982D01*
X99299Y500781D01*
X99174Y500567D01*
X99073Y500338D01*
X98994Y500096D01*
X98937Y499840D01*
X98904Y499569D01*
X98892Y499285D01*
X98903Y498959D01*
X98937Y498651D01*
X98993Y498361D01*
X99072Y498089D01*
X99173Y497834D01*
X99296Y497598D01*
X99442Y497379D01*
X99610Y497179D01*
X99799Y496999D01*
X100004Y496843D01*
X100227Y496712D01*
X100467Y496604D01*
X100724Y496520D01*
X100998Y496460D01*
X101290Y496424D01*
X101599Y496412D01*
X101851Y496419D01*
X102091Y496441D01*
X102319Y496477D01*
X102534Y496527D01*
X102737Y496591D01*
X102928Y496670D01*
X103107Y496763D01*
X103274Y496870D01*
X103428Y496992D01*
X103570Y497127D01*
X103700Y497278D01*
X103817Y497442D01*
X103923Y497621D01*
X104016Y497814D01*
X104096Y498021D01*
X104165Y498243D01*
X105759Y498059D01*
X105677Y497713D01*
X105570Y497387D01*
X105439Y497083D01*
X105284Y496800D01*
X105104Y496538D01*
X104900Y496297D01*
X104672Y496077D01*
X104419Y495878D01*
X104144Y495702D01*
X103847Y495549D01*
X103530Y495419D01*
X103193Y495313D01*
X102834Y495231D01*
X102455Y495172D01*
X102055Y495137D01*
X101634Y495125D01*
G37*
G36*
X271762Y488775D02*
X271374Y488784D01*
X271000Y488811D01*
X270638Y488856D01*
X270290Y488918D01*
X269954Y488999D01*
X269631Y489098D01*
X269322Y489214D01*
X269025Y489349D01*
X268743Y489500D01*
X268478Y489667D01*
X268229Y489851D01*
X267996Y490050D01*
X267780Y490266D01*
X267580Y490497D01*
X267397Y490745D01*
X267230Y491008D01*
X267081Y491286D01*
X266952Y491577D01*
X266843Y491881D01*
X266753Y492197D01*
X266684Y492527D01*
X266634Y492869D01*
X266605Y493224D01*
X266595Y493592D01*
X266595Y501291D01*
X268259Y501291D01*
X268259Y493688D01*
X268273Y493266D01*
X268316Y492869D01*
X268389Y492499D01*
X268490Y492155D01*
X268620Y491836D01*
X268778Y491544D01*
X268966Y491279D01*
X269183Y491039D01*
X269425Y490826D01*
X269691Y490642D01*
X269980Y490487D01*
X270292Y490359D01*
X270627Y490260D01*
X270985Y490189D01*
X271366Y490147D01*
X271771Y490132D01*
X272164Y490146D01*
X272533Y490187D01*
X272879Y490256D01*
X273201Y490351D01*
X273499Y490475D01*
X273773Y490625D01*
X274023Y490803D01*
X274250Y491008D01*
X274451Y491240D01*
X274625Y491497D01*
X274773Y491780D01*
X274893Y492088D01*
X274987Y492421D01*
X275054Y492780D01*
X275094Y493165D01*
X275108Y493575D01*
X275108Y501291D01*
X276781Y501291D01*
X276781Y493434D01*
X276771Y493077D01*
X276742Y492733D01*
X276693Y492401D01*
X276625Y492081D01*
X276538Y491774D01*
X276431Y491480D01*
X276305Y491198D01*
X276159Y490929D01*
X275996Y490674D01*
X275816Y490435D01*
X275621Y490211D01*
X275410Y490003D01*
X275183Y489811D01*
X274940Y489634D01*
X274682Y489472D01*
X274407Y489327D01*
X274119Y489197D01*
X273818Y489085D01*
X273506Y488990D01*
X273181Y488913D01*
X272844Y488852D01*
X272496Y488809D01*
X272135Y488783D01*
X271762Y488775D01*
G37*
G36*
X264325Y488950D02*
X256153Y488950D01*
X256153Y490290D01*
X262591Y490290D01*
X262439Y490600D01*
X262245Y490915D01*
X262009Y491237D01*
X261732Y491564D01*
X261409Y491905D01*
X261034Y492266D01*
X260608Y492647D01*
X260130Y493049D01*
X259288Y493745D01*
X258595Y494343D01*
X258049Y494844D01*
X257651Y495247D01*
X257347Y495602D01*
X257083Y495957D01*
X256859Y496312D01*
X256674Y496666D01*
X256531Y497022D01*
X256428Y497378D01*
X256366Y497735D01*
X256346Y498094D01*
X256362Y498487D01*
X256409Y498858D01*
X256487Y499205D01*
X256597Y499529D01*
X256738Y499830D01*
X256910Y500108D01*
X257114Y500363D01*
X257349Y500594D01*
X257613Y500801D01*
X257904Y500980D01*
X258222Y501131D01*
X258567Y501255D01*
X258939Y501351D01*
X259338Y501420D01*
X259764Y501461D01*
X260217Y501475D01*
X260632Y501461D01*
X261028Y501420D01*
X261405Y501352D01*
X261762Y501256D01*
X262100Y501133D01*
X262419Y500982D01*
X262718Y500804D01*
X262998Y500599D01*
X263254Y500370D01*
X263482Y500123D01*
X263682Y499857D01*
X263853Y499572D01*
X263996Y499268D01*
X264111Y498945D01*
X264197Y498603D01*
X264255Y498243D01*
X262643Y498094D01*
X262606Y498334D01*
X262553Y498561D01*
X262482Y498774D01*
X262395Y498973D01*
X262291Y499158D01*
X262170Y499330D01*
X262032Y499487D01*
X261877Y499631D01*
X261708Y499759D01*
X261529Y499871D01*
X261338Y499965D01*
X261136Y500042D01*
X260923Y500101D01*
X260699Y500144D01*
X260464Y500170D01*
X260217Y500178D01*
X259960Y500170D01*
X259716Y500143D01*
X259488Y500100D01*
X259274Y500038D01*
X259074Y499959D01*
X258889Y499863D01*
X258718Y499749D01*
X258562Y499618D01*
X258422Y499471D01*
X258301Y499309D01*
X258199Y499133D01*
X258115Y498943D01*
X258050Y498739D01*
X258004Y498521D01*
X257976Y498288D01*
X257966Y498041D01*
X257988Y497675D01*
X258053Y497328D01*
X258161Y497000D01*
X258312Y496693D01*
X258499Y496398D01*
X258712Y496110D01*
X258952Y495829D01*
X259219Y495554D01*
X259813Y495011D01*
X260476Y494468D01*
X261175Y493902D01*
X261881Y493290D01*
X262232Y492963D01*
X262574Y492618D01*
X262909Y492254D01*
X263235Y491871D01*
X263544Y491464D01*
X263829Y491027D01*
X264089Y490560D01*
X264325Y490062D01*
X264325Y488950D01*
G37*
G36*
X309337Y374475D02*
X308888Y374488D01*
X308453Y374527D01*
X308032Y374592D01*
X307625Y374683D01*
X307232Y374800D01*
X306853Y374943D01*
X306487Y375112D01*
X306135Y375307D01*
X305800Y375527D01*
X305484Y375771D01*
X305188Y376038D01*
X304910Y376329D01*
X304652Y376645D01*
X304413Y376984D01*
X304194Y377346D01*
X303994Y377733D01*
X305360Y378416D01*
X305528Y378105D01*
X305707Y377815D01*
X305895Y377544D01*
X306093Y377293D01*
X306302Y377063D01*
X306520Y376852D01*
X306749Y376662D01*
X306987Y376491D01*
X307236Y376341D01*
X307494Y376211D01*
X307763Y376101D01*
X308042Y376010D01*
X308331Y375940D01*
X308630Y375890D01*
X308939Y375860D01*
X309258Y375850D01*
X309751Y375871D01*
X310217Y375936D01*
X310658Y376044D01*
X311072Y376195D01*
X311460Y376389D01*
X311822Y376626D01*
X312158Y376906D01*
X312468Y377229D01*
X312746Y377588D01*
X312987Y377975D01*
X313191Y378389D01*
X313358Y378831D01*
X313488Y379301D01*
X313580Y379799D01*
X313636Y380324D01*
X313655Y380877D01*
X313637Y381436D01*
X313583Y381964D01*
X313494Y382461D01*
X313370Y382928D01*
X313210Y383364D01*
X313014Y383770D01*
X312783Y384145D01*
X312516Y384490D01*
X312217Y384799D01*
X311890Y385067D01*
X311534Y385293D01*
X311150Y385479D01*
X310737Y385623D01*
X310296Y385726D01*
X309826Y385788D01*
X309328Y385808D01*
X309007Y385799D01*
X308698Y385773D01*
X308399Y385728D01*
X308112Y385666D01*
X307835Y385586D01*
X307570Y385488D01*
X307316Y385373D01*
X307073Y385239D01*
X306843Y385089D01*
X306630Y384923D01*
X306433Y384741D01*
X306253Y384543D01*
X306088Y384329D01*
X305940Y384099D01*
X305808Y383854D01*
X305693Y383592D01*
X304108Y384118D01*
X304274Y384485D01*
X304462Y384829D01*
X304673Y385150D01*
X304905Y385447D01*
X305159Y385721D01*
X305435Y385972D01*
X305732Y386200D01*
X306052Y386404D01*
X306393Y386585D01*
X306754Y386741D01*
X307135Y386874D01*
X307537Y386982D01*
X307959Y387066D01*
X308401Y387127D01*
X308863Y387163D01*
X309345Y387175D01*
X309693Y387168D01*
X310031Y387149D01*
X310360Y387116D01*
X310679Y387070D01*
X310988Y387011D01*
X311288Y386939D01*
X311578Y386855D01*
X311859Y386756D01*
X312130Y386645D01*
X312392Y386521D01*
X312644Y386384D01*
X312886Y386234D01*
X313342Y385894D01*
X313760Y385502D01*
X314133Y385064D01*
X314457Y384585D01*
X314731Y384067D01*
X314849Y383793D01*
X314955Y383509D01*
X315049Y383215D01*
X315130Y382911D01*
X315198Y382597D01*
X315254Y382273D01*
X315298Y381939D01*
X315329Y381595D01*
X315348Y381241D01*
X315354Y380877D01*
X315343Y380393D01*
X315309Y379925D01*
X315253Y379474D01*
X315175Y379039D01*
X315075Y378621D01*
X314952Y378219D01*
X314807Y377834D01*
X314640Y377466D01*
X314451Y377116D01*
X314242Y376787D01*
X314013Y376479D01*
X313764Y376192D01*
X313494Y375925D01*
X313205Y375679D01*
X312895Y375454D01*
X312564Y375250D01*
X312216Y375068D01*
X311852Y374911D01*
X311472Y374778D01*
X311076Y374669D01*
X310665Y374584D01*
X310238Y374523D01*
X309795Y374487D01*
X309337Y374475D01*
G37*
G36*
X302425Y374650D02*
X294253Y374650D01*
X294253Y375990D01*
X300691Y375990D01*
X300539Y376300D01*
X300345Y376615D01*
X300109Y376937D01*
X299832Y377264D01*
X299509Y377605D01*
X299134Y377966D01*
X298708Y378347D01*
X298230Y378749D01*
X297388Y379445D01*
X296695Y380043D01*
X296149Y380544D01*
X295751Y380947D01*
X295447Y381302D01*
X295183Y381657D01*
X294959Y382012D01*
X294774Y382366D01*
X294631Y382722D01*
X294528Y383078D01*
X294466Y383435D01*
X294446Y383794D01*
X294462Y384187D01*
X294509Y384558D01*
X294587Y384905D01*
X294697Y385229D01*
X294838Y385530D01*
X295010Y385808D01*
X295214Y386063D01*
X295449Y386294D01*
X295713Y386501D01*
X296004Y386680D01*
X296322Y386831D01*
X296667Y386955D01*
X297039Y387051D01*
X297438Y387120D01*
X297864Y387161D01*
X298317Y387175D01*
X298732Y387161D01*
X299128Y387120D01*
X299505Y387052D01*
X299862Y386956D01*
X300200Y386833D01*
X300519Y386682D01*
X300818Y386504D01*
X301098Y386299D01*
X301354Y386070D01*
X301582Y385823D01*
X301782Y385557D01*
X301953Y385272D01*
X302096Y384968D01*
X302211Y384645D01*
X302297Y384303D01*
X302355Y383943D01*
X300743Y383794D01*
X300706Y384034D01*
X300653Y384261D01*
X300582Y384474D01*
X300495Y384673D01*
X300391Y384858D01*
X300270Y385030D01*
X300132Y385187D01*
X299977Y385331D01*
X299808Y385459D01*
X299629Y385571D01*
X299438Y385665D01*
X299236Y385742D01*
X299023Y385801D01*
X298799Y385844D01*
X298564Y385870D01*
X298317Y385878D01*
X298060Y385870D01*
X297816Y385843D01*
X297588Y385800D01*
X297374Y385738D01*
X297174Y385659D01*
X296989Y385563D01*
X296818Y385449D01*
X296662Y385318D01*
X296522Y385171D01*
X296401Y385009D01*
X296299Y384833D01*
X296215Y384643D01*
X296150Y384439D01*
X296104Y384221D01*
X296076Y383988D01*
X296066Y383741D01*
X296088Y383375D01*
X296153Y383028D01*
X296261Y382700D01*
X296412Y382393D01*
X296599Y382098D01*
X296812Y381810D01*
X297052Y381529D01*
X297319Y381254D01*
X297913Y380711D01*
X298576Y380168D01*
X299275Y379602D01*
X299981Y378990D01*
X300332Y378663D01*
X300674Y378318D01*
X301009Y377954D01*
X301335Y377571D01*
X301644Y377164D01*
X301929Y376727D01*
X302189Y376260D01*
X302425Y375762D01*
X302425Y374650D01*
G37*
G36*
X248920Y406400D02*
X246993Y406400D01*
X249005Y409453D01*
X250496Y411716D01*
X250153Y411789D01*
X249829Y411882D01*
X249524Y411998D01*
X249238Y412135D01*
X249082Y412227D01*
X248971Y412293D01*
X248723Y412474D01*
X248495Y412675D01*
X248285Y412899D01*
X248097Y413140D01*
X247934Y413395D01*
X247796Y413663D01*
X247684Y413945D01*
X247596Y414241D01*
X247533Y414551D01*
X247496Y414874D01*
X247483Y415211D01*
X247501Y415616D01*
X247554Y415997D01*
X247643Y416356D01*
X247767Y416692D01*
X247926Y417006D01*
X248121Y417296D01*
X248352Y417563D01*
X248618Y417808D01*
X248916Y418027D01*
X249244Y418216D01*
X249602Y418376D01*
X249989Y418508D01*
X250407Y418610D01*
X250853Y418682D01*
X251330Y418726D01*
X251836Y418741D01*
X257643Y418741D01*
X257643Y406400D01*
X255970Y406400D01*
X255970Y411524D01*
X252125Y411524D01*
X248920Y406400D01*
G37*
%LPC*%
G36*
X255970Y412846D02*
X255970Y417401D01*
X252003Y417401D01*
X251669Y417392D01*
X251355Y417365D01*
X251062Y417321D01*
X250789Y417260D01*
X250535Y417180D01*
X250302Y417083D01*
X250089Y416968D01*
X249896Y416836D01*
X249725Y416687D01*
X249576Y416521D01*
X249451Y416340D01*
X249348Y416143D01*
X249268Y415930D01*
X249211Y415700D01*
X249176Y415455D01*
X249165Y415194D01*
X249176Y414923D01*
X249210Y414668D01*
X249267Y414429D01*
X249346Y414205D01*
X249447Y413996D01*
X249571Y413803D01*
X249718Y413626D01*
X249887Y413464D01*
X250078Y413319D01*
X250286Y413194D01*
X250514Y413087D01*
X250760Y413001D01*
X251025Y412933D01*
X251309Y412885D01*
X251611Y412856D01*
X251933Y412846D01*
X255970Y412846D01*
G37*
%LPD*%
G36*
X240975Y406225D02*
X240521Y406243D01*
X240092Y406295D01*
X239689Y406384D01*
X239310Y406507D01*
X238957Y406666D01*
X238629Y406860D01*
X238327Y407090D01*
X238049Y407355D01*
X237801Y407650D01*
X237586Y407971D01*
X237403Y408318D01*
X237254Y408690D01*
X237138Y409089D01*
X237056Y409513D01*
X237006Y409962D01*
X236989Y410438D01*
X237005Y410877D01*
X237052Y411294D01*
X237130Y411687D01*
X237240Y412058D01*
X237381Y412406D01*
X237554Y412730D01*
X237757Y413032D01*
X237992Y413310D01*
X238254Y413561D01*
X238538Y413778D01*
X238844Y413962D01*
X239171Y414112D01*
X239521Y414229D01*
X239893Y414312D01*
X240287Y414362D01*
X240703Y414379D01*
X240951Y414373D01*
X241192Y414353D01*
X241426Y414321D01*
X241653Y414275D01*
X242086Y414145D01*
X242490Y413963D01*
X242858Y413731D01*
X243182Y413452D01*
X243462Y413125D01*
X243698Y412750D01*
X243687Y413328D01*
X243652Y413871D01*
X243594Y414378D01*
X243513Y414851D01*
X243409Y415288D01*
X243282Y415690D01*
X243132Y416057D01*
X242958Y416389D01*
X242764Y416684D01*
X242550Y416939D01*
X242318Y417155D01*
X242066Y417332D01*
X241795Y417469D01*
X241506Y417567D01*
X241197Y417626D01*
X240869Y417646D01*
X240495Y417622D01*
X240155Y417552D01*
X239849Y417434D01*
X239578Y417269D01*
X239341Y417058D01*
X239139Y416799D01*
X238971Y416493D01*
X238837Y416140D01*
X237331Y416411D01*
X237430Y416715D01*
X237545Y417000D01*
X237676Y417265D01*
X237824Y417511D01*
X237987Y417737D01*
X238167Y417943D01*
X238363Y418129D01*
X238575Y418296D01*
X238803Y418444D01*
X239047Y418571D01*
X239308Y418679D01*
X239584Y418768D01*
X239877Y418836D01*
X240186Y418885D01*
X240511Y418915D01*
X240852Y418925D01*
X241113Y418918D01*
X241367Y418898D01*
X241613Y418864D01*
X241851Y418817D01*
X242082Y418757D01*
X242305Y418683D01*
X242728Y418496D01*
X243122Y418254D01*
X243484Y417959D01*
X243817Y417610D01*
X244119Y417208D01*
X244388Y416756D01*
X244621Y416257D01*
X244818Y415711D01*
X244979Y415119D01*
X245105Y414481D01*
X245195Y413795D01*
X245248Y413064D01*
X245266Y412286D01*
X245249Y411568D01*
X245197Y410894D01*
X245111Y410264D01*
X244990Y409678D01*
X244835Y409136D01*
X244645Y408638D01*
X244421Y408185D01*
X244163Y407775D01*
X243871Y407412D01*
X243550Y407097D01*
X243197Y406830D01*
X242814Y406612D01*
X242400Y406443D01*
X241956Y406322D01*
X241480Y406249D01*
X241231Y406231D01*
X240975Y406225D01*
G37*
%LPC*%
G36*
X241027Y407495D02*
X241297Y407509D01*
X241554Y407552D01*
X241799Y407623D01*
X242031Y407723D01*
X242251Y407851D01*
X242458Y408007D01*
X242653Y408192D01*
X242836Y408406D01*
X243001Y408642D01*
X243144Y408893D01*
X243265Y409162D01*
X243365Y409446D01*
X243442Y409746D01*
X243497Y410063D01*
X243530Y410395D01*
X243541Y410744D01*
X243530Y411019D01*
X243498Y411279D01*
X243445Y411523D01*
X243371Y411753D01*
X243276Y411967D01*
X243159Y412166D01*
X243021Y412349D01*
X242862Y412518D01*
X242686Y412669D01*
X242496Y412799D01*
X242293Y412910D01*
X242077Y413001D01*
X241848Y413071D01*
X241605Y413121D01*
X241349Y413152D01*
X241080Y413162D01*
X240794Y413150D01*
X240525Y413116D01*
X240272Y413059D01*
X240035Y412980D01*
X239814Y412878D01*
X239610Y412753D01*
X239421Y412605D01*
X239249Y412435D01*
X239095Y412243D01*
X238962Y412033D01*
X238849Y411803D01*
X238756Y411554D01*
X238685Y411286D01*
X238633Y410999D01*
X238602Y410693D01*
X238592Y410368D01*
X238602Y410042D01*
X238633Y409733D01*
X238683Y409443D01*
X238754Y409171D01*
X238845Y408917D01*
X238957Y408680D01*
X239088Y408462D01*
X239240Y408261D01*
X239410Y408082D01*
X239595Y407926D01*
X239795Y407794D01*
X240011Y407686D01*
X240242Y407603D01*
X240488Y407543D01*
X240750Y407507D01*
X241027Y407495D01*
G37*
%LPD*%
G36*
X445770Y400050D02*
X443843Y400050D01*
X445855Y403103D01*
X447346Y405366D01*
X447003Y405439D01*
X446679Y405532D01*
X446374Y405648D01*
X446088Y405785D01*
X445932Y405877D01*
X445821Y405943D01*
X445573Y406124D01*
X445345Y406325D01*
X445135Y406549D01*
X444947Y406790D01*
X444784Y407045D01*
X444646Y407313D01*
X444534Y407595D01*
X444446Y407891D01*
X444383Y408201D01*
X444346Y408524D01*
X444333Y408861D01*
X444351Y409266D01*
X444404Y409647D01*
X444493Y410006D01*
X444617Y410342D01*
X444776Y410656D01*
X444971Y410946D01*
X445202Y411213D01*
X445468Y411458D01*
X445766Y411677D01*
X446094Y411866D01*
X446452Y412026D01*
X446839Y412158D01*
X447257Y412260D01*
X447703Y412332D01*
X448180Y412376D01*
X448686Y412391D01*
X454493Y412391D01*
X454493Y400050D01*
X452820Y400050D01*
X452820Y405174D01*
X448975Y405174D01*
X445770Y400050D01*
G37*
%LPC*%
G36*
X452820Y406496D02*
X452820Y411051D01*
X448853Y411051D01*
X448519Y411042D01*
X448205Y411015D01*
X447912Y410971D01*
X447639Y410910D01*
X447385Y410830D01*
X447152Y410733D01*
X446939Y410618D01*
X446746Y410486D01*
X446575Y410337D01*
X446426Y410171D01*
X446301Y409990D01*
X446198Y409793D01*
X446118Y409580D01*
X446061Y409350D01*
X446026Y409105D01*
X446015Y408844D01*
X446026Y408573D01*
X446060Y408318D01*
X446117Y408079D01*
X446196Y407855D01*
X446297Y407646D01*
X446421Y407453D01*
X446568Y407276D01*
X446737Y407114D01*
X446928Y406969D01*
X447136Y406844D01*
X447364Y406737D01*
X447610Y406651D01*
X447875Y406583D01*
X448159Y406535D01*
X448461Y406506D01*
X448783Y406496D01*
X452820Y406496D01*
G37*
%LPD*%
G36*
X442125Y400050D02*
X433953Y400050D01*
X433953Y401390D01*
X440391Y401390D01*
X440239Y401700D01*
X440045Y402015D01*
X439809Y402337D01*
X439532Y402664D01*
X439209Y403005D01*
X438834Y403366D01*
X438408Y403747D01*
X437930Y404149D01*
X437088Y404845D01*
X436395Y405443D01*
X435849Y405944D01*
X435451Y406347D01*
X435147Y406702D01*
X434883Y407057D01*
X434659Y407412D01*
X434474Y407766D01*
X434331Y408122D01*
X434228Y408478D01*
X434166Y408835D01*
X434146Y409194D01*
X434162Y409587D01*
X434209Y409958D01*
X434287Y410305D01*
X434397Y410629D01*
X434538Y410930D01*
X434710Y411208D01*
X434914Y411463D01*
X435149Y411694D01*
X435413Y411901D01*
X435704Y412080D01*
X436022Y412231D01*
X436367Y412355D01*
X436739Y412451D01*
X437138Y412520D01*
X437564Y412561D01*
X438017Y412575D01*
X438432Y412561D01*
X438828Y412520D01*
X439205Y412452D01*
X439562Y412356D01*
X439900Y412233D01*
X440219Y412082D01*
X440518Y411904D01*
X440798Y411699D01*
X441054Y411470D01*
X441282Y411223D01*
X441482Y410957D01*
X441653Y410672D01*
X441796Y410368D01*
X441911Y410045D01*
X441997Y409703D01*
X442055Y409343D01*
X440443Y409194D01*
X440406Y409434D01*
X440353Y409661D01*
X440282Y409874D01*
X440195Y410073D01*
X440091Y410258D01*
X439970Y410430D01*
X439832Y410587D01*
X439677Y410731D01*
X439508Y410859D01*
X439329Y410971D01*
X439138Y411065D01*
X438936Y411142D01*
X438723Y411201D01*
X438499Y411244D01*
X438264Y411270D01*
X438017Y411278D01*
X437760Y411270D01*
X437516Y411243D01*
X437288Y411200D01*
X437074Y411138D01*
X436874Y411059D01*
X436689Y410963D01*
X436518Y410849D01*
X436362Y410718D01*
X436222Y410571D01*
X436101Y410409D01*
X435999Y410233D01*
X435915Y410043D01*
X435850Y409839D01*
X435804Y409621D01*
X435776Y409388D01*
X435766Y409141D01*
X435788Y408775D01*
X435853Y408428D01*
X435961Y408100D01*
X436112Y407793D01*
X436299Y407498D01*
X436512Y407210D01*
X436752Y406929D01*
X437019Y406654D01*
X437613Y406111D01*
X438276Y405568D01*
X438975Y405002D01*
X439681Y404390D01*
X440032Y404063D01*
X440374Y403718D01*
X440709Y403354D01*
X441035Y402971D01*
X441344Y402564D01*
X441629Y402127D01*
X441889Y401660D01*
X442125Y401162D01*
X442125Y400050D01*
G37*
G36*
X445770Y222250D02*
X443843Y222250D01*
X445855Y225303D01*
X447346Y227566D01*
X447003Y227639D01*
X446679Y227732D01*
X446374Y227848D01*
X446088Y227985D01*
X445932Y228077D01*
X445821Y228143D01*
X445573Y228324D01*
X445345Y228525D01*
X445135Y228749D01*
X444947Y228990D01*
X444784Y229245D01*
X444646Y229513D01*
X444534Y229795D01*
X444446Y230091D01*
X444383Y230401D01*
X444346Y230724D01*
X444333Y231061D01*
X444351Y231466D01*
X444404Y231847D01*
X444493Y232206D01*
X444617Y232542D01*
X444776Y232856D01*
X444971Y233146D01*
X445202Y233413D01*
X445468Y233658D01*
X445766Y233877D01*
X446094Y234066D01*
X446452Y234226D01*
X446839Y234358D01*
X447257Y234460D01*
X447703Y234532D01*
X448180Y234576D01*
X448686Y234591D01*
X454493Y234591D01*
X454493Y222250D01*
X452820Y222250D01*
X452820Y227374D01*
X448975Y227374D01*
X445770Y222250D01*
G37*
%LPC*%
G36*
X452820Y228696D02*
X452820Y233251D01*
X448853Y233251D01*
X448519Y233242D01*
X448205Y233215D01*
X447912Y233171D01*
X447639Y233110D01*
X447385Y233030D01*
X447152Y232933D01*
X446939Y232818D01*
X446746Y232686D01*
X446575Y232537D01*
X446426Y232371D01*
X446301Y232190D01*
X446198Y231993D01*
X446118Y231780D01*
X446061Y231550D01*
X446026Y231305D01*
X446015Y231044D01*
X446026Y230773D01*
X446060Y230518D01*
X446117Y230279D01*
X446196Y230055D01*
X446297Y229846D01*
X446421Y229653D01*
X446568Y229476D01*
X446737Y229314D01*
X446928Y229169D01*
X447136Y229044D01*
X447364Y228937D01*
X447610Y228851D01*
X447875Y228783D01*
X448159Y228735D01*
X448461Y228706D01*
X448783Y228696D01*
X452820Y228696D01*
G37*
%LPD*%
G36*
X438026Y222075D02*
X437537Y222090D01*
X437077Y222133D01*
X436646Y222207D01*
X436244Y222309D01*
X435871Y222441D01*
X435527Y222602D01*
X435211Y222792D01*
X434925Y223012D01*
X434671Y223258D01*
X434450Y223529D01*
X434264Y223823D01*
X434111Y224142D01*
X433992Y224485D01*
X433907Y224851D01*
X433856Y225242D01*
X433839Y225657D01*
X433851Y225946D01*
X433888Y226223D01*
X433948Y226487D01*
X434032Y226739D01*
X434140Y226978D01*
X434273Y227204D01*
X434430Y227418D01*
X434610Y227619D01*
X434812Y227804D01*
X435034Y227969D01*
X435274Y228115D01*
X435534Y228241D01*
X435813Y228347D01*
X436111Y228434D01*
X436428Y228500D01*
X436765Y228547D01*
X436765Y228582D01*
X436459Y228656D01*
X436172Y228744D01*
X435903Y228847D01*
X435654Y228965D01*
X435423Y229097D01*
X435210Y229245D01*
X435017Y229408D01*
X434842Y229585D01*
X434687Y229777D01*
X434553Y229983D01*
X434439Y230203D01*
X434346Y230436D01*
X434274Y230683D01*
X434222Y230944D01*
X434191Y231219D01*
X434181Y231508D01*
X434197Y231883D01*
X434245Y232236D01*
X434326Y232568D01*
X434438Y232880D01*
X434583Y233170D01*
X434760Y233438D01*
X434969Y233686D01*
X435210Y233912D01*
X435480Y234114D01*
X435776Y234289D01*
X436098Y234438D01*
X436446Y234559D01*
X436820Y234653D01*
X437219Y234721D01*
X437645Y234761D01*
X438096Y234775D01*
X438511Y234761D01*
X438907Y234722D01*
X439284Y234655D01*
X439641Y234562D01*
X439979Y234443D01*
X440297Y234297D01*
X440597Y234124D01*
X440877Y233925D01*
X441133Y233702D01*
X441361Y233459D01*
X441561Y233194D01*
X441732Y232909D01*
X441875Y232603D01*
X441990Y232276D01*
X442076Y231929D01*
X442134Y231560D01*
X440548Y231438D01*
X440514Y231674D01*
X440462Y231896D01*
X440394Y232105D01*
X440309Y232300D01*
X440207Y232482D01*
X440088Y232650D01*
X439952Y232804D01*
X439800Y232944D01*
X439632Y233069D01*
X439453Y233178D01*
X439261Y233270D01*
X439056Y233345D01*
X438839Y233403D01*
X438610Y233445D01*
X438368Y233470D01*
X438114Y233478D01*
X437836Y233469D01*
X437575Y233443D01*
X437332Y233398D01*
X437107Y233335D01*
X436900Y233254D01*
X436710Y233156D01*
X436538Y233039D01*
X436384Y232905D01*
X436247Y232755D01*
X436129Y232592D01*
X436029Y232416D01*
X435947Y232227D01*
X435883Y232025D01*
X435838Y231810D01*
X435810Y231582D01*
X435801Y231341D01*
X435812Y231099D01*
X435846Y230869D01*
X435902Y230653D01*
X435980Y230451D01*
X436080Y230263D01*
X436203Y230088D01*
X436348Y229926D01*
X436515Y229778D01*
X436703Y229646D01*
X436908Y229531D01*
X437132Y229434D01*
X437375Y229354D01*
X437635Y229292D01*
X437914Y229248D01*
X438210Y229222D01*
X438525Y229213D01*
X439384Y229213D01*
X439384Y227847D01*
X438490Y227847D01*
X438135Y227838D01*
X437802Y227811D01*
X437490Y227767D01*
X437199Y227705D01*
X436930Y227626D01*
X436683Y227529D01*
X436457Y227414D01*
X436252Y227282D01*
X436071Y227134D01*
X435913Y226972D01*
X435780Y226796D01*
X435671Y226606D01*
X435586Y226403D01*
X435526Y226186D01*
X435489Y225955D01*
X435477Y225710D01*
X435488Y225429D01*
X435520Y225167D01*
X435573Y224923D01*
X435647Y224696D01*
X435742Y224487D01*
X435859Y224296D01*
X435997Y224122D01*
X436156Y223967D01*
X436334Y223829D01*
X436527Y223710D01*
X436737Y223609D01*
X436963Y223527D01*
X437205Y223462D01*
X437462Y223417D01*
X437736Y223389D01*
X438026Y223380D01*
X438315Y223388D01*
X438587Y223414D01*
X438844Y223457D01*
X439084Y223517D01*
X439308Y223594D01*
X439517Y223688D01*
X439709Y223799D01*
X439885Y223927D01*
X440045Y224073D01*
X440189Y224235D01*
X440317Y224415D01*
X440429Y224612D01*
X440524Y224825D01*
X440604Y225056D01*
X440667Y225304D01*
X440715Y225569D01*
X442344Y225421D01*
X442277Y225019D01*
X442182Y224644D01*
X442059Y224293D01*
X441907Y223968D01*
X441727Y223668D01*
X441519Y223393D01*
X441282Y223144D01*
X441017Y222920D01*
X440726Y222722D01*
X440411Y222550D01*
X440073Y222405D01*
X439711Y222286D01*
X439325Y222194D01*
X438916Y222128D01*
X438483Y222088D01*
X438026Y222075D01*
G37*
G36*
X166370Y260350D02*
X164443Y260350D01*
X166455Y263403D01*
X167946Y265666D01*
X167603Y265739D01*
X167279Y265832D01*
X166974Y265948D01*
X166688Y266085D01*
X166532Y266177D01*
X166421Y266243D01*
X166173Y266424D01*
X165945Y266625D01*
X165735Y266849D01*
X165547Y267090D01*
X165384Y267345D01*
X165246Y267613D01*
X165134Y267895D01*
X165046Y268191D01*
X164983Y268501D01*
X164946Y268824D01*
X164933Y269161D01*
X164951Y269566D01*
X165004Y269947D01*
X165093Y270306D01*
X165217Y270642D01*
X165376Y270956D01*
X165571Y271246D01*
X165802Y271513D01*
X166068Y271758D01*
X166366Y271977D01*
X166694Y272166D01*
X167052Y272326D01*
X167439Y272458D01*
X167857Y272560D01*
X168303Y272632D01*
X168780Y272676D01*
X169286Y272691D01*
X175093Y272691D01*
X175093Y260350D01*
X173420Y260350D01*
X173420Y265474D01*
X169575Y265474D01*
X166370Y260350D01*
G37*
%LPC*%
G36*
X173420Y266796D02*
X173420Y271351D01*
X169453Y271351D01*
X169119Y271342D01*
X168805Y271315D01*
X168512Y271271D01*
X168239Y271210D01*
X167985Y271130D01*
X167752Y271033D01*
X167539Y270918D01*
X167346Y270786D01*
X167175Y270637D01*
X167026Y270471D01*
X166901Y270290D01*
X166798Y270093D01*
X166718Y269880D01*
X166661Y269650D01*
X166626Y269405D01*
X166615Y269144D01*
X166626Y268873D01*
X166660Y268618D01*
X166717Y268379D01*
X166796Y268155D01*
X166897Y267946D01*
X167021Y267753D01*
X167168Y267576D01*
X167337Y267414D01*
X167528Y267269D01*
X167736Y267144D01*
X167964Y267037D01*
X168210Y266951D01*
X168475Y266883D01*
X168759Y266835D01*
X169061Y266806D01*
X169383Y266796D01*
X173420Y266796D01*
G37*
%LPD*%
G36*
X157400Y260350D02*
X155911Y260350D01*
X155911Y263144D01*
X154177Y263144D01*
X154177Y264388D01*
X155911Y264388D01*
X155911Y272691D01*
X157566Y272691D01*
X163215Y264370D01*
X163215Y263144D01*
X157400Y263144D01*
X157400Y260350D01*
G37*
%LPC*%
G36*
X161762Y264388D02*
X161621Y264563D01*
X161148Y265211D01*
X157987Y269871D01*
X157645Y270449D01*
X157400Y270913D01*
X157400Y264388D01*
X161762Y264388D01*
G37*
%LPD*%
G36*
X373362Y412575D02*
X372974Y412584D01*
X372600Y412611D01*
X372238Y412656D01*
X371890Y412718D01*
X371554Y412799D01*
X371231Y412898D01*
X370922Y413014D01*
X370625Y413149D01*
X370343Y413300D01*
X370078Y413467D01*
X369829Y413651D01*
X369596Y413850D01*
X369380Y414066D01*
X369180Y414297D01*
X368997Y414545D01*
X368830Y414808D01*
X368681Y415086D01*
X368552Y415377D01*
X368443Y415681D01*
X368353Y415997D01*
X368284Y416327D01*
X368234Y416669D01*
X368205Y417024D01*
X368195Y417392D01*
X368195Y425091D01*
X369859Y425091D01*
X369859Y417488D01*
X369873Y417066D01*
X369916Y416669D01*
X369989Y416299D01*
X370090Y415955D01*
X370220Y415636D01*
X370378Y415344D01*
X370566Y415079D01*
X370783Y414839D01*
X371025Y414626D01*
X371291Y414442D01*
X371580Y414287D01*
X371892Y414159D01*
X372227Y414060D01*
X372585Y413989D01*
X372966Y413947D01*
X373371Y413932D01*
X373764Y413946D01*
X374133Y413987D01*
X374479Y414056D01*
X374801Y414151D01*
X375099Y414275D01*
X375373Y414425D01*
X375623Y414603D01*
X375850Y414808D01*
X376051Y415040D01*
X376225Y415297D01*
X376373Y415580D01*
X376493Y415888D01*
X376587Y416221D01*
X376654Y416580D01*
X376694Y416965D01*
X376708Y417375D01*
X376708Y425091D01*
X378381Y425091D01*
X378381Y417234D01*
X378371Y416877D01*
X378342Y416533D01*
X378293Y416201D01*
X378225Y415881D01*
X378138Y415574D01*
X378031Y415280D01*
X377905Y414998D01*
X377759Y414729D01*
X377596Y414474D01*
X377416Y414235D01*
X377221Y414011D01*
X377010Y413803D01*
X376783Y413611D01*
X376540Y413434D01*
X376282Y413272D01*
X376007Y413127D01*
X375719Y412997D01*
X375418Y412885D01*
X375106Y412790D01*
X374781Y412713D01*
X374444Y412652D01*
X374096Y412609D01*
X373735Y412583D01*
X373362Y412575D01*
G37*
G36*
X361826Y412575D02*
X361337Y412590D01*
X360877Y412633D01*
X360446Y412707D01*
X360044Y412809D01*
X359671Y412941D01*
X359327Y413102D01*
X359011Y413292D01*
X358725Y413512D01*
X358471Y413758D01*
X358250Y414029D01*
X358064Y414323D01*
X357911Y414642D01*
X357792Y414985D01*
X357707Y415351D01*
X357656Y415742D01*
X357639Y416157D01*
X357651Y416446D01*
X357688Y416723D01*
X357748Y416987D01*
X357832Y417239D01*
X357940Y417478D01*
X358073Y417704D01*
X358230Y417918D01*
X358410Y418119D01*
X358612Y418304D01*
X358834Y418469D01*
X359074Y418615D01*
X359334Y418741D01*
X359613Y418847D01*
X359911Y418934D01*
X360228Y419000D01*
X360565Y419047D01*
X360565Y419082D01*
X360259Y419156D01*
X359972Y419244D01*
X359703Y419347D01*
X359454Y419465D01*
X359223Y419597D01*
X359010Y419745D01*
X358817Y419908D01*
X358642Y420085D01*
X358487Y420277D01*
X358353Y420483D01*
X358239Y420703D01*
X358146Y420936D01*
X358074Y421183D01*
X358022Y421444D01*
X357991Y421719D01*
X357981Y422008D01*
X357997Y422383D01*
X358045Y422736D01*
X358126Y423068D01*
X358238Y423380D01*
X358383Y423670D01*
X358560Y423938D01*
X358769Y424186D01*
X359010Y424412D01*
X359280Y424614D01*
X359576Y424789D01*
X359898Y424938D01*
X360246Y425059D01*
X360620Y425153D01*
X361019Y425221D01*
X361445Y425261D01*
X361896Y425275D01*
X362311Y425261D01*
X362707Y425222D01*
X363084Y425155D01*
X363441Y425062D01*
X363779Y424943D01*
X364097Y424797D01*
X364397Y424624D01*
X364677Y424425D01*
X364933Y424202D01*
X365161Y423959D01*
X365361Y423694D01*
X365532Y423409D01*
X365675Y423103D01*
X365790Y422776D01*
X365876Y422429D01*
X365934Y422060D01*
X364348Y421938D01*
X364314Y422174D01*
X364262Y422396D01*
X364194Y422605D01*
X364109Y422800D01*
X364007Y422982D01*
X363888Y423150D01*
X363752Y423304D01*
X363600Y423444D01*
X363432Y423569D01*
X363253Y423678D01*
X363061Y423770D01*
X362856Y423845D01*
X362639Y423903D01*
X362410Y423945D01*
X362168Y423970D01*
X361914Y423978D01*
X361636Y423969D01*
X361375Y423943D01*
X361132Y423898D01*
X360907Y423835D01*
X360700Y423754D01*
X360510Y423656D01*
X360338Y423539D01*
X360184Y423405D01*
X360047Y423255D01*
X359929Y423092D01*
X359829Y422916D01*
X359747Y422727D01*
X359683Y422525D01*
X359638Y422310D01*
X359610Y422082D01*
X359601Y421841D01*
X359612Y421599D01*
X359646Y421369D01*
X359702Y421153D01*
X359780Y420951D01*
X359880Y420763D01*
X360003Y420588D01*
X360148Y420426D01*
X360315Y420278D01*
X360503Y420146D01*
X360708Y420031D01*
X360932Y419934D01*
X361175Y419854D01*
X361435Y419792D01*
X361714Y419748D01*
X362010Y419722D01*
X362325Y419713D01*
X363184Y419713D01*
X363184Y418347D01*
X362290Y418347D01*
X361935Y418338D01*
X361602Y418311D01*
X361290Y418267D01*
X360999Y418205D01*
X360730Y418126D01*
X360483Y418029D01*
X360257Y417914D01*
X360052Y417782D01*
X359871Y417634D01*
X359713Y417472D01*
X359580Y417296D01*
X359471Y417106D01*
X359386Y416903D01*
X359326Y416686D01*
X359289Y416455D01*
X359277Y416210D01*
X359288Y415929D01*
X359320Y415667D01*
X359373Y415423D01*
X359447Y415196D01*
X359542Y414987D01*
X359659Y414796D01*
X359797Y414622D01*
X359956Y414467D01*
X360134Y414329D01*
X360327Y414210D01*
X360537Y414109D01*
X360763Y414027D01*
X361005Y413962D01*
X361262Y413917D01*
X361536Y413889D01*
X361826Y413880D01*
X362115Y413888D01*
X362387Y413914D01*
X362644Y413957D01*
X362884Y414017D01*
X363108Y414094D01*
X363317Y414188D01*
X363509Y414299D01*
X363685Y414427D01*
X363845Y414573D01*
X363989Y414735D01*
X364117Y414915D01*
X364229Y415112D01*
X364324Y415325D01*
X364404Y415556D01*
X364467Y415804D01*
X364515Y416069D01*
X366144Y415921D01*
X366077Y415519D01*
X365982Y415144D01*
X365859Y414793D01*
X365707Y414468D01*
X365527Y414168D01*
X365319Y413893D01*
X365082Y413644D01*
X364817Y413420D01*
X364526Y413222D01*
X364211Y413050D01*
X363873Y412905D01*
X363511Y412786D01*
X363125Y412694D01*
X362716Y412628D01*
X362283Y412588D01*
X361826Y412575D01*
G37*
G36*
X360137Y520525D02*
X359688Y520538D01*
X359253Y520577D01*
X358832Y520642D01*
X358425Y520733D01*
X358032Y520850D01*
X357653Y520993D01*
X357287Y521162D01*
X356935Y521357D01*
X356600Y521577D01*
X356284Y521821D01*
X355988Y522088D01*
X355710Y522379D01*
X355452Y522695D01*
X355213Y523034D01*
X354994Y523396D01*
X354794Y523783D01*
X356160Y524466D01*
X356328Y524155D01*
X356507Y523865D01*
X356695Y523594D01*
X356893Y523343D01*
X357102Y523113D01*
X357320Y522902D01*
X357549Y522712D01*
X357787Y522541D01*
X358036Y522391D01*
X358294Y522261D01*
X358563Y522151D01*
X358842Y522060D01*
X359131Y521990D01*
X359430Y521940D01*
X359739Y521910D01*
X360058Y521900D01*
X360551Y521921D01*
X361017Y521986D01*
X361458Y522094D01*
X361872Y522245D01*
X362260Y522439D01*
X362622Y522676D01*
X362958Y522956D01*
X363268Y523279D01*
X363546Y523638D01*
X363787Y524025D01*
X363991Y524439D01*
X364158Y524881D01*
X364288Y525351D01*
X364380Y525849D01*
X364436Y526374D01*
X364455Y526927D01*
X364437Y527486D01*
X364383Y528014D01*
X364294Y528511D01*
X364170Y528978D01*
X364010Y529414D01*
X363814Y529820D01*
X363583Y530195D01*
X363316Y530540D01*
X363017Y530849D01*
X362690Y531117D01*
X362334Y531343D01*
X361950Y531529D01*
X361537Y531673D01*
X361096Y531776D01*
X360626Y531838D01*
X360128Y531858D01*
X359807Y531849D01*
X359498Y531823D01*
X359199Y531778D01*
X358912Y531716D01*
X358635Y531636D01*
X358370Y531538D01*
X358116Y531423D01*
X357873Y531289D01*
X357643Y531139D01*
X357430Y530973D01*
X357233Y530791D01*
X357053Y530593D01*
X356888Y530379D01*
X356740Y530149D01*
X356608Y529904D01*
X356493Y529642D01*
X354908Y530168D01*
X355074Y530535D01*
X355262Y530879D01*
X355473Y531200D01*
X355705Y531497D01*
X355959Y531771D01*
X356235Y532022D01*
X356532Y532250D01*
X356852Y532454D01*
X357193Y532635D01*
X357554Y532791D01*
X357935Y532924D01*
X358337Y533032D01*
X358759Y533116D01*
X359201Y533177D01*
X359663Y533213D01*
X360145Y533225D01*
X360493Y533218D01*
X360831Y533199D01*
X361160Y533166D01*
X361479Y533120D01*
X361788Y533061D01*
X362088Y532989D01*
X362378Y532905D01*
X362659Y532806D01*
X362930Y532695D01*
X363192Y532571D01*
X363444Y532434D01*
X363686Y532284D01*
X364142Y531944D01*
X364560Y531552D01*
X364933Y531114D01*
X365257Y530635D01*
X365531Y530117D01*
X365649Y529843D01*
X365755Y529559D01*
X365849Y529265D01*
X365930Y528961D01*
X365998Y528647D01*
X366054Y528323D01*
X366098Y527989D01*
X366129Y527645D01*
X366148Y527291D01*
X366154Y526927D01*
X366143Y526443D01*
X366109Y525975D01*
X366053Y525524D01*
X365975Y525089D01*
X365875Y524671D01*
X365752Y524269D01*
X365607Y523884D01*
X365440Y523516D01*
X365251Y523166D01*
X365042Y522837D01*
X364813Y522529D01*
X364564Y522242D01*
X364294Y521975D01*
X364005Y521729D01*
X363695Y521504D01*
X363364Y521300D01*
X363016Y521118D01*
X362652Y520961D01*
X362272Y520828D01*
X361876Y520719D01*
X361465Y520634D01*
X361038Y520573D01*
X360595Y520537D01*
X360137Y520525D01*
G37*
G36*
X349126Y520525D02*
X348637Y520540D01*
X348177Y520583D01*
X347746Y520657D01*
X347344Y520759D01*
X346971Y520891D01*
X346627Y521052D01*
X346311Y521242D01*
X346025Y521462D01*
X345771Y521708D01*
X345550Y521979D01*
X345364Y522273D01*
X345211Y522592D01*
X345092Y522935D01*
X345007Y523301D01*
X344956Y523692D01*
X344939Y524107D01*
X344951Y524396D01*
X344988Y524673D01*
X345048Y524937D01*
X345132Y525189D01*
X345240Y525428D01*
X345373Y525654D01*
X345530Y525868D01*
X345710Y526069D01*
X345912Y526254D01*
X346134Y526419D01*
X346374Y526565D01*
X346634Y526691D01*
X346913Y526797D01*
X347211Y526884D01*
X347528Y526950D01*
X347865Y526997D01*
X347865Y527032D01*
X347559Y527106D01*
X347272Y527194D01*
X347003Y527297D01*
X346754Y527415D01*
X346523Y527547D01*
X346310Y527695D01*
X346117Y527858D01*
X345942Y528035D01*
X345787Y528227D01*
X345653Y528433D01*
X345539Y528653D01*
X345446Y528886D01*
X345374Y529133D01*
X345322Y529394D01*
X345291Y529669D01*
X345281Y529958D01*
X345297Y530333D01*
X345345Y530686D01*
X345426Y531018D01*
X345538Y531330D01*
X345683Y531620D01*
X345860Y531888D01*
X346069Y532136D01*
X346310Y532362D01*
X346580Y532564D01*
X346876Y532739D01*
X347198Y532888D01*
X347546Y533009D01*
X347920Y533103D01*
X348319Y533171D01*
X348745Y533211D01*
X349196Y533225D01*
X349611Y533211D01*
X350007Y533172D01*
X350384Y533105D01*
X350741Y533012D01*
X351079Y532893D01*
X351397Y532747D01*
X351697Y532574D01*
X351977Y532375D01*
X352233Y532152D01*
X352461Y531909D01*
X352661Y531644D01*
X352832Y531359D01*
X352975Y531053D01*
X353090Y530726D01*
X353176Y530379D01*
X353234Y530010D01*
X351648Y529888D01*
X351614Y530124D01*
X351562Y530346D01*
X351494Y530555D01*
X351409Y530750D01*
X351307Y530932D01*
X351188Y531100D01*
X351052Y531254D01*
X350900Y531394D01*
X350732Y531519D01*
X350553Y531628D01*
X350361Y531720D01*
X350156Y531795D01*
X349939Y531853D01*
X349710Y531895D01*
X349468Y531920D01*
X349214Y531928D01*
X348936Y531919D01*
X348675Y531893D01*
X348432Y531848D01*
X348207Y531785D01*
X348000Y531704D01*
X347810Y531606D01*
X347638Y531489D01*
X347484Y531355D01*
X347347Y531205D01*
X347229Y531042D01*
X347129Y530866D01*
X347047Y530677D01*
X346983Y530475D01*
X346938Y530260D01*
X346910Y530032D01*
X346901Y529791D01*
X346912Y529549D01*
X346946Y529319D01*
X347002Y529103D01*
X347080Y528901D01*
X347180Y528713D01*
X347303Y528538D01*
X347448Y528376D01*
X347615Y528228D01*
X347803Y528096D01*
X348008Y527981D01*
X348232Y527884D01*
X348475Y527804D01*
X348735Y527742D01*
X349014Y527698D01*
X349310Y527672D01*
X349625Y527663D01*
X350484Y527663D01*
X350484Y526297D01*
X349590Y526297D01*
X349235Y526288D01*
X348902Y526261D01*
X348590Y526217D01*
X348299Y526155D01*
X348030Y526076D01*
X347783Y525979D01*
X347557Y525864D01*
X347352Y525732D01*
X347171Y525584D01*
X347013Y525422D01*
X346880Y525246D01*
X346771Y525056D01*
X346686Y524853D01*
X346626Y524636D01*
X346589Y524405D01*
X346577Y524160D01*
X346588Y523879D01*
X346620Y523617D01*
X346673Y523373D01*
X346747Y523146D01*
X346842Y522937D01*
X346959Y522746D01*
X347097Y522572D01*
X347256Y522417D01*
X347434Y522279D01*
X347627Y522160D01*
X347837Y522059D01*
X348063Y521977D01*
X348305Y521912D01*
X348562Y521867D01*
X348836Y521839D01*
X349126Y521830D01*
X349415Y521838D01*
X349687Y521864D01*
X349944Y521907D01*
X350184Y521967D01*
X350408Y522044D01*
X350617Y522138D01*
X350809Y522249D01*
X350985Y522377D01*
X351145Y522523D01*
X351289Y522685D01*
X351417Y522865D01*
X351529Y523062D01*
X351624Y523275D01*
X351704Y523506D01*
X351767Y523754D01*
X351815Y524019D01*
X353444Y523871D01*
X353377Y523469D01*
X353282Y523094D01*
X353159Y522743D01*
X353007Y522418D01*
X352827Y522118D01*
X352619Y521843D01*
X352382Y521594D01*
X352117Y521370D01*
X351826Y521172D01*
X351511Y521000D01*
X351173Y520855D01*
X350811Y520736D01*
X350425Y520644D01*
X350016Y520578D01*
X349583Y520538D01*
X349126Y520525D01*
G37*
G36*
X293370Y514350D02*
X291443Y514350D01*
X293455Y517403D01*
X294946Y519666D01*
X294603Y519739D01*
X294279Y519832D01*
X293974Y519948D01*
X293688Y520085D01*
X293532Y520177D01*
X293421Y520243D01*
X293173Y520424D01*
X292945Y520625D01*
X292735Y520849D01*
X292547Y521090D01*
X292384Y521345D01*
X292246Y521613D01*
X292134Y521895D01*
X292046Y522191D01*
X291983Y522501D01*
X291946Y522824D01*
X291933Y523161D01*
X291951Y523566D01*
X292004Y523947D01*
X292093Y524306D01*
X292217Y524642D01*
X292376Y524956D01*
X292571Y525246D01*
X292802Y525513D01*
X293068Y525758D01*
X293366Y525977D01*
X293694Y526166D01*
X294052Y526326D01*
X294439Y526458D01*
X294857Y526560D01*
X295303Y526632D01*
X295780Y526676D01*
X296286Y526691D01*
X302093Y526691D01*
X302093Y514350D01*
X300420Y514350D01*
X300420Y519474D01*
X296575Y519474D01*
X293370Y514350D01*
G37*
%LPC*%
G36*
X300420Y520796D02*
X300420Y525351D01*
X296453Y525351D01*
X296119Y525342D01*
X295805Y525315D01*
X295512Y525271D01*
X295239Y525210D01*
X294985Y525130D01*
X294752Y525033D01*
X294539Y524918D01*
X294346Y524786D01*
X294175Y524637D01*
X294026Y524471D01*
X293901Y524290D01*
X293798Y524093D01*
X293718Y523880D01*
X293661Y523650D01*
X293626Y523405D01*
X293615Y523144D01*
X293626Y522873D01*
X293660Y522618D01*
X293717Y522379D01*
X293796Y522155D01*
X293897Y521946D01*
X294021Y521753D01*
X294168Y521576D01*
X294337Y521414D01*
X294528Y521269D01*
X294736Y521144D01*
X294964Y521037D01*
X295210Y520951D01*
X295475Y520883D01*
X295759Y520835D01*
X296061Y520806D01*
X296383Y520796D01*
X300420Y520796D01*
G37*
%LPD*%
G36*
X287430Y514350D02*
X285784Y514350D01*
X285778Y514775D01*
X285759Y515197D01*
X285686Y516029D01*
X285564Y516848D01*
X285394Y517652D01*
X285175Y518452D01*
X284907Y519257D01*
X284590Y520068D01*
X284225Y520884D01*
X283765Y521781D01*
X283167Y522835D01*
X282430Y524045D01*
X281553Y525412D01*
X281553Y526691D01*
X289707Y526691D01*
X289707Y525351D01*
X283077Y525351D01*
X283643Y524511D01*
X284167Y523697D01*
X284649Y522907D01*
X285088Y522142D01*
X285486Y521402D01*
X285842Y520686D01*
X286156Y519995D01*
X286427Y519329D01*
X286662Y518680D01*
X286866Y518038D01*
X287039Y517404D01*
X287180Y516777D01*
X287289Y516159D01*
X287368Y515548D01*
X287415Y514945D01*
X287430Y514350D01*
G37*
G36*
X538400Y488950D02*
X536911Y488950D01*
X536911Y491744D01*
X535177Y491744D01*
X535177Y492988D01*
X536911Y492988D01*
X536911Y501291D01*
X538566Y501291D01*
X544215Y492970D01*
X544215Y491744D01*
X538400Y491744D01*
X538400Y488950D01*
G37*
%LPC*%
G36*
X542762Y492988D02*
X542621Y493163D01*
X542148Y493811D01*
X538987Y498471D01*
X538645Y499049D01*
X538400Y499513D01*
X538400Y492988D01*
X542762Y492988D01*
G37*
%LPD*%
G36*
X551162Y488775D02*
X550774Y488784D01*
X550400Y488811D01*
X550038Y488856D01*
X549690Y488918D01*
X549354Y488999D01*
X549031Y489098D01*
X548722Y489214D01*
X548425Y489349D01*
X548143Y489500D01*
X547878Y489667D01*
X547629Y489851D01*
X547396Y490050D01*
X547180Y490266D01*
X546980Y490497D01*
X546797Y490745D01*
X546630Y491008D01*
X546481Y491286D01*
X546352Y491577D01*
X546243Y491881D01*
X546153Y492197D01*
X546084Y492527D01*
X546034Y492869D01*
X546005Y493224D01*
X545995Y493592D01*
X545995Y501291D01*
X547659Y501291D01*
X547659Y493688D01*
X547673Y493266D01*
X547716Y492869D01*
X547789Y492499D01*
X547890Y492155D01*
X548020Y491836D01*
X548178Y491544D01*
X548366Y491279D01*
X548583Y491039D01*
X548825Y490826D01*
X549091Y490642D01*
X549380Y490487D01*
X549692Y490359D01*
X550027Y490260D01*
X550385Y490189D01*
X550766Y490147D01*
X551171Y490132D01*
X551564Y490146D01*
X551933Y490187D01*
X552279Y490256D01*
X552601Y490351D01*
X552899Y490475D01*
X553173Y490625D01*
X553423Y490803D01*
X553650Y491008D01*
X553851Y491240D01*
X554025Y491497D01*
X554173Y491780D01*
X554293Y492088D01*
X554387Y492421D01*
X554454Y492780D01*
X554494Y493165D01*
X554508Y493575D01*
X554508Y501291D01*
X556181Y501291D01*
X556181Y493434D01*
X556171Y493077D01*
X556142Y492733D01*
X556093Y492401D01*
X556025Y492081D01*
X555938Y491774D01*
X555831Y491480D01*
X555705Y491198D01*
X555559Y490929D01*
X555396Y490674D01*
X555216Y490435D01*
X555021Y490211D01*
X554810Y490003D01*
X554583Y489811D01*
X554340Y489634D01*
X554082Y489472D01*
X553807Y489327D01*
X553519Y489197D01*
X553218Y489085D01*
X552906Y488990D01*
X552581Y488913D01*
X552244Y488852D01*
X551896Y488809D01*
X551535Y488783D01*
X551162Y488775D01*
G37*
G36*
X576500Y374650D02*
X575011Y374650D01*
X575011Y377444D01*
X573277Y377444D01*
X573277Y378688D01*
X575011Y378688D01*
X575011Y386991D01*
X576666Y386991D01*
X582315Y378670D01*
X582315Y377444D01*
X576500Y377444D01*
X576500Y374650D01*
G37*
%LPC*%
G36*
X580862Y378688D02*
X580721Y378863D01*
X580248Y379511D01*
X577087Y384171D01*
X576745Y384749D01*
X576500Y385213D01*
X576500Y378688D01*
X580862Y378688D01*
G37*
%LPD*%
G36*
X588737Y374475D02*
X588288Y374488D01*
X587853Y374527D01*
X587432Y374592D01*
X587025Y374683D01*
X586632Y374800D01*
X586253Y374943D01*
X585887Y375112D01*
X585535Y375307D01*
X585200Y375527D01*
X584884Y375771D01*
X584588Y376038D01*
X584310Y376329D01*
X584052Y376645D01*
X583813Y376984D01*
X583594Y377346D01*
X583394Y377733D01*
X584760Y378416D01*
X584928Y378105D01*
X585107Y377815D01*
X585295Y377544D01*
X585493Y377293D01*
X585702Y377063D01*
X585920Y376852D01*
X586149Y376662D01*
X586387Y376491D01*
X586636Y376341D01*
X586894Y376211D01*
X587163Y376101D01*
X587442Y376010D01*
X587731Y375940D01*
X588030Y375890D01*
X588339Y375860D01*
X588658Y375850D01*
X589151Y375871D01*
X589617Y375936D01*
X590058Y376044D01*
X590472Y376195D01*
X590860Y376389D01*
X591222Y376626D01*
X591558Y376906D01*
X591868Y377229D01*
X592146Y377588D01*
X592387Y377975D01*
X592591Y378389D01*
X592758Y378831D01*
X592888Y379301D01*
X592980Y379799D01*
X593036Y380324D01*
X593055Y380877D01*
X593037Y381436D01*
X592983Y381964D01*
X592894Y382461D01*
X592770Y382928D01*
X592610Y383364D01*
X592414Y383770D01*
X592183Y384145D01*
X591916Y384490D01*
X591617Y384799D01*
X591290Y385067D01*
X590934Y385293D01*
X590550Y385479D01*
X590137Y385623D01*
X589696Y385726D01*
X589226Y385788D01*
X588728Y385808D01*
X588407Y385799D01*
X588098Y385773D01*
X587799Y385728D01*
X587512Y385666D01*
X587235Y385586D01*
X586970Y385488D01*
X586716Y385373D01*
X586473Y385239D01*
X586243Y385089D01*
X586030Y384923D01*
X585833Y384741D01*
X585653Y384543D01*
X585488Y384329D01*
X585340Y384099D01*
X585208Y383854D01*
X585093Y383592D01*
X583508Y384118D01*
X583674Y384485D01*
X583862Y384829D01*
X584073Y385150D01*
X584305Y385447D01*
X584559Y385721D01*
X584835Y385972D01*
X585132Y386200D01*
X585452Y386404D01*
X585793Y386585D01*
X586154Y386741D01*
X586535Y386874D01*
X586937Y386982D01*
X587359Y387066D01*
X587801Y387127D01*
X588263Y387163D01*
X588745Y387175D01*
X589093Y387168D01*
X589431Y387149D01*
X589760Y387116D01*
X590079Y387070D01*
X590388Y387011D01*
X590688Y386939D01*
X590978Y386855D01*
X591259Y386756D01*
X591530Y386645D01*
X591792Y386521D01*
X592044Y386384D01*
X592286Y386234D01*
X592742Y385894D01*
X593160Y385502D01*
X593533Y385064D01*
X593857Y384585D01*
X594131Y384067D01*
X594249Y383793D01*
X594355Y383509D01*
X594449Y383215D01*
X594530Y382911D01*
X594598Y382597D01*
X594654Y382273D01*
X594698Y381939D01*
X594729Y381595D01*
X594748Y381241D01*
X594754Y380877D01*
X594743Y380393D01*
X594709Y379925D01*
X594653Y379474D01*
X594575Y379039D01*
X594475Y378621D01*
X594352Y378219D01*
X594207Y377834D01*
X594040Y377466D01*
X593851Y377116D01*
X593642Y376787D01*
X593413Y376479D01*
X593164Y376192D01*
X592894Y375925D01*
X592605Y375679D01*
X592295Y375454D01*
X591964Y375250D01*
X591616Y375068D01*
X591252Y374911D01*
X590872Y374778D01*
X590476Y374669D01*
X590065Y374584D01*
X589638Y374523D01*
X589195Y374487D01*
X588737Y374475D01*
G37*
G36*
X545985Y387175D02*
X545492Y387190D01*
X545028Y387235D01*
X544594Y387309D01*
X544189Y387413D01*
X543814Y387548D01*
X543469Y387712D01*
X543153Y387906D01*
X542867Y388130D01*
X542612Y388380D01*
X542392Y388654D01*
X542205Y388951D01*
X542052Y389273D01*
X541933Y389617D01*
X541849Y389985D01*
X541798Y390377D01*
X541781Y390792D01*
X541791Y391090D01*
X541822Y391375D01*
X541873Y391648D01*
X541945Y391908D01*
X542037Y392155D01*
X542150Y392389D01*
X542284Y392611D01*
X542438Y392820D01*
X542471Y392857D01*
X542610Y393013D01*
X542799Y393186D01*
X543004Y393341D01*
X543226Y393476D01*
X543464Y393591D01*
X543718Y393688D01*
X543989Y393765D01*
X544277Y393823D01*
X544277Y393858D01*
X544030Y393917D01*
X543796Y393995D01*
X543575Y394091D01*
X543368Y394206D01*
X543174Y394339D01*
X543012Y394475D01*
X542994Y394490D01*
X542827Y394659D01*
X542674Y394847D01*
X542536Y395049D01*
X542417Y395258D01*
X542316Y395477D01*
X542234Y395703D01*
X542170Y395939D01*
X542124Y396182D01*
X542096Y396435D01*
X542087Y396695D01*
X542104Y397052D01*
X542153Y397389D01*
X542236Y397707D01*
X542351Y398007D01*
X542499Y398288D01*
X542681Y398549D01*
X542895Y398792D01*
X543143Y399016D01*
X543418Y399218D01*
X543718Y399392D01*
X544042Y399539D01*
X544390Y399660D01*
X544761Y399754D01*
X545157Y399821D01*
X545576Y399861D01*
X546020Y399875D01*
X546453Y399861D01*
X546864Y399820D01*
X547252Y399752D01*
X547617Y399656D01*
X547960Y399533D01*
X548280Y399382D01*
X548578Y399204D01*
X548853Y398999D01*
X549101Y398772D01*
X549315Y398528D01*
X549496Y398267D01*
X549645Y397989D01*
X549760Y397695D01*
X549843Y397385D01*
X549892Y397057D01*
X549909Y396713D01*
X549899Y396452D01*
X549872Y396200D01*
X549827Y395956D01*
X549763Y395721D01*
X549681Y395494D01*
X549581Y395276D01*
X549463Y395066D01*
X549326Y394865D01*
X549174Y394676D01*
X549008Y394505D01*
X548830Y394351D01*
X548637Y394215D01*
X548432Y394095D01*
X548214Y393993D01*
X547982Y393908D01*
X547736Y393840D01*
X547736Y393805D01*
X548000Y393751D01*
X548251Y393677D01*
X548490Y393583D01*
X548717Y393468D01*
X548933Y393333D01*
X549136Y393178D01*
X549327Y393002D01*
X549506Y392807D01*
X549668Y392595D01*
X549808Y392371D01*
X549927Y392135D01*
X550025Y391887D01*
X550100Y391627D01*
X550154Y391355D01*
X550187Y391071D01*
X550198Y390775D01*
X550180Y390356D01*
X550128Y389961D01*
X550041Y389591D01*
X549918Y389246D01*
X549761Y388926D01*
X549569Y388630D01*
X549343Y388359D01*
X549081Y388112D01*
X548788Y387892D01*
X548469Y387702D01*
X548122Y387541D01*
X547749Y387409D01*
X547348Y387307D01*
X546921Y387233D01*
X546466Y387190D01*
X545985Y387175D01*
G37*
%LPC*%
G36*
X545967Y388357D02*
X546282Y388367D01*
X546577Y388397D01*
X546851Y388447D01*
X547105Y388517D01*
X547339Y388606D01*
X547552Y388716D01*
X547745Y388845D01*
X547918Y388994D01*
X548071Y389164D01*
X548203Y389353D01*
X548314Y389562D01*
X548406Y389791D01*
X548477Y390040D01*
X548528Y390309D01*
X548558Y390597D01*
X548569Y390906D01*
X548558Y391172D01*
X548526Y391424D01*
X548474Y391661D01*
X548400Y391884D01*
X548305Y392091D01*
X548189Y392285D01*
X548052Y392463D01*
X547894Y392627D01*
X547717Y392774D01*
X547524Y392901D01*
X547314Y393009D01*
X547088Y393097D01*
X546846Y393165D01*
X546587Y393214D01*
X546312Y393243D01*
X546020Y393253D01*
X545720Y393244D01*
X545437Y393217D01*
X545171Y393171D01*
X544923Y393108D01*
X544692Y393026D01*
X544478Y392926D01*
X544281Y392807D01*
X544102Y392671D01*
X543942Y392516D01*
X543803Y392344D01*
X543685Y392155D01*
X543589Y391947D01*
X543515Y391722D01*
X543461Y391479D01*
X543429Y391219D01*
X543419Y390941D01*
X543428Y390615D01*
X543458Y390312D01*
X543507Y390032D01*
X543576Y389775D01*
X543665Y389541D01*
X543773Y389329D01*
X543901Y389141D01*
X544049Y388975D01*
X544217Y388830D01*
X544405Y388705D01*
X544614Y388598D01*
X544844Y388512D01*
X545094Y388444D01*
X545365Y388396D01*
X545656Y388367D01*
X545967Y388357D01*
G37*
G36*
X546002Y394436D02*
X546268Y394444D01*
X546519Y394470D01*
X546754Y394514D01*
X546973Y394575D01*
X547177Y394653D01*
X547366Y394749D01*
X547539Y394861D01*
X547697Y394992D01*
X547838Y395139D01*
X547960Y395301D01*
X548063Y395480D01*
X548147Y395674D01*
X548213Y395884D01*
X548260Y396109D01*
X548288Y396351D01*
X548297Y396608D01*
X548288Y396860D01*
X548261Y397097D01*
X548215Y397317D01*
X548151Y397521D01*
X548069Y397709D01*
X547969Y397881D01*
X547851Y398036D01*
X547715Y398176D01*
X547561Y398299D01*
X547390Y398405D01*
X547203Y398496D01*
X547000Y398570D01*
X546780Y398627D01*
X546543Y398668D01*
X546290Y398693D01*
X546020Y398701D01*
X545742Y398693D01*
X545482Y398668D01*
X545240Y398627D01*
X545016Y398570D01*
X544810Y398497D01*
X544621Y398407D01*
X544451Y398300D01*
X544299Y398178D01*
X544164Y398039D01*
X544048Y397883D01*
X543949Y397712D01*
X543868Y397524D01*
X543806Y397319D01*
X543761Y397098D01*
X543734Y396861D01*
X543725Y396608D01*
X543734Y396331D01*
X543761Y396074D01*
X543807Y395837D01*
X543871Y395619D01*
X543953Y395422D01*
X544053Y395244D01*
X544171Y395086D01*
X544307Y394948D01*
X544461Y394828D01*
X544632Y394724D01*
X544819Y394636D01*
X545022Y394564D01*
X545243Y394508D01*
X545479Y394468D01*
X545732Y394444D01*
X546002Y394436D01*
G37*
%LPD*%
G36*
X553720Y387350D02*
X551793Y387350D01*
X553805Y390403D01*
X555296Y392666D01*
X554953Y392739D01*
X554629Y392832D01*
X554324Y392948D01*
X554038Y393085D01*
X553882Y393177D01*
X553771Y393243D01*
X553523Y393424D01*
X553295Y393625D01*
X553085Y393849D01*
X552897Y394090D01*
X552734Y394345D01*
X552596Y394613D01*
X552484Y394895D01*
X552396Y395191D01*
X552333Y395501D01*
X552296Y395824D01*
X552283Y396161D01*
X552301Y396566D01*
X552354Y396947D01*
X552443Y397306D01*
X552567Y397642D01*
X552726Y397956D01*
X552921Y398246D01*
X553152Y398513D01*
X553418Y398758D01*
X553716Y398977D01*
X554044Y399166D01*
X554402Y399326D01*
X554789Y399458D01*
X555207Y399560D01*
X555653Y399632D01*
X556130Y399676D01*
X556636Y399691D01*
X562443Y399691D01*
X562443Y387350D01*
X560770Y387350D01*
X560770Y392474D01*
X556925Y392474D01*
X553720Y387350D01*
G37*
%LPC*%
G36*
X560770Y393796D02*
X560770Y398351D01*
X556803Y398351D01*
X556469Y398342D01*
X556155Y398315D01*
X555862Y398271D01*
X555589Y398210D01*
X555335Y398130D01*
X555102Y398033D01*
X554889Y397918D01*
X554696Y397786D01*
X554525Y397637D01*
X554376Y397471D01*
X554251Y397290D01*
X554148Y397093D01*
X554068Y396880D01*
X554011Y396650D01*
X553976Y396405D01*
X553965Y396144D01*
X553976Y395873D01*
X554010Y395618D01*
X554067Y395379D01*
X554146Y395155D01*
X554247Y394946D01*
X554371Y394753D01*
X554518Y394576D01*
X554687Y394414D01*
X554878Y394269D01*
X555086Y394144D01*
X555314Y394037D01*
X555560Y393951D01*
X555825Y393883D01*
X556109Y393835D01*
X556411Y393806D01*
X556733Y393796D01*
X560770Y393796D01*
G37*
%LPD*%
G36*
X551162Y209375D02*
X550774Y209384D01*
X550400Y209411D01*
X550038Y209456D01*
X549690Y209518D01*
X549354Y209599D01*
X549031Y209698D01*
X548722Y209814D01*
X548425Y209949D01*
X548143Y210100D01*
X547878Y210267D01*
X547629Y210451D01*
X547396Y210650D01*
X547180Y210866D01*
X546980Y211097D01*
X546797Y211345D01*
X546630Y211608D01*
X546481Y211886D01*
X546352Y212177D01*
X546243Y212481D01*
X546153Y212797D01*
X546084Y213127D01*
X546034Y213469D01*
X546005Y213824D01*
X545995Y214192D01*
X545995Y221891D01*
X547659Y221891D01*
X547659Y214288D01*
X547673Y213866D01*
X547716Y213469D01*
X547789Y213099D01*
X547890Y212755D01*
X548020Y212436D01*
X548178Y212144D01*
X548366Y211879D01*
X548583Y211639D01*
X548825Y211426D01*
X549091Y211242D01*
X549380Y211087D01*
X549692Y210959D01*
X550027Y210860D01*
X550385Y210789D01*
X550766Y210747D01*
X551171Y210732D01*
X551564Y210746D01*
X551933Y210787D01*
X552279Y210856D01*
X552601Y210951D01*
X552899Y211075D01*
X553173Y211225D01*
X553423Y211403D01*
X553650Y211608D01*
X553851Y211840D01*
X554025Y212097D01*
X554173Y212380D01*
X554293Y212688D01*
X554387Y213021D01*
X554454Y213380D01*
X554494Y213765D01*
X554508Y214175D01*
X554508Y221891D01*
X556181Y221891D01*
X556181Y214034D01*
X556171Y213677D01*
X556142Y213333D01*
X556093Y213001D01*
X556025Y212681D01*
X555938Y212374D01*
X555831Y212080D01*
X555705Y211798D01*
X555559Y211529D01*
X555396Y211274D01*
X555216Y211035D01*
X555021Y210811D01*
X554810Y210603D01*
X554583Y210411D01*
X554340Y210234D01*
X554082Y210072D01*
X553807Y209927D01*
X553519Y209797D01*
X553218Y209685D01*
X552906Y209590D01*
X552581Y209513D01*
X552244Y209452D01*
X551896Y209409D01*
X551535Y209383D01*
X551162Y209375D01*
G37*
G36*
X539784Y209375D02*
X539283Y209392D01*
X538811Y209445D01*
X538366Y209533D01*
X537950Y209655D01*
X537562Y209813D01*
X537201Y210005D01*
X536869Y210233D01*
X536565Y210496D01*
X536293Y210789D01*
X536057Y211108D01*
X535858Y211454D01*
X535695Y211825D01*
X535568Y212222D01*
X535477Y212646D01*
X535423Y213095D01*
X535404Y213570D01*
X535421Y213989D01*
X535472Y214388D01*
X535556Y214767D01*
X535675Y215125D01*
X535827Y215463D01*
X536013Y215781D01*
X536233Y216078D01*
X536486Y216355D01*
X536768Y216606D01*
X537073Y216823D01*
X537401Y217007D01*
X537753Y217157D01*
X538127Y217274D01*
X538525Y217357D01*
X538946Y217407D01*
X539390Y217424D01*
X539763Y217412D01*
X540120Y217375D01*
X540462Y217313D01*
X540789Y217227D01*
X541099Y217116D01*
X541395Y216981D01*
X541674Y216820D01*
X541938Y216636D01*
X541702Y220551D01*
X536123Y220551D01*
X536123Y221891D01*
X543138Y221891D01*
X543550Y215252D01*
X542008Y215252D01*
X541732Y215475D01*
X541457Y215663D01*
X541181Y215817D01*
X540905Y215935D01*
X540623Y216023D01*
X540331Y216086D01*
X540028Y216124D01*
X539714Y216136D01*
X539415Y216125D01*
X539132Y216092D01*
X538865Y216035D01*
X538613Y215957D01*
X538378Y215856D01*
X538158Y215732D01*
X537953Y215587D01*
X537765Y215418D01*
X537595Y215232D01*
X537449Y215031D01*
X537324Y214817D01*
X537223Y214588D01*
X537144Y214346D01*
X537087Y214090D01*
X537054Y213819D01*
X537042Y213535D01*
X537053Y213209D01*
X537087Y212901D01*
X537143Y212611D01*
X537222Y212339D01*
X537323Y212084D01*
X537446Y211848D01*
X537592Y211629D01*
X537760Y211429D01*
X537949Y211249D01*
X538154Y211093D01*
X538377Y210962D01*
X538617Y210854D01*
X538874Y210770D01*
X539148Y210710D01*
X539440Y210674D01*
X539749Y210662D01*
X540001Y210669D01*
X540241Y210691D01*
X540469Y210727D01*
X540684Y210777D01*
X540887Y210841D01*
X541078Y210920D01*
X541257Y211013D01*
X541424Y211120D01*
X541578Y211242D01*
X541720Y211377D01*
X541850Y211528D01*
X541967Y211692D01*
X542073Y211871D01*
X542166Y212064D01*
X542246Y212271D01*
X542315Y212493D01*
X543909Y212309D01*
X543827Y211963D01*
X543720Y211637D01*
X543589Y211333D01*
X543434Y211050D01*
X543254Y210788D01*
X543050Y210547D01*
X542822Y210327D01*
X542569Y210128D01*
X542294Y209952D01*
X541997Y209799D01*
X541680Y209669D01*
X541343Y209563D01*
X540984Y209481D01*
X540605Y209422D01*
X540205Y209387D01*
X539784Y209375D01*
G37*
G36*
X588737Y95075D02*
X588288Y95088D01*
X587853Y95127D01*
X587432Y95192D01*
X587025Y95283D01*
X586632Y95400D01*
X586253Y95543D01*
X585887Y95712D01*
X585535Y95907D01*
X585200Y96127D01*
X584884Y96371D01*
X584588Y96638D01*
X584310Y96929D01*
X584052Y97245D01*
X583813Y97584D01*
X583594Y97946D01*
X583394Y98333D01*
X584760Y99016D01*
X584928Y98705D01*
X585107Y98415D01*
X585295Y98144D01*
X585493Y97893D01*
X585702Y97663D01*
X585920Y97452D01*
X586149Y97262D01*
X586387Y97091D01*
X586636Y96941D01*
X586894Y96811D01*
X587163Y96701D01*
X587442Y96610D01*
X587731Y96540D01*
X588030Y96490D01*
X588339Y96460D01*
X588658Y96450D01*
X589151Y96471D01*
X589617Y96536D01*
X590058Y96644D01*
X590472Y96795D01*
X590860Y96989D01*
X591222Y97226D01*
X591558Y97506D01*
X591868Y97829D01*
X592146Y98188D01*
X592387Y98575D01*
X592591Y98989D01*
X592758Y99431D01*
X592888Y99901D01*
X592980Y100399D01*
X593036Y100924D01*
X593055Y101477D01*
X593037Y102036D01*
X592983Y102564D01*
X592894Y103061D01*
X592770Y103528D01*
X592610Y103964D01*
X592414Y104370D01*
X592183Y104745D01*
X591916Y105090D01*
X591617Y105399D01*
X591290Y105667D01*
X590934Y105893D01*
X590550Y106079D01*
X590137Y106223D01*
X589696Y106326D01*
X589226Y106388D01*
X588728Y106408D01*
X588407Y106399D01*
X588098Y106373D01*
X587799Y106328D01*
X587512Y106266D01*
X587235Y106186D01*
X586970Y106088D01*
X586716Y105973D01*
X586473Y105839D01*
X586243Y105689D01*
X586030Y105523D01*
X585833Y105341D01*
X585653Y105143D01*
X585488Y104929D01*
X585340Y104699D01*
X585208Y104454D01*
X585093Y104192D01*
X583508Y104718D01*
X583674Y105085D01*
X583862Y105429D01*
X584073Y105750D01*
X584305Y106047D01*
X584559Y106321D01*
X584835Y106572D01*
X585132Y106800D01*
X585452Y107004D01*
X585793Y107185D01*
X586154Y107341D01*
X586535Y107474D01*
X586937Y107582D01*
X587359Y107666D01*
X587801Y107727D01*
X588263Y107763D01*
X588745Y107775D01*
X589093Y107768D01*
X589431Y107749D01*
X589760Y107716D01*
X590079Y107670D01*
X590388Y107611D01*
X590688Y107539D01*
X590978Y107455D01*
X591259Y107356D01*
X591530Y107245D01*
X591792Y107121D01*
X592044Y106984D01*
X592286Y106834D01*
X592742Y106494D01*
X593160Y106102D01*
X593533Y105664D01*
X593857Y105185D01*
X594131Y104667D01*
X594249Y104393D01*
X594355Y104109D01*
X594449Y103815D01*
X594530Y103511D01*
X594598Y103197D01*
X594654Y102873D01*
X594698Y102539D01*
X594729Y102195D01*
X594748Y101841D01*
X594754Y101477D01*
X594743Y100993D01*
X594709Y100525D01*
X594653Y100074D01*
X594575Y99639D01*
X594475Y99221D01*
X594352Y98819D01*
X594207Y98434D01*
X594040Y98066D01*
X593851Y97716D01*
X593642Y97387D01*
X593413Y97079D01*
X593164Y96792D01*
X592894Y96525D01*
X592605Y96279D01*
X592295Y96054D01*
X591964Y95850D01*
X591616Y95668D01*
X591252Y95511D01*
X590872Y95378D01*
X590476Y95269D01*
X590065Y95184D01*
X589638Y95123D01*
X589195Y95087D01*
X588737Y95075D01*
G37*
G36*
X577884Y95075D02*
X577383Y95092D01*
X576911Y95145D01*
X576466Y95233D01*
X576050Y95355D01*
X575662Y95513D01*
X575301Y95705D01*
X574969Y95933D01*
X574665Y96196D01*
X574393Y96489D01*
X574157Y96808D01*
X573958Y97154D01*
X573795Y97525D01*
X573668Y97922D01*
X573577Y98346D01*
X573523Y98795D01*
X573504Y99270D01*
X573521Y99689D01*
X573572Y100088D01*
X573656Y100467D01*
X573775Y100825D01*
X573927Y101163D01*
X574113Y101481D01*
X574333Y101778D01*
X574586Y102055D01*
X574868Y102306D01*
X575173Y102523D01*
X575501Y102707D01*
X575853Y102857D01*
X576227Y102974D01*
X576625Y103057D01*
X577046Y103107D01*
X577490Y103124D01*
X577863Y103112D01*
X578220Y103075D01*
X578562Y103013D01*
X578889Y102927D01*
X579199Y102816D01*
X579495Y102681D01*
X579774Y102520D01*
X580038Y102336D01*
X579802Y106251D01*
X574223Y106251D01*
X574223Y107591D01*
X581238Y107591D01*
X581650Y100952D01*
X580108Y100952D01*
X579832Y101175D01*
X579557Y101363D01*
X579281Y101517D01*
X579005Y101635D01*
X578723Y101723D01*
X578431Y101786D01*
X578128Y101824D01*
X577814Y101836D01*
X577515Y101825D01*
X577232Y101792D01*
X576965Y101735D01*
X576713Y101657D01*
X576478Y101556D01*
X576258Y101432D01*
X576053Y101287D01*
X575865Y101118D01*
X575695Y100932D01*
X575549Y100731D01*
X575424Y100517D01*
X575323Y100288D01*
X575244Y100046D01*
X575187Y99790D01*
X575154Y99519D01*
X575142Y99235D01*
X575153Y98909D01*
X575187Y98601D01*
X575243Y98311D01*
X575322Y98039D01*
X575423Y97784D01*
X575546Y97548D01*
X575692Y97329D01*
X575860Y97129D01*
X576049Y96949D01*
X576254Y96793D01*
X576477Y96662D01*
X576717Y96554D01*
X576974Y96470D01*
X577248Y96410D01*
X577540Y96374D01*
X577849Y96362D01*
X578101Y96369D01*
X578341Y96391D01*
X578569Y96427D01*
X578784Y96477D01*
X578987Y96541D01*
X579178Y96620D01*
X579357Y96713D01*
X579524Y96820D01*
X579678Y96942D01*
X579820Y97077D01*
X579950Y97228D01*
X580067Y97392D01*
X580173Y97571D01*
X580266Y97764D01*
X580346Y97971D01*
X580415Y98193D01*
X582009Y98009D01*
X581927Y97663D01*
X581820Y97337D01*
X581689Y97033D01*
X581534Y96750D01*
X581354Y96488D01*
X581150Y96247D01*
X580922Y96027D01*
X580669Y95828D01*
X580394Y95652D01*
X580097Y95499D01*
X579780Y95369D01*
X579443Y95263D01*
X579084Y95181D01*
X578705Y95122D01*
X578305Y95087D01*
X577884Y95075D01*
G37*
G36*
X553720Y82550D02*
X551793Y82550D01*
X553805Y85603D01*
X555296Y87866D01*
X554953Y87939D01*
X554629Y88032D01*
X554324Y88148D01*
X554038Y88285D01*
X553882Y88377D01*
X553771Y88443D01*
X553523Y88624D01*
X553295Y88825D01*
X553085Y89049D01*
X552897Y89290D01*
X552734Y89545D01*
X552596Y89813D01*
X552484Y90095D01*
X552396Y90391D01*
X552333Y90701D01*
X552296Y91024D01*
X552283Y91361D01*
X552301Y91766D01*
X552354Y92147D01*
X552443Y92506D01*
X552567Y92842D01*
X552726Y93156D01*
X552921Y93446D01*
X553152Y93713D01*
X553418Y93958D01*
X553716Y94177D01*
X554044Y94366D01*
X554402Y94526D01*
X554789Y94658D01*
X555207Y94760D01*
X555653Y94832D01*
X556130Y94876D01*
X556636Y94891D01*
X562443Y94891D01*
X562443Y82550D01*
X560770Y82550D01*
X560770Y87674D01*
X556925Y87674D01*
X553720Y82550D01*
G37*
%LPC*%
G36*
X560770Y88996D02*
X560770Y93551D01*
X556803Y93551D01*
X556469Y93542D01*
X556155Y93515D01*
X555862Y93471D01*
X555589Y93410D01*
X555335Y93330D01*
X555102Y93233D01*
X554889Y93118D01*
X554696Y92986D01*
X554525Y92837D01*
X554376Y92671D01*
X554251Y92490D01*
X554148Y92293D01*
X554068Y92080D01*
X554011Y91850D01*
X553976Y91605D01*
X553965Y91344D01*
X553976Y91073D01*
X554010Y90818D01*
X554067Y90579D01*
X554146Y90355D01*
X554247Y90146D01*
X554371Y89953D01*
X554518Y89776D01*
X554687Y89614D01*
X554878Y89469D01*
X555086Y89344D01*
X555314Y89237D01*
X555560Y89151D01*
X555825Y89083D01*
X556109Y89035D01*
X556411Y89006D01*
X556733Y88996D01*
X560770Y88996D01*
G37*
%LPD*%
G36*
X546318Y82375D02*
X546053Y82382D01*
X545797Y82402D01*
X545548Y82435D01*
X545306Y82482D01*
X545073Y82542D01*
X544847Y82615D01*
X544418Y82802D01*
X544020Y83042D01*
X543653Y83336D01*
X543317Y83682D01*
X543011Y84083D01*
X542739Y84533D01*
X542504Y85029D01*
X542304Y85571D01*
X542141Y86159D01*
X542014Y86792D01*
X541923Y87472D01*
X541869Y88198D01*
X541851Y88970D01*
X541867Y89710D01*
X541917Y90403D01*
X542000Y91047D01*
X542116Y91644D01*
X542265Y92192D01*
X542447Y92693D01*
X542662Y93146D01*
X542911Y93551D01*
X543191Y93908D01*
X543503Y94217D01*
X543846Y94479D01*
X544220Y94694D01*
X544625Y94860D01*
X545062Y94979D01*
X545530Y95051D01*
X545775Y95069D01*
X546029Y95075D01*
X546499Y95057D01*
X546943Y95005D01*
X547361Y94919D01*
X547752Y94798D01*
X548116Y94642D01*
X548454Y94451D01*
X548765Y94226D01*
X549050Y93967D01*
X549305Y93677D01*
X549525Y93361D01*
X549712Y93019D01*
X549865Y92652D01*
X549984Y92259D01*
X550068Y91839D01*
X550119Y91394D01*
X550136Y90923D01*
X550121Y90464D01*
X550074Y90028D01*
X549996Y89616D01*
X549887Y89226D01*
X549746Y88860D01*
X549575Y88517D01*
X549372Y88198D01*
X549138Y87901D01*
X548878Y87635D01*
X548597Y87403D01*
X548295Y87208D01*
X547973Y87048D01*
X547630Y86923D01*
X547266Y86834D01*
X546881Y86781D01*
X546475Y86763D01*
X546224Y86770D01*
X545978Y86793D01*
X545737Y86830D01*
X545501Y86882D01*
X545270Y86949D01*
X545045Y87031D01*
X544825Y87128D01*
X544610Y87240D01*
X544405Y87364D01*
X544216Y87498D01*
X544043Y87642D01*
X543885Y87795D01*
X543743Y87958D01*
X543616Y88131D01*
X543505Y88314D01*
X543410Y88506D01*
X543430Y87938D01*
X543472Y87404D01*
X543536Y86903D01*
X543622Y86437D01*
X543731Y86003D01*
X543861Y85604D01*
X544014Y85238D01*
X544189Y84906D01*
X544385Y84610D01*
X544600Y84354D01*
X544834Y84137D01*
X545087Y83960D01*
X545359Y83822D01*
X545651Y83724D01*
X545961Y83665D01*
X546291Y83645D01*
X546488Y83651D01*
X546676Y83669D01*
X547026Y83741D01*
X547340Y83862D01*
X547618Y84030D01*
X547861Y84247D01*
X548068Y84512D01*
X548240Y84825D01*
X548376Y85186D01*
X549882Y84950D01*
X549780Y84622D01*
X549663Y84318D01*
X549530Y84037D01*
X549382Y83779D01*
X549218Y83545D01*
X549039Y83335D01*
X548844Y83147D01*
X548634Y82984D01*
X548407Y82841D01*
X548163Y82717D01*
X547900Y82613D01*
X547619Y82527D01*
X547321Y82460D01*
X547004Y82413D01*
X546670Y82384D01*
X546318Y82375D01*
G37*
%LPC*%
G36*
X546099Y88007D02*
X546372Y88019D01*
X546630Y88056D01*
X546874Y88117D01*
X547104Y88203D01*
X547319Y88313D01*
X547519Y88448D01*
X547705Y88607D01*
X547877Y88790D01*
X548031Y88995D01*
X548164Y89218D01*
X548277Y89458D01*
X548369Y89716D01*
X548441Y89991D01*
X548492Y90284D01*
X548523Y90595D01*
X548533Y90923D01*
X548523Y91245D01*
X548492Y91550D01*
X548441Y91838D01*
X548369Y92109D01*
X548277Y92363D01*
X548164Y92599D01*
X548031Y92819D01*
X547877Y93021D01*
X547705Y93203D01*
X547518Y93360D01*
X547316Y93493D01*
X547099Y93602D01*
X546867Y93687D01*
X546620Y93748D01*
X546358Y93784D01*
X546081Y93796D01*
X545802Y93782D01*
X545536Y93739D01*
X545286Y93668D01*
X545050Y93569D01*
X544828Y93442D01*
X544621Y93286D01*
X544429Y93102D01*
X544251Y92889D01*
X544090Y92654D01*
X543952Y92400D01*
X543834Y92128D01*
X543738Y91837D01*
X543663Y91529D01*
X543610Y91202D01*
X543578Y90857D01*
X543567Y90494D01*
X543588Y90140D01*
X543652Y89806D01*
X543757Y89492D01*
X543905Y89198D01*
X544089Y88929D01*
X544304Y88693D01*
X544551Y88489D01*
X544829Y88318D01*
X545128Y88181D01*
X545440Y88084D01*
X545763Y88026D01*
X546099Y88007D01*
G37*
%LPD*%
G36*
X361625Y133175D02*
X361171Y133193D01*
X360742Y133245D01*
X360339Y133334D01*
X359960Y133457D01*
X359607Y133616D01*
X359279Y133810D01*
X358977Y134040D01*
X358699Y134305D01*
X358451Y134600D01*
X358236Y134921D01*
X358053Y135268D01*
X357904Y135640D01*
X357788Y136039D01*
X357706Y136463D01*
X357656Y136912D01*
X357639Y137388D01*
X357655Y137827D01*
X357702Y138244D01*
X357780Y138637D01*
X357890Y139008D01*
X358031Y139356D01*
X358204Y139680D01*
X358407Y139982D01*
X358642Y140260D01*
X358904Y140511D01*
X359188Y140728D01*
X359494Y140912D01*
X359821Y141062D01*
X360171Y141179D01*
X360543Y141262D01*
X360937Y141312D01*
X361353Y141329D01*
X361601Y141323D01*
X361842Y141303D01*
X362076Y141271D01*
X362303Y141225D01*
X362736Y141095D01*
X363140Y140913D01*
X363508Y140681D01*
X363832Y140402D01*
X364112Y140075D01*
X364348Y139700D01*
X364337Y140278D01*
X364302Y140821D01*
X364244Y141328D01*
X364163Y141801D01*
X364059Y142238D01*
X363932Y142640D01*
X363782Y143007D01*
X363608Y143339D01*
X363414Y143634D01*
X363200Y143889D01*
X362968Y144105D01*
X362716Y144282D01*
X362445Y144419D01*
X362156Y144517D01*
X361847Y144576D01*
X361519Y144596D01*
X361145Y144572D01*
X360805Y144502D01*
X360499Y144384D01*
X360228Y144219D01*
X359991Y144008D01*
X359789Y143749D01*
X359621Y143443D01*
X359487Y143090D01*
X357981Y143361D01*
X358080Y143665D01*
X358195Y143950D01*
X358326Y144215D01*
X358474Y144461D01*
X358637Y144687D01*
X358817Y144893D01*
X359013Y145079D01*
X359225Y145246D01*
X359453Y145394D01*
X359697Y145521D01*
X359958Y145629D01*
X360234Y145718D01*
X360527Y145786D01*
X360836Y145835D01*
X361161Y145865D01*
X361502Y145875D01*
X361763Y145868D01*
X362017Y145848D01*
X362263Y145814D01*
X362501Y145767D01*
X362732Y145707D01*
X362955Y145633D01*
X363378Y145446D01*
X363772Y145204D01*
X364134Y144909D01*
X364467Y144560D01*
X364769Y144158D01*
X365038Y143706D01*
X365271Y143207D01*
X365468Y142661D01*
X365629Y142069D01*
X365755Y141431D01*
X365845Y140745D01*
X365898Y140014D01*
X365916Y139236D01*
X365899Y138518D01*
X365847Y137844D01*
X365761Y137214D01*
X365640Y136628D01*
X365485Y136086D01*
X365295Y135588D01*
X365071Y135135D01*
X364813Y134725D01*
X364521Y134362D01*
X364200Y134047D01*
X363847Y133780D01*
X363464Y133562D01*
X363050Y133393D01*
X362606Y133272D01*
X362130Y133199D01*
X361881Y133181D01*
X361625Y133175D01*
G37*
%LPC*%
G36*
X361677Y134445D02*
X361947Y134459D01*
X362204Y134502D01*
X362449Y134573D01*
X362681Y134673D01*
X362901Y134801D01*
X363108Y134957D01*
X363303Y135142D01*
X363486Y135356D01*
X363651Y135592D01*
X363794Y135843D01*
X363915Y136112D01*
X364015Y136396D01*
X364092Y136696D01*
X364147Y137013D01*
X364180Y137345D01*
X364191Y137694D01*
X364180Y137969D01*
X364148Y138229D01*
X364095Y138473D01*
X364021Y138703D01*
X363926Y138917D01*
X363809Y139116D01*
X363671Y139299D01*
X363512Y139468D01*
X363336Y139619D01*
X363146Y139749D01*
X362943Y139860D01*
X362727Y139951D01*
X362498Y140021D01*
X362255Y140071D01*
X361999Y140102D01*
X361730Y140112D01*
X361444Y140100D01*
X361175Y140066D01*
X360922Y140009D01*
X360685Y139930D01*
X360464Y139828D01*
X360260Y139703D01*
X360071Y139555D01*
X359899Y139385D01*
X359745Y139193D01*
X359612Y138983D01*
X359499Y138753D01*
X359406Y138504D01*
X359335Y138236D01*
X359283Y137949D01*
X359252Y137643D01*
X359242Y137318D01*
X359252Y136992D01*
X359283Y136683D01*
X359333Y136393D01*
X359404Y136121D01*
X359495Y135867D01*
X359607Y135630D01*
X359738Y135412D01*
X359890Y135211D01*
X360060Y135032D01*
X360245Y134876D01*
X360445Y134744D01*
X360661Y134636D01*
X360892Y134553D01*
X361138Y134493D01*
X361400Y134457D01*
X361677Y134445D01*
G37*
%LPD*%
G36*
X373362Y133175D02*
X372974Y133184D01*
X372600Y133211D01*
X372238Y133256D01*
X371890Y133318D01*
X371554Y133399D01*
X371231Y133498D01*
X370922Y133614D01*
X370625Y133749D01*
X370343Y133900D01*
X370078Y134067D01*
X369829Y134251D01*
X369596Y134450D01*
X369380Y134666D01*
X369180Y134897D01*
X368997Y135145D01*
X368830Y135408D01*
X368681Y135686D01*
X368552Y135977D01*
X368443Y136281D01*
X368353Y136597D01*
X368284Y136927D01*
X368234Y137269D01*
X368205Y137624D01*
X368195Y137992D01*
X368195Y145691D01*
X369859Y145691D01*
X369859Y138088D01*
X369873Y137666D01*
X369916Y137269D01*
X369989Y136899D01*
X370090Y136555D01*
X370220Y136236D01*
X370378Y135944D01*
X370566Y135679D01*
X370783Y135439D01*
X371025Y135226D01*
X371291Y135042D01*
X371580Y134887D01*
X371892Y134759D01*
X372227Y134660D01*
X372585Y134589D01*
X372966Y134547D01*
X373371Y134532D01*
X373764Y134546D01*
X374133Y134587D01*
X374479Y134656D01*
X374801Y134751D01*
X375099Y134875D01*
X375373Y135025D01*
X375623Y135203D01*
X375850Y135408D01*
X376051Y135640D01*
X376225Y135897D01*
X376373Y136180D01*
X376493Y136488D01*
X376587Y136821D01*
X376654Y137180D01*
X376694Y137565D01*
X376708Y137975D01*
X376708Y145691D01*
X378381Y145691D01*
X378381Y137834D01*
X378371Y137477D01*
X378342Y137133D01*
X378293Y136801D01*
X378225Y136481D01*
X378138Y136174D01*
X378031Y135880D01*
X377905Y135598D01*
X377759Y135329D01*
X377596Y135074D01*
X377416Y134835D01*
X377221Y134611D01*
X377010Y134403D01*
X376783Y134211D01*
X376540Y134034D01*
X376282Y133872D01*
X376007Y133727D01*
X375719Y133597D01*
X375418Y133485D01*
X375106Y133390D01*
X374781Y133313D01*
X374444Y133252D01*
X374096Y133209D01*
X373735Y133183D01*
X373362Y133175D01*
G37*
G36*
X323525Y247475D02*
X323071Y247493D01*
X322642Y247545D01*
X322239Y247634D01*
X321860Y247757D01*
X321507Y247916D01*
X321179Y248110D01*
X320877Y248340D01*
X320599Y248605D01*
X320351Y248900D01*
X320136Y249221D01*
X319953Y249568D01*
X319804Y249940D01*
X319688Y250339D01*
X319606Y250763D01*
X319556Y251212D01*
X319539Y251688D01*
X319555Y252127D01*
X319602Y252544D01*
X319680Y252937D01*
X319790Y253308D01*
X319931Y253656D01*
X320104Y253980D01*
X320307Y254282D01*
X320542Y254560D01*
X320804Y254811D01*
X321088Y255028D01*
X321394Y255212D01*
X321721Y255362D01*
X322071Y255479D01*
X322443Y255562D01*
X322837Y255612D01*
X323253Y255629D01*
X323501Y255623D01*
X323742Y255603D01*
X323976Y255571D01*
X324203Y255525D01*
X324636Y255395D01*
X325040Y255213D01*
X325408Y254981D01*
X325732Y254702D01*
X326012Y254375D01*
X326248Y254000D01*
X326237Y254578D01*
X326202Y255121D01*
X326144Y255628D01*
X326063Y256101D01*
X325959Y256538D01*
X325832Y256940D01*
X325682Y257307D01*
X325508Y257639D01*
X325314Y257934D01*
X325100Y258189D01*
X324868Y258405D01*
X324616Y258582D01*
X324345Y258719D01*
X324056Y258817D01*
X323747Y258876D01*
X323419Y258896D01*
X323045Y258872D01*
X322705Y258802D01*
X322399Y258684D01*
X322128Y258519D01*
X321891Y258308D01*
X321689Y258049D01*
X321521Y257743D01*
X321387Y257390D01*
X319881Y257661D01*
X319980Y257965D01*
X320095Y258250D01*
X320226Y258515D01*
X320374Y258761D01*
X320537Y258987D01*
X320717Y259193D01*
X320913Y259379D01*
X321125Y259546D01*
X321353Y259694D01*
X321597Y259821D01*
X321858Y259929D01*
X322134Y260018D01*
X322427Y260086D01*
X322736Y260135D01*
X323061Y260165D01*
X323402Y260175D01*
X323663Y260168D01*
X323917Y260148D01*
X324163Y260114D01*
X324401Y260067D01*
X324632Y260007D01*
X324855Y259933D01*
X325278Y259746D01*
X325672Y259504D01*
X326034Y259209D01*
X326367Y258860D01*
X326669Y258458D01*
X326938Y258006D01*
X327171Y257507D01*
X327368Y256961D01*
X327529Y256369D01*
X327655Y255731D01*
X327745Y255045D01*
X327798Y254314D01*
X327816Y253536D01*
X327799Y252818D01*
X327747Y252144D01*
X327661Y251514D01*
X327540Y250928D01*
X327385Y250386D01*
X327195Y249888D01*
X326971Y249435D01*
X326713Y249025D01*
X326421Y248662D01*
X326100Y248347D01*
X325747Y248080D01*
X325364Y247862D01*
X324950Y247693D01*
X324506Y247572D01*
X324030Y247499D01*
X323781Y247481D01*
X323525Y247475D01*
G37*
%LPC*%
G36*
X323577Y248745D02*
X323847Y248759D01*
X324104Y248802D01*
X324349Y248873D01*
X324581Y248973D01*
X324801Y249101D01*
X325008Y249257D01*
X325203Y249442D01*
X325386Y249656D01*
X325551Y249892D01*
X325694Y250143D01*
X325815Y250412D01*
X325915Y250696D01*
X325992Y250996D01*
X326047Y251313D01*
X326080Y251645D01*
X326091Y251994D01*
X326080Y252269D01*
X326048Y252529D01*
X325995Y252773D01*
X325921Y253003D01*
X325826Y253217D01*
X325709Y253416D01*
X325571Y253599D01*
X325412Y253768D01*
X325236Y253919D01*
X325046Y254049D01*
X324843Y254160D01*
X324627Y254251D01*
X324398Y254321D01*
X324155Y254371D01*
X323899Y254402D01*
X323630Y254412D01*
X323344Y254400D01*
X323075Y254366D01*
X322822Y254309D01*
X322585Y254230D01*
X322364Y254128D01*
X322160Y254003D01*
X321971Y253855D01*
X321799Y253685D01*
X321645Y253493D01*
X321512Y253283D01*
X321399Y253053D01*
X321306Y252804D01*
X321235Y252536D01*
X321183Y252249D01*
X321152Y251943D01*
X321142Y251618D01*
X321152Y251292D01*
X321183Y250983D01*
X321233Y250693D01*
X321304Y250421D01*
X321395Y250167D01*
X321507Y249930D01*
X321638Y249712D01*
X321790Y249511D01*
X321960Y249332D01*
X322145Y249176D01*
X322345Y249044D01*
X322561Y248936D01*
X322792Y248853D01*
X323038Y248793D01*
X323300Y248757D01*
X323577Y248745D01*
G37*
%LPD*%
G36*
X334737Y247475D02*
X334288Y247488D01*
X333853Y247527D01*
X333432Y247592D01*
X333025Y247683D01*
X332632Y247800D01*
X332253Y247943D01*
X331887Y248112D01*
X331535Y248307D01*
X331200Y248527D01*
X330884Y248771D01*
X330588Y249038D01*
X330310Y249329D01*
X330052Y249645D01*
X329813Y249984D01*
X329594Y250346D01*
X329394Y250733D01*
X330760Y251416D01*
X330928Y251105D01*
X331107Y250815D01*
X331295Y250544D01*
X331493Y250293D01*
X331702Y250063D01*
X331920Y249852D01*
X332149Y249662D01*
X332387Y249491D01*
X332636Y249341D01*
X332894Y249211D01*
X333163Y249101D01*
X333442Y249010D01*
X333731Y248940D01*
X334030Y248890D01*
X334339Y248860D01*
X334658Y248850D01*
X335151Y248871D01*
X335617Y248936D01*
X336058Y249044D01*
X336472Y249195D01*
X336860Y249389D01*
X337222Y249626D01*
X337558Y249906D01*
X337868Y250229D01*
X338146Y250588D01*
X338387Y250975D01*
X338591Y251389D01*
X338758Y251831D01*
X338888Y252301D01*
X338980Y252799D01*
X339036Y253324D01*
X339055Y253877D01*
X339037Y254436D01*
X338983Y254964D01*
X338894Y255461D01*
X338770Y255928D01*
X338610Y256364D01*
X338414Y256770D01*
X338183Y257145D01*
X337916Y257490D01*
X337617Y257799D01*
X337290Y258067D01*
X336934Y258293D01*
X336550Y258479D01*
X336137Y258623D01*
X335696Y258726D01*
X335226Y258788D01*
X334728Y258808D01*
X334407Y258799D01*
X334098Y258773D01*
X333799Y258728D01*
X333512Y258666D01*
X333235Y258586D01*
X332970Y258488D01*
X332716Y258373D01*
X332473Y258239D01*
X332243Y258089D01*
X332030Y257923D01*
X331833Y257741D01*
X331653Y257543D01*
X331488Y257329D01*
X331340Y257099D01*
X331208Y256854D01*
X331093Y256592D01*
X329508Y257118D01*
X329674Y257485D01*
X329862Y257829D01*
X330073Y258150D01*
X330305Y258447D01*
X330559Y258721D01*
X330835Y258972D01*
X331132Y259200D01*
X331452Y259404D01*
X331793Y259585D01*
X332154Y259741D01*
X332535Y259874D01*
X332937Y259982D01*
X333359Y260066D01*
X333801Y260127D01*
X334263Y260163D01*
X334745Y260175D01*
X335093Y260168D01*
X335431Y260149D01*
X335760Y260116D01*
X336079Y260070D01*
X336388Y260011D01*
X336688Y259939D01*
X336978Y259855D01*
X337259Y259756D01*
X337530Y259645D01*
X337792Y259521D01*
X338044Y259384D01*
X338286Y259234D01*
X338742Y258894D01*
X339160Y258502D01*
X339533Y258064D01*
X339857Y257585D01*
X340131Y257067D01*
X340249Y256793D01*
X340355Y256509D01*
X340449Y256215D01*
X340530Y255911D01*
X340598Y255597D01*
X340654Y255273D01*
X340698Y254939D01*
X340729Y254595D01*
X340748Y254241D01*
X340754Y253877D01*
X340743Y253393D01*
X340709Y252925D01*
X340653Y252474D01*
X340575Y252039D01*
X340475Y251621D01*
X340352Y251219D01*
X340207Y250834D01*
X340040Y250466D01*
X339851Y250116D01*
X339642Y249787D01*
X339413Y249479D01*
X339164Y249192D01*
X338894Y248925D01*
X338605Y248679D01*
X338295Y248454D01*
X337964Y248250D01*
X337616Y248068D01*
X337252Y247911D01*
X336872Y247778D01*
X336476Y247669D01*
X336065Y247584D01*
X335638Y247523D01*
X335195Y247487D01*
X334737Y247475D01*
G37*
G36*
X350530Y260175D02*
X350268Y260181D01*
X350014Y260200D01*
X349768Y260232D01*
X349531Y260277D01*
X349080Y260404D01*
X348661Y260582D01*
X348275Y260811D01*
X347921Y261091D01*
X347600Y261422D01*
X347311Y261804D01*
X347056Y262234D01*
X346834Y262710D01*
X346647Y263231D01*
X346493Y263799D01*
X346374Y264412D01*
X346289Y265070D01*
X346238Y265775D01*
X346221Y266525D01*
X346237Y267287D01*
X346286Y268001D01*
X346367Y268666D01*
X346480Y269284D01*
X346626Y269853D01*
X346805Y270374D01*
X347015Y270847D01*
X347259Y271272D01*
X347536Y271648D01*
X347849Y271973D01*
X348198Y272249D01*
X348582Y272474D01*
X349003Y272649D01*
X349226Y272718D01*
X349459Y272775D01*
X349700Y272818D01*
X349950Y272850D01*
X350209Y272868D01*
X350478Y272875D01*
X350753Y272869D01*
X351019Y272850D01*
X351276Y272819D01*
X351523Y272776D01*
X351761Y272720D01*
X351990Y272652D01*
X352419Y272478D01*
X352810Y272255D01*
X353163Y271983D01*
X353479Y271661D01*
X353758Y271289D01*
X354001Y270868D01*
X354212Y270397D01*
X354390Y269876D01*
X354536Y269306D01*
X354650Y268685D01*
X354731Y268015D01*
X354779Y267295D01*
X354795Y266525D01*
X354779Y265771D01*
X354729Y265063D01*
X354645Y264402D01*
X354528Y263788D01*
X354378Y263220D01*
X354194Y262698D01*
X353977Y262224D01*
X353727Y261795D01*
X353443Y261415D01*
X353126Y261086D01*
X352776Y260808D01*
X352393Y260580D01*
X351977Y260403D01*
X351528Y260276D01*
X351291Y260232D01*
X351046Y260200D01*
X350792Y260181D01*
X350530Y260175D01*
G37*
%LPC*%
G36*
X350513Y261462D02*
X350851Y261481D01*
X351166Y261538D01*
X351457Y261634D01*
X351725Y261767D01*
X351968Y261938D01*
X352188Y262147D01*
X352385Y262394D01*
X352558Y262680D01*
X352709Y263006D01*
X352839Y263377D01*
X352950Y263791D01*
X353040Y264250D01*
X353111Y264752D01*
X353161Y265299D01*
X353191Y265890D01*
X353201Y266525D01*
X353191Y267178D01*
X353162Y267783D01*
X353112Y268340D01*
X353043Y268850D01*
X352953Y269312D01*
X352844Y269727D01*
X352715Y270094D01*
X352566Y270414D01*
X352395Y270691D01*
X352198Y270931D01*
X351975Y271134D01*
X351727Y271300D01*
X351453Y271430D01*
X351153Y271522D01*
X350828Y271577D01*
X350478Y271596D01*
X350135Y271577D01*
X349818Y271521D01*
X349526Y271427D01*
X349259Y271296D01*
X349017Y271127D01*
X348800Y270921D01*
X348608Y270677D01*
X348441Y270396D01*
X348296Y270073D01*
X348171Y269704D01*
X348065Y269289D01*
X347978Y268828D01*
X347911Y268321D01*
X347862Y267768D01*
X347833Y267170D01*
X347824Y266525D01*
X347834Y265902D01*
X347864Y265320D01*
X347915Y264781D01*
X347986Y264283D01*
X348077Y263826D01*
X348188Y263411D01*
X348320Y263038D01*
X348472Y262706D01*
X348645Y262415D01*
X348842Y262162D01*
X349063Y261948D01*
X349306Y261773D01*
X349573Y261637D01*
X349863Y261540D01*
X350176Y261482D01*
X350513Y261462D01*
G37*
%LPD*%
G36*
X368207Y260350D02*
X366281Y260350D01*
X368293Y263403D01*
X369784Y265666D01*
X369441Y265739D01*
X369117Y265832D01*
X368812Y265948D01*
X368526Y266085D01*
X368370Y266177D01*
X368259Y266243D01*
X368011Y266424D01*
X367782Y266625D01*
X367572Y266849D01*
X367385Y267090D01*
X367222Y267345D01*
X367084Y267613D01*
X366971Y267895D01*
X366884Y268191D01*
X366821Y268501D01*
X366784Y268824D01*
X366771Y269161D01*
X366789Y269566D01*
X366842Y269947D01*
X366931Y270306D01*
X367055Y270642D01*
X367214Y270956D01*
X367409Y271246D01*
X367639Y271513D01*
X367905Y271758D01*
X368204Y271977D01*
X368532Y272166D01*
X368890Y272326D01*
X369277Y272458D01*
X369694Y272560D01*
X370141Y272632D01*
X370618Y272676D01*
X371124Y272691D01*
X376931Y272691D01*
X376931Y260350D01*
X375258Y260350D01*
X375258Y265474D01*
X371413Y265474D01*
X368207Y260350D01*
G37*
%LPC*%
G36*
X375258Y266796D02*
X375258Y271351D01*
X371290Y271351D01*
X370957Y271342D01*
X370643Y271315D01*
X370350Y271271D01*
X370076Y271210D01*
X369823Y271130D01*
X369590Y271033D01*
X369377Y270918D01*
X369184Y270786D01*
X369013Y270637D01*
X368864Y270471D01*
X368738Y270290D01*
X368636Y270093D01*
X368556Y269880D01*
X368498Y269650D01*
X368464Y269405D01*
X368453Y269144D01*
X368464Y268873D01*
X368498Y268618D01*
X368554Y268379D01*
X368633Y268155D01*
X368735Y267946D01*
X368859Y267753D01*
X369006Y267576D01*
X369175Y267414D01*
X369365Y267269D01*
X369574Y267144D01*
X369802Y267037D01*
X370048Y266951D01*
X370313Y266883D01*
X370597Y266835D01*
X370899Y266806D01*
X371220Y266796D01*
X375258Y266796D01*
G37*
%LPD*%
G36*
X364099Y260350D02*
X356365Y260350D01*
X356365Y261690D01*
X359369Y261690D01*
X359369Y272691D01*
X360823Y272691D01*
X363739Y270685D01*
X363739Y269196D01*
X360954Y271184D01*
X360954Y261690D01*
X364099Y261690D01*
X364099Y260350D01*
G37*
G36*
X271762Y209375D02*
X271374Y209384D01*
X271000Y209411D01*
X270638Y209456D01*
X270290Y209518D01*
X269954Y209599D01*
X269631Y209698D01*
X269322Y209814D01*
X269025Y209949D01*
X268743Y210100D01*
X268478Y210267D01*
X268229Y210451D01*
X267996Y210650D01*
X267780Y210866D01*
X267580Y211097D01*
X267397Y211345D01*
X267230Y211608D01*
X267081Y211886D01*
X266952Y212177D01*
X266843Y212481D01*
X266753Y212797D01*
X266684Y213127D01*
X266634Y213469D01*
X266605Y213824D01*
X266595Y214192D01*
X266595Y221891D01*
X268259Y221891D01*
X268259Y214288D01*
X268273Y213866D01*
X268316Y213469D01*
X268389Y213099D01*
X268490Y212755D01*
X268620Y212436D01*
X268778Y212144D01*
X268966Y211879D01*
X269183Y211639D01*
X269425Y211426D01*
X269691Y211242D01*
X269980Y211087D01*
X270292Y210959D01*
X270627Y210860D01*
X270985Y210789D01*
X271366Y210747D01*
X271771Y210732D01*
X272164Y210746D01*
X272533Y210787D01*
X272879Y210856D01*
X273201Y210951D01*
X273499Y211075D01*
X273773Y211225D01*
X274023Y211403D01*
X274250Y211608D01*
X274451Y211840D01*
X274625Y212097D01*
X274773Y212380D01*
X274893Y212688D01*
X274987Y213021D01*
X275054Y213380D01*
X275094Y213765D01*
X275108Y214175D01*
X275108Y221891D01*
X276781Y221891D01*
X276781Y214034D01*
X276771Y213677D01*
X276742Y213333D01*
X276693Y213001D01*
X276625Y212681D01*
X276538Y212374D01*
X276431Y212080D01*
X276305Y211798D01*
X276159Y211529D01*
X275996Y211274D01*
X275816Y211035D01*
X275621Y210811D01*
X275410Y210603D01*
X275183Y210411D01*
X274940Y210234D01*
X274682Y210072D01*
X274407Y209927D01*
X274119Y209797D01*
X273818Y209685D01*
X273506Y209590D01*
X273181Y209513D01*
X272844Y209452D01*
X272496Y209409D01*
X272135Y209383D01*
X271762Y209375D01*
G37*
G36*
X262030Y209550D02*
X260384Y209550D01*
X260378Y209975D01*
X260359Y210397D01*
X260286Y211229D01*
X260164Y212048D01*
X259994Y212852D01*
X259775Y213652D01*
X259507Y214457D01*
X259190Y215268D01*
X258825Y216084D01*
X258365Y216981D01*
X257767Y218035D01*
X257030Y219245D01*
X256153Y220612D01*
X256153Y221891D01*
X264307Y221891D01*
X264307Y220551D01*
X257677Y220551D01*
X258243Y219711D01*
X258767Y218897D01*
X259249Y218107D01*
X259688Y217342D01*
X260086Y216602D01*
X260442Y215886D01*
X260756Y215195D01*
X261027Y214529D01*
X261262Y213880D01*
X261466Y213238D01*
X261639Y212604D01*
X261780Y211977D01*
X261889Y211359D01*
X261968Y210748D01*
X262015Y210145D01*
X262030Y209550D01*
G37*
G36*
X271237Y107775D02*
X270788Y107788D01*
X270353Y107827D01*
X269932Y107892D01*
X269525Y107983D01*
X269132Y108100D01*
X268753Y108243D01*
X268387Y108412D01*
X268035Y108607D01*
X267700Y108827D01*
X267384Y109071D01*
X267088Y109338D01*
X266810Y109629D01*
X266552Y109945D01*
X266313Y110284D01*
X266094Y110646D01*
X265894Y111033D01*
X267260Y111716D01*
X267428Y111405D01*
X267607Y111115D01*
X267795Y110844D01*
X267993Y110593D01*
X268202Y110363D01*
X268420Y110152D01*
X268649Y109962D01*
X268887Y109791D01*
X269136Y109641D01*
X269394Y109511D01*
X269663Y109401D01*
X269942Y109310D01*
X270231Y109240D01*
X270530Y109190D01*
X270839Y109160D01*
X271158Y109150D01*
X271651Y109171D01*
X272117Y109236D01*
X272558Y109344D01*
X272972Y109495D01*
X273360Y109689D01*
X273722Y109926D01*
X274058Y110206D01*
X274368Y110529D01*
X274646Y110888D01*
X274887Y111275D01*
X275091Y111689D01*
X275258Y112131D01*
X275388Y112601D01*
X275480Y113099D01*
X275536Y113624D01*
X275555Y114177D01*
X275537Y114736D01*
X275483Y115264D01*
X275394Y115761D01*
X275270Y116228D01*
X275110Y116664D01*
X274914Y117070D01*
X274683Y117445D01*
X274416Y117790D01*
X274117Y118099D01*
X273790Y118367D01*
X273434Y118593D01*
X273050Y118779D01*
X272637Y118923D01*
X272196Y119026D01*
X271726Y119088D01*
X271228Y119108D01*
X270907Y119099D01*
X270598Y119073D01*
X270299Y119028D01*
X270012Y118966D01*
X269735Y118886D01*
X269470Y118788D01*
X269216Y118673D01*
X268973Y118539D01*
X268743Y118389D01*
X268530Y118223D01*
X268333Y118041D01*
X268153Y117843D01*
X267988Y117629D01*
X267840Y117399D01*
X267708Y117154D01*
X267593Y116892D01*
X266008Y117418D01*
X266174Y117785D01*
X266362Y118129D01*
X266573Y118450D01*
X266805Y118747D01*
X267059Y119021D01*
X267335Y119272D01*
X267632Y119500D01*
X267952Y119704D01*
X268293Y119885D01*
X268654Y120041D01*
X269035Y120174D01*
X269437Y120282D01*
X269859Y120366D01*
X270301Y120427D01*
X270763Y120463D01*
X271245Y120475D01*
X271593Y120468D01*
X271931Y120449D01*
X272260Y120416D01*
X272579Y120370D01*
X272888Y120311D01*
X273188Y120239D01*
X273478Y120155D01*
X273759Y120056D01*
X274030Y119945D01*
X274292Y119821D01*
X274544Y119684D01*
X274786Y119534D01*
X275242Y119194D01*
X275660Y118802D01*
X276033Y118364D01*
X276357Y117885D01*
X276631Y117367D01*
X276749Y117093D01*
X276855Y116809D01*
X276949Y116515D01*
X277030Y116211D01*
X277098Y115897D01*
X277154Y115573D01*
X277198Y115239D01*
X277229Y114895D01*
X277248Y114541D01*
X277254Y114177D01*
X277243Y113693D01*
X277209Y113225D01*
X277153Y112774D01*
X277075Y112339D01*
X276975Y111921D01*
X276852Y111519D01*
X276707Y111134D01*
X276540Y110766D01*
X276351Y110416D01*
X276142Y110087D01*
X275913Y109779D01*
X275664Y109492D01*
X275394Y109225D01*
X275105Y108979D01*
X274795Y108754D01*
X274464Y108550D01*
X274116Y108368D01*
X273752Y108211D01*
X273372Y108078D01*
X272976Y107969D01*
X272565Y107884D01*
X272138Y107823D01*
X271695Y107787D01*
X271237Y107775D01*
G37*
G36*
X262030Y107950D02*
X260384Y107950D01*
X260378Y108375D01*
X260359Y108797D01*
X260286Y109629D01*
X260164Y110448D01*
X259994Y111252D01*
X259775Y112052D01*
X259507Y112857D01*
X259190Y113668D01*
X258825Y114484D01*
X258365Y115381D01*
X257767Y116435D01*
X257030Y117645D01*
X256153Y119012D01*
X256153Y120291D01*
X264307Y120291D01*
X264307Y118951D01*
X257677Y118951D01*
X258243Y118111D01*
X258767Y117297D01*
X259249Y116507D01*
X259688Y115742D01*
X260086Y115002D01*
X260442Y114286D01*
X260756Y113595D01*
X261027Y112929D01*
X261262Y112280D01*
X261466Y111638D01*
X261639Y111004D01*
X261780Y110377D01*
X261889Y109759D01*
X261968Y109148D01*
X262015Y108545D01*
X262030Y107950D01*
G37*
G36*
X348492Y107950D02*
X346565Y107950D01*
X348577Y111003D01*
X350068Y113266D01*
X349725Y113339D01*
X349401Y113432D01*
X349096Y113548D01*
X348811Y113685D01*
X348654Y113777D01*
X348544Y113843D01*
X348296Y114024D01*
X348067Y114225D01*
X347857Y114449D01*
X347669Y114690D01*
X347506Y114945D01*
X347369Y115213D01*
X347256Y115495D01*
X347168Y115791D01*
X347106Y116101D01*
X347068Y116424D01*
X347056Y116761D01*
X347073Y117166D01*
X347126Y117547D01*
X347215Y117906D01*
X347339Y118242D01*
X347499Y118556D01*
X347694Y118846D01*
X347924Y119113D01*
X348190Y119358D01*
X348488Y119577D01*
X348816Y119766D01*
X349174Y119926D01*
X349562Y120058D01*
X349979Y120160D01*
X350426Y120232D01*
X350902Y120276D01*
X351409Y120291D01*
X357215Y120291D01*
X357215Y107950D01*
X355543Y107950D01*
X355543Y113074D01*
X351698Y113074D01*
X348492Y107950D01*
G37*
%LPC*%
G36*
X355543Y114396D02*
X355543Y118951D01*
X351575Y118951D01*
X351241Y118942D01*
X350928Y118915D01*
X350634Y118871D01*
X350361Y118810D01*
X350108Y118730D01*
X349874Y118633D01*
X349661Y118518D01*
X349469Y118386D01*
X349297Y118237D01*
X349149Y118071D01*
X349023Y117890D01*
X348920Y117693D01*
X348840Y117480D01*
X348783Y117250D01*
X348749Y117005D01*
X348737Y116744D01*
X348748Y116473D01*
X348782Y116218D01*
X348839Y115979D01*
X348918Y115755D01*
X349019Y115546D01*
X349144Y115353D01*
X349290Y115176D01*
X349460Y115014D01*
X349650Y114869D01*
X349859Y114744D01*
X350086Y114637D01*
X350332Y114551D01*
X350597Y114483D01*
X350881Y114435D01*
X351184Y114406D01*
X351505Y114396D01*
X355543Y114396D01*
G37*
%LPD*%
G36*
X335727Y107950D02*
X327993Y107950D01*
X327993Y109290D01*
X330997Y109290D01*
X330997Y120291D01*
X332451Y120291D01*
X335368Y118285D01*
X335368Y116796D01*
X332582Y118784D01*
X332582Y109290D01*
X335727Y109290D01*
X335727Y107950D01*
G37*
G36*
X344383Y107950D02*
X336649Y107950D01*
X336649Y109290D01*
X339653Y109290D01*
X339653Y120291D01*
X341107Y120291D01*
X344024Y118285D01*
X344024Y116796D01*
X341239Y118784D01*
X341239Y109290D01*
X344383Y109290D01*
X344383Y107950D01*
G37*
G36*
X82435Y133175D02*
X81942Y133190D01*
X81478Y133235D01*
X81044Y133309D01*
X80639Y133413D01*
X80264Y133548D01*
X79919Y133712D01*
X79603Y133906D01*
X79317Y134130D01*
X79062Y134380D01*
X78842Y134654D01*
X78655Y134951D01*
X78502Y135273D01*
X78383Y135617D01*
X78299Y135985D01*
X78248Y136377D01*
X78231Y136792D01*
X78241Y137090D01*
X78272Y137375D01*
X78323Y137648D01*
X78395Y137908D01*
X78487Y138155D01*
X78600Y138389D01*
X78734Y138611D01*
X78888Y138820D01*
X78921Y138857D01*
X79060Y139013D01*
X79249Y139186D01*
X79454Y139341D01*
X79676Y139476D01*
X79914Y139591D01*
X80168Y139688D01*
X80439Y139765D01*
X80727Y139823D01*
X80727Y139858D01*
X80480Y139917D01*
X80246Y139995D01*
X80025Y140091D01*
X79818Y140206D01*
X79624Y140339D01*
X79462Y140475D01*
X79444Y140490D01*
X79277Y140659D01*
X79124Y140847D01*
X78986Y141049D01*
X78867Y141258D01*
X78766Y141477D01*
X78684Y141703D01*
X78620Y141939D01*
X78574Y142182D01*
X78546Y142435D01*
X78537Y142695D01*
X78554Y143052D01*
X78603Y143389D01*
X78686Y143707D01*
X78801Y144007D01*
X78949Y144288D01*
X79131Y144549D01*
X79345Y144792D01*
X79593Y145016D01*
X79868Y145218D01*
X80168Y145392D01*
X80492Y145539D01*
X80840Y145660D01*
X81211Y145754D01*
X81607Y145821D01*
X82026Y145861D01*
X82470Y145875D01*
X82903Y145861D01*
X83314Y145820D01*
X83702Y145752D01*
X84067Y145656D01*
X84410Y145533D01*
X84730Y145382D01*
X85028Y145204D01*
X85303Y144999D01*
X85551Y144772D01*
X85765Y144528D01*
X85946Y144267D01*
X86095Y143989D01*
X86210Y143695D01*
X86293Y143385D01*
X86342Y143057D01*
X86359Y142713D01*
X86349Y142452D01*
X86322Y142200D01*
X86277Y141956D01*
X86213Y141721D01*
X86131Y141494D01*
X86031Y141276D01*
X85913Y141066D01*
X85776Y140865D01*
X85624Y140676D01*
X85458Y140505D01*
X85280Y140351D01*
X85087Y140215D01*
X84882Y140095D01*
X84664Y139993D01*
X84432Y139908D01*
X84186Y139840D01*
X84186Y139805D01*
X84450Y139751D01*
X84701Y139677D01*
X84940Y139583D01*
X85167Y139468D01*
X85383Y139333D01*
X85586Y139178D01*
X85777Y139002D01*
X85956Y138807D01*
X86118Y138595D01*
X86258Y138371D01*
X86377Y138135D01*
X86475Y137887D01*
X86550Y137627D01*
X86604Y137355D01*
X86637Y137071D01*
X86648Y136775D01*
X86630Y136356D01*
X86578Y135961D01*
X86491Y135591D01*
X86368Y135246D01*
X86211Y134926D01*
X86019Y134630D01*
X85793Y134359D01*
X85531Y134112D01*
X85238Y133892D01*
X84919Y133702D01*
X84572Y133541D01*
X84199Y133409D01*
X83798Y133307D01*
X83371Y133233D01*
X82916Y133190D01*
X82435Y133175D01*
G37*
%LPC*%
G36*
X82417Y134357D02*
X82732Y134367D01*
X83027Y134397D01*
X83301Y134447D01*
X83555Y134517D01*
X83789Y134606D01*
X84002Y134716D01*
X84195Y134845D01*
X84368Y134994D01*
X84521Y135164D01*
X84653Y135353D01*
X84764Y135562D01*
X84856Y135791D01*
X84927Y136040D01*
X84978Y136309D01*
X85008Y136597D01*
X85019Y136906D01*
X85008Y137172D01*
X84976Y137424D01*
X84924Y137661D01*
X84850Y137884D01*
X84755Y138091D01*
X84639Y138285D01*
X84502Y138463D01*
X84344Y138627D01*
X84167Y138774D01*
X83974Y138901D01*
X83764Y139009D01*
X83538Y139097D01*
X83296Y139165D01*
X83037Y139214D01*
X82762Y139243D01*
X82470Y139253D01*
X82170Y139244D01*
X81887Y139217D01*
X81621Y139171D01*
X81373Y139108D01*
X81142Y139026D01*
X80928Y138926D01*
X80731Y138807D01*
X80552Y138671D01*
X80392Y138516D01*
X80253Y138344D01*
X80135Y138155D01*
X80039Y137947D01*
X79965Y137722D01*
X79911Y137479D01*
X79879Y137219D01*
X79869Y136941D01*
X79878Y136615D01*
X79908Y136312D01*
X79957Y136032D01*
X80026Y135775D01*
X80115Y135541D01*
X80223Y135329D01*
X80351Y135141D01*
X80499Y134975D01*
X80667Y134830D01*
X80855Y134705D01*
X81064Y134598D01*
X81294Y134512D01*
X81544Y134444D01*
X81815Y134396D01*
X82106Y134367D01*
X82417Y134357D01*
G37*
G36*
X82452Y140436D02*
X82718Y140444D01*
X82969Y140470D01*
X83204Y140514D01*
X83423Y140575D01*
X83627Y140653D01*
X83816Y140749D01*
X83989Y140861D01*
X84147Y140992D01*
X84288Y141139D01*
X84410Y141301D01*
X84513Y141480D01*
X84597Y141674D01*
X84663Y141884D01*
X84710Y142109D01*
X84738Y142351D01*
X84747Y142608D01*
X84738Y142860D01*
X84711Y143097D01*
X84665Y143317D01*
X84601Y143521D01*
X84519Y143709D01*
X84419Y143881D01*
X84301Y144036D01*
X84165Y144176D01*
X84011Y144299D01*
X83840Y144405D01*
X83653Y144496D01*
X83450Y144570D01*
X83230Y144627D01*
X82993Y144668D01*
X82740Y144693D01*
X82470Y144701D01*
X82192Y144693D01*
X81932Y144668D01*
X81690Y144627D01*
X81466Y144570D01*
X81260Y144497D01*
X81071Y144407D01*
X80901Y144300D01*
X80749Y144178D01*
X80614Y144039D01*
X80498Y143883D01*
X80399Y143712D01*
X80318Y143524D01*
X80256Y143319D01*
X80211Y143098D01*
X80184Y142861D01*
X80175Y142608D01*
X80184Y142331D01*
X80211Y142074D01*
X80257Y141837D01*
X80321Y141619D01*
X80403Y141422D01*
X80503Y141244D01*
X80621Y141086D01*
X80757Y140948D01*
X80911Y140828D01*
X81082Y140724D01*
X81269Y140636D01*
X81472Y140564D01*
X81693Y140508D01*
X81929Y140468D01*
X82182Y140444D01*
X82452Y140436D01*
G37*
%LPD*%
G36*
X93962Y133175D02*
X93574Y133184D01*
X93200Y133211D01*
X92838Y133256D01*
X92490Y133318D01*
X92154Y133399D01*
X91831Y133498D01*
X91522Y133614D01*
X91225Y133749D01*
X90943Y133900D01*
X90678Y134067D01*
X90429Y134251D01*
X90196Y134450D01*
X89980Y134666D01*
X89780Y134897D01*
X89597Y135145D01*
X89430Y135408D01*
X89281Y135686D01*
X89152Y135977D01*
X89043Y136281D01*
X88953Y136597D01*
X88884Y136927D01*
X88834Y137269D01*
X88805Y137624D01*
X88795Y137992D01*
X88795Y145691D01*
X90459Y145691D01*
X90459Y138088D01*
X90473Y137666D01*
X90516Y137269D01*
X90589Y136899D01*
X90690Y136555D01*
X90820Y136236D01*
X90978Y135944D01*
X91166Y135679D01*
X91383Y135439D01*
X91625Y135226D01*
X91891Y135042D01*
X92180Y134887D01*
X92492Y134759D01*
X92827Y134660D01*
X93185Y134589D01*
X93566Y134547D01*
X93971Y134532D01*
X94364Y134546D01*
X94733Y134587D01*
X95079Y134656D01*
X95401Y134751D01*
X95699Y134875D01*
X95973Y135025D01*
X96223Y135203D01*
X96450Y135408D01*
X96651Y135640D01*
X96825Y135897D01*
X96973Y136180D01*
X97093Y136488D01*
X97187Y136821D01*
X97254Y137180D01*
X97294Y137565D01*
X97308Y137975D01*
X97308Y145691D01*
X98981Y145691D01*
X98981Y137834D01*
X98971Y137477D01*
X98942Y137133D01*
X98893Y136801D01*
X98825Y136481D01*
X98738Y136174D01*
X98631Y135880D01*
X98505Y135598D01*
X98359Y135329D01*
X98196Y135074D01*
X98016Y134835D01*
X97821Y134611D01*
X97610Y134403D01*
X97383Y134211D01*
X97140Y134034D01*
X96882Y133872D01*
X96607Y133727D01*
X96319Y133597D01*
X96018Y133485D01*
X95706Y133390D01*
X95381Y133313D01*
X95044Y133252D01*
X94696Y133209D01*
X94335Y133183D01*
X93962Y133175D01*
G37*
G36*
X44335Y247475D02*
X43842Y247490D01*
X43378Y247535D01*
X42944Y247609D01*
X42539Y247713D01*
X42164Y247848D01*
X41819Y248012D01*
X41503Y248206D01*
X41217Y248430D01*
X40962Y248680D01*
X40742Y248954D01*
X40555Y249251D01*
X40402Y249573D01*
X40283Y249917D01*
X40199Y250285D01*
X40148Y250677D01*
X40131Y251092D01*
X40141Y251390D01*
X40172Y251675D01*
X40223Y251948D01*
X40295Y252208D01*
X40387Y252455D01*
X40500Y252689D01*
X40634Y252911D01*
X40788Y253120D01*
X40821Y253157D01*
X40960Y253313D01*
X41149Y253486D01*
X41354Y253641D01*
X41576Y253776D01*
X41814Y253891D01*
X42068Y253988D01*
X42339Y254065D01*
X42627Y254123D01*
X42627Y254158D01*
X42380Y254217D01*
X42146Y254295D01*
X41925Y254391D01*
X41718Y254506D01*
X41524Y254639D01*
X41362Y254775D01*
X41344Y254790D01*
X41177Y254959D01*
X41024Y255147D01*
X40886Y255349D01*
X40767Y255558D01*
X40666Y255777D01*
X40584Y256003D01*
X40520Y256239D01*
X40474Y256482D01*
X40446Y256735D01*
X40437Y256995D01*
X40454Y257352D01*
X40503Y257689D01*
X40586Y258007D01*
X40701Y258307D01*
X40849Y258588D01*
X41031Y258849D01*
X41245Y259092D01*
X41493Y259316D01*
X41768Y259518D01*
X42068Y259692D01*
X42392Y259839D01*
X42740Y259960D01*
X43111Y260054D01*
X43507Y260121D01*
X43926Y260161D01*
X44370Y260175D01*
X44803Y260161D01*
X45214Y260120D01*
X45602Y260052D01*
X45967Y259956D01*
X46310Y259833D01*
X46630Y259682D01*
X46928Y259504D01*
X47203Y259299D01*
X47451Y259072D01*
X47665Y258828D01*
X47846Y258567D01*
X47995Y258289D01*
X48110Y257995D01*
X48193Y257685D01*
X48242Y257357D01*
X48259Y257013D01*
X48249Y256752D01*
X48222Y256500D01*
X48177Y256256D01*
X48113Y256021D01*
X48031Y255794D01*
X47931Y255576D01*
X47813Y255366D01*
X47676Y255165D01*
X47524Y254976D01*
X47358Y254805D01*
X47180Y254651D01*
X46987Y254515D01*
X46782Y254395D01*
X46564Y254293D01*
X46332Y254208D01*
X46086Y254140D01*
X46086Y254105D01*
X46350Y254051D01*
X46601Y253977D01*
X46840Y253883D01*
X47067Y253768D01*
X47283Y253633D01*
X47486Y253478D01*
X47677Y253302D01*
X47856Y253107D01*
X48018Y252895D01*
X48158Y252671D01*
X48277Y252435D01*
X48375Y252187D01*
X48450Y251927D01*
X48504Y251655D01*
X48537Y251371D01*
X48548Y251075D01*
X48530Y250656D01*
X48478Y250261D01*
X48391Y249891D01*
X48268Y249546D01*
X48111Y249226D01*
X47919Y248930D01*
X47693Y248659D01*
X47431Y248412D01*
X47138Y248192D01*
X46819Y248002D01*
X46472Y247841D01*
X46099Y247709D01*
X45698Y247607D01*
X45271Y247533D01*
X44816Y247490D01*
X44335Y247475D01*
G37*
%LPC*%
G36*
X44317Y248657D02*
X44632Y248667D01*
X44927Y248697D01*
X45201Y248747D01*
X45455Y248817D01*
X45689Y248906D01*
X45902Y249016D01*
X46095Y249145D01*
X46268Y249294D01*
X46421Y249464D01*
X46553Y249653D01*
X46664Y249862D01*
X46756Y250091D01*
X46827Y250340D01*
X46878Y250609D01*
X46908Y250897D01*
X46919Y251206D01*
X46908Y251472D01*
X46876Y251724D01*
X46824Y251961D01*
X46750Y252184D01*
X46655Y252391D01*
X46539Y252585D01*
X46402Y252763D01*
X46244Y252927D01*
X46067Y253074D01*
X45874Y253201D01*
X45664Y253309D01*
X45438Y253397D01*
X45196Y253465D01*
X44937Y253514D01*
X44662Y253543D01*
X44370Y253553D01*
X44070Y253544D01*
X43787Y253517D01*
X43521Y253471D01*
X43273Y253408D01*
X43042Y253326D01*
X42828Y253226D01*
X42631Y253107D01*
X42452Y252971D01*
X42292Y252816D01*
X42153Y252644D01*
X42035Y252455D01*
X41939Y252247D01*
X41865Y252022D01*
X41811Y251779D01*
X41779Y251519D01*
X41769Y251241D01*
X41778Y250915D01*
X41808Y250612D01*
X41857Y250332D01*
X41926Y250075D01*
X42015Y249841D01*
X42123Y249629D01*
X42251Y249441D01*
X42399Y249275D01*
X42567Y249130D01*
X42755Y249005D01*
X42964Y248898D01*
X43194Y248812D01*
X43444Y248744D01*
X43715Y248696D01*
X44006Y248667D01*
X44317Y248657D01*
G37*
G36*
X44352Y254736D02*
X44618Y254744D01*
X44869Y254770D01*
X45104Y254814D01*
X45323Y254875D01*
X45527Y254953D01*
X45716Y255049D01*
X45889Y255161D01*
X46047Y255292D01*
X46188Y255439D01*
X46310Y255601D01*
X46413Y255780D01*
X46497Y255974D01*
X46563Y256184D01*
X46610Y256409D01*
X46638Y256651D01*
X46647Y256908D01*
X46638Y257160D01*
X46611Y257397D01*
X46565Y257617D01*
X46501Y257821D01*
X46419Y258009D01*
X46319Y258181D01*
X46201Y258336D01*
X46065Y258476D01*
X45911Y258599D01*
X45740Y258705D01*
X45553Y258796D01*
X45350Y258870D01*
X45130Y258927D01*
X44893Y258968D01*
X44640Y258993D01*
X44370Y259001D01*
X44092Y258993D01*
X43832Y258968D01*
X43590Y258927D01*
X43366Y258870D01*
X43160Y258797D01*
X42971Y258707D01*
X42801Y258600D01*
X42649Y258478D01*
X42514Y258339D01*
X42398Y258183D01*
X42299Y258012D01*
X42218Y257824D01*
X42156Y257619D01*
X42111Y257398D01*
X42084Y257161D01*
X42075Y256908D01*
X42084Y256631D01*
X42111Y256374D01*
X42157Y256137D01*
X42221Y255919D01*
X42303Y255722D01*
X42403Y255544D01*
X42521Y255386D01*
X42657Y255248D01*
X42811Y255128D01*
X42982Y255024D01*
X43169Y254936D01*
X43372Y254864D01*
X43593Y254808D01*
X43829Y254768D01*
X44082Y254744D01*
X44352Y254736D01*
G37*
%LPD*%
G36*
X55337Y247475D02*
X54888Y247488D01*
X54453Y247527D01*
X54032Y247592D01*
X53625Y247683D01*
X53232Y247800D01*
X52853Y247943D01*
X52487Y248112D01*
X52135Y248307D01*
X51800Y248527D01*
X51484Y248771D01*
X51188Y249038D01*
X50910Y249329D01*
X50652Y249645D01*
X50413Y249984D01*
X50194Y250346D01*
X49994Y250733D01*
X51360Y251416D01*
X51528Y251105D01*
X51707Y250815D01*
X51895Y250544D01*
X52093Y250293D01*
X52302Y250063D01*
X52520Y249852D01*
X52749Y249662D01*
X52987Y249491D01*
X53236Y249341D01*
X53494Y249211D01*
X53763Y249101D01*
X54042Y249010D01*
X54331Y248940D01*
X54630Y248890D01*
X54939Y248860D01*
X55258Y248850D01*
X55751Y248871D01*
X56217Y248936D01*
X56658Y249044D01*
X57072Y249195D01*
X57460Y249389D01*
X57822Y249626D01*
X58158Y249906D01*
X58468Y250229D01*
X58746Y250588D01*
X58987Y250975D01*
X59191Y251389D01*
X59358Y251831D01*
X59488Y252301D01*
X59580Y252799D01*
X59636Y253324D01*
X59655Y253877D01*
X59637Y254436D01*
X59583Y254964D01*
X59494Y255461D01*
X59370Y255928D01*
X59210Y256364D01*
X59014Y256770D01*
X58783Y257145D01*
X58516Y257490D01*
X58217Y257799D01*
X57890Y258067D01*
X57534Y258293D01*
X57150Y258479D01*
X56737Y258623D01*
X56296Y258726D01*
X55826Y258788D01*
X55328Y258808D01*
X55007Y258799D01*
X54698Y258773D01*
X54399Y258728D01*
X54112Y258666D01*
X53835Y258586D01*
X53570Y258488D01*
X53316Y258373D01*
X53073Y258239D01*
X52843Y258089D01*
X52630Y257923D01*
X52433Y257741D01*
X52253Y257543D01*
X52088Y257329D01*
X51940Y257099D01*
X51808Y256854D01*
X51693Y256592D01*
X50108Y257118D01*
X50274Y257485D01*
X50462Y257829D01*
X50673Y258150D01*
X50905Y258447D01*
X51159Y258721D01*
X51435Y258972D01*
X51732Y259200D01*
X52052Y259404D01*
X52393Y259585D01*
X52754Y259741D01*
X53135Y259874D01*
X53537Y259982D01*
X53959Y260066D01*
X54401Y260127D01*
X54863Y260163D01*
X55345Y260175D01*
X55693Y260168D01*
X56031Y260149D01*
X56360Y260116D01*
X56679Y260070D01*
X56988Y260011D01*
X57288Y259939D01*
X57578Y259855D01*
X57859Y259756D01*
X58130Y259645D01*
X58392Y259521D01*
X58644Y259384D01*
X58886Y259234D01*
X59342Y258894D01*
X59760Y258502D01*
X60133Y258064D01*
X60457Y257585D01*
X60731Y257067D01*
X60849Y256793D01*
X60955Y256509D01*
X61049Y256215D01*
X61130Y255911D01*
X61198Y255597D01*
X61254Y255273D01*
X61298Y254939D01*
X61329Y254595D01*
X61348Y254241D01*
X61354Y253877D01*
X61343Y253393D01*
X61309Y252925D01*
X61253Y252474D01*
X61175Y252039D01*
X61075Y251621D01*
X60952Y251219D01*
X60807Y250834D01*
X60640Y250466D01*
X60451Y250116D01*
X60242Y249787D01*
X60013Y249479D01*
X59764Y249192D01*
X59494Y248925D01*
X59205Y248679D01*
X58895Y248454D01*
X58564Y248250D01*
X58216Y248068D01*
X57852Y247911D01*
X57472Y247778D01*
X57076Y247669D01*
X56665Y247584D01*
X56238Y247523D01*
X55795Y247487D01*
X55337Y247475D01*
G37*
G36*
X94626Y175254D02*
X82285Y175254D01*
X82285Y176927D01*
X87409Y176927D01*
X87409Y180772D01*
X82285Y183977D01*
X82285Y185904D01*
X85338Y183892D01*
X87601Y182401D01*
X87673Y182744D01*
X87767Y183068D01*
X87882Y183373D01*
X88019Y183659D01*
X88112Y183815D01*
X88178Y183926D01*
X88358Y184174D01*
X88560Y184403D01*
X88784Y184612D01*
X89025Y184800D01*
X89280Y184963D01*
X89548Y185101D01*
X89830Y185213D01*
X90126Y185301D01*
X90436Y185364D01*
X90759Y185401D01*
X91096Y185414D01*
X91501Y185396D01*
X91882Y185343D01*
X92241Y185254D01*
X92577Y185130D01*
X92890Y184971D01*
X93181Y184776D01*
X93448Y184545D01*
X93693Y184280D01*
X93911Y183981D01*
X94101Y183653D01*
X94261Y183295D01*
X94392Y182908D01*
X94494Y182491D01*
X94567Y182044D01*
X94611Y181567D01*
X94626Y181061D01*
X94626Y175254D01*
G37*
%LPC*%
G36*
X93286Y176927D02*
X93286Y180894D01*
X93277Y181228D01*
X93250Y181542D01*
X93206Y181835D01*
X93144Y182109D01*
X93065Y182362D01*
X92968Y182595D01*
X92853Y182808D01*
X92721Y183001D01*
X92571Y183172D01*
X92406Y183321D01*
X92225Y183446D01*
X92028Y183549D01*
X91814Y183629D01*
X91585Y183686D01*
X91340Y183721D01*
X91078Y183732D01*
X90808Y183721D01*
X90553Y183687D01*
X90314Y183631D01*
X90090Y183551D01*
X89881Y183450D01*
X89688Y183326D01*
X89511Y183179D01*
X89349Y183010D01*
X89204Y182820D01*
X89078Y182611D01*
X88972Y182383D01*
X88885Y182137D01*
X88818Y181872D01*
X88770Y181588D01*
X88741Y181286D01*
X88731Y180964D01*
X88731Y176927D01*
X93286Y176927D01*
G37*
%LPD*%
G36*
X83397Y197591D02*
X82285Y197591D01*
X82285Y205763D01*
X83625Y205763D01*
X83625Y199325D01*
X83934Y199477D01*
X84250Y199671D01*
X84572Y199906D01*
X84899Y200183D01*
X85240Y200507D01*
X85601Y200882D01*
X85982Y201308D01*
X86384Y201786D01*
X87080Y202628D01*
X87678Y203321D01*
X88179Y203867D01*
X88582Y204265D01*
X88937Y204569D01*
X89292Y204833D01*
X89646Y205057D01*
X90001Y205241D01*
X90356Y205385D01*
X90713Y205488D01*
X91070Y205549D01*
X91429Y205570D01*
X91822Y205554D01*
X92193Y205507D01*
X92540Y205429D01*
X92864Y205319D01*
X93165Y205178D01*
X93443Y205006D01*
X93698Y204802D01*
X93929Y204567D01*
X94136Y204303D01*
X94314Y204012D01*
X94466Y203694D01*
X94589Y203348D01*
X94686Y202976D01*
X94755Y202577D01*
X94796Y202151D01*
X94810Y201699D01*
X94796Y201283D01*
X94755Y200888D01*
X94686Y200511D01*
X94591Y200154D01*
X94467Y199816D01*
X94317Y199497D01*
X94139Y199198D01*
X93934Y198918D01*
X93705Y198661D01*
X93458Y198434D01*
X93192Y198234D01*
X92907Y198063D01*
X92603Y197920D01*
X92280Y197805D01*
X91938Y197719D01*
X91578Y197661D01*
X91429Y199272D01*
X91669Y199309D01*
X91896Y199363D01*
X92109Y199434D01*
X92308Y199521D01*
X92493Y199625D01*
X92665Y199746D01*
X92822Y199884D01*
X92966Y200039D01*
X93094Y200208D01*
X93205Y200387D01*
X93299Y200578D01*
X93376Y200780D01*
X93436Y200993D01*
X93479Y201217D01*
X93505Y201452D01*
X93513Y201699D01*
X93505Y201956D01*
X93478Y202199D01*
X93434Y202428D01*
X93373Y202642D01*
X93294Y202842D01*
X93198Y203027D01*
X93084Y203198D01*
X92953Y203354D01*
X92805Y203494D01*
X92644Y203615D01*
X92468Y203717D01*
X92278Y203801D01*
X92074Y203866D01*
X91856Y203912D01*
X91623Y203940D01*
X91376Y203950D01*
X91009Y203928D01*
X90662Y203863D01*
X90335Y203755D01*
X90027Y203604D01*
X89733Y203417D01*
X89445Y203204D01*
X89164Y202964D01*
X88889Y202697D01*
X88346Y202103D01*
X87803Y201440D01*
X87237Y200741D01*
X86625Y200034D01*
X86298Y199684D01*
X85952Y199341D01*
X85588Y199007D01*
X85206Y198681D01*
X84799Y198372D01*
X84362Y198087D01*
X83894Y197826D01*
X83397Y197591D01*
G37*
G36*
X83625Y188086D02*
X82285Y188086D01*
X82285Y195820D01*
X83625Y195820D01*
X83625Y192816D01*
X94626Y192816D01*
X94626Y191362D01*
X92620Y188445D01*
X91131Y188445D01*
X93119Y191231D01*
X83625Y191231D01*
X83625Y188086D01*
G37*
G36*
X57057Y381000D02*
X55131Y381000D01*
X57143Y384053D01*
X58634Y386316D01*
X58291Y386389D01*
X57967Y386482D01*
X57662Y386598D01*
X57376Y386735D01*
X57220Y386827D01*
X57109Y386893D01*
X56861Y387074D01*
X56632Y387275D01*
X56422Y387499D01*
X56235Y387740D01*
X56072Y387995D01*
X55934Y388263D01*
X55821Y388545D01*
X55734Y388841D01*
X55671Y389151D01*
X55634Y389474D01*
X55621Y389811D01*
X55639Y390216D01*
X55692Y390597D01*
X55781Y390956D01*
X55905Y391292D01*
X56064Y391606D01*
X56259Y391896D01*
X56489Y392163D01*
X56755Y392408D01*
X57054Y392627D01*
X57382Y392816D01*
X57740Y392976D01*
X58127Y393108D01*
X58544Y393210D01*
X58991Y393282D01*
X59468Y393326D01*
X59974Y393341D01*
X65781Y393341D01*
X65781Y381000D01*
X64108Y381000D01*
X64108Y386124D01*
X60263Y386124D01*
X57057Y381000D01*
G37*
%LPC*%
G36*
X64108Y387446D02*
X64108Y392001D01*
X60140Y392001D01*
X59807Y391992D01*
X59493Y391965D01*
X59200Y391921D01*
X58926Y391860D01*
X58673Y391780D01*
X58440Y391683D01*
X58227Y391568D01*
X58034Y391436D01*
X57863Y391287D01*
X57714Y391121D01*
X57588Y390940D01*
X57486Y390743D01*
X57406Y390530D01*
X57348Y390300D01*
X57314Y390055D01*
X57303Y389794D01*
X57314Y389523D01*
X57348Y389268D01*
X57404Y389029D01*
X57483Y388805D01*
X57585Y388596D01*
X57709Y388403D01*
X57856Y388226D01*
X58025Y388064D01*
X58215Y387919D01*
X58424Y387794D01*
X58652Y387687D01*
X58898Y387601D01*
X59163Y387533D01*
X59447Y387485D01*
X59749Y387456D01*
X60070Y387446D01*
X64108Y387446D01*
G37*
%LPD*%
G36*
X39345Y380825D02*
X38856Y380840D01*
X38396Y380883D01*
X37965Y380957D01*
X37563Y381059D01*
X37190Y381191D01*
X36846Y381352D01*
X36531Y381542D01*
X36245Y381762D01*
X35990Y382008D01*
X35769Y382279D01*
X35583Y382573D01*
X35430Y382892D01*
X35311Y383235D01*
X35226Y383601D01*
X35175Y383992D01*
X35158Y384407D01*
X35170Y384696D01*
X35207Y384973D01*
X35267Y385237D01*
X35351Y385489D01*
X35460Y385728D01*
X35592Y385954D01*
X35749Y386168D01*
X35929Y386369D01*
X36131Y386554D01*
X36353Y386719D01*
X36593Y386865D01*
X36853Y386991D01*
X37132Y387097D01*
X37430Y387184D01*
X37747Y387250D01*
X38084Y387297D01*
X38084Y387332D01*
X37778Y387406D01*
X37491Y387494D01*
X37222Y387597D01*
X36973Y387715D01*
X36742Y387847D01*
X36529Y387995D01*
X36336Y388158D01*
X36161Y388335D01*
X36006Y388527D01*
X35872Y388733D01*
X35758Y388953D01*
X35665Y389186D01*
X35593Y389433D01*
X35541Y389694D01*
X35510Y389969D01*
X35500Y390258D01*
X35516Y390633D01*
X35564Y390986D01*
X35645Y391318D01*
X35757Y391630D01*
X35902Y391920D01*
X36079Y392188D01*
X36288Y392436D01*
X36529Y392662D01*
X36799Y392864D01*
X37095Y393039D01*
X37417Y393188D01*
X37765Y393309D01*
X38139Y393403D01*
X38538Y393471D01*
X38964Y393511D01*
X39415Y393525D01*
X39830Y393511D01*
X40226Y393472D01*
X40603Y393405D01*
X40960Y393312D01*
X41298Y393193D01*
X41617Y393047D01*
X41916Y392874D01*
X42196Y392675D01*
X42452Y392452D01*
X42680Y392209D01*
X42880Y391944D01*
X43051Y391659D01*
X43194Y391353D01*
X43309Y391026D01*
X43395Y390679D01*
X43453Y390310D01*
X41867Y390188D01*
X41833Y390424D01*
X41781Y390646D01*
X41713Y390855D01*
X41628Y391050D01*
X41526Y391232D01*
X41407Y391400D01*
X41271Y391554D01*
X41119Y391694D01*
X40951Y391819D01*
X40772Y391928D01*
X40580Y392020D01*
X40375Y392095D01*
X40158Y392153D01*
X39929Y392195D01*
X39687Y392220D01*
X39433Y392228D01*
X39155Y392219D01*
X38894Y392193D01*
X38652Y392148D01*
X38426Y392085D01*
X38219Y392004D01*
X38029Y391906D01*
X37857Y391789D01*
X37703Y391655D01*
X37566Y391505D01*
X37448Y391342D01*
X37348Y391166D01*
X37266Y390977D01*
X37202Y390775D01*
X37157Y390560D01*
X37129Y390332D01*
X37120Y390091D01*
X37132Y389849D01*
X37165Y389619D01*
X37221Y389403D01*
X37299Y389201D01*
X37399Y389013D01*
X37522Y388838D01*
X37667Y388676D01*
X37834Y388528D01*
X38022Y388396D01*
X38227Y388281D01*
X38451Y388184D01*
X38694Y388104D01*
X38954Y388042D01*
X39233Y387998D01*
X39529Y387972D01*
X39844Y387963D01*
X40703Y387963D01*
X40703Y386597D01*
X39809Y386597D01*
X39454Y386588D01*
X39121Y386561D01*
X38809Y386517D01*
X38518Y386455D01*
X38249Y386376D01*
X38002Y386279D01*
X37776Y386164D01*
X37571Y386032D01*
X37390Y385884D01*
X37232Y385722D01*
X37099Y385546D01*
X36990Y385356D01*
X36905Y385153D01*
X36845Y384936D01*
X36808Y384705D01*
X36796Y384460D01*
X36807Y384179D01*
X36839Y383917D01*
X36892Y383673D01*
X36966Y383446D01*
X37061Y383237D01*
X37178Y383046D01*
X37316Y382872D01*
X37475Y382717D01*
X37653Y382579D01*
X37846Y382460D01*
X38056Y382359D01*
X38282Y382277D01*
X38524Y382212D01*
X38781Y382167D01*
X39055Y382139D01*
X39345Y382130D01*
X39634Y382138D01*
X39906Y382164D01*
X40163Y382207D01*
X40403Y382267D01*
X40628Y382344D01*
X40836Y382438D01*
X41028Y382549D01*
X41204Y382677D01*
X41364Y382823D01*
X41508Y382985D01*
X41636Y383165D01*
X41748Y383362D01*
X41843Y383575D01*
X41923Y383806D01*
X41986Y384054D01*
X42034Y384319D01*
X43663Y384171D01*
X43596Y383769D01*
X43501Y383394D01*
X43378Y383043D01*
X43226Y382718D01*
X43046Y382418D01*
X42838Y382143D01*
X42601Y381894D01*
X42336Y381670D01*
X42045Y381472D01*
X41730Y381300D01*
X41392Y381155D01*
X41030Y381036D01*
X40644Y380944D01*
X40235Y380878D01*
X39802Y380838D01*
X39345Y380825D01*
G37*
G36*
X52949Y381000D02*
X45215Y381000D01*
X45215Y382340D01*
X48219Y382340D01*
X48219Y393341D01*
X49673Y393341D01*
X52589Y391335D01*
X52589Y389846D01*
X49804Y391834D01*
X49804Y382340D01*
X52949Y382340D01*
X52949Y381000D01*
G37*
G36*
X38007Y139700D02*
X36081Y139700D01*
X38093Y142753D01*
X39584Y145016D01*
X39241Y145089D01*
X38917Y145182D01*
X38612Y145298D01*
X38326Y145435D01*
X38170Y145527D01*
X38059Y145593D01*
X37811Y145774D01*
X37582Y145975D01*
X37372Y146199D01*
X37185Y146440D01*
X37022Y146695D01*
X36884Y146963D01*
X36771Y147245D01*
X36684Y147541D01*
X36621Y147851D01*
X36584Y148174D01*
X36571Y148511D01*
X36589Y148916D01*
X36642Y149297D01*
X36731Y149656D01*
X36855Y149992D01*
X37014Y150306D01*
X37209Y150596D01*
X37439Y150863D01*
X37705Y151108D01*
X38004Y151327D01*
X38332Y151516D01*
X38690Y151676D01*
X39077Y151808D01*
X39494Y151910D01*
X39941Y151982D01*
X40418Y152026D01*
X40924Y152041D01*
X46731Y152041D01*
X46731Y139700D01*
X45058Y139700D01*
X45058Y144824D01*
X41213Y144824D01*
X38007Y139700D01*
G37*
%LPC*%
G36*
X45058Y146146D02*
X45058Y150701D01*
X41090Y150701D01*
X40757Y150692D01*
X40443Y150665D01*
X40150Y150621D01*
X39876Y150560D01*
X39623Y150480D01*
X39390Y150383D01*
X39177Y150268D01*
X38984Y150136D01*
X38813Y149987D01*
X38664Y149821D01*
X38538Y149640D01*
X38436Y149443D01*
X38356Y149230D01*
X38298Y149000D01*
X38264Y148755D01*
X38253Y148494D01*
X38264Y148223D01*
X38298Y147968D01*
X38354Y147729D01*
X38433Y147505D01*
X38535Y147296D01*
X38659Y147103D01*
X38806Y146926D01*
X38975Y146764D01*
X39165Y146619D01*
X39374Y146494D01*
X39602Y146387D01*
X39848Y146301D01*
X40113Y146233D01*
X40397Y146185D01*
X40699Y146156D01*
X41020Y146146D01*
X45058Y146146D01*
G37*
%LPD*%
G36*
X19069Y139700D02*
X17580Y139700D01*
X17580Y142494D01*
X15846Y142494D01*
X15846Y143738D01*
X17580Y143738D01*
X17580Y152041D01*
X19235Y152041D01*
X24885Y143720D01*
X24885Y142494D01*
X19069Y142494D01*
X19069Y139700D01*
G37*
%LPC*%
G36*
X23431Y143738D02*
X23290Y143913D01*
X22817Y144561D01*
X19656Y149221D01*
X19314Y149799D01*
X19069Y150263D01*
X19069Y143738D01*
X23431Y143738D01*
G37*
%LPD*%
G36*
X33899Y139700D02*
X26165Y139700D01*
X26165Y141040D01*
X29169Y141040D01*
X29169Y152041D01*
X30623Y152041D01*
X33539Y150035D01*
X33539Y148546D01*
X30754Y150534D01*
X30754Y141040D01*
X33899Y141040D01*
X33899Y139700D01*
G37*
G36*
X551587Y311150D02*
X543853Y311150D01*
X543853Y312490D01*
X546857Y312490D01*
X546857Y323491D01*
X548311Y323491D01*
X551228Y321485D01*
X551228Y319996D01*
X548443Y321984D01*
X548443Y312490D01*
X551587Y312490D01*
X551587Y311150D01*
G37*
G36*
X557920Y310975D02*
X557508Y310991D01*
X557119Y311039D01*
X556753Y311120D01*
X556409Y311232D01*
X556087Y311377D01*
X555788Y311554D01*
X555511Y311763D01*
X555257Y312004D01*
X555029Y312273D01*
X554832Y312566D01*
X554665Y312884D01*
X554528Y313225D01*
X554421Y313590D01*
X554345Y313979D01*
X554300Y314392D01*
X554285Y314829D01*
X554285Y323491D01*
X558322Y323491D01*
X558322Y322124D01*
X555949Y322124D01*
X555949Y314794D01*
X555957Y314500D01*
X555982Y314226D01*
X556023Y313969D01*
X556080Y313730D01*
X556154Y313510D01*
X556244Y313308D01*
X556351Y313124D01*
X556474Y312959D01*
X556612Y312812D01*
X556761Y312685D01*
X556923Y312577D01*
X557096Y312489D01*
X557282Y312420D01*
X557479Y312372D01*
X557689Y312342D01*
X557911Y312332D01*
X558114Y312341D01*
X558309Y312368D01*
X558495Y312412D01*
X558673Y312475D01*
X558841Y312555D01*
X559001Y312653D01*
X559152Y312768D01*
X559295Y312902D01*
X559426Y313051D01*
X559546Y313214D01*
X559653Y313392D01*
X559748Y313583D01*
X559830Y313788D01*
X559901Y314007D01*
X559958Y314240D01*
X560004Y314487D01*
X561642Y314215D01*
X561559Y313823D01*
X561455Y313456D01*
X561332Y313114D01*
X561189Y312798D01*
X561026Y312507D01*
X560843Y312241D01*
X560641Y312000D01*
X560418Y311785D01*
X560175Y311595D01*
X559913Y311431D01*
X559630Y311291D01*
X559328Y311177D01*
X559006Y311089D01*
X558664Y311025D01*
X558302Y310988D01*
X557920Y310975D01*
G37*
D10*
X61267Y519000D02*
X61267Y497000D01*
X40333Y497000D02*
X40333Y519000D01*
X180259Y391750D02*
X180259Y370250D01*
X200741Y370250D02*
X200741Y391750D01*
X92791Y497250D02*
X92791Y518750D01*
X72309Y518750D02*
X72309Y497250D01*
X294333Y417400D02*
X294333Y395400D01*
X315267Y395400D02*
X315267Y417400D01*
X262809Y417150D02*
X262809Y395650D01*
X283291Y395650D02*
X283291Y417150D01*
X434259Y391750D02*
X434259Y370250D01*
X454741Y370250D02*
X454741Y391750D01*
X454741Y264750D02*
X454741Y243250D01*
X434259Y243250D02*
X434259Y264750D01*
X200741Y264750D02*
X200741Y243250D01*
X180259Y243250D02*
X180259Y264750D01*
X344600Y491183D02*
X366600Y491183D01*
X366600Y512117D02*
X344600Y512117D01*
X328250Y511891D02*
X306750Y511891D01*
X306750Y491409D02*
X328250Y491409D01*
X573733Y417400D02*
X573733Y395400D01*
X594667Y395400D02*
X594667Y417400D01*
X563200Y422991D02*
X541700Y422991D01*
X541700Y402509D02*
X563200Y402509D01*
X573733Y138000D02*
X573733Y116000D01*
X594667Y116000D02*
X594667Y138000D01*
X542209Y137750D02*
X542209Y116250D01*
X562691Y116250D02*
X562691Y137750D01*
X340667Y217600D02*
X340667Y239600D01*
X319733Y239600D02*
X319733Y217600D01*
X372191Y217850D02*
X372191Y239350D01*
X351709Y239350D02*
X351709Y217850D01*
X290400Y143817D02*
X268400Y143817D01*
X268400Y122883D02*
X290400Y122883D01*
X306750Y123109D02*
X328250Y123109D01*
X328250Y143591D02*
X306750Y143591D01*
X61267Y217600D02*
X61267Y239600D01*
X40333Y239600D02*
X40333Y217600D01*
X77885Y211744D02*
X99385Y211744D01*
X99385Y232226D02*
X77885Y232226D01*
X61550Y422991D02*
X40050Y422991D01*
X40050Y402509D02*
X61550Y402509D01*
X21509Y194900D02*
X21509Y173400D01*
X41991Y173400D02*
X41991Y194900D01*
X205500Y288750D02*
X205500Y346250D01*
X205500Y288750D02*
X429500Y288750D01*
X429500Y346250D01*
X205500Y346250D01*
D11*
X436000Y312250D02*
X436002Y312313D01*
X436008Y312375D01*
X436018Y312437D01*
X436031Y312499D01*
X436049Y312559D01*
X436070Y312618D01*
X436095Y312676D01*
X436124Y312732D01*
X436156Y312786D01*
X436191Y312838D01*
X436229Y312887D01*
X436271Y312935D01*
X436315Y312979D01*
X436363Y313021D01*
X436412Y313059D01*
X436464Y313094D01*
X436518Y313126D01*
X436574Y313155D01*
X436632Y313180D01*
X436691Y313201D01*
X436751Y313219D01*
X436813Y313232D01*
X436875Y313242D01*
X436937Y313248D01*
X437000Y313250D01*
X437063Y313248D01*
X437125Y313242D01*
X437187Y313232D01*
X437249Y313219D01*
X437309Y313201D01*
X437368Y313180D01*
X437426Y313155D01*
X437482Y313126D01*
X437536Y313094D01*
X437588Y313059D01*
X437637Y313021D01*
X437685Y312979D01*
X437729Y312935D01*
X437771Y312887D01*
X437809Y312838D01*
X437844Y312786D01*
X437876Y312732D01*
X437905Y312676D01*
X437930Y312618D01*
X437951Y312559D01*
X437969Y312499D01*
X437982Y312437D01*
X437992Y312375D01*
X437998Y312313D01*
X438000Y312250D01*
X437998Y312187D01*
X437992Y312125D01*
X437982Y312063D01*
X437969Y312001D01*
X437951Y311941D01*
X437930Y311882D01*
X437905Y311824D01*
X437876Y311768D01*
X437844Y311714D01*
X437809Y311662D01*
X437771Y311613D01*
X437729Y311565D01*
X437685Y311521D01*
X437637Y311479D01*
X437588Y311441D01*
X437536Y311406D01*
X437482Y311374D01*
X437426Y311345D01*
X437368Y311320D01*
X437309Y311299D01*
X437249Y311281D01*
X437187Y311268D01*
X437125Y311258D01*
X437063Y311252D01*
X437000Y311250D01*
X436937Y311252D01*
X436875Y311258D01*
X436813Y311268D01*
X436751Y311281D01*
X436691Y311299D01*
X436632Y311320D01*
X436574Y311345D01*
X436518Y311374D01*
X436464Y311406D01*
X436412Y311441D01*
X436363Y311479D01*
X436315Y311521D01*
X436271Y311565D01*
X436229Y311613D01*
X436191Y311662D01*
X436156Y311714D01*
X436124Y311768D01*
X436095Y311824D01*
X436070Y311882D01*
X436049Y311941D01*
X436031Y312001D01*
X436018Y312063D01*
X436008Y312125D01*
X436002Y312187D01*
X436000Y312250D01*
M02*
