G04 EAGLE Gerber RS-274X export*
G75*
%MOMM*%
%FSLAX34Y34*%
%LPD*%
%INSoldermask Bottom*%
%IPPOS*%
%AMOC8*
5,1,8,0,0,1.08239X$1,22.5*%
G01*
G04 Define Apertures*
%ADD10C,1.600200*%
%ADD11C,1.422400*%
%ADD12C,1.498600*%
%ADD13R,2.403200X0.803200*%
%ADD14R,1.668500X1.367800*%
%ADD15R,1.623400X1.234400*%
%ADD16C,3.403200*%
%ADD17C,8.703200*%
%ADD18R,1.367800X1.668500*%
%ADD19R,1.234400X1.623400*%
%ADD20R,1.711200X1.711200*%
%ADD21C,1.711200*%
%ADD22C,0.959600*%
D10*
X139700Y412242D03*
X215900Y412242D03*
D11*
X170180Y438150D03*
X170180Y476250D03*
X154940Y438150D03*
X154940Y476250D03*
X185420Y438150D03*
X185420Y476250D03*
X200660Y438150D03*
X200660Y476250D03*
D12*
X241300Y393700D03*
X114300Y393700D03*
X114300Y520700D03*
X241300Y520700D03*
D13*
X114900Y463550D03*
X62900Y463550D03*
X114900Y476250D03*
X114900Y450850D03*
X114900Y438150D03*
X62900Y476250D03*
X62900Y450850D03*
X62900Y438150D03*
D10*
X419100Y412242D03*
X495300Y412242D03*
D11*
X449580Y438150D03*
X449580Y476250D03*
X434340Y438150D03*
X434340Y476250D03*
X464820Y438150D03*
X464820Y476250D03*
X480060Y438150D03*
X480060Y476250D03*
D12*
X520700Y393700D03*
X393700Y393700D03*
X393700Y520700D03*
X520700Y520700D03*
D10*
X495300Y222758D03*
X419100Y222758D03*
D11*
X464820Y196850D03*
X464820Y158750D03*
X480060Y196850D03*
X480060Y158750D03*
X449580Y196850D03*
X449580Y158750D03*
X434340Y196850D03*
X434340Y158750D03*
D12*
X393700Y241300D03*
X520700Y241300D03*
X520700Y114300D03*
X393700Y114300D03*
D10*
X215900Y222758D03*
X139700Y222758D03*
D11*
X185420Y196850D03*
X185420Y158750D03*
X200660Y196850D03*
X200660Y158750D03*
X170180Y196850D03*
X170180Y158750D03*
X154940Y196850D03*
X154940Y158750D03*
D12*
X114300Y241300D03*
X241300Y241300D03*
X241300Y114300D03*
X114300Y114300D03*
D14*
X50800Y499246D03*
X50800Y516754D03*
D15*
X190500Y390195D03*
X190500Y371805D03*
D16*
X317500Y568960D03*
D17*
X317500Y568960D03*
D16*
X568960Y317500D03*
D17*
X568960Y317500D03*
D16*
X317500Y66040D03*
D17*
X317500Y66040D03*
D16*
X66040Y317500D03*
D17*
X66040Y317500D03*
D15*
X82550Y498805D03*
X82550Y517195D03*
D13*
X240700Y450850D03*
X292700Y450850D03*
X240700Y438150D03*
X240700Y463550D03*
X240700Y476250D03*
X292700Y438150D03*
X292700Y463550D03*
X292700Y476250D03*
D14*
X304800Y415154D03*
X304800Y397646D03*
D15*
X273050Y415595D03*
X273050Y397205D03*
X444500Y390195D03*
X444500Y371805D03*
X444500Y244805D03*
X444500Y263195D03*
X190500Y244805D03*
X190500Y263195D03*
D13*
X394300Y463550D03*
X342300Y463550D03*
X394300Y476250D03*
X394300Y450850D03*
X394300Y438150D03*
X342300Y476250D03*
X342300Y450850D03*
X342300Y438150D03*
D18*
X346846Y501650D03*
X364354Y501650D03*
D19*
X326695Y501650D03*
X308305Y501650D03*
D13*
X520100Y450850D03*
X572100Y450850D03*
X520100Y438150D03*
X520100Y463550D03*
X520100Y476250D03*
X572100Y438150D03*
X572100Y463550D03*
X572100Y476250D03*
D14*
X584200Y415154D03*
X584200Y397646D03*
D19*
X561645Y412750D03*
X543255Y412750D03*
D13*
X520100Y171450D03*
X572100Y171450D03*
X520100Y158750D03*
X520100Y184150D03*
X520100Y196850D03*
X572100Y158750D03*
X572100Y184150D03*
X572100Y196850D03*
D14*
X584200Y135754D03*
X584200Y118246D03*
D15*
X552450Y136195D03*
X552450Y117805D03*
D13*
X394300Y184150D03*
X342300Y184150D03*
X394300Y196850D03*
X394300Y171450D03*
X394300Y158750D03*
X342300Y196850D03*
X342300Y171450D03*
X342300Y158750D03*
D14*
X330200Y219846D03*
X330200Y237354D03*
D15*
X361950Y219405D03*
X361950Y237795D03*
D13*
X240700Y171450D03*
X292700Y171450D03*
X240700Y158750D03*
X240700Y184150D03*
X240700Y196850D03*
X292700Y158750D03*
X292700Y184150D03*
X292700Y196850D03*
D18*
X288154Y133350D03*
X270646Y133350D03*
D19*
X308305Y133350D03*
X326695Y133350D03*
D13*
X114900Y184150D03*
X62900Y184150D03*
X114900Y196850D03*
X114900Y171450D03*
X114900Y158750D03*
X62900Y196850D03*
X62900Y171450D03*
X62900Y158750D03*
D14*
X50800Y219846D03*
X50800Y237354D03*
D19*
X79440Y221985D03*
X97830Y221985D03*
X59995Y412750D03*
X41605Y412750D03*
D15*
X31750Y193345D03*
X31750Y174955D03*
D20*
X405000Y312250D03*
D21*
X380000Y312250D03*
X355000Y312250D03*
X330000Y312250D03*
X305000Y312250D03*
X280000Y312250D03*
X255000Y312250D03*
X230000Y312250D03*
D22*
X495300Y476250D03*
X419100Y127000D03*
X139700Y133350D03*
X215900Y476250D03*
X330200Y412750D03*
X139700Y158750D03*
X342900Y133350D03*
X190500Y279400D03*
X361950Y254000D03*
X444500Y279400D03*
X444500Y355600D03*
X552450Y101600D03*
X292100Y501650D03*
X273050Y381000D03*
X190500Y355600D03*
X82550Y533400D03*
X120650Y209550D03*
X527050Y414119D03*
X329184Y340360D03*
X291366Y340388D03*
M02*
